<?xml version="1.0" encoding="UTF-8" standalone="no"?>
<svg
   height="4.1802082in"
   width="10.883333in"
   xml:space="preserve"
   viewBox="0 0 1044.8 401.29996"
   y="0px"
   x="0px"
   id="Layer_2_1_"
   version="1.1"
   xmlns="http://www.w3.org/2000/svg"
   xmlns:svg="http://www.w3.org/2000/svg"
   xmlns:rdf="http://www.w3.org/1999/02/22-rdf-syntax-ns#"
   xmlns:cc="http://creativecommons.org/ns#"
   xmlns:dc="http://purl.org/dc/elements/1.1/"><metadata
   id="metadata181"><rdf:RDF><cc:Work
       rdf:about=""><dc:format>image/svg+xml</dc:format><dc:type
         rdf:resource="http://purl.org/dc/dcmitype/StillImage" /><dc:title /></cc:Work></rdf:RDF></metadata><defs
   id="defs179" />
	<rect width="100%" height="100%" fill="grey"/>
<style
   id="style2"
   type="text/css">
	.st0{fill:#F1F3F4;stroke:#202124;stroke-miterlimit:10;}
	.st1{fill:#4285F4;}
	.st2{fill:#FFFFFF;}
	.st3{font-family:'GoogleSans-Medium';}
	.st4{font-size:16px;}
	.st5{fill:#202124;}
	.st6{fill:#FFFFFF;stroke:#BDC1C6;stroke-miterlimit:10;stroke-dasharray:4,4,4,4;}
	.st7{fill:none;}
	.st8{fill:none;stroke:#4285F4;stroke-miterlimit:10;stroke-dasharray:4,4,4,4;}
	.st9{fill:none;stroke:#4285F4;stroke-miterlimit:10;}
	.st10{fill:#FFFFFF;stroke:#202124;stroke-miterlimit:10;}
	.st11{fill:#3B4043;}
	.st12{fill:none;stroke:#202124;stroke-miterlimit:10;}
	.st13{fill:#EFF1F2;stroke:#202124;stroke-miterlimit:10;}
	.st14{font-family:'GoogleSans-Bold';}
	.st15{font-size:20px;}
</style>
<rect
   id="rect4"
   height="352.29999"
   width="384"
   class="st0"
   y="24.5"
   x="156.29999" />
<rect
   id="rect6"
   height="64"
   width="263.89999"
   class="st1"
   y="88.800003"
   x="180.39999" />
<g
   aria-label="Checkout"
   id="text8"
   class="st2 st3 st4"
   style="font-size:16px;font-family:GoogleSans-Medium;fill:#ffffff"><path
     d="m 285.9538,107.07558 v 1.66406 q -0.79688,-0.74219 -1.70313,-1.10938 -0.89844,-0.36718 -1.91406,-0.36718 -2,0 -3.0625,1.22656 -1.0625,1.21875 -1.0625,3.53125 0,2.30469 1.0625,3.53125 1.0625,1.21875 3.0625,1.21875 1.01562,0 1.91406,-0.36719 0.90625,-0.36719 1.70313,-1.10937 v 1.64843 q -0.82813,0.5625 -1.75782,0.84375 -0.92187,0.28125 -1.95312,0.28125 -2.64844,0 -4.17188,-1.61718 -1.52343,-1.625 -1.52343,-4.42969 0,-2.8125 1.52343,-4.42969 1.52344,-1.625 4.17188,-1.625 1.04687,0 1.96875,0.28125 0.92969,0.27344 1.74219,0.82813 z"
     id="path790387" /><path
     d="m 295.60223,112.55995 v 5.28125 h -1.4375 v -5.23437 q 0,-1.24219 -0.48437,-1.85938 -0.48438,-0.61719 -1.45313,-0.61719 -1.16406,0 -1.83593,0.74219 -0.67188,0.74219 -0.67188,2.02344 v 4.94531 h -1.44531 v -12.15625 h 1.44531 v 4.76563 q 0.51563,-0.78907 1.21094,-1.17969 0.70312,-0.39063 1.61719,-0.39063 1.50781,0 2.28125,0.9375 0.77343,0.92969 0.77343,2.74219 z"
     id="path790389" /><path
     d="m 305.9538,113.10683 v 0.70312 h -6.60938 q 0.0937,1.48438 0.89063,2.26563 0.80468,0.77343 2.23437,0.77343 0.82813,0 1.60156,-0.20312 0.78125,-0.20313 1.54688,-0.60938 v 1.35938 q -0.77344,0.32812 -1.58594,0.5 -0.8125,0.17187 -1.64844,0.17187 -2.09375,0 -3.32031,-1.21875 -1.21875,-1.21875 -1.21875,-3.29687 0,-2.14844 1.15625,-3.40625 1.16406,-1.26563 3.13281,-1.26563 1.76563,0 2.78907,1.14063 1.03125,1.13281 1.03125,3.08594 z m -1.4375,-0.42188 q -0.0156,-1.17969 -0.66407,-1.88281 -0.64062,-0.70313 -1.70312,-0.70313 -1.20313,0 -1.92969,0.67969 -0.71875,0.67969 -0.82812,1.91406 z"
     id="path790391" /><path
     d="m 314.61005,109.42714 v 1.34375 q -0.60938,-0.33594 -1.22657,-0.5 -0.60937,-0.17188 -1.23437,-0.17188 -1.39844,0 -2.17188,0.89063 -0.77343,0.88281 -0.77343,2.48437 0,1.60157 0.77343,2.49219 0.77344,0.88281 2.17188,0.88281 0.625,0 1.23437,-0.16406 0.61719,-0.17187 1.22657,-0.50781 v 1.32812 q -0.60157,0.28125 -1.25,0.42188 -0.64063,0.14062 -1.36719,0.14062 -1.97656,0 -3.14063,-1.24218 -1.16406,-1.24219 -1.16406,-3.35157 0,-2.14062 1.17188,-3.36718 1.17968,-1.22657 3.22656,-1.22657 0.66406,0 1.29687,0.14063 0.63282,0.13281 1.22657,0.40625 z"
     id="path790393" /><path
     d="m 317.05536,105.68495 h 1.44531 v 7.17969 l 4.28906,-3.77344 h 1.83594 l -4.64062,4.09375 4.83593,4.65625 h -1.875 l -4.44531,-4.27344 v 4.27344 h -1.44531 z"
     id="path790395" /><path
     d="m 329.19598,110.09901 q -1.15625,0 -1.82812,0.90625 -0.67188,0.89844 -0.67188,2.46875 0,1.57032 0.66407,2.47657 0.67187,0.89843 1.83593,0.89843 1.14844,0 1.82032,-0.90625 0.67187,-0.90625 0.67187,-2.46875 0,-1.55468 -0.67187,-2.46093 -0.67188,-0.91407 -1.82032,-0.91407 z m 0,-1.21875 q 1.875,0 2.94532,1.21875 1.07031,1.21875 1.07031,3.375 0,2.14844 -1.07031,3.375 -1.07032,1.21875 -2.94532,1.21875 -1.88281,0 -2.95312,-1.21875 -1.0625,-1.22656 -1.0625,-3.375 0,-2.15625 1.0625,-3.375 1.07031,-1.21875 2.95312,-1.21875 z"
     id="path790397" /><path
     d="m 335.44598,114.38808 v -5.29688 h 1.4375 v 5.24219 q 0,1.24219 0.48438,1.86719 0.48437,0.61718 1.45312,0.61718 1.16407,0 1.83594,-0.74218 0.67969,-0.74219 0.67969,-2.02344 v -4.96094 h 1.4375 v 8.75 h -1.4375 v -1.34375 q -0.52344,0.79688 -1.21875,1.1875 -0.6875,0.38281 -1.60156,0.38281 -1.50782,0 -2.28907,-0.9375 -0.78125,-0.9375 -0.78125,-2.74218 z m 3.61719,-5.50782 z"
     id="path790399" /><path
     d="m 347.15692,106.60683 v 2.48437 h 2.96094 v 1.11719 h -2.96094 v 4.75 q 0,1.07031 0.28906,1.375 0.29688,0.30469 1.19532,0.30469 h 1.47656 v 1.20312 h -1.47656 q -1.66407,0 -2.29688,-0.61719 -0.63281,-0.625 -0.63281,-2.26562 v -4.75 h -1.05469 v -1.11719 h 1.05469 v -2.48437 z"
     id="path790401" /></g>
<g
   aria-label="controller"
   id="text10"
   class="st2 st3 st4"
   style="font-size:16px;font-family:GoogleSans-Medium;fill:#ffffff"><path
     d="m 281.75378,128.62714 v 1.34375 q -0.60937,-0.33594 -1.22656,-0.5 -0.60937,-0.17188 -1.23437,-0.17188 -1.39844,0 -2.17188,0.89063 -0.77344,0.88281 -0.77344,2.48437 0,1.60156 0.77344,2.49219 0.77344,0.88281 2.17188,0.88281 0.625,0 1.23437,-0.16406 0.61719,-0.17188 1.22656,-0.50781 v 1.32812 q -0.60156,0.28125 -1.25,0.42188 -0.64062,0.14062 -1.36718,0.14062 -1.97657,0 -3.14063,-1.24219 -1.16406,-1.24218 -1.16406,-3.35156 0,-2.14062 1.17187,-3.36719 1.17969,-1.22656 3.22657,-1.22656 0.66406,0 1.29687,0.14063 0.63281,0.13281 1.22656,0.40625 z"
     id="path790404" /><path
     d="m 287.64441,129.29901 q -1.15625,0 -1.82813,0.90625 -0.67187,0.89844 -0.67187,2.46875 0,1.57031 0.66406,2.47656 0.67188,0.89844 1.83594,0.89844 1.14844,0 1.82031,-0.90625 0.67188,-0.90625 0.67188,-2.46875 0,-1.55469 -0.67188,-2.46094 -0.67187,-0.91406 -1.82031,-0.91406 z m 0,-1.21875 q 1.875,0 2.94531,1.21875 1.07031,1.21875 1.07031,3.375 0,2.14844 -1.07031,3.375 -1.07031,1.21875 -2.94531,1.21875 -1.88281,0 -2.95313,-1.21875 -1.0625,-1.22656 -1.0625,-3.375 0,-2.15625 1.0625,-3.375 1.07032,-1.21875 2.95313,-1.21875 z"
     id="path790406" /><path
     d="m 301.31628,131.75995 v 5.28125 h -1.4375 v -5.23438 q 0,-1.24218 -0.48437,-1.85937 -0.48438,-0.61719 -1.45313,-0.61719 -1.16406,0 -1.83593,0.74219 -0.67188,0.74219 -0.67188,2.02344 v 4.94531 h -1.44531 v -8.75 h 1.44531 v 1.35937 q 0.51563,-0.78906 1.21094,-1.17968 0.70312,-0.39063 1.61719,-0.39063 1.50781,0 2.28125,0.9375 0.77343,0.92969 0.77343,2.74219 z"
     id="path790408" /><path
     d="m 305.60535,125.80682 v 2.48438 h 2.96093 v 1.11719 h -2.96093 v 4.75 q 0,1.07031 0.28906,1.375 0.29687,0.30468 1.19531,0.30468 h 1.47656 v 1.20313 h -1.47656 q -1.66406,0 -2.29687,-0.61719 -0.63282,-0.625 -0.63282,-2.26562 v -4.75 h -1.05468 v -1.11719 h 1.05468 v -2.48438 z"
     id="path790410" /><path
     d="m 315.52722,129.63495 q -0.24219,-0.14063 -0.53125,-0.20313 -0.28125,-0.0703 -0.625,-0.0703 -1.21875,0 -1.875,0.79688 -0.64844,0.78906 -0.64844,2.27343 v 4.60938 h -1.44531 v -8.75 h 1.44531 v 1.35937 q 0.45313,-0.79687 1.17969,-1.17968 0.72656,-0.39063 1.76563,-0.39063 0.14843,0 0.32812,0.0234 0.17969,0.0156 0.39844,0.0547 z"
     id="path790412" /><path
     d="m 320.0741,129.29901 q -1.15625,0 -1.82813,0.90625 -0.67187,0.89844 -0.67187,2.46875 0,1.57031 0.66406,2.47656 0.67187,0.89844 1.83594,0.89844 1.14843,0 1.82031,-0.90625 0.67187,-0.90625 0.67187,-2.46875 0,-1.55469 -0.67187,-2.46094 -0.67188,-0.91406 -1.82031,-0.91406 z m 0,-1.21875 q 1.875,0 2.94531,1.21875 1.07031,1.21875 1.07031,3.375 0,2.14844 -1.07031,3.375 -1.07031,1.21875 -2.94531,1.21875 -1.88282,0 -2.95313,-1.21875 -1.0625,-1.22656 -1.0625,-3.375 0,-2.15625 1.0625,-3.375 1.07031,-1.21875 2.95313,-1.21875 z"
     id="path790414" /><path
     d="m 326.47253,124.88495 h 1.4375 v 12.15625 h -1.4375 z"
     id="path790416" /><path
     d="m 330.91785,124.88495 h 1.4375 v 12.15625 h -1.4375 z"
     id="path790418" /><path
     d="m 342.84753,132.30682 v 0.70313 h -6.60937 q 0.0937,1.48437 0.89062,2.26562 0.80469,0.77344 2.23438,0.77344 0.82812,0 1.60156,-0.20312 0.78125,-0.20313 1.54688,-0.60938 v 1.35938 q -0.77344,0.32812 -1.58594,0.5 -0.8125,0.17187 -1.64844,0.17187 -2.09375,0 -3.32031,-1.21875 -1.21875,-1.21875 -1.21875,-3.29687 0,-2.14844 1.15625,-3.40625 1.16406,-1.26563 3.13281,-1.26563 1.76563,0 2.78906,1.14063 1.03125,1.13281 1.03125,3.08593 z m -1.4375,-0.42187 q -0.0156,-1.17969 -0.66406,-1.88281 -0.64062,-0.70313 -1.70312,-0.70313 -1.20313,0 -1.92969,0.67969 -0.71875,0.67969 -0.82813,1.91406 z"
     id="path790420" /><path
     d="m 350.27722,129.63495 q -0.24219,-0.14063 -0.53125,-0.20313 -0.28125,-0.0703 -0.625,-0.0703 -1.21875,0 -1.875,0.79688 -0.64844,0.78906 -0.64844,2.27343 v 4.60938 h -1.44531 v -8.75 h 1.44531 v 1.35937 q 0.45313,-0.79687 1.17969,-1.17968 0.72656,-0.39063 1.76563,-0.39063 0.14843,0 0.32812,0.0234 0.17969,0.0156 0.39844,0.0547 z"
     id="path790422" /></g>
<g
   aria-label="Checkout"
   id="text12"
   class="st5 st3 st4"
   style="font-size:16px;font-family:GoogleSans-Medium;fill:#202124"><path
     d="m 196.23628,211.08908 v 1.66406 q -0.79687,-0.74218 -1.70312,-1.10937 -0.89844,-0.36719 -1.91407,-0.36719 -2,0 -3.0625,1.22656 -1.0625,1.21875 -1.0625,3.53125 0,2.30469 1.0625,3.53125 1.0625,1.21875 3.0625,1.21875 1.01563,0 1.91407,-0.36718 0.90625,-0.36719 1.70312,-1.10938 v 1.64844 q -0.82812,0.5625 -1.75781,0.84375 -0.92188,0.28125 -1.95313,0.28125 -2.64843,0 -4.17187,-1.61719 -1.52344,-1.625 -1.52344,-4.42969 0,-2.8125 1.52344,-4.42968 1.52344,-1.625 4.17187,-1.625 1.04688,0 1.96875,0.28125 0.92969,0.27343 1.74219,0.82812 z"
     id="path790425" /><path
     d="m 205.88472,216.57346 v 5.28125 h -1.4375 v -5.23438 q 0,-1.24219 -0.48438,-1.85937 -0.48437,-0.61719 -1.45312,-0.61719 -1.16406,0 -1.83594,0.74219 -0.67187,0.74218 -0.67187,2.02343 v 4.94532 h -1.44532 v -12.15625 h 1.44532 v 4.76562 q 0.51562,-0.78906 1.21093,-1.17969 0.70313,-0.39062 1.61719,-0.39062 1.50781,0 2.28125,0.9375 0.77344,0.92969 0.77344,2.74219 z"
     id="path790427" /><path
     d="m 216.23628,217.12033 v 0.70313 h -6.60937 q 0.0937,1.48437 0.89062,2.26562 0.80469,0.77344 2.23438,0.77344 0.82812,0 1.60156,-0.20313 0.78125,-0.20312 1.54687,-0.60937 v 1.35937 q -0.77343,0.32813 -1.58593,0.5 -0.8125,0.17188 -1.64844,0.17188 -2.09375,0 -3.32031,-1.21875 -1.21875,-1.21875 -1.21875,-3.29688 0,-2.14843 1.15625,-3.40625 1.16406,-1.26562 3.13281,-1.26562 1.76562,0 2.78906,1.14062 1.03125,1.13282 1.03125,3.08594 z m -1.4375,-0.42187 q -0.0156,-1.17969 -0.66406,-1.88282 -0.64063,-0.70312 -1.70313,-0.70312 -1.20312,0 -1.92968,0.67969 -0.71875,0.67968 -0.82813,1.91406 z"
     id="path790429" /><path
     d="m 224.89253,213.44064 v 1.34375 q -0.60937,-0.33593 -1.22656,-0.5 -0.60938,-0.17187 -1.23438,-0.17187 -1.39843,0 -2.17187,0.89062 -0.77344,0.88282 -0.77344,2.48438 0,1.60156 0.77344,2.49219 0.77344,0.88281 2.17187,0.88281 0.625,0 1.23438,-0.16406 0.61719,-0.17188 1.22656,-0.50782 v 1.32813 q -0.60156,0.28125 -1.25,0.42187 -0.64062,0.14063 -1.36719,0.14063 -1.97656,0 -3.14062,-1.24219 -1.16406,-1.24219 -1.16406,-3.35156 0,-2.14063 1.17187,-3.36719 1.17969,-1.22656 3.22656,-1.22656 0.66407,0 1.29688,0.14062 0.63281,0.13282 1.22656,0.40625 z"
     id="path790431" /><path
     d="m 227.33784,209.69846 h 1.44532 v 7.17968 l 4.28906,-3.77343 h 1.83594 l -4.64063,4.09375 4.83594,4.65625 h -1.875 l -4.44531,-4.27344 v 4.27344 h -1.44532 z"
     id="path790433" /><path
     d="m 239.47847,214.11252 q -1.15625,0 -1.82813,0.90625 -0.67187,0.89844 -0.67187,2.46875 0,1.57031 0.66406,2.47656 0.67188,0.89844 1.83594,0.89844 1.14844,0 1.82031,-0.90625 0.67188,-0.90625 0.67188,-2.46875 0,-1.55469 -0.67188,-2.46094 -0.67187,-0.91406 -1.82031,-0.91406 z m 0,-1.21875 q 1.875,0 2.94531,1.21875 1.07031,1.21875 1.07031,3.375 0,2.14844 -1.07031,3.375 -1.07031,1.21875 -2.94531,1.21875 -1.88281,0 -2.95313,-1.21875 -1.0625,-1.22656 -1.0625,-3.375 0,-2.15625 1.0625,-3.375 1.07032,-1.21875 2.95313,-1.21875 z"
     id="path790435" /><path
     d="m 245.72847,218.40158 v -5.29687 h 1.4375 v 5.24218 q 0,1.24219 0.48437,1.86719 0.48438,0.61719 1.45313,0.61719 1.16406,0 1.83594,-0.74219 0.67968,-0.74219 0.67968,-2.02344 v -4.96093 h 1.4375 v 8.75 h -1.4375 v -1.34375 q -0.52343,0.79687 -1.21875,1.1875 -0.6875,0.38281 -1.60156,0.38281 -1.50781,0 -2.28906,-0.9375 -0.78125,-0.9375 -0.78125,-2.74219 z m 3.61719,-5.50781 z"
     id="path790437" /><path
     d="m 257.43941,210.62033 v 2.48438 h 2.96093 v 1.11718 h -2.96093 v 4.75 q 0,1.07032 0.28906,1.375 0.29687,0.30469 1.19531,0.30469 h 1.47656 v 1.20313 h -1.47656 q -1.66406,0 -2.29687,-0.61719 -0.63282,-0.625 -0.63282,-2.26563 v -4.75 h -1.05468 v -1.11718 h 1.05468 v -2.48438 z"
     id="path790439" /></g>
<g
   aria-label="Payment"
   id="text14"
   class="st5 st3 st4"
   style="font-size:16px;font-family:GoogleSans-Medium;fill:#202124"><path
     d="m 558.33533,347.42511 v 4.38281 h 1.98437 q 1.10156,0 1.70313,-0.57031 0.60156,-0.57031 0.60156,-1.625 0,-1.04688 -0.60156,-1.61719 -0.60157,-0.57031 -1.70313,-0.57031 z m -1.57813,-1.29688 h 3.5625 q 1.96094,0 2.96094,0.89063 1.00781,0.88281 1.00781,2.59375 0,1.72656 -1.00781,2.60937 -1,0.88282 -2.96094,0.88282 h -1.98437 v 4.6875 h -1.57813 z"
     id="path790442" /><path
     d="m 569.60095,353.39386 q -1.74219,0 -2.41406,0.39844 -0.67188,0.39843 -0.67188,1.35937 0,0.76563 0.5,1.21875 0.50782,0.44531 1.375,0.44531 1.19532,0 1.91407,-0.84375 0.72656,-0.85156 0.72656,-2.25781 v -0.32031 z m 2.86719,-0.59375 v 4.99219 h -1.4375 v -1.32813 q -0.49219,0.79688 -1.22656,1.17969 -0.73438,0.375 -1.79688,0.375 -1.34375,0 -2.14062,-0.75 -0.78907,-0.75781 -0.78907,-2.02344 0,-1.47656 0.98438,-2.22656 0.99219,-0.75 2.95312,-0.75 h 2.01563 v -0.14063 q 0,-0.99218 -0.65625,-1.53125 -0.64844,-0.54687 -1.82813,-0.54687 -0.75,0 -1.46093,0.17969 -0.71094,0.17968 -1.36719,0.53906 v -1.32813 q 0.78906,-0.30468 1.53125,-0.45312 0.74219,-0.15625 1.44531,-0.15625 1.89844,0 2.83594,0.98437 0.9375,0.98438 0.9375,2.98438 z"
     id="path790444" /><path
     d="m 579.0697,358.6048 q -0.60937,1.5625 -1.1875,2.03906 -0.57812,0.47656 -1.54687,0.47656 h -1.14844 v -1.20312 h 0.84375 q 0.59375,0 0.92187,-0.28125 0.32813,-0.28125 0.72657,-1.32813 l 0.25781,-0.65625 -3.53906,-8.60937 h 1.52343 l 2.73438,6.84375 2.73437,-6.84375 h 1.52344 z"
     id="path790446" /><path
     d="m 591.71033,350.72198 q 0.53906,-0.96875 1.28906,-1.42968 0.75,-0.46094 1.76562,-0.46094 1.36719,0 2.10938,0.96094 0.74219,0.95312 0.74219,2.71875 v 5.28125 h -1.44532 v -5.23438 q 0,-1.25781 -0.44531,-1.86719 -0.44531,-0.60937 -1.35937,-0.60937 -1.11719,0 -1.76563,0.74219 -0.64844,0.74218 -0.64844,2.02343 v 4.94532 h -1.44531 v -5.23438 q 0,-1.26562 -0.44531,-1.86719 -0.44531,-0.60937 -1.375,-0.60937 -1.10156,0 -1.75,0.75 -0.64844,0.74219 -0.64844,2.01562 v 4.94532 h -1.44531 v -8.75 h 1.44531 v 1.35937 q 0.49219,-0.80469 1.17969,-1.1875 0.6875,-0.38281 1.63281,-0.38281 0.95313,0 1.61719,0.48437 0.67187,0.48438 0.99219,1.40625 z"
     id="path790448" /><path
     d="m 607.96814,353.05792 v 0.70313 h -6.60938 q 0.0937,1.48437 0.89063,2.26562 0.80469,0.77344 2.23437,0.77344 0.82813,0 1.60157,-0.20313 0.78125,-0.20312 1.54687,-0.60937 v 1.35937 q -0.77344,0.32813 -1.58594,0.5 -0.8125,0.17188 -1.64843,0.17188 -2.09375,0 -3.32032,-1.21875 -1.21875,-1.21875 -1.21875,-3.29688 0,-2.14843 1.15625,-3.40625 1.16407,-1.26562 3.13282,-1.26562 1.76562,0 2.78906,1.14062 1.03125,1.13282 1.03125,3.08594 z m -1.4375,-0.42187 q -0.0156,-1.17969 -0.66406,-1.88282 -0.64063,-0.70312 -1.70313,-0.70312 -1.20312,0 -1.92969,0.67969 -0.71875,0.67968 -0.82812,1.91406 z"
     id="path790450" /><path
     d="m 617.60095,352.51105 v 5.28125 h -1.4375 v -5.23438 q 0,-1.24219 -0.48437,-1.85937 -0.48438,-0.61719 -1.45313,-0.61719 -1.16406,0 -1.83594,0.74219 -0.67187,0.74218 -0.67187,2.02343 v 4.94532 h -1.44531 v -8.75 h 1.44531 v 1.35937 q 0.51562,-0.78906 1.21094,-1.17969 0.70312,-0.39062 1.61718,-0.39062 1.50782,0 2.28125,0.9375 0.77344,0.92969 0.77344,2.74219 z"
     id="path790452" /><path
     d="m 621.89001,346.55792 v 2.48438 h 2.96094 v 1.11718 h -2.96094 v 4.75 q 0,1.07032 0.28907,1.375 0.29687,0.30469 1.19531,0.30469 h 1.47656 v 1.20313 h -1.47656 q -1.66406,0 -2.29688,-0.61719 -0.63281,-0.625 -0.63281,-2.26563 v -4.75 h -1.05469 v -1.11718 h 1.05469 v -2.48438 z"
     id="path790454" /></g>
<g
   aria-label="status"
   id="text16"
   class="st5 st3 st4"
   style="font-size:16px;font-family:GoogleSans-Medium;fill:#202124"><path
     d="m 571.47284,368.50012 v 1.35938 q -0.60938,-0.3125 -1.26563,-0.46875 -0.65625,-0.15625 -1.35937,-0.15625 -1.07031,0 -1.60938,0.32812 -0.53125,0.32813 -0.53125,0.98438 0,0.5 0.38282,0.78906 0.38281,0.28125 1.53906,0.53906 l 0.49219,0.10938 q 1.53125,0.32812 2.17187,0.92968 0.64844,0.59375 0.64844,1.66407 0,1.21875 -0.96875,1.92968 -0.96094,0.71094 -2.64844,0.71094 -0.70312,0 -1.46875,-0.14062 -0.75781,-0.13282 -1.60156,-0.40625 v -1.48438 q 0.79687,0.41406 1.57031,0.625 0.77344,0.20313 1.53125,0.20313 1.01563,0 1.5625,-0.34375 0.54688,-0.35157 0.54688,-0.98438 0,-0.58594 -0.39844,-0.89844 -0.39063,-0.3125 -1.72656,-0.60156 l -0.5,-0.11719 q -1.33594,-0.28125 -1.92969,-0.85937 -0.59375,-0.58594 -0.59375,-1.60156 0,-1.23438 0.875,-1.90625 0.875,-0.67188 2.48437,-0.67188 0.79688,0 1.5,0.11719 0.70313,0.11719 1.29688,0.35156 z"
     id="path790457" /><path
     d="m 575.65253,365.75793 v 2.48438 h 2.96093 v 1.11719 h -2.96093 v 4.75 q 0,1.07031 0.28906,1.375 0.29687,0.30468 1.19531,0.30468 h 1.47656 v 1.20313 h -1.47656 q -1.66406,0 -2.29687,-0.61719 -0.63282,-0.625 -0.63282,-2.26562 v -4.75 h -1.05468 v -1.11719 h 1.05468 v -2.48438 z"
     id="path790459" /><path
     d="m 584.48065,372.59387 q -1.74219,0 -2.41406,0.39844 -0.67188,0.39844 -0.67188,1.35937 0,0.76563 0.5,1.21875 0.50782,0.44532 1.375,0.44532 1.19532,0 1.91407,-0.84375 0.72656,-0.85157 0.72656,-2.25782 v -0.32031 z m 2.86719,-0.59375 v 4.99219 h -1.4375 v -1.32813 q -0.49219,0.79688 -1.22656,1.17969 -0.73438,0.375 -1.79688,0.375 -1.34375,0 -2.14062,-0.75 -0.78907,-0.75781 -0.78907,-2.02344 0,-1.47656 0.98438,-2.22656 0.99219,-0.75 2.95312,-0.75 h 2.01563 v -0.14062 q 0,-0.99219 -0.65625,-1.53125 -0.64844,-0.54688 -1.82813,-0.54688 -0.75,0 -1.46093,0.17969 -0.71094,0.17969 -1.36719,0.53906 v -1.32812 q 0.78906,-0.30469 1.53125,-0.45313 0.74219,-0.15625 1.44531,-0.15625 1.89844,0 2.83594,0.98438 0.9375,0.98437 0.9375,2.98437 z"
     id="path790461" /><path
     d="m 591.73065,365.75793 v 2.48438 h 2.96094 v 1.11719 h -2.96094 v 4.75 q 0,1.07031 0.28906,1.375 0.29688,0.30468 1.19532,0.30468 h 1.47656 v 1.20313 h -1.47656 q -1.66407,0 -2.29688,-0.61719 -0.63281,-0.625 -0.63281,-2.26562 v -4.75 h -1.05469 v -1.11719 h 1.05469 v -2.48438 z"
     id="path790463" /><path
     d="m 596.43378,373.53918 v -5.29687 h 1.4375 v 5.24219 q 0,1.24218 0.48437,1.86718 0.48438,0.61719 1.45313,0.61719 1.16406,0 1.83593,-0.74219 0.67969,-0.74218 0.67969,-2.02343 v -4.96094 h 1.4375 v 8.75 h -1.4375 v -1.34375 q -0.52344,0.79687 -1.21875,1.1875 -0.6875,0.38281 -1.60156,0.38281 -1.50781,0 -2.28906,-0.9375 -0.78125,-0.9375 -0.78125,-2.74219 z m 3.61718,-5.50781 z"
     id="path790465" /><path
     d="m 612.30096,368.50012 v 1.35938 q -0.60937,-0.3125 -1.26562,-0.46875 -0.65625,-0.15625 -1.35938,-0.15625 -1.07031,0 -1.60937,0.32812 -0.53125,0.32813 -0.53125,0.98438 0,0.5 0.38281,0.78906 0.38281,0.28125 1.53906,0.53906 l 0.49219,0.10938 q 1.53125,0.32812 2.17188,0.92968 0.64843,0.59375 0.64843,1.66407 0,1.21875 -0.96875,1.92968 -0.96093,0.71094 -2.64843,0.71094 -0.70313,0 -1.46875,-0.14062 -0.75782,-0.13282 -1.60157,-0.40625 v -1.48438 q 0.79688,0.41406 1.57032,0.625 0.77343,0.20313 1.53125,0.20313 1.01562,0 1.5625,-0.34375 0.54687,-0.35157 0.54687,-0.98438 0,-0.58594 -0.39844,-0.89844 -0.39062,-0.3125 -1.72656,-0.60156 l -0.5,-0.11719 q -1.33594,-0.28125 -1.92969,-0.85937 -0.59375,-0.58594 -0.59375,-1.60156 0,-1.23438 0.875,-1.90625 0.875,-0.67188 2.48438,-0.67188 0.79687,0 1.5,0.11719 0.70312,0.11719 1.29687,0.35156 z"
     id="path790467" /></g>
<g
   aria-label="Process"
   id="text18"
   class="st5 st3 st4"
   style="font-size:16px;font-family:GoogleSans-Medium;fill:#202124"><path
     d="m 561.63953,218.48732 v 4.38281 h 1.98437 q 1.10156,0 1.70313,-0.57031 0.60156,-0.57031 0.60156,-1.625 0,-1.04688 -0.60156,-1.61719 -0.60157,-0.57031 -1.70313,-0.57031 z m -1.57813,-1.29688 h 3.5625 q 1.96094,0 2.96094,0.89063 1.00781,0.88281 1.00781,2.59375 0,1.72656 -1.00781,2.60937 -1,0.88282 -2.96094,0.88282 h -1.98437 v 4.6875 h -1.57813 z"
     id="path790470" /><path
     d="m 574.4364,221.44826 q -0.24219,-0.14063 -0.53125,-0.20313 -0.28125,-0.0703 -0.625,-0.0703 -1.21875,0 -1.875,0.79687 -0.64844,0.78907 -0.64844,2.27344 v 4.60938 h -1.44531 v -8.75 h 1.44531 v 1.35937 q 0.45313,-0.79687 1.17969,-1.17969 0.72656,-0.39062 1.76563,-0.39062 0.14843,0 0.32812,0.0234 0.17969,0.0156 0.39844,0.0547 z"
     id="path790472" /><path
     d="m 578.98328,221.11232 q -1.15625,0 -1.82813,0.90625 -0.67187,0.89844 -0.67187,2.46875 0,1.57031 0.66406,2.47656 0.67187,0.89844 1.83594,0.89844 1.14843,0 1.82031,-0.90625 0.67187,-0.90625 0.67187,-2.46875 0,-1.55469 -0.67187,-2.46094 -0.67188,-0.91406 -1.82031,-0.91406 z m 0,-1.21875 q 1.875,0 2.94531,1.21875 1.07031,1.21875 1.07031,3.375 0,2.14844 -1.07031,3.375 -1.07031,1.21875 -2.94531,1.21875 -1.88282,0 -2.95313,-1.21875 -1.0625,-1.22656 -1.0625,-3.375 0,-2.15625 1.0625,-3.375 1.07031,-1.21875 2.95313,-1.21875 z"
     id="path790474" /><path
     d="m 591.67859,220.44044 v 1.34375 q -0.60938,-0.33593 -1.22656,-0.5 -0.60938,-0.17187 -1.23438,-0.17187 -1.39844,0 -2.17187,0.89062 -0.77344,0.88282 -0.77344,2.48438 0,1.60156 0.77344,2.49219 0.77343,0.88281 2.17187,0.88281 0.625,0 1.23438,-0.16406 0.61718,-0.17188 1.22656,-0.50782 v 1.32813 q -0.60156,0.28125 -1.25,0.42187 -0.64063,0.14063 -1.36719,0.14063 -1.97656,0 -3.14062,-1.24219 -1.16407,-1.24219 -1.16407,-3.35156 0,-2.14063 1.17188,-3.36719 1.17969,-1.22656 3.22656,-1.22656 0.66406,0 1.29688,0.14062 0.63281,0.13282 1.22656,0.40625 z"
     id="path790476" /><path
     d="m 601.66296,224.12013 v 0.70313 h -6.60937 q 0.0937,1.48437 0.89062,2.26562 0.80469,0.77344 2.23438,0.77344 0.82812,0 1.60156,-0.20313 0.78125,-0.20312 1.54688,-0.60937 v 1.35937 q -0.77344,0.32813 -1.58594,0.5 -0.8125,0.17188 -1.64844,0.17188 -2.09375,0 -3.32031,-1.21875 -1.21875,-1.21875 -1.21875,-3.29688 0,-2.14843 1.15625,-3.40625 1.16406,-1.26562 3.13281,-1.26562 1.76563,0 2.78906,1.14062 1.03125,1.13282 1.03125,3.08594 z m -1.4375,-0.42187 q -0.0156,-1.17969 -0.66406,-1.88282 -0.64062,-0.70312 -1.70312,-0.70312 -1.20313,0 -1.92969,0.67969 -0.71875,0.67968 -0.82813,1.91406 z"
     id="path790478" /><path
     d="m 609.60046,220.36232 v 1.35937 q -0.60937,-0.3125 -1.26562,-0.46875 -0.65625,-0.15625 -1.35938,-0.15625 -1.07031,0 -1.60937,0.32813 -0.53125,0.32812 -0.53125,0.98437 0,0.5 0.38281,0.78907 0.38281,0.28125 1.53906,0.53906 l 0.49219,0.10937 q 1.53125,0.32813 2.17188,0.92969 0.64843,0.59375 0.64843,1.66406 0,1.21875 -0.96875,1.92969 -0.96093,0.71094 -2.64843,0.71094 -0.70313,0 -1.46875,-0.14063 -0.75782,-0.13281 -1.60157,-0.40625 v -1.48437 q 0.79688,0.41406 1.57032,0.625 0.77343,0.20312 1.53125,0.20312 1.01562,0 1.5625,-0.34375 0.54687,-0.35156 0.54687,-0.98437 0,-0.58594 -0.39844,-0.89844 -0.39062,-0.3125 -1.72656,-0.60156 l -0.5,-0.11719 q -1.33594,-0.28125 -1.92969,-0.85937 -0.59375,-0.58594 -0.59375,-1.60157 0,-1.23437 0.875,-1.90625 0.875,-0.67187 2.48438,-0.67187 0.79687,0 1.5,0.11719 0.70312,0.11718 1.29687,0.35156 z"
     id="path790480" /><path
     d="m 617.9364,220.36232 v 1.35937 q -0.60937,-0.3125 -1.26562,-0.46875 -0.65625,-0.15625 -1.35938,-0.15625 -1.07031,0 -1.60937,0.32813 -0.53125,0.32812 -0.53125,0.98437 0,0.5 0.38281,0.78907 0.38281,0.28125 1.53906,0.53906 l 0.49219,0.10937 q 1.53125,0.32813 2.17187,0.92969 0.64844,0.59375 0.64844,1.66406 0,1.21875 -0.96875,1.92969 -0.96094,0.71094 -2.64844,0.71094 -0.70312,0 -1.46875,-0.14063 -0.75781,-0.13281 -1.60156,-0.40625 v -1.48437 q 0.79688,0.41406 1.57031,0.625 0.77344,0.20312 1.53125,0.20312 1.01563,0 1.5625,-0.34375 0.54688,-0.35156 0.54688,-0.98437 0,-0.58594 -0.39844,-0.89844 -0.39062,-0.3125 -1.72656,-0.60156 l -0.5,-0.11719 q -1.33594,-0.28125 -1.92969,-0.85937 -0.59375,-0.58594 -0.59375,-1.60157 0,-1.23437 0.875,-1.90625 0.875,-0.67187 2.48438,-0.67187 0.79687,0 1.5,0.11719 0.70312,0.11718 1.29687,0.35156 z"
     id="path790482" /></g>
<g
   aria-label="payment"
   id="text20"
   class="st5 st3 st4"
   style="font-size:16px;font-family:GoogleSans-Medium;fill:#202124"><path
     d="m 558.08954,246.742 v 4.64063 h -1.44531 V 239.3045 h 1.44531 v 1.32813 q 0.45312,-0.78125 1.14062,-1.15625 0.69532,-0.38281 1.65625,-0.38281 1.59375,0 2.58594,1.26562 1,1.26563 1,3.32813 0,2.0625 -1,3.32812 -0.99219,1.26563 -2.58594,1.26563 -0.96093,0 -1.65625,-0.375 -0.6875,-0.38282 -1.14062,-1.16407 z m 4.89062,-3.05468 q 0,-1.58594 -0.65625,-2.48438 -0.64843,-0.90625 -1.78906,-0.90625 -1.14062,0 -1.79687,0.90625 -0.64844,0.89844 -0.64844,2.48438 0,1.58593 0.64844,2.49218 0.65625,0.89844 1.79687,0.89844 1.14063,0 1.78906,-0.89844 0.65625,-0.90625 0.65625,-2.49218 z"
     id="path790485" /><path
     d="m 570.83173,243.65607 q -1.74219,0 -2.41407,0.39843 -0.67187,0.39844 -0.67187,1.35938 0,0.76562 0.5,1.21875 0.50781,0.44531 1.375,0.44531 1.19531,0 1.91406,-0.84375 0.72656,-0.85156 0.72656,-2.25781 v -0.32031 z m 2.86718,-0.59375 v 4.99218 h -1.4375 v -1.32812 q -0.49218,0.79687 -1.22656,1.17969 -0.73437,0.375 -1.79687,0.375 -1.34375,0 -2.14063,-0.75 -0.78906,-0.75782 -0.78906,-2.02344 0,-1.47656 0.98437,-2.22656 0.99219,-0.75 2.95313,-0.75 h 2.01562 v -0.14063 q 0,-0.99219 -0.65625,-1.53125 -0.64843,-0.54687 -1.82812,-0.54687 -0.75,0 -1.46094,0.17968 -0.71094,0.17969 -1.36719,0.53907 v -1.32813 q 0.78907,-0.30469 1.53125,-0.45312 0.74219,-0.15625 1.44532,-0.15625 1.89843,0 2.83593,0.98437 0.9375,0.98438 0.9375,2.98438 z"
     id="path790487" /><path
     d="m 580.30048,248.867 q -0.60938,1.5625 -1.1875,2.03907 -0.57813,0.47656 -1.54688,0.47656 h -1.14844 v -1.20313 h 0.84375 q 0.59375,0 0.92188,-0.28125 0.32812,-0.28125 0.72656,-1.32812 l 0.25781,-0.65625 -3.53906,-8.60938 h 1.52344 l 2.73437,6.84375 2.73438,-6.84375 h 1.52344 z"
     id="path790489" /><path
     d="m 592.9411,240.98419 q 0.53906,-0.96875 1.28906,-1.42969 0.75,-0.46093 1.76563,-0.46093 1.36719,0 2.10937,0.96093 0.74219,0.95313 0.74219,2.71875 v 5.28125 h -1.44531 v -5.23437 q 0,-1.25781 -0.44531,-1.86719 -0.44532,-0.60937 -1.35938,-0.60937 -1.11719,0 -1.76562,0.74218 -0.64844,0.74219 -0.64844,2.02344 v 4.94531 h -1.44531 v -5.23437 q 0,-1.26563 -0.44532,-1.86719 -0.44531,-0.60937 -1.375,-0.60937 -1.10156,0 -1.75,0.75 -0.64843,0.74218 -0.64843,2.01562 v 4.94531 h -1.44532 v -8.75 h 1.44532 v 1.35938 q 0.49218,-0.80469 1.17968,-1.1875 0.6875,-0.38281 1.63282,-0.38281 0.95312,0 1.61718,0.48437 0.67188,0.48438 0.99219,1.40625 z"
     id="path790491" /><path
     d="m 609.19891,243.32013 v 0.70312 h -6.60937 q 0.0937,1.48438 0.89062,2.26563 0.80469,0.77344 2.23438,0.77344 0.82812,0 1.60156,-0.20313 0.78125,-0.20312 1.54688,-0.60937 v 1.35937 q -0.77344,0.32813 -1.58594,0.5 -0.8125,0.17188 -1.64844,0.17188 -2.09375,0 -3.32031,-1.21875 -1.21875,-1.21875 -1.21875,-3.29688 0,-2.14844 1.15625,-3.40625 1.16406,-1.26562 3.13281,-1.26562 1.76563,0 2.78906,1.14062 1.03125,1.13281 1.03125,3.08594 z m -1.4375,-0.42188 q -0.0156,-1.17968 -0.66406,-1.88281 -0.64062,-0.70312 -1.70312,-0.70312 -1.20313,0 -1.92969,0.67968 -0.71875,0.67969 -0.82813,1.91407 z"
     id="path790493" /><path
     d="m 618.83173,242.77325 v 5.28125 h -1.4375 v -5.23437 q 0,-1.24219 -0.48438,-1.85938 -0.48437,-0.61718 -1.45312,-0.61718 -1.16407,0 -1.83594,0.74218 -0.67188,0.74219 -0.67188,2.02344 v 4.94531 h -1.44531 v -8.75 h 1.44531 v 1.35938 q 0.51563,-0.78906 1.21094,-1.17969 0.70313,-0.39062 1.61719,-0.39062 1.50781,0 2.28125,0.9375 0.77344,0.92968 0.77344,2.74218 z"
     id="path790495" /><path
     d="m 623.12079,236.82013 v 2.48437 h 2.96094 v 1.11719 h -2.96094 v 4.75 q 0,1.07031 0.28906,1.375 0.29688,0.30469 1.19531,0.30469 h 1.47657 v 1.20312 h -1.47657 q -1.66406,0 -2.29687,-0.61718 -0.63281,-0.625 -0.63281,-2.26563 v -4.75 h -1.05469 v -1.11719 h 1.05469 v -2.48437 z"
     id="path790497" /></g>
<g
   aria-label="Order"
   id="text22"
   class="st5 st3 st4"
   style="font-size:16px;font-family:GoogleSans-Medium;fill:#202124"><path
     d="m 469.00049,254.19876 q -1.71875,0 -2.73438,1.28125 -1.00781,1.28125 -1.00781,3.49219 0,2.20312 1.00781,3.48437 1.01563,1.28125 2.73438,1.28125 1.71875,0 2.71875,-1.28125 1.00781,-1.28125 1.00781,-3.48437 0,-2.21094 -1.00781,-3.49219 -1,-1.28125 -2.71875,-1.28125 z m 0,-1.28125 q 2.45312,0 3.92187,1.64844 1.46875,1.64062 1.46875,4.40625 0,2.75781 -1.46875,4.40625 -1.46875,1.64062 -3.92187,1.64062 -2.46094,0 -3.9375,-1.64062 -1.46875,-1.64063 -1.46875,-4.40625 0,-2.76563 1.46875,-4.40625 1.47656,-1.64844 3.9375,-1.64844 z"
     id="path790500" /><path
     d="m 481.86768,257.38626 q -0.24219,-0.14062 -0.53125,-0.20312 -0.28125,-0.0703 -0.625,-0.0703 -1.21875,0 -1.875,0.79688 -0.64844,0.78906 -0.64844,2.27344 v 4.60937 h -1.44531 v -8.75 h 1.44531 v 1.35938 q 0.45312,-0.79688 1.17969,-1.17969 0.72656,-0.39063 1.76562,-0.39063 0.14844,0 0.32813,0.0234 0.17968,0.0156 0.39843,0.0547 z"
     id="path790502" /><path
     d="m 488.85205,257.37064 v -4.73438 h 1.4375 v 12.15625 h -1.4375 v -1.3125 q -0.45312,0.78125 -1.14844,1.16406 -0.6875,0.375 -1.65625,0.375 -1.58593,0 -2.58593,-1.26562 -0.99219,-1.26563 -0.99219,-3.32813 0,-2.0625 0.99219,-3.32812 1,-1.26563 2.58593,-1.26563 0.96875,0 1.65625,0.38282 0.69532,0.375 1.14844,1.15625 z m -4.89844,3.05468 q 0,1.58594 0.64844,2.49219 0.65625,0.89844 1.79688,0.89844 1.14062,0 1.79687,-0.89844 0.65625,-0.90625 0.65625,-2.49219 0,-1.58593 -0.65625,-2.48437 -0.65625,-0.90625 -1.79687,-0.90625 -1.14063,0 -1.79688,0.90625 -0.64844,0.89844 -0.64844,2.48437 z"
     id="path790504" /><path
     d="m 500.73486,260.05814 v 0.70312 h -6.60937 q 0.0937,1.48438 0.89062,2.26563 0.80469,0.77343 2.23438,0.77343 0.82812,0 1.60156,-0.20312 0.78125,-0.20313 1.54688,-0.60938 v 1.35938 q -0.77344,0.32812 -1.58594,0.5 -0.8125,0.17187 -1.64844,0.17187 -2.09375,0 -3.32031,-1.21875 -1.21875,-1.21875 -1.21875,-3.29687 0,-2.14844 1.15625,-3.40625 1.16406,-1.26563 3.13281,-1.26563 1.76563,0 2.78906,1.14063 1.03125,1.13281 1.03125,3.08594 z m -1.4375,-0.42188 q -0.0156,-1.17969 -0.66406,-1.88281 -0.64062,-0.70313 -1.70312,-0.70313 -1.20313,0 -1.92969,0.67969 -0.71875,0.67969 -0.82813,1.91406 z"
     id="path790506" /><path
     d="m 508.16455,257.38626 q -0.24219,-0.14062 -0.53125,-0.20312 -0.28125,-0.0703 -0.625,-0.0703 -1.21875,0 -1.875,0.79688 -0.64844,0.78906 -0.64844,2.27344 v 4.60937 h -1.44531 v -8.75 h 1.44531 v 1.35938 q 0.45313,-0.79688 1.17969,-1.17969 0.72656,-0.39063 1.76563,-0.39063 0.14843,0 0.32812,0.0234 0.17969,0.0156 0.39844,0.0547 z"
     id="path790508" /></g>
<g
   aria-label="details"
   id="text24"
   class="st5 st3 st4"
   style="font-size:16px;font-family:GoogleSans-Medium;fill:#202124"><path
     d="m 466.86142,276.57062 v -4.73438 h 1.4375 v 12.15625 h -1.4375 v -1.3125 q -0.45313,0.78125 -1.14844,1.16407 -0.6875,0.375 -1.65625,0.375 -1.58594,0 -2.58594,-1.26563 -0.99218,-1.26562 -0.99218,-3.32812 0,-2.0625 0.99218,-3.32813 1,-1.26562 2.58594,-1.26562 0.96875,0 1.65625,0.38281 0.69531,0.375 1.14844,1.15625 z m -4.89844,3.05469 q 0,1.58593 0.64844,2.49218 0.65625,0.89844 1.79687,0.89844 1.14063,0 1.79688,-0.89844 0.65625,-0.90625 0.65625,-2.49218 0,-1.58594 -0.65625,-2.48438 -0.65625,-0.90625 -1.79688,-0.90625 -1.14062,0 -1.79687,0.90625 -0.64844,0.89844 -0.64844,2.48438 z"
     id="path790511" /><path
     d="m 478.74423,279.25812 v 0.70312 h -6.60937 q 0.0937,1.48438 0.89062,2.26563 0.80469,0.77344 2.23438,0.77344 0.82812,0 1.60156,-0.20313 0.78125,-0.20312 1.54687,-0.60937 v 1.35937 q -0.77343,0.32813 -1.58593,0.5 -0.8125,0.17188 -1.64844,0.17188 -2.09375,0 -3.32031,-1.21875 -1.21875,-1.21875 -1.21875,-3.29688 0,-2.14844 1.15625,-3.40625 1.16406,-1.26562 3.13281,-1.26562 1.76562,0 2.78906,1.14062 1.03125,1.13281 1.03125,3.08594 z m -1.4375,-0.42188 q -0.0156,-1.17968 -0.66406,-1.88281 -0.64063,-0.70312 -1.70313,-0.70312 -1.20312,0 -1.92968,0.67968 -0.71875,0.67969 -0.82813,1.91407 z"
     id="path790513" /><path
     d="m 482.52548,272.75812 v 2.48437 h 2.96094 v 1.11719 h -2.96094 v 4.75 q 0,1.07031 0.28906,1.375 0.29688,0.30469 1.19532,0.30469 h 1.47656 v 1.20312 h -1.47656 q -1.66407,0 -2.29688,-0.61718 -0.63281,-0.625 -0.63281,-2.26563 v -4.75 h -1.05469 v -1.11719 h 1.05469 v -2.48437 z"
     id="path790515" /><path
     d="m 491.35361,279.59406 q -1.74219,0 -2.41407,0.39843 -0.67187,0.39844 -0.67187,1.35938 0,0.76562 0.5,1.21875 0.50781,0.44531 1.375,0.44531 1.19531,0 1.91406,-0.84375 0.72656,-0.85156 0.72656,-2.25781 v -0.32031 z m 2.86718,-0.59375 v 4.99218 h -1.4375 v -1.32812 q -0.49218,0.79687 -1.22656,1.17969 -0.73437,0.375 -1.79687,0.375 -1.34375,0 -2.14063,-0.75 -0.78906,-0.75782 -0.78906,-2.02344 0,-1.47656 0.98437,-2.22656 0.99219,-0.75 2.95313,-0.75 h 2.01562 v -0.14063 q 0,-0.99219 -0.65625,-1.53125 -0.64843,-0.54687 -1.82812,-0.54687 -0.75,0 -1.46094,0.17968 -0.71094,0.17969 -1.36719,0.53907 v -1.32813 q 0.78907,-0.30469 1.53125,-0.45312 0.74219,-0.15625 1.44532,-0.15625 1.89843,0 2.83593,0.98437 0.9375,0.98438 0.9375,2.98438 z"
     id="path790517" /><path
     d="m 497.18173,275.24249 h 1.4375 v 8.75 h -1.4375 z m 0,-3.40625 h 1.4375 v 1.82032 h -1.4375 z"
     id="path790519" /><path
     d="m 501.62704,271.83624 h 1.4375 v 12.15625 h -1.4375 z"
     id="path790521" /><path
     d="m 511.65048,275.50031 v 1.35937 q -0.60937,-0.3125 -1.26562,-0.46875 -0.65625,-0.15625 -1.35938,-0.15625 -1.07031,0 -1.60937,0.32813 -0.53125,0.32812 -0.53125,0.98437 0,0.5 0.38281,0.78906 0.38281,0.28125 1.53906,0.53907 l 0.49219,0.10937 q 1.53125,0.32813 2.17187,0.92969 0.64844,0.59375 0.64844,1.66406 0,1.21875 -0.96875,1.92969 -0.96094,0.71094 -2.64844,0.71094 -0.70312,0 -1.46875,-0.14063 -0.75781,-0.13281 -1.60156,-0.40625 v -1.48437 q 0.79688,0.41406 1.57031,0.625 0.77344,0.20312 1.53125,0.20312 1.01563,0 1.5625,-0.34375 0.54688,-0.35156 0.54688,-0.98437 0,-0.58594 -0.39844,-0.89844 -0.39062,-0.3125 -1.72656,-0.60156 l -0.5,-0.11719 q -1.33594,-0.28125 -1.92969,-0.85938 -0.59375,-0.58593 -0.59375,-1.60156 0,-1.23437 0.875,-1.90625 0.875,-0.67187 2.48438,-0.67187 0.79687,0 1.5,0.11718 0.70312,0.11719 1.29687,0.35157 z"
     id="path790523" /></g>
<g
   aria-label="Ack"
   id="text26"
   class="st5 st3 st4"
   style="font-size:16px;font-family:GoogleSans-Medium;fill:#202124"><path
     d="m 213.75185,259.98813 -2.14063,5.80469 h 4.28906 z m -0.89063,-1.55469 h 1.78906 l 4.44532,11.66406 h -1.64063 l -1.0625,-2.99218 h -5.25781 l -1.0625,2.99218 h -1.66406 z"
     id="path790526" /><path
     d="m 226.75185,261.68344 v 1.34375 q -0.60938,-0.33594 -1.22657,-0.5 -0.60937,-0.17187 -1.23437,-0.17187 -1.39844,0 -2.17188,0.89062 -0.77343,0.88281 -0.77343,2.48438 0,1.60156 0.77343,2.49218 0.77344,0.88282 2.17188,0.88282 0.625,0 1.23437,-0.16407 0.61719,-0.17187 1.22657,-0.50781 v 1.32813 q -0.60157,0.28125 -1.25,0.42187 -0.64063,0.14063 -1.36719,0.14063 -1.97656,0 -3.14063,-1.24219 -1.16406,-1.24219 -1.16406,-3.35156 0,-2.14063 1.17188,-3.36719 1.17968,-1.22656 3.22656,-1.22656 0.66406,0 1.29687,0.14062 0.63282,0.13281 1.22657,0.40625 z"
     id="path790528" /><path
     d="m 229.19716,257.94125 h 1.44531 v 7.17969 l 4.28906,-3.77344 h 1.83594 l -4.64062,4.09375 4.83593,4.65625 h -1.875 l -4.44531,-4.27343 v 4.27343 h -1.44531 z"
     id="path790530" /></g>
<g
   aria-label="Frontend"
   id="text28"
   class="st5 st3 st4"
   style="font-size:16px;font-family:GoogleSans-Medium;fill:#202124"><path
     d="m 180.84471,45.128639 h 6.70313 v 1.328125 h -5.125 v 3.4375 h 4.625 v 1.328125 h -4.625 v 5.570313 h -1.57813 z"
     id="path790533" /><path
     d="m 193.89159,49.386452 q -0.24219,-0.140625 -0.53125,-0.203125 -0.28125,-0.07031 -0.625,-0.07031 -1.21875,0 -1.875,0.796875 -0.64844,0.789063 -0.64844,2.273438 v 4.609375 h -1.44531 v -8.75 h 1.44531 v 1.359375 q 0.45312,-0.796875 1.17969,-1.179688 0.72656,-0.390625 1.76562,-0.390625 0.14844,0 0.32813,0.02344 0.17968,0.01563 0.39843,0.05469 z"
     id="path790535" /><path
     d="m 198.43846,49.050514 q -1.15625,0 -1.82812,0.90625 -0.67188,0.898438 -0.67188,2.46875 0,1.570313 0.66406,2.476563 0.67188,0.898437 1.83594,0.898437 1.14844,0 1.82031,-0.90625 0.67188,-0.90625 0.67188,-2.46875 0,-1.554687 -0.67188,-2.460937 -0.67187,-0.914063 -1.82031,-0.914063 z m 0,-1.21875 q 1.875,0 2.94531,1.21875 1.07032,1.21875 1.07032,3.375 0,2.148438 -1.07032,3.375 -1.07031,1.21875 -2.94531,1.21875 -1.88281,0 -2.95312,-1.21875 -1.0625,-1.226562 -1.0625,-3.375 0,-2.15625 1.0625,-3.375 1.07031,-1.21875 2.95312,-1.21875 z"
     id="path790537" /><path
     d="m 212.11034,51.511452 v 5.28125 h -1.4375 v -5.234375 q 0,-1.242188 -0.48438,-1.859375 -0.48437,-0.617188 -1.45312,-0.617188 -1.16407,0 -1.83594,0.742188 -0.67188,0.742187 -0.67188,2.023437 v 4.945313 h -1.44531 v -8.75 h 1.44531 v 1.359375 q 0.51563,-0.789063 1.21094,-1.179688 0.70313,-0.390625 1.61719,-0.390625 1.50781,0 2.28125,0.9375 0.77344,0.929688 0.77344,2.742188 z"
     id="path790539" /><path
     d="m 216.3994,45.558327 v 2.484375 h 2.96094 v 1.117187 h -2.96094 v 4.75 q 0,1.070313 0.28906,1.375 0.29688,0.304688 1.19531,0.304688 h 1.47657 v 1.203125 h -1.47657 q -1.66406,0 -2.29687,-0.617188 -0.63281,-0.625 -0.63281,-2.265625 v -4.75 h -1.05469 v -1.117187 h 1.05469 v -2.484375 z"
     id="path790541" /><path
     d="m 228.73534,52.058327 v 0.703125 h -6.60938 q 0.0937,1.484375 0.89063,2.265625 0.80468,0.773437 2.23437,0.773437 0.82813,0 1.60156,-0.203125 0.78125,-0.203125 1.54688,-0.609375 v 1.359375 q -0.77344,0.328125 -1.58594,0.5 -0.8125,0.171875 -1.64844,0.171875 -2.09375,0 -3.32031,-1.21875 -1.21875,-1.21875 -1.21875,-3.296875 0,-2.148437 1.15625,-3.40625 1.16406,-1.265625 3.13281,-1.265625 1.76563,0 2.78907,1.140625 1.03125,1.132813 1.03125,3.085938 z m -1.4375,-0.421875 q -0.0156,-1.179688 -0.66407,-1.882813 -0.64062,-0.703125 -1.70312,-0.703125 -1.20313,0 -1.92969,0.679688 -0.71875,0.679687 -0.82812,1.914062 z"
     id="path790543" /><path
     d="m 238.36815,51.511452 v 5.28125 h -1.4375 v -5.234375 q 0,-1.242188 -0.48438,-1.859375 -0.48437,-0.617188 -1.45312,-0.617188 -1.16406,0 -1.83594,0.742188 -0.67187,0.742187 -0.67187,2.023437 v 4.945313 h -1.44532 v -8.75 h 1.44532 v 1.359375 q 0.51562,-0.789063 1.21093,-1.179688 0.70313,-0.390625 1.61719,-0.390625 1.50781,0 2.28125,0.9375 0.77344,0.929688 0.77344,2.742188 z"
     id="path790545" /><path
     d="m 246.99315,49.370827 v -4.734375 h 1.4375 v 12.15625 h -1.4375 v -1.3125 q -0.45313,0.78125 -1.14844,1.164062 -0.6875,0.375 -1.65625,0.375 -1.58594,0 -2.58594,-1.265625 -0.99218,-1.265625 -0.99218,-3.328125 0,-2.0625 0.99218,-3.328125 1,-1.265625 2.58594,-1.265625 0.96875,0 1.65625,0.382813 0.69531,0.375 1.14844,1.15625 z m -4.89844,3.054687 q 0,1.585938 0.64844,2.492188 0.65625,0.898437 1.79687,0.898437 1.14063,0 1.79688,-0.898437 0.65625,-0.90625 0.65625,-2.492188 0,-1.585937 -0.65625,-2.484375 -0.65625,-0.90625 -1.79688,-0.90625 -1.14062,0 -1.79687,0.90625 -0.64844,0.898438 -0.64844,2.484375 z"
     id="path790547" /></g>
<rect
   id="rect30"
   height="352.29999"
   width="384"
   class="st0"
   y="24.5"
   x="636.29999" />
<rect
   id="rect32"
   height="64"
   width="263.89999"
   class="st1"
   y="88.800003"
   x="660.39996" />
<g
   aria-label="Payment"
   id="text34"
   class="st2 st3 st4"
   style="font-size:16px;font-family:GoogleSans-Medium;fill:#ffffff"><path
     d="m 762.38995,107.47401 v 4.38282 h 1.98438 q 1.10156,0 1.70312,-0.57032 0.60157,-0.57031 0.60157,-1.625 0,-1.04687 -0.60157,-1.61718 -0.60156,-0.57032 -1.70312,-0.57032 z m -1.57812,-1.29687 h 3.5625 q 1.96094,0 2.96094,0.89062 1.00781,0.88282 1.00781,2.59375 0,1.72657 -1.00781,2.60938 -1,0.88281 -2.96094,0.88281 h -1.98438 v 4.6875 h -1.57812 z"
     id="path790550" /><path
     d="m 773.65558,113.44276 q -1.74219,0 -2.41406,0.39844 -0.67188,0.39844 -0.67188,1.35938 0,0.76562 0.5,1.21875 0.50781,0.44531 1.375,0.44531 1.19531,0 1.91406,-0.84375 0.72657,-0.85156 0.72657,-2.25781 v -0.32032 z m 2.86719,-0.59375 v 4.99219 h -1.4375 v -1.32812 q -0.49219,0.79687 -1.22657,1.17968 -0.73437,0.375 -1.79687,0.375 -1.34375,0 -2.14063,-0.75 -0.78906,-0.75781 -0.78906,-2.02343 0,-1.47657 0.98438,-2.22657 0.99218,-0.75 2.95312,-0.75 h 2.01563 v -0.14062 q 0,-0.99219 -0.65625,-1.53125 -0.64844,-0.54688 -1.82813,-0.54688 -0.75,0 -1.46094,0.17969 -0.71093,0.17969 -1.36718,0.53906 v -1.32812 q 0.78906,-0.30469 1.53125,-0.45313 0.74218,-0.15625 1.44531,-0.15625 1.89844,0 2.83594,0.98438 0.9375,0.98437 0.9375,2.98437 z"
     id="path790552" /><path
     d="m 783.12433,118.6537 q -0.60938,1.5625 -1.1875,2.03906 -0.57813,0.47657 -1.54688,0.47657 h -1.14843 v -1.20313 h 0.84375 q 0.59375,0 0.92187,-0.28125 0.32813,-0.28125 0.72656,-1.32812 l 0.25782,-0.65625 -3.53907,-8.60938 h 1.52344 l 2.73438,6.84375 2.73437,-6.84375 h 1.52344 z"
     id="path790554" /><path
     d="m 795.76495,110.77089 q 0.53907,-0.96875 1.28907,-1.42969 0.75,-0.46094 1.76562,-0.46094 1.36719,0 2.10938,0.96094 0.74218,0.95313 0.74218,2.71875 v 5.28125 h -1.44531 v -5.23437 q 0,-1.25782 -0.44531,-1.86719 -0.44531,-0.60938 -1.35938,-0.60938 -1.11718,0 -1.76562,0.74219 -0.64844,0.74219 -0.64844,2.02344 v 4.94531 h -1.44531 v -5.23437 q 0,-1.26563 -0.44531,-1.86719 -0.44532,-0.60938 -1.375,-0.60938 -1.10157,0 -1.75,0.75 -0.64844,0.74219 -0.64844,2.01563 v 4.94531 h -1.44531 v -8.75 h 1.44531 v 1.35938 q 0.49219,-0.80469 1.17969,-1.1875 0.6875,-0.38282 1.63281,-0.38282 0.95312,0 1.61719,0.48438 0.67187,0.48437 0.99218,1.40625 z"
     id="path790556" /><path
     d="m 812.02277,113.10683 v 0.70312 h -6.60938 q 0.0937,1.48438 0.89063,2.26563 0.80468,0.77343 2.23437,0.77343 0.82813,0 1.60156,-0.20312 0.78125,-0.20313 1.54688,-0.60938 v 1.35938 q -0.77344,0.32812 -1.58594,0.5 -0.8125,0.17187 -1.64844,0.17187 -2.09375,0 -3.32031,-1.21875 -1.21875,-1.21875 -1.21875,-3.29687 0,-2.14844 1.15625,-3.40625 1.16406,-1.26563 3.13281,-1.26563 1.76563,0 2.78907,1.14063 1.03125,1.13281 1.03125,3.08594 z m -1.4375,-0.42188 q -0.0156,-1.17969 -0.66407,-1.88281 -0.64062,-0.70313 -1.70312,-0.70313 -1.20313,0 -1.92969,0.67969 -0.71875,0.67969 -0.82812,1.91406 z"
     id="path790558" /><path
     d="m 821.65558,112.55995 v 5.28125 h -1.4375 v -5.23437 q 0,-1.24219 -0.48438,-1.85938 -0.48437,-0.61719 -1.45312,-0.61719 -1.16406,0 -1.83594,0.74219 -0.67187,0.74219 -0.67187,2.02344 v 4.94531 h -1.44532 v -8.75 h 1.44532 v 1.35938 q 0.51562,-0.78907 1.21093,-1.17969 0.70313,-0.39063 1.61719,-0.39063 1.50781,0 2.28125,0.9375 0.77344,0.92969 0.77344,2.74219 z"
     id="path790560" /><path
     d="m 825.94464,106.60683 v 2.48437 h 2.96094 v 1.11719 h -2.96094 v 4.75 q 0,1.07031 0.28906,1.375 0.29688,0.30469 1.19532,0.30469 h 1.47656 v 1.20312 h -1.47656 q -1.66407,0 -2.29688,-0.61719 -0.63281,-0.625 -0.63281,-2.26562 v -4.75 h -1.05469 v -1.11719 h 1.05469 v -2.48437 z"
     id="path790562" /></g>
<g
   aria-label="service"
   id="text36"
   class="st2 st3 st4"
   style="font-size:16px;font-family:GoogleSans-Medium;fill:#ffffff"><path
     d="m 771.42743,128.54901 v 1.35938 q -0.60938,-0.3125 -1.26563,-0.46875 -0.65625,-0.15625 -1.35937,-0.15625 -1.07031,0 -1.60938,0.32812 -0.53125,0.32813 -0.53125,0.98438 0,0.5 0.38282,0.78906 0.38281,0.28125 1.53906,0.53906 l 0.49219,0.10938 q 1.53125,0.32812 2.17187,0.92968 0.64844,0.59375 0.64844,1.66407 0,1.21875 -0.96875,1.92968 -0.96094,0.71094 -2.64844,0.71094 -0.70312,0 -1.46875,-0.14062 -0.75781,-0.13282 -1.60156,-0.40625 v -1.48438 q 0.79687,0.41406 1.57031,0.625 0.77344,0.20313 1.53125,0.20313 1.01563,0 1.5625,-0.34375 0.54688,-0.35157 0.54688,-0.98438 0,-0.58594 -0.39844,-0.89844 -0.39063,-0.3125 -1.72656,-0.60156 l -0.5,-0.11719 q -1.33594,-0.28125 -1.92969,-0.85937 -0.59375,-0.58594 -0.59375,-1.60156 0,-1.23438 0.875,-1.90625 0.875,-0.67188 2.48437,-0.67188 0.79688,0 1.5,0.11719 0.70313,0.11719 1.29688,0.35156 z"
     id="path790565" /><path
     d="m 781.66962,132.30682 v 0.70313 h -6.60938 q 0.0937,1.48437 0.89063,2.26562 0.80468,0.77344 2.23437,0.77344 0.82813,0 1.60156,-0.20312 0.78125,-0.20313 1.54688,-0.60938 v 1.35938 q -0.77344,0.32812 -1.58594,0.5 -0.8125,0.17187 -1.64844,0.17187 -2.09375,0 -3.32031,-1.21875 -1.21875,-1.21875 -1.21875,-3.29687 0,-2.14844 1.15625,-3.40625 1.16406,-1.26563 3.13281,-1.26563 1.76563,0 2.78907,1.14063 1.03125,1.13281 1.03125,3.08593 z m -1.4375,-0.42187 q -0.0156,-1.17969 -0.66407,-1.88281 -0.64062,-0.70313 -1.70312,-0.70313 -1.20313,0 -1.92969,0.67969 -0.71875,0.67969 -0.82812,1.91406 z"
     id="path790567" /><path
     d="m 789.0993,129.63495 q -0.24218,-0.14063 -0.53125,-0.20313 -0.28125,-0.0703 -0.625,-0.0703 -1.21875,0 -1.875,0.79688 -0.64843,0.78906 -0.64843,2.27343 v 4.60938 h -1.44532 v -8.75 h 1.44532 v 1.35937 q 0.45312,-0.79687 1.17968,-1.17968 0.72657,-0.39063 1.76563,-0.39063 0.14844,0 0.32812,0.0234 0.17969,0.0156 0.39844,0.0547 z"
     id="path790569" /><path
     d="m 789.57587,128.2912 h 1.52343 l 2.73438,7.34375 2.73437,-7.34375 h 1.52344 l -3.28125,8.75 h -1.95312 z"
     id="path790571" /><path
     d="m 800.07587,128.2912 h 1.4375 v 8.75 h -1.4375 z m 0,-3.40625 h 1.4375 v 1.82031 h -1.4375 z"
     id="path790573" /><path
     d="m 810.81805,128.62714 v 1.34375 q -0.60937,-0.33594 -1.22656,-0.5 -0.60937,-0.17188 -1.23437,-0.17188 -1.39844,0 -2.17188,0.89063 -0.77344,0.88281 -0.77344,2.48437 0,1.60156 0.77344,2.49219 0.77344,0.88281 2.17188,0.88281 0.625,0 1.23437,-0.16406 0.61719,-0.17188 1.22656,-0.50781 v 1.32812 q -0.60156,0.28125 -1.25,0.42188 -0.64062,0.14062 -1.36718,0.14062 -1.97657,0 -3.14063,-1.24219 -1.16406,-1.24218 -1.16406,-3.35156 0,-2.14062 1.17187,-3.36719 1.17969,-1.22656 3.22657,-1.22656 0.66406,0 1.29687,0.14063 0.63281,0.13281 1.22656,0.40625 z"
     id="path790575" /><path
     d="m 820.80243,132.30682 v 0.70313 h -6.60938 q 0.0937,1.48437 0.89063,2.26562 0.80469,0.77344 2.23437,0.77344 0.82813,0 1.60157,-0.20312 0.78125,-0.20313 1.54687,-0.60938 v 1.35938 q -0.77344,0.32812 -1.58594,0.5 -0.8125,0.17187 -1.64843,0.17187 -2.09375,0 -3.32032,-1.21875 -1.21875,-1.21875 -1.21875,-3.29687 0,-2.14844 1.15625,-3.40625 1.16407,-1.26563 3.13282,-1.26563 1.76562,0 2.78906,1.14063 1.03125,1.13281 1.03125,3.08593 z m -1.4375,-0.42187 q -0.0156,-1.17969 -0.66406,-1.88281 -0.64063,-0.70313 -1.70313,-0.70313 -1.20312,0 -1.92969,0.67969 -0.71875,0.67969 -0.82812,1.91406 z"
     id="path790577" /></g>
<g
   aria-label="Payment service"
   id="text38"
   class="st5 st3 st4"
   style="font-size:16px;font-family:GoogleSans-Medium;fill:#202124"><path
     d="m 661.54315,46.425514 v 4.382813 h 1.98438 q 1.10156,0 1.70312,-0.570313 0.60156,-0.570312 0.60156,-1.625 0,-1.046875 -0.60156,-1.617187 -0.60156,-0.570313 -1.70312,-0.570313 z m -1.57812,-1.296875 h 3.5625 q 1.96093,0 2.96093,0.890625 1.00782,0.882813 1.00782,2.59375 0,1.726563 -1.00782,2.609375 -1,0.882813 -2.96093,0.882813 h -1.98438 v 4.6875 h -1.57812 z"
     id="path790580" /><path
     d="m 672.80878,52.394264 q -1.74219,0 -2.41407,0.398438 -0.67187,0.398437 -0.67187,1.359375 0,0.765625 0.5,1.21875 0.50781,0.445312 1.375,0.445312 1.19531,0 1.91406,-0.84375 0.72656,-0.851562 0.72656,-2.257812 v -0.320313 z m 2.86718,-0.59375 v 4.992188 h -1.4375 v -1.328125 q -0.49218,0.796875 -1.22656,1.179687 -0.73437,0.375 -1.79687,0.375 -1.34375,0 -2.14063,-0.75 -0.78906,-0.757812 -0.78906,-2.023437 0,-1.476563 0.98437,-2.226563 0.99219,-0.75 2.95313,-0.75 h 2.01562 v -0.140625 q 0,-0.992187 -0.65625,-1.53125 -0.64843,-0.546875 -1.82812,-0.546875 -0.75,0 -1.46094,0.179688 -0.71094,0.179687 -1.36719,0.539062 v -1.328125 q 0.78907,-0.304687 1.53125,-0.453125 0.74219,-0.15625 1.44532,-0.15625 1.89843,0 2.83593,0.984375 0.9375,0.984375 0.9375,2.984375 z"
     id="path790582" /><path
     d="m 682.27753,57.605202 q -0.60938,1.5625 -1.1875,2.039062 -0.57813,0.476563 -1.54688,0.476563 h -1.14844 v -1.203125 h 0.84375 q 0.59375,0 0.92188,-0.28125 0.32812,-0.28125 0.72656,-1.328125 l 0.25781,-0.65625 -3.53906,-8.609375 h 1.52344 l 2.73437,6.84375 2.73438,-6.84375 h 1.52344 z"
     id="path790584" /><path
     d="m 694.91815,49.722389 q 0.53906,-0.96875 1.28906,-1.429687 0.75,-0.460938 1.76563,-0.460938 1.36719,0 2.10937,0.960938 0.74219,0.953125 0.74219,2.71875 v 5.28125 h -1.44531 v -5.234375 q 0,-1.257813 -0.44531,-1.867188 -0.44532,-0.609375 -1.35938,-0.609375 -1.11719,0 -1.76562,0.742188 -0.64844,0.742187 -0.64844,2.023437 v 4.945313 h -1.44531 v -5.234375 q 0,-1.265625 -0.44532,-1.867188 -0.44531,-0.609375 -1.375,-0.609375 -1.10156,0 -1.75,0.75 -0.64843,0.742188 -0.64843,2.015625 v 4.945313 h -1.44532 v -8.75 h 1.44532 v 1.359375 q 0.49218,-0.804688 1.17968,-1.1875 0.6875,-0.382813 1.63282,-0.382813 0.95312,0 1.61718,0.484375 0.67188,0.484375 0.99219,1.40625 z"
     id="path790586" /><path
     d="m 711.17596,52.058327 v 0.703125 h -6.60937 q 0.0937,1.484375 0.89062,2.265625 0.80469,0.773437 2.23438,0.773437 0.82812,0 1.60156,-0.203125 0.78125,-0.203125 1.54688,-0.609375 v 1.359375 q -0.77344,0.328125 -1.58594,0.5 -0.8125,0.171875 -1.64844,0.171875 -2.09375,0 -3.32031,-1.21875 -1.21875,-1.21875 -1.21875,-3.296875 0,-2.148437 1.15625,-3.40625 1.16406,-1.265625 3.13281,-1.265625 1.76563,0 2.78906,1.140625 1.03125,1.132813 1.03125,3.085938 z m -1.4375,-0.421875 q -0.0156,-1.179688 -0.66406,-1.882813 -0.64062,-0.703125 -1.70312,-0.703125 -1.20313,0 -1.92969,0.679688 -0.71875,0.679687 -0.82813,1.914062 z"
     id="path790588" /><path
     d="m 720.80878,51.511452 v 5.28125 h -1.4375 v -5.234375 q 0,-1.242188 -0.48438,-1.859375 -0.48437,-0.617188 -1.45312,-0.617188 -1.16407,0 -1.83594,0.742188 -0.67188,0.742187 -0.67188,2.023437 v 4.945313 h -1.44531 v -8.75 h 1.44531 v 1.359375 q 0.51563,-0.789063 1.21094,-1.179688 0.70313,-0.390625 1.61719,-0.390625 1.50781,0 2.28125,0.9375 0.77344,0.929688 0.77344,2.742188 z"
     id="path790590" /><path
     d="m 725.09784,45.558327 v 2.484375 h 2.96094 v 1.117187 h -2.96094 v 4.75 q 0,1.070313 0.28906,1.375 0.29688,0.304688 1.19531,0.304688 h 1.47657 v 1.203125 h -1.47657 q -1.66406,0 -2.29687,-0.617188 -0.63281,-0.625 -0.63281,-2.265625 v -4.75 h -1.05469 v -1.117187 h 1.05469 v -2.484375 z"
     id="path790592" /><path
     d="m 740.61346,48.300514 v 1.359375 q -0.60937,-0.3125 -1.26562,-0.46875 -0.65625,-0.15625 -1.35938,-0.15625 -1.07031,0 -1.60937,0.328125 -0.53125,0.328125 -0.53125,0.984375 0,0.5 0.38281,0.789063 0.38281,0.28125 1.53906,0.539062 l 0.49219,0.109375 q 1.53125,0.328125 2.17188,0.929688 0.64843,0.59375 0.64843,1.664062 0,1.21875 -0.96875,1.929688 -0.96093,0.710937 -2.64843,0.710937 -0.70313,0 -1.46875,-0.140625 -0.75782,-0.132812 -1.60157,-0.40625 v -1.484375 q 0.79688,0.414063 1.57032,0.625 0.77343,0.203125 1.53125,0.203125 1.01562,0 1.5625,-0.34375 0.54687,-0.351562 0.54687,-0.984375 0,-0.585937 -0.39844,-0.898437 -0.39062,-0.3125 -1.72656,-0.601563 l -0.5,-0.117187 q -1.33594,-0.28125 -1.92969,-0.859375 -0.59375,-0.585938 -0.59375,-1.601563 0,-1.234375 0.875,-1.90625 0.875,-0.671875 2.48438,-0.671875 0.79687,0 1.5,0.117188 0.70312,0.117187 1.29687,0.351562 z"
     id="path790594" /><path
     d="m 750.85565,52.058327 v 0.703125 h -6.60937 q 0.0937,1.484375 0.89062,2.265625 0.80469,0.773437 2.23438,0.773437 0.82812,0 1.60156,-0.203125 0.78125,-0.203125 1.54687,-0.609375 v 1.359375 q -0.77343,0.328125 -1.58593,0.5 -0.8125,0.171875 -1.64844,0.171875 -2.09375,0 -3.32031,-1.21875 -1.21875,-1.21875 -1.21875,-3.296875 0,-2.148437 1.15625,-3.40625 1.16406,-1.265625 3.13281,-1.265625 1.76562,0 2.78906,1.140625 1.03125,1.132813 1.03125,3.085938 z m -1.4375,-0.421875 q -0.0156,-1.179688 -0.66406,-1.882813 -0.64063,-0.703125 -1.70313,-0.703125 -1.20312,0 -1.92968,0.679688 -0.71875,0.679687 -0.82813,1.914062 z"
     id="path790596" /><path
     d="m 758.28534,49.386452 q -0.24219,-0.140625 -0.53125,-0.203125 -0.28125,-0.07031 -0.625,-0.07031 -1.21875,0 -1.875,0.796875 -0.64844,0.789063 -0.64844,2.273438 v 4.609375 h -1.44531 v -8.75 h 1.44531 v 1.359375 q 0.45313,-0.796875 1.17969,-1.179688 0.72656,-0.390625 1.76562,-0.390625 0.14844,0 0.32813,0.02344 0.17969,0.01563 0.39844,0.05469 z"
     id="path790598" /><path
     d="m 758.7619,48.042702 h 1.52344 l 2.73437,7.34375 2.73438,-7.34375 h 1.52344 l -3.28125,8.75 h -1.95313 z"
     id="path790600" /><path
     d="m 769.2619,48.042702 h 1.4375 v 8.75 h -1.4375 z m 0,-3.40625 h 1.4375 v 1.820312 h -1.4375 z"
     id="path790602" /><path
     d="m 780.00409,48.378639 v 1.34375 q -0.60938,-0.335937 -1.22656,-0.5 -0.60938,-0.171875 -1.23438,-0.171875 -1.39844,0 -2.17187,0.890625 -0.77344,0.882813 -0.77344,2.484375 0,1.601563 0.77344,2.492188 0.77343,0.882812 2.17187,0.882812 0.625,0 1.23438,-0.164062 0.61718,-0.171875 1.22656,-0.507813 v 1.328125 q -0.60156,0.28125 -1.25,0.421875 -0.64063,0.140625 -1.36719,0.140625 -1.97656,0 -3.14062,-1.242187 -1.16407,-1.242188 -1.16407,-3.351563 0,-2.140625 1.17188,-3.367187 1.17969,-1.226563 3.22656,-1.226563 0.66406,0 1.29688,0.140625 0.63281,0.132813 1.22656,0.40625 z"
     id="path790604" /><path
     d="m 789.98846,52.058327 v 0.703125 h -6.60937 q 0.0937,1.484375 0.89062,2.265625 0.80469,0.773437 2.23438,0.773437 0.82812,0 1.60156,-0.203125 0.78125,-0.203125 1.54688,-0.609375 v 1.359375 q -0.77344,0.328125 -1.58594,0.5 -0.8125,0.171875 -1.64844,0.171875 -2.09375,0 -3.32031,-1.21875 -1.21875,-1.21875 -1.21875,-3.296875 0,-2.148437 1.15625,-3.40625 1.16406,-1.265625 3.13281,-1.265625 1.76563,0 2.78906,1.140625 1.03125,1.132813 1.03125,3.085938 z m -1.4375,-0.421875 q -0.0156,-1.179688 -0.66406,-1.882813 -0.64062,-0.703125 -1.70312,-0.703125 -1.20313,0 -1.92969,0.679688 -0.71875,0.679687 -0.82813,1.914062 z"
     id="path790606" /></g>
<g
   transform="translate(-21.400002,-71.699997)"
   id="g50">
	<g
   id="g44">
		<path
   id="path40"
   d="m 377.7,357.2 v 52.5 c 0,5.3 17.9,9.7 40,9.7 22.1,0 40,-4.3 40,-9.7 v -52.5 z"
   class="st6" />
		<path
   id="ellipse42"
   class="st6"
   style="fill:#ffffff;stroke:#bdc1c6;stroke-miterlimit:10;stroke-dasharray:4, 4, 4, 4"
   d="m 457.70001,357.20001 a 40,10.7 0 0 1 -40,10.7 40,10.7 0 0 1 -40,-10.7 40,10.7 0 0 1 40,-10.7 40,10.7 0 0 1 40,10.7 z" />
	</g>
	<path
   id="rect46"
   class="st7"
   style="fill:none"
   d="m 400.60001,385.89999 h 34.3 v 13.5 h -34.3 z" />
	<g
   aria-label="Database"
   transform="translate(382.564,393.6482)"
   id="text48"
   class="st5 st3 st4"
   style="font-size:16px;font-family:GoogleSans-Medium;fill:#202124"><path
     d="m 3.1484375,-10.367188 v 9.070313 h 1.90625 q 2.4140625,0 3.53125,-1.09375 1.125,-1.09375 1.125,-3.453125 0,-2.34375 -1.125,-3.4296875 -1.1171875,-1.0937505 -3.53125,-1.0937505 z m -1.578125,-1.296875 H 4.8125 q 3.390625,0 4.9765625,1.414063 1.5859375,1.40625 1.5859375,4.40625 0,3.015625 -1.59375,4.4296875 Q 8.1875,0 4.8125,0 H 1.5703125 Z"
     id="path790611" /><path
     d="m 17.804687,-4.3984375 q -1.742187,0 -2.414062,0.3984375 -0.671875,0.3984375 -0.671875,1.359375 0,0.765625 0.5,1.21875 0.507813,0.4453125 1.375,0.4453125 1.195312,0 1.914062,-0.84375 0.726563,-0.8515625 0.726563,-2.2578125 v -0.3203125 z m 2.867188,-0.59375 V 0 h -1.4375 v -1.328125 q -0.492188,0.796875 -1.226563,1.1796875 -0.734375,0.375 -1.796875,0.375 -1.343749,0 -2.140624,-0.75 Q 13.28125,-1.28125 13.28125,-2.546875 q 0,-1.4765625 0.984375,-2.2265625 0.992188,-0.75 2.953125,-0.75 h 2.015625 v -0.140625 q 0,-0.9921875 -0.65625,-1.53125 -0.648438,-0.546875 -1.828125,-0.546875 -0.75,0 -1.460937,0.1796875 -0.710938,0.1796875 -1.367188,0.5390625 v -1.328125 q 0.789063,-0.3046875 1.53125,-0.453125 0.742187,-0.15625 1.445312,-0.15625 1.898438,0 2.835938,0.984375 0.9375,0.984375 0.9375,2.984375 z"
     id="path790613" /><path
     d="M 25.054687,-11.234375 V -8.75 h 2.960938 v 1.1171875 h -2.960938 v 4.75 q 0,1.0703125 0.289063,1.375 0.296875,0.3046875 1.195312,0.3046875 h 1.476563 V 0 H 26.539062 Q 24.875,0 24.242187,-0.6171875 q -0.632812,-0.625 -0.632812,-2.265625 v -4.75 H 22.554687 V -8.75 h 1.054688 v -2.484375 z"
     id="path790615" /><path
     d="m 33.882812,-4.3984375 q -1.742187,0 -2.414062,0.3984375 -0.671875,0.3984375 -0.671875,1.359375 0,0.765625 0.5,1.21875 0.507812,0.4453125 1.375,0.4453125 1.195312,0 1.914062,-0.84375 Q 35.3125,-2.671875 35.3125,-4.078125 V -4.3984375 Z M 36.75,-4.9921875 V 0 h -1.4375 v -1.328125 q -0.492188,0.796875 -1.226563,1.1796875 -0.734375,0.375 -1.796875,0.375 -1.34375,0 -2.140625,-0.75 -0.789062,-0.7578125 -0.789062,-2.0234375 0,-1.4765625 0.984375,-2.2265625 0.992187,-0.75 2.953125,-0.75 H 35.3125 v -0.140625 q 0,-0.9921875 -0.65625,-1.53125 -0.648438,-0.546875 -1.828125,-0.546875 -0.75,0 -1.460938,0.1796875 Q 30.65625,-7.3828125 30,-7.0234375 v -1.328125 q 0.789062,-0.3046875 1.53125,-0.453125 0.742187,-0.15625 1.445312,-0.15625 1.898438,0 2.835938,0.984375 0.9375,0.984375 0.9375,2.984375 z"
     id="path790617" /><path
     d="m 45.992187,-4.3671875 q 0,-1.5859375 -0.65625,-2.484375 -0.648437,-0.90625 -1.789062,-0.90625 -1.140625,0 -1.796875,0.90625 -0.648438,0.8984375 -0.648438,2.484375 0,1.5859375 0.648438,2.4921875 0.65625,0.8984375 1.796875,0.8984375 1.140625,0 1.789062,-0.8984375 0.65625,-0.90625 0.65625,-2.4921875 z M 41.101562,-7.421875 q 0.453125,-0.78125 1.140625,-1.15625 0.695313,-0.3828125 1.65625,-0.3828125 1.59375,0 2.585938,1.265625 1,1.265625 1,3.328125 0,2.0625 -1,3.328125 -0.992188,1.265625 -2.585938,1.265625 -0.960937,0 -1.65625,-0.375 Q 41.554687,-0.53125 41.101562,-1.3125 V 0 H 39.65625 v -12.15625 h 1.445312 z"
     id="path790619" /><path
     d="m 53.84375,-4.3984375 q -1.742188,0 -2.414063,0.3984375 -0.671875,0.3984375 -0.671875,1.359375 0,0.765625 0.5,1.21875 0.507813,0.4453125 1.375,0.4453125 1.195313,0 1.914063,-0.84375 0.726562,-0.8515625 0.726562,-2.2578125 v -0.3203125 z m 2.867187,-0.59375 V 0 h -1.4375 v -1.328125 q -0.492187,0.796875 -1.226562,1.1796875 -0.734375,0.375 -1.796875,0.375 -1.34375,0 -2.140625,-0.75 -0.789063,-0.7578125 -0.789063,-2.0234375 0,-1.4765625 0.984375,-2.2265625 0.992188,-0.75 2.953125,-0.75 h 2.015625 v -0.140625 q 0,-0.9921875 -0.65625,-1.53125 -0.648437,-0.546875 -1.828125,-0.546875 -0.75,0 -1.460937,0.1796875 -0.710938,0.1796875 -1.367188,0.5390625 v -1.328125 q 0.789063,-0.3046875 1.53125,-0.453125 0.742188,-0.15625 1.445313,-0.15625 1.898437,0 2.835937,0.984375 0.9375,0.984375 0.9375,2.984375 z"
     id="path790621" /><path
     d="m 65.25,-8.4921875 v 1.359375 q -0.609375,-0.3125 -1.265625,-0.46875 -0.65625,-0.15625 -1.359375,-0.15625 -1.070313,0 -1.609375,0.328125 -0.53125,0.328125 -0.53125,0.984375 0,0.5 0.382812,0.7890625 Q 61.25,-5.375 62.40625,-5.1171875 l 0.492187,0.109375 q 1.53125,0.328125 2.171875,0.9296875 0.648438,0.59375 0.648438,1.6640625 0,1.21875 -0.96875,1.9296875 -0.960938,0.7109375 -2.648438,0.7109375 -0.703125,0 -1.46875,-0.140625 Q 59.875,-0.046875 59.03125,-0.3203125 v -1.484375 q 0.796875,0.4140625 1.570312,0.625 0.773438,0.203125 1.53125,0.203125 1.015625,0 1.5625,-0.34375 0.546875,-0.3515625 0.546875,-0.984375 0,-0.5859375 -0.398437,-0.8984375 -0.390625,-0.3125 -1.726563,-0.6015625 l -0.5,-0.1171875 Q 60.28125,-4.203125 59.6875,-4.78125 q -0.59375,-0.5859375 -0.59375,-1.6015625 0,-1.234375 0.875,-1.90625 0.875,-0.671875 2.484375,-0.671875 0.796875,0 1.5,0.1171875 0.703125,0.1171875 1.296875,0.3515625 z"
     id="path790623" /><path
     d="m 75.492187,-4.734375 v 0.703125 h -6.609375 q 0.09375,1.484375 0.890625,2.265625 0.804688,0.7734375 2.234375,0.7734375 0.828125,0 1.601563,-0.203125 0.78125,-0.203125 1.546875,-0.609375 v 1.359375 q -0.773438,0.328125 -1.585938,0.5 -0.8125,0.171875 -1.648437,0.171875 -2.09375,0 -3.320313,-1.21875 -1.21875,-1.21875 -1.21875,-3.296875 0,-2.1484375 1.15625,-3.40625 1.164063,-1.265625 3.132813,-1.265625 1.765625,0 2.789062,1.140625 1.03125,1.1328125 1.03125,3.0859375 z m -1.4375,-0.421875 Q 74.039062,-6.3359375 73.390625,-7.0390625 72.75,-7.7421875 71.6875,-7.7421875 q -1.203125,0 -1.929688,0.6796875 -0.71875,0.6796875 -0.828125,1.9140625 z"
     id="path790625" /></g>
</g>
<line
   id="line52"
   y2="296.70001"
   x2="61.099998"
   y1="199.8"
   x1="61.099998"
   class="st8" />
<line
   id="line54"
   y2="357.79999"
   x2="312.30002"
   y1="152.8"
   x1="312.30002"
   class="st8" />
<line
   id="line56"
   y2="357.79999"
   x2="792.29999"
   y1="152.8"
   x1="792.29999"
   class="st8" />
<line
   id="line58"
   y2="216.7"
   x2="176.10001"
   y1="216.7"
   x1="61.199997"
   class="st9" />
<line
   id="line60"
   y2="264.79999"
   x2="312.30002"
   y1="264.79999"
   x1="248.30002"
   class="st9" />
<line
   id="line62"
   y2="233.2"
   x2="548.39996"
   y1="233.2"
   x1="312.30002"
   class="st9" />
<line
   id="line64"
   y2="248.8"
   x2="396.30002"
   y1="248.8"
   x1="312.30002"
   class="st9" />
<g
   transform="translate(-21.400002,-71.699997)"
   id="g74">
	<g
   id="g72">
		<path
   id="line66"
   class="st9"
   style="fill:none;stroke:#4285f4;stroke-miterlimit:10"
   d="M 217.60001,336.5 H 89.699997" />
		<g
   id="g70">
			<path
   id="polygon68"
   class="st1"
   style="fill:#4285f4"
   d="m 82.5,336.5 8.6,5 v -10 z" />
		</g>
	</g>
</g>
<g
   transform="translate(-21.400002,-71.699997)"
   id="g84">
	<g
   id="g82">
		<path
   id="line76"
   class="st8"
   style="fill:none;stroke:#4285f4;stroke-miterlimit:10;stroke-dasharray:4, 4, 4, 4"
   d="M 570.70001,429.5 H 340.89999" />
		<g
   id="g80">
			<path
   id="polygon78"
   class="st1"
   style="fill:#4285f4"
   d="m 333.7,429.5 8.7,5 v -10 z" />
		</g>
	</g>
</g>
<line
   id="line86"
   y2="357.79999"
   x2="624.69995"
   y1="357.79999"
   x1="793.89996"
   class="st8" />
<g
   transform="translate(-21.400002,-71.699997)"
   id="g96">
	<g
   id="g94">
		<path
   id="line88"
   class="st9"
   style="fill:none;stroke:#4285f4;stroke-miterlimit:10"
   d="m 289.70001,288.39999 h 36.9" />
		<g
   id="g92">
			<path
   id="polygon90"
   class="st1"
   style="fill:#4285f4"
   d="m 333.7,288.4 -8.6,-5 v 10 z" />
		</g>
	</g>
</g>
<g
   transform="translate(-21.400002,-71.699997)"
   id="g106">
	<g
   id="g104">
		<path
   id="line98"
   class="st9"
   style="fill:none;stroke:#4285f4;stroke-miterlimit:10"
   d="M 646.09998,304.89999 H 804.40002" />
		<g
   id="g102">
			<path
   id="polygon100"
   class="st1"
   style="fill:#4285f4"
   d="m 811.6,304.9 -8.6,-5 v 9.9 z" />
		</g>
	</g>
</g>
<g
   transform="translate(-21.400002,-71.699997)"
   id="g116">
	<g
   id="g114">
		<path
   id="line108"
   class="st9"
   style="fill:none;stroke:#4285f4;stroke-miterlimit:10"
   d="m 417.70001,320.29999 v 19" />
		<g
   id="g112">
			<path
   id="polygon110"
   class="st1"
   style="fill:#4285f4"
   d="m 417.7,346.4 5,-8.6 h -10 z" />
		</g>
	</g>
</g>
<g
   transform="translate(-21.400002,-71.699997)"
   id="g128">
	<g
   id="g122">
		<path
   id="path118"
   d="m 857.9,357.2 v 52.5 c 0,5.3 17.9,9.7 40,9.7 22.1,0 40,-4.3 40,-9.7 v -52.5 z"
   class="st6" />
		<path
   id="ellipse120"
   class="st6"
   style="fill:#ffffff;stroke:#bdc1c6;stroke-miterlimit:10;stroke-dasharray:4, 4, 4, 4"
   d="m 937.90002,357.20001 a 40,10.7 0 0 1 -40,10.7 40,10.7 0 0 1 -40,-10.7 40,10.7 0 0 1 40,-10.7 40,10.7 0 0 1 40,10.7 z" />
	</g>
	<path
   id="rect124"
   class="st7"
   style="fill:none"
   d="m 880.79999,385.89999 h 34.3 v 13.5 h -34.3 z" />
	<g
   aria-label="Database"
   transform="translate(862.755,393.6482)"
   id="text126"
   class="st5 st3 st4"
   style="font-size:16px;font-family:GoogleSans-Medium;fill:#202124"><path
     d="m 3.1484375,-10.367188 v 9.070313 h 1.90625 q 2.4140625,0 3.53125,-1.09375 1.125,-1.09375 1.125,-3.453125 0,-2.34375 -1.125,-3.4296875 -1.1171875,-1.0937505 -3.53125,-1.0937505 z m -1.578125,-1.296875 H 4.8125 q 3.390625,0 4.9765625,1.414063 1.5859375,1.40625 1.5859375,4.40625 0,3.015625 -1.59375,4.4296875 Q 8.1875,0 4.8125,0 H 1.5703125 Z"
     id="path790640" /><path
     d="m 17.804687,-4.3984375 q -1.742187,0 -2.414062,0.3984375 -0.671875,0.3984375 -0.671875,1.359375 0,0.765625 0.5,1.21875 0.507813,0.4453125 1.375,0.4453125 1.195312,0 1.914062,-0.84375 0.726563,-0.8515625 0.726563,-2.2578125 v -0.3203125 z m 2.867188,-0.59375 V 0 h -1.4375 v -1.328125 q -0.492188,0.796875 -1.226563,1.1796875 -0.734375,0.375 -1.796875,0.375 -1.343749,0 -2.140624,-0.75 Q 13.28125,-1.28125 13.28125,-2.546875 q 0,-1.4765625 0.984375,-2.2265625 0.992188,-0.75 2.953125,-0.75 h 2.015625 v -0.140625 q 0,-0.9921875 -0.65625,-1.53125 -0.648438,-0.546875 -1.828125,-0.546875 -0.75,0 -1.460937,0.1796875 -0.710938,0.1796875 -1.367188,0.5390625 v -1.328125 q 0.789063,-0.3046875 1.53125,-0.453125 0.742187,-0.15625 1.445312,-0.15625 1.898438,0 2.835938,0.984375 0.9375,0.984375 0.9375,2.984375 z"
     id="path790642" /><path
     d="M 25.054687,-11.234375 V -8.75 h 2.960938 v 1.1171875 h -2.960938 v 4.75 q 0,1.0703125 0.289063,1.375 0.296875,0.3046875 1.195312,0.3046875 h 1.476563 V 0 H 26.539062 Q 24.875,0 24.242187,-0.6171875 q -0.632812,-0.625 -0.632812,-2.265625 v -4.75 H 22.554687 V -8.75 h 1.054688 v -2.484375 z"
     id="path790644" /><path
     d="m 33.882812,-4.3984375 q -1.742187,0 -2.414062,0.3984375 -0.671875,0.3984375 -0.671875,1.359375 0,0.765625 0.5,1.21875 0.507812,0.4453125 1.375,0.4453125 1.195312,0 1.914062,-0.84375 Q 35.3125,-2.671875 35.3125,-4.078125 V -4.3984375 Z M 36.75,-4.9921875 V 0 h -1.4375 v -1.328125 q -0.492188,0.796875 -1.226563,1.1796875 -0.734375,0.375 -1.796875,0.375 -1.34375,0 -2.140625,-0.75 -0.789062,-0.7578125 -0.789062,-2.0234375 0,-1.4765625 0.984375,-2.2265625 0.992187,-0.75 2.953125,-0.75 H 35.3125 v -0.140625 q 0,-0.9921875 -0.65625,-1.53125 -0.648438,-0.546875 -1.828125,-0.546875 -0.75,0 -1.460938,0.1796875 Q 30.65625,-7.3828125 30,-7.0234375 v -1.328125 q 0.789062,-0.3046875 1.53125,-0.453125 0.742187,-0.15625 1.445312,-0.15625 1.898438,0 2.835938,0.984375 0.9375,0.984375 0.9375,2.984375 z"
     id="path790646" /><path
     d="m 45.992187,-4.3671875 q 0,-1.5859375 -0.65625,-2.484375 -0.648437,-0.90625 -1.789062,-0.90625 -1.140625,0 -1.796875,0.90625 -0.648438,0.8984375 -0.648438,2.484375 0,1.5859375 0.648438,2.4921875 0.65625,0.8984375 1.796875,0.8984375 1.140625,0 1.789062,-0.8984375 0.65625,-0.90625 0.65625,-2.4921875 z M 41.101562,-7.421875 q 0.453125,-0.78125 1.140625,-1.15625 0.695313,-0.3828125 1.65625,-0.3828125 1.59375,0 2.585938,1.265625 1,1.265625 1,3.328125 0,2.0625 -1,3.328125 -0.992188,1.265625 -2.585938,1.265625 -0.960937,0 -1.65625,-0.375 Q 41.554687,-0.53125 41.101562,-1.3125 V 0 H 39.65625 v -12.15625 h 1.445312 z"
     id="path790648" /><path
     d="m 53.84375,-4.3984375 q -1.742188,0 -2.414063,0.3984375 -0.671875,0.3984375 -0.671875,1.359375 0,0.765625 0.5,1.21875 0.507813,0.4453125 1.375,0.4453125 1.195313,0 1.914063,-0.84375 0.726562,-0.8515625 0.726562,-2.2578125 v -0.3203125 z m 2.867187,-0.59375 V 0 h -1.4375 v -1.328125 q -0.492187,0.796875 -1.226562,1.1796875 -0.734375,0.375 -1.796875,0.375 -1.34375,0 -2.140625,-0.75 -0.789063,-0.7578125 -0.789063,-2.0234375 0,-1.4765625 0.984375,-2.2265625 0.992188,-0.75 2.953125,-0.75 h 2.015625 v -0.140625 q 0,-0.9921875 -0.65625,-1.53125 -0.648437,-0.546875 -1.828125,-0.546875 -0.75,0 -1.460937,0.1796875 -0.710938,0.1796875 -1.367188,0.5390625 v -1.328125 q 0.789063,-0.3046875 1.53125,-0.453125 0.742188,-0.15625 1.445313,-0.15625 1.898437,0 2.835937,0.984375 0.9375,0.984375 0.9375,2.984375 z"
     id="path790650" /><path
     d="m 65.25,-8.4921875 v 1.359375 q -0.609375,-0.3125 -1.265625,-0.46875 -0.65625,-0.15625 -1.359375,-0.15625 -1.070313,0 -1.609375,0.328125 -0.53125,0.328125 -0.53125,0.984375 0,0.5 0.382812,0.7890625 Q 61.25,-5.375 62.40625,-5.1171875 l 0.492187,0.109375 q 1.53125,0.328125 2.171875,0.9296875 0.648438,0.59375 0.648438,1.6640625 0,1.21875 -0.96875,1.9296875 -0.960938,0.7109375 -2.648438,0.7109375 -0.703125,0 -1.46875,-0.140625 Q 59.875,-0.046875 59.03125,-0.3203125 v -1.484375 q 0.796875,0.4140625 1.570312,0.625 0.773438,0.203125 1.53125,0.203125 1.015625,0 1.5625,-0.34375 0.546875,-0.3515625 0.546875,-0.984375 0,-0.5859375 -0.398437,-0.8984375 -0.390625,-0.3125 -1.726563,-0.6015625 l -0.5,-0.1171875 Q 60.28125,-4.203125 59.6875,-4.78125 q -0.59375,-0.5859375 -0.59375,-1.6015625 0,-1.234375 0.875,-1.90625 0.875,-0.671875 2.484375,-0.671875 0.796875,0 1.5,0.1171875 0.703125,0.1171875 1.296875,0.3515625 z"
     id="path790652" /><path
     d="m 75.492187,-4.734375 v 0.703125 h -6.609375 q 0.09375,1.484375 0.890625,2.265625 0.804688,0.7734375 2.234375,0.7734375 0.828125,0 1.601563,-0.203125 0.78125,-0.203125 1.546875,-0.609375 v 1.359375 q -0.773438,0.328125 -1.585938,0.5 -0.8125,0.171875 -1.648437,0.171875 -2.09375,0 -3.320313,-1.21875 -1.21875,-1.21875 -1.21875,-3.296875 0,-2.1484375 1.15625,-3.40625 1.164063,-1.265625 3.132813,-1.265625 1.765625,0 2.789062,1.140625 1.03125,1.1328125 1.03125,3.0859375 z m -1.4375,-0.421875 Q 74.039062,-6.3359375 73.390625,-7.0390625 72.75,-7.7421875 71.6875,-7.7421875 q -1.203125,0 -1.929688,0.6796875 -0.71875,0.6796875 -0.828125,1.9140625 z"
     id="path790654" /></g>
</g>
<line
   id="line130"
   y2="248.8"
   x2="876.5"
   y1="248.8"
   x1="792.5"
   class="st9" />
<g
   transform="translate(-21.400002,-71.699997)"
   id="g140">
	<g
   id="g138">
		<path
   id="line132"
   class="st9"
   style="fill:none;stroke:#4285f4;stroke-miterlimit:10"
   d="m 897.90002,320.29999 v 19" />
		<g
   id="g136">
			<path
   id="polygon134"
   class="st1"
   style="fill:#4285f4"
   d="m 897.9,346.4 5,-8.6 h -10 z" />
		</g>
	</g>
</g>
<g
   aria-label="Payment"
   id="text142"
   class="st5 st3 st4"
   style="font-size:16px;font-family:GoogleSans-Medium;fill:#202124"><path
     d="m 932.76733,254.42532 v 4.38282 h 1.98438 q 1.10156,0 1.70312,-0.57032 0.60157,-0.57031 0.60157,-1.625 0,-1.04687 -0.60157,-1.61718 -0.60156,-0.57032 -1.70312,-0.57032 z m -1.57812,-1.29687 h 3.5625 q 1.96094,0 2.96094,0.89062 1.00781,0.88282 1.00781,2.59375 0,1.72657 -1.00781,2.60938 -1,0.88281 -2.96094,0.88281 h -1.98438 v 4.6875 h -1.57812 z"
     id="path790659" /><path
     d="m 944.03296,260.39407 q -1.74219,0 -2.41406,0.39844 -0.67188,0.39844 -0.67188,1.35938 0,0.76562 0.5,1.21875 0.50781,0.44531 1.375,0.44531 1.19531,0 1.91406,-0.84375 0.72657,-0.85156 0.72657,-2.25781 v -0.32032 z m 2.86719,-0.59375 v 4.99219 h -1.4375 v -1.32812 q -0.49219,0.79687 -1.22657,1.17968 -0.73437,0.375 -1.79687,0.375 -1.34375,0 -2.14063,-0.75 -0.78906,-0.75781 -0.78906,-2.02343 0,-1.47657 0.98438,-2.22657 0.99218,-0.75 2.95312,-0.75 h 2.01563 v -0.14062 q 0,-0.99219 -0.65625,-1.53125 -0.64844,-0.54688 -1.82813,-0.54688 -0.75,0 -1.46094,0.17969 -0.71093,0.17969 -1.36718,0.53906 v -1.32812 q 0.78906,-0.30469 1.53125,-0.45313 0.74218,-0.15625 1.44531,-0.15625 1.89844,0 2.83594,0.98438 0.9375,0.98437 0.9375,2.98437 z"
     id="path790661" /><path
     d="m 953.50171,265.60501 q -0.60938,1.5625 -1.1875,2.03906 -0.57813,0.47657 -1.54688,0.47657 h -1.14843 v -1.20313 h 0.84375 q 0.59375,0 0.92187,-0.28125 0.32813,-0.28125 0.72656,-1.32812 l 0.25782,-0.65625 -3.53907,-8.60938 h 1.52344 l 2.73438,6.84375 2.73437,-6.84375 h 1.52344 z"
     id="path790663" /><path
     d="m 966.14233,257.7222 q 0.53907,-0.96875 1.28907,-1.42969 0.75,-0.46094 1.76562,-0.46094 1.36719,0 2.10938,0.96094 0.74218,0.95313 0.74218,2.71875 v 5.28125 h -1.44531 v -5.23437 q 0,-1.25782 -0.44531,-1.86719 -0.44531,-0.60938 -1.35938,-0.60938 -1.11718,0 -1.76562,0.74219 -0.64844,0.74219 -0.64844,2.02344 v 4.94531 h -1.44531 v -5.23437 q 0,-1.26563 -0.44531,-1.86719 -0.44532,-0.60938 -1.375,-0.60938 -1.10157,0 -1.75,0.75 -0.64844,0.74219 -0.64844,2.01563 v 4.94531 h -1.44531 v -8.75 h 1.44531 v 1.35938 q 0.49219,-0.80469 1.17969,-1.1875 0.6875,-0.38282 1.63281,-0.38282 0.95312,0 1.61719,0.48438 0.67187,0.48437 0.99218,1.40625 z"
     id="path790665" /><path
     d="m 982.40015,260.05814 v 0.70312 h -6.60938 q 0.0937,1.48438 0.89063,2.26563 0.80468,0.77343 2.23437,0.77343 0.82813,0 1.60156,-0.20312 0.78125,-0.20313 1.54688,-0.60938 v 1.35938 q -0.77344,0.32812 -1.58594,0.5 -0.8125,0.17187 -1.64844,0.17187 -2.09375,0 -3.32031,-1.21875 -1.21875,-1.21875 -1.21875,-3.29687 0,-2.14844 1.15625,-3.40625 1.16406,-1.26563 3.13281,-1.26563 1.76563,0 2.78907,1.14063 1.03125,1.13281 1.03125,3.08594 z m -1.4375,-0.42188 q -0.0156,-1.17969 -0.66407,-1.88281 -0.64062,-0.70313 -1.70312,-0.70313 -1.20313,0 -1.92969,0.67969 -0.71875,0.67969 -0.82812,1.91406 z"
     id="path790667" /><path
     d="m 992.03296,259.51126 v 5.28125 h -1.4375 v -5.23437 q 0,-1.24219 -0.48438,-1.85938 -0.48437,-0.61719 -1.45312,-0.61719 -1.16406,0 -1.83594,0.74219 -0.67187,0.74219 -0.67187,2.02344 v 4.94531 h -1.44532 v -8.75 h 1.44532 v 1.35938 q 0.51562,-0.78907 1.21093,-1.17969 0.70313,-0.39063 1.61719,-0.39063 1.50781,0 2.28125,0.9375 0.77344,0.92969 0.77344,2.74219 z"
     id="path790669" /><path
     d="m 996.32202,253.55814 v 2.48437 h 2.96094 v 1.11719 h -2.96094 v 4.75 q 0,1.07031 0.28906,1.375 0.29688,0.30469 1.19532,0.30469 h 1.47656 v 1.20312 h -1.47656 q -1.66407,0 -2.29688,-0.61719 -0.63281,-0.625 -0.63281,-2.26562 v -4.75 h -1.05469 v -1.11719 h 1.05469 v -2.48437 z"
     id="path790671" /></g>
<g
   aria-label="details"
   id="text144"
   class="st5 st3 st4"
   style="font-size:16px;font-family:GoogleSans-Medium;fill:#202124"><path
     d="m 944.18445,276.57062 v -4.73438 h 1.4375 v 12.15625 h -1.4375 v -1.3125 q -0.45313,0.78125 -1.14844,1.16407 -0.6875,0.375 -1.65625,0.375 -1.58594,0 -2.58594,-1.26563 -0.99218,-1.26562 -0.99218,-3.32812 0,-2.0625 0.99218,-3.32813 1,-1.26562 2.58594,-1.26562 0.96875,0 1.65625,0.38281 0.69531,0.375 1.14844,1.15625 z m -4.89844,3.05469 q 0,1.58593 0.64844,2.49218 0.65625,0.89844 1.79687,0.89844 1.14063,0 1.79688,-0.89844 0.65625,-0.90625 0.65625,-2.49218 0,-1.58594 -0.65625,-2.48438 -0.65625,-0.90625 -1.79688,-0.90625 -1.14062,0 -1.79687,0.90625 -0.64844,0.89844 -0.64844,2.48438 z"
     id="path790674" /><path
     d="m 956.06726,279.25812 v 0.70312 h -6.60937 q 0.0937,1.48438 0.89062,2.26563 0.80469,0.77344 2.23438,0.77344 0.82812,0 1.60156,-0.20313 0.78125,-0.20312 1.54687,-0.60937 v 1.35937 q -0.77343,0.32813 -1.58593,0.5 -0.8125,0.17188 -1.64844,0.17188 -2.09375,0 -3.32031,-1.21875 -1.21875,-1.21875 -1.21875,-3.29688 0,-2.14844 1.15625,-3.40625 1.16406,-1.26562 3.13281,-1.26562 1.76562,0 2.78906,1.14062 1.03125,1.13281 1.03125,3.08594 z m -1.4375,-0.42188 q -0.0156,-1.17968 -0.66406,-1.88281 -0.64063,-0.70312 -1.70313,-0.70312 -1.20312,0 -1.92968,0.67968 -0.71875,0.67969 -0.82813,1.91407 z"
     id="path790676" /><path
     d="m 959.84851,272.75812 v 2.48437 h 2.96094 v 1.11719 h -2.96094 v 4.75 q 0,1.07031 0.28906,1.375 0.29688,0.30469 1.19532,0.30469 h 1.47656 v 1.20312 h -1.47656 q -1.66407,0 -2.29688,-0.61718 -0.63281,-0.625 -0.63281,-2.26563 v -4.75 h -1.05469 v -1.11719 h 1.05469 v -2.48437 z"
     id="path790678" /><path
     d="m 968.67664,279.59406 q -1.74219,0 -2.41407,0.39843 -0.67187,0.39844 -0.67187,1.35938 0,0.76562 0.5,1.21875 0.50781,0.44531 1.375,0.44531 1.19531,0 1.91406,-0.84375 0.72656,-0.85156 0.72656,-2.25781 v -0.32031 z m 2.86718,-0.59375 v 4.99218 h -1.4375 v -1.32812 q -0.49218,0.79687 -1.22656,1.17969 -0.73437,0.375 -1.79687,0.375 -1.34375,0 -2.14063,-0.75 -0.78906,-0.75782 -0.78906,-2.02344 0,-1.47656 0.98437,-2.22656 0.99219,-0.75 2.95313,-0.75 h 2.01562 v -0.14063 q 0,-0.99219 -0.65625,-1.53125 -0.64843,-0.54687 -1.82812,-0.54687 -0.75,0 -1.46094,0.17968 -0.71094,0.17969 -1.36719,0.53907 v -1.32813 q 0.78907,-0.30469 1.53125,-0.45312 0.74219,-0.15625 1.44532,-0.15625 1.89843,0 2.83593,0.98437 0.9375,0.98438 0.9375,2.98438 z"
     id="path790680" /><path
     d="m 974.50476,275.24249 h 1.4375 v 8.75 h -1.4375 z m 0,-3.40625 h 1.4375 v 1.82032 h -1.4375 z"
     id="path790682" /><path
     d="m 978.95007,271.83624 h 1.4375 v 12.15625 h -1.4375 z"
     id="path790684" /><path
     d="m 988.97351,275.50031 v 1.35937 q -0.60937,-0.3125 -1.26562,-0.46875 -0.65625,-0.15625 -1.35938,-0.15625 -1.07031,0 -1.60937,0.32813 -0.53125,0.32812 -0.53125,0.98437 0,0.5 0.38281,0.78906 0.38281,0.28125 1.53906,0.53907 l 0.49219,0.10937 q 1.53125,0.32813 2.17187,0.92969 0.64844,0.59375 0.64844,1.66406 0,1.21875 -0.96875,1.92969 -0.96094,0.71094 -2.64844,0.71094 -0.70312,0 -1.46875,-0.14063 -0.75781,-0.13281 -1.60156,-0.40625 v -1.48437 q 0.79688,0.41406 1.57031,0.625 0.77344,0.20312 1.53125,0.20312 1.01563,0 1.5625,-0.34375 0.54688,-0.35156 0.54688,-0.98437 0,-0.58594 -0.39844,-0.89844 -0.39062,-0.3125 -1.72656,-0.60156 l -0.5,-0.11719 q -1.33594,-0.28125 -1.92969,-0.85938 -0.59375,-0.58593 -0.59375,-1.60156 0,-1.23437 0.875,-1.90625 0.875,-0.67187 2.48438,-0.67187 0.79687,0 1.5,0.11718 0.70312,0.11719 1.29687,0.35157 z"
     id="path790686" /></g>
<g
   transform="translate(-21.400002,-71.699997)"
   id="g152">
	<path
   id="rect146"
   class="st10"
   style="fill:#ffffff;stroke:#202124;stroke-miterlimit:10"
   d="M 45.900002,186.7 H 121.4 v 84.6 H 45.900002 Z" />
	<path
   id="path148"
   d="m 83.7,221.4 c -10.1,0 -18.3,8.2 -18.3,18.3 0,10.1 8.2,18.3 18.3,18.3 10.1,0 18.3,-8.2 18.3,-18.3 0,-10.1 -8.3,-18.3 -18.3,-18.3 z m 0,5.4 c 3,0 5.5,2.5 5.5,5.5 0,3 -2.5,5.5 -5.5,5.5 -3,0 -5.5,-2.5 -5.5,-5.5 0,-3 2.4,-5.5 5.5,-5.5 z m 0,26 c -4.6,0 -8.6,-2.3 -10.9,-5.9 0.1,-3.6 7.3,-5.6 10.9,-5.6 3.6,0 10.9,2 10.9,5.6 -2.3,3.6 -6.4,5.9 -10.9,5.9 z"
   class="st5" />
	<g
   aria-label="User"
   transform="translate(55.1264,207.5579)"
   id="text150"
   class="st11 st3 st4"
   style="font-size:16px;font-family:GoogleSans-Medium;fill:#3b4043"><path
     d="m 1.390625,-11.664063 h 1.5859375 v 7.085938 q 0,1.875 0.6796875,2.703125 0.6796875,0.8203125 2.203125,0.8203125 1.515625,0 2.1953125,-0.8203125 0.6796875,-0.828125 0.6796875,-2.703125 v -7.085938 h 1.585938 v 7.2812505 q 0,2.28125 -1.132813,3.4453125 -1.125,1.1640625 -3.328125,1.1640625 -2.2109375,0 -3.34375,-1.1640625 -1.125,-1.1640625 -1.125,-3.4453125 z"
     id="path790690" /><path
     d="m 18.796875,-8.4921875 v 1.359375 q -0.609375,-0.3125 -1.265625,-0.46875 -0.65625,-0.15625 -1.359375,-0.15625 -1.070312,0 -1.609375,0.328125 -0.53125,0.328125 -0.53125,0.984375 0,0.5 0.382813,0.7890625 0.382812,0.28125 1.539062,0.5390625 l 0.492187,0.109375 q 1.53125,0.328125 2.171875,0.9296875 0.648438,0.59375 0.648438,1.6640625 0,1.21875 -0.96875,1.9296875 -0.960938,0.7109375 -2.648437,0.7109375 -0.703125,0 -1.46875,-0.140625 -0.757813,-0.1328125 -1.601563,-0.40625 v -1.484375 q 0.796875,0.4140625 1.570313,0.625 0.773437,0.203125 1.53125,0.203125 1.015624,0 1.562499,-0.34375 0.546875,-0.3515625 0.546875,-0.984375 0,-0.5859375 -0.398437,-0.8984375 Q 17,-3.515625 15.664063,-3.8046875 l -0.5,-0.1171875 q -1.335938,-0.28125 -1.929688,-0.859375 -0.59375,-0.5859375 -0.59375,-1.6015625 0,-1.234375 0.875,-1.90625 0.875,-0.671875 2.484375,-0.671875 0.796875,0 1.5,0.1171875 0.703125,0.1171875 1.296875,0.3515625 z"
     id="path790692" /><path
     d="m 29.039062,-4.734375 v 0.703125 h -6.609375 q 0.09375,1.484375 0.890625,2.265625 0.804688,0.7734375 2.234375,0.7734375 0.828125,0 1.601563,-0.203125 0.78125,-0.203125 1.546875,-0.609375 v 1.359375 q -0.773438,0.328125 -1.585938,0.5 -0.8125,0.171875 -1.648437,0.171875 -2.09375,0 -3.320313,-1.21875 -1.21875,-1.21875 -1.21875,-3.296875 0,-2.1484375 1.15625,-3.40625 1.164063,-1.265625 3.132813,-1.265625 1.765625,0 2.789062,1.140625 1.03125,1.1328125 1.03125,3.0859375 z m -1.4375,-0.421875 q -0.01563,-1.1796875 -0.664062,-1.8828125 -0.640625,-0.703125 -1.703125,-0.703125 -1.203125,0 -1.929688,0.6796875 -0.71875,0.6796875 -0.828125,1.9140625 z"
     id="path790694" /><path
     d="m 36.46875,-7.40625 q -0.242188,-0.140625 -0.53125,-0.203125 -0.28125,-0.070312 -0.625,-0.070312 -1.21875,0 -1.875,0.796875 -0.648438,0.7890625 -0.648438,2.2734375 V 0 H 31.34375 v -8.75 h 1.445312 v 1.359375 q 0.453125,-0.796875 1.179688,-1.1796875 0.726562,-0.390625 1.765625,-0.390625 0.148437,0 0.328125,0.023437 0.179687,0.015625 0.398437,0.054687 z"
     id="path790696" /></g>
</g>
<g
   transform="translate(-21.400002,-71.699997)"
   id="g160">
	<path
   id="rect154"
   class="st10"
   style="fill:#ffffff;stroke:#202124;stroke-miterlimit:10"
   d="M 45.900002,362 H 121.4 v 84.6 H 45.900002 Z" />
	<path
   id="path156"
   d="m 83.7,396.7 c -10.1,0 -18.3,8.2 -18.3,18.3 0,10.1 8.2,18.3 18.3,18.3 10.1,0 18.3,-8.2 18.3,-18.3 0,-10.1 -8.3,-18.3 -18.3,-18.3 z m 0,5.4 c 3,0 5.5,2.5 5.5,5.5 0,3 -2.5,5.5 -5.5,5.5 -3,0 -5.5,-2.5 -5.5,-5.5 0,-3 2.4,-5.5 5.5,-5.5 z m 0,26 c -4.6,0 -8.6,-2.3 -10.9,-5.9 0.1,-3.6 7.3,-5.6 10.9,-5.6 3.6,0 10.9,2 10.9,5.6 -2.3,3.6 -6.4,5.9 -10.9,5.9 z"
   class="st5" />
	<g
   aria-label="User"
   transform="translate(55.1264,382.8397)"
   id="text158"
   class="st11 st3 st4"
   style="font-size:16px;font-family:GoogleSans-Medium;fill:#3b4043"><path
     d="m 1.390625,-11.664063 h 1.5859375 v 7.085938 q 0,1.875 0.6796875,2.703125 0.6796875,0.8203125 2.203125,0.8203125 1.515625,0 2.1953125,-0.8203125 0.6796875,-0.828125 0.6796875,-2.703125 v -7.085938 h 1.585938 v 7.2812505 q 0,2.28125 -1.132813,3.4453125 -1.125,1.1640625 -3.328125,1.1640625 -2.2109375,0 -3.34375,-1.1640625 -1.125,-1.1640625 -1.125,-3.4453125 z"
     id="path790700" /><path
     d="m 18.796875,-8.4921875 v 1.359375 q -0.609375,-0.3125 -1.265625,-0.46875 -0.65625,-0.15625 -1.359375,-0.15625 -1.070312,0 -1.609375,0.328125 -0.53125,0.328125 -0.53125,0.984375 0,0.5 0.382813,0.7890625 0.382812,0.28125 1.539062,0.5390625 l 0.492187,0.109375 q 1.53125,0.328125 2.171875,0.9296875 0.648438,0.59375 0.648438,1.6640625 0,1.21875 -0.96875,1.9296875 -0.960938,0.7109375 -2.648437,0.7109375 -0.703125,0 -1.46875,-0.140625 -0.757813,-0.1328125 -1.601563,-0.40625 v -1.484375 q 0.796875,0.4140625 1.570313,0.625 0.773437,0.203125 1.53125,0.203125 1.015624,0 1.562499,-0.34375 0.546875,-0.3515625 0.546875,-0.984375 0,-0.5859375 -0.398437,-0.8984375 Q 17,-3.515625 15.664063,-3.8046875 l -0.5,-0.1171875 q -1.335938,-0.28125 -1.929688,-0.859375 -0.59375,-0.5859375 -0.59375,-1.6015625 0,-1.234375 0.875,-1.90625 0.875,-0.671875 2.484375,-0.671875 0.796875,0 1.5,0.1171875 0.703125,0.1171875 1.296875,0.3515625 z"
     id="path790702" /><path
     d="m 29.039062,-4.734375 v 0.703125 h -6.609375 q 0.09375,1.484375 0.890625,2.265625 0.804688,0.7734375 2.234375,0.7734375 0.828125,0 1.601563,-0.203125 0.78125,-0.203125 1.546875,-0.609375 v 1.359375 q -0.773438,0.328125 -1.585938,0.5 -0.8125,0.171875 -1.648437,0.171875 -2.09375,0 -3.320313,-1.21875 -1.21875,-1.21875 -1.21875,-3.296875 0,-2.1484375 1.15625,-3.40625 1.164063,-1.265625 3.132813,-1.265625 1.765625,0 2.789062,1.140625 1.03125,1.1328125 1.03125,3.0859375 z m -1.4375,-0.421875 q -0.01563,-1.1796875 -0.664062,-1.8828125 -0.640625,-0.703125 -1.703125,-0.703125 -1.203125,0 -1.929688,0.6796875 -0.71875,0.6796875 -0.828125,1.9140625 z"
     id="path790704" /><path
     d="m 36.46875,-7.40625 q -0.242188,-0.140625 -0.53125,-0.203125 -0.28125,-0.070312 -0.625,-0.070312 -1.21875,0 -1.875,0.796875 -0.648438,0.7890625 -0.648438,2.2734375 V 0 H 31.34375 v -8.75 h 1.445312 v 1.359375 q 0.453125,-0.796875 1.179688,-1.1796875 0.726562,-0.390625 1.765625,-0.390625 0.148437,0 0.328125,0.023437 0.179687,0.015625 0.398437,0.054687 z"
     id="path790706" /></g>
</g>



<g
   transform="translate(-21.400002,-71.699997)"
   id="g170">
	<path
   id="polygon168"
   d="m 465.7,160.5 v 14 l -14,-14 z" />
</g>
<g
   transform="translate(-21.400002,-71.699997)"
   id="g174">
	<path
   id="polygon172"
   d="m 945.7,160.5 v 14 l -14,-14 z" />
</g>
</svg>
