<?xml version="1.0" encoding="UTF-8" standalone="no"?>
<svg
   height="5.8510418in"
   width="8.5645828in"
   xml:space="preserve"
   viewBox="0 0 822.19998 561.70001"
   y="0px"
   x="0px"
   id="Layer_2_1_"
   version="1.1"
   xmlns="http://www.w3.org/2000/svg"
   xmlns:svg="http://www.w3.org/2000/svg"
   xmlns:rdf="http://www.w3.org/1999/02/22-rdf-syntax-ns#"
   xmlns:cc="http://creativecommons.org/ns#"
   xmlns:dc="http://purl.org/dc/elements/1.1/"><metadata
   id="metadata181"><rdf:RDF><cc:Work
       rdf:about=""><dc:format>image/svg+xml</dc:format><dc:type
         rdf:resource="http://purl.org/dc/dcmitype/StillImage" /><dc:title /></cc:Work></rdf:RDF></metadata><defs
   id="defs179" />
	<rect width="100%" height="100%" fill="grey"/>
<style
   id="style2"
   type="text/css">
	.st0{fill:#F1F3F4;stroke:#202124;stroke-miterlimit:10;}
	.st1{fill:#202124;}
	.st2{font-family:'GoogleSans-Medium';}
	.st3{font-size:16px;}
	.st4{fill:#FFFFFF;stroke:#202124;stroke-miterlimit:10;}
	.st5{font-family:'GoogleSans-Regular';}
	.st6{font-size:14px;}
	.st7{fill:#FFFFFF;stroke:#BDC1C6;stroke-miterlimit:10;stroke-dasharray:4,4,4,4;}
	.st8{fill:none;}
	.st9{fill:none;stroke:#4285F4;stroke-miterlimit:10;stroke-dasharray:4,4,4,4;}
	.st10{fill:none;stroke:#4285F4;stroke-miterlimit:10;}
	.st11{fill:#4285F4;}
	.st12{fill:none;stroke:#202124;stroke-miterlimit:10;}
	.st13{font-family:'GoogleSans-Bold';}
	.st14{font-size:20px;}
	.st15{fill:#3B4043;}
</style>

<rect
   id="rect6"
   height="512.70001"
   width="628.29999"
   class="st0"
   y="24.5"
   x="169.39996" />
<g
   aria-label="Online Boutique"
   id="text8"
   class="st1 st2 st3"
   style="font-size:16px;font-family:GoogleSans-Medium;fill:#202124"><path
     d="m 202.93147,53.988152 q -1.71875,0 -2.73437,1.28125 -1.00781,1.28125 -1.00781,3.492187 0,2.203125 1.00781,3.484375 1.01562,1.28125 2.73437,1.28125 1.71875,0 2.71875,-1.28125 1.00782,-1.28125 1.00782,-3.484375 0,-2.210937 -1.00782,-3.492187 -1,-1.28125 -2.71875,-1.28125 z m 0,-1.28125 q 2.45313,0 3.92188,1.648437 1.46875,1.640625 1.46875,4.40625 0,2.757813 -1.46875,4.40625 -1.46875,1.640625 -3.92188,1.640625 -2.46093,0 -3.9375,-1.640625 -1.46875,-1.640625 -1.46875,-4.40625 0,-2.765625 1.46875,-4.40625 1.47657,-1.648437 3.9375,-1.648437 z"
     id="path337590" /><path
     d="m 218.00179,59.300652 v 5.28125 h -1.4375 v -5.234375 q 0,-1.242188 -0.48438,-1.859375 -0.48437,-0.617188 -1.45312,-0.617188 -1.16407,0 -1.83594,0.742188 -0.67188,0.742187 -0.67188,2.023437 v 4.945313 h -1.44531 v -8.75 h 1.44531 v 1.359375 q 0.51563,-0.789063 1.21094,-1.179688 0.70313,-0.390625 1.61719,-0.390625 1.50781,0 2.28125,0.9375 0.77344,0.929688 0.77344,2.742188 z"
     id="path337592" /><path
     d="m 220.86897,52.425652 h 1.4375 v 12.15625 h -1.4375 z"
     id="path337594" /><path
     d="m 225.31429,55.831902 h 1.4375 v 8.75 h -1.4375 z m 0,-3.40625 h 1.4375 v 1.820312 h -1.4375 z"
     id="path337596" /><path
     d="m 237.03304,59.300652 v 5.28125 h -1.4375 v -5.234375 q 0,-1.242188 -0.48438,-1.859375 -0.48437,-0.617188 -1.45312,-0.617188 -1.16407,0 -1.83594,0.742188 -0.67188,0.742187 -0.67188,2.023437 v 4.945313 h -1.44531 v -8.75 h 1.44531 v 1.359375 q 0.51563,-0.789063 1.21094,-1.179688 0.70313,-0.390625 1.61719,-0.390625 1.50781,0 2.28125,0.9375 0.77344,0.929688 0.77344,2.742188 z"
     id="path337598" /><path
     d="m 247.3846,59.847527 v 0.703125 h -6.60938 q 0.0937,1.484375 0.89063,2.265625 0.80469,0.773437 2.23437,0.773437 0.82813,0 1.60157,-0.203125 0.78125,-0.203125 1.54687,-0.609375 v 1.359375 q -0.77344,0.328125 -1.58594,0.5 -0.8125,0.171875 -1.64843,0.171875 -2.09375,0 -3.32032,-1.21875 -1.21875,-1.21875 -1.21875,-3.296875 0,-2.148437 1.15625,-3.40625 1.16407,-1.265625 3.13282,-1.265625 1.76562,0 2.78906,1.140625 1.03125,1.132813 1.03125,3.085938 z m -1.4375,-0.421875 q -0.0156,-1.179688 -0.66406,-1.882813 -0.64063,-0.703125 -1.70313,-0.703125 -1.20312,0 -1.92969,0.679688 -0.71875,0.679687 -0.82812,1.914062 z"
     id="path337600" /><path
     d="m 256.47054,59.011589 v 4.273438 h 2.53125 q 1.27343,0 1.88281,-0.523438 0.61719,-0.53125 0.61719,-1.617187 0,-1.09375 -0.61719,-1.609375 -0.60938,-0.523438 -1.88281,-0.523438 z m 0,-4.796875 v 3.515625 h 2.33593 q 1.15625,0 1.71875,-0.429687 0.57032,-0.4375 0.57032,-1.328125 0,-0.882813 -0.57032,-1.320313 -0.5625,-0.4375 -1.71875,-0.4375 z m -1.57813,-1.296875 h 4.03125 q 1.80469,0 2.78125,0.75 0.97656,0.75 0.97656,2.132813 0,1.070312 -0.5,1.703125 -0.5,0.632812 -1.46875,0.789062 1.16407,0.25 1.80469,1.046875 0.64844,0.789063 0.64844,1.976563 0,1.5625 -1.0625,2.414062 -1.0625,0.851563 -3.02344,0.851563 h -4.1875 z"
     id="path337602" /><path
     d="m 269.1971,56.839714 q -1.15625,0 -1.82813,0.90625 -0.67187,0.898438 -0.67187,2.46875 0,1.570313 0.66406,2.476563 0.67188,0.898437 1.83594,0.898437 1.14844,0 1.82031,-0.90625 0.67188,-0.90625 0.67188,-2.46875 0,-1.554687 -0.67188,-2.460937 -0.67187,-0.914063 -1.82031,-0.914063 z m 0,-1.21875 q 1.875,0 2.94531,1.21875 1.07031,1.21875 1.07031,3.375 0,2.148438 -1.07031,3.375 -1.07031,1.21875 -2.94531,1.21875 -1.88281,0 -2.95313,-1.21875 -1.0625,-1.226562 -1.0625,-3.375 0,-2.15625 1.0625,-3.375 1.07032,-1.21875 2.95313,-1.21875 z"
     id="path337604" /><path
     d="m 275.4471,61.128777 v -5.296875 h 1.4375 v 5.242187 q 0,1.242188 0.48437,1.867188 0.48438,0.617187 1.45313,0.617187 1.16406,0 1.83594,-0.742187 0.67968,-0.742188 0.67968,-2.023438 v -4.960937 h 1.4375 v 8.75 h -1.4375 v -1.34375 q -0.52343,0.796875 -1.21875,1.1875 -0.6875,0.382812 -1.60156,0.382812 -1.50781,0 -2.28906,-0.9375 -0.78125,-0.9375 -0.78125,-2.742187 z m 3.61719,-5.507813 z"
     id="path337606" /><path
     d="m 287.15804,53.347527 v 2.484375 h 2.96093 v 1.117187 h -2.96093 v 4.75 q 0,1.070313 0.28906,1.375 0.29687,0.304688 1.19531,0.304688 h 1.47656 v 1.203125 h -1.47656 q -1.66406,0 -2.29687,-0.617188 -0.63282,-0.625 -0.63282,-2.265625 v -4.75 h -1.05468 v -1.117187 h 1.05468 v -2.484375 z"
     id="path337608" /><path
     d="m 292.0096,55.831902 h 1.4375 v 8.75 h -1.4375 z m 0,-3.40625 h 1.4375 v 1.820312 h -1.4375 z"
     id="path337610" /><path
     d="m 297.31429,60.214714 q 0,1.585938 0.64843,2.492188 0.65625,0.898437 1.79688,0.898437 1.14062,0 1.79687,-0.898437 0.65625,-0.90625 0.65625,-2.492188 0,-1.585937 -0.65625,-2.484375 -0.65625,-0.90625 -1.79687,-0.90625 -1.14063,0 -1.79688,0.90625 -0.64843,0.898438 -0.64843,2.484375 z m 4.89843,3.054688 q -0.45312,0.78125 -1.14843,1.164062 -0.6875,0.375 -1.65625,0.375 -1.58594,0 -2.58594,-1.265625 -0.99219,-1.265625 -0.99219,-3.328125 0,-2.0625 0.99219,-3.328125 1,-1.265625 2.58594,-1.265625 0.96875,0 1.65625,0.382813 0.69531,0.375 1.14843,1.15625 v -1.328125 h 1.4375 v 12.078125 h -1.4375 z"
     id="path337612" /><path
     d="m 306.46272,61.128777 v -5.296875 h 1.4375 v 5.242187 q 0,1.242188 0.48438,1.867188 0.48437,0.617187 1.45312,0.617187 1.16407,0 1.83594,-0.742187 0.67969,-0.742188 0.67969,-2.023438 v -4.960937 h 1.4375 v 8.75 h -1.4375 v -1.34375 q -0.52344,0.796875 -1.21875,1.1875 -0.6875,0.382812 -1.60156,0.382812 -1.50782,0 -2.28907,-0.9375 -0.78125,-0.9375 -0.78125,-2.742187 z m 3.61719,-5.507813 z"
     id="path337614" /><path
     d="m 324.23616,59.847527 v 0.703125 h -6.60937 q 0.0937,1.484375 0.89062,2.265625 0.80469,0.773437 2.23438,0.773437 0.82812,0 1.60156,-0.203125 0.78125,-0.203125 1.54687,-0.609375 v 1.359375 q -0.77343,0.328125 -1.58593,0.5 -0.8125,0.171875 -1.64844,0.171875 -2.09375,0 -3.32031,-1.21875 -1.21875,-1.21875 -1.21875,-3.296875 0,-2.148437 1.15625,-3.40625 1.16406,-1.265625 3.13281,-1.265625 1.76562,0 2.78906,1.140625 1.03125,1.132813 1.03125,3.085938 z m -1.4375,-0.421875 q -0.0156,-1.179688 -0.66406,-1.882813 -0.64063,-0.703125 -1.70313,-0.703125 -1.20312,0 -1.92968,0.679688 -0.71875,0.679687 -0.82813,1.914062 z"
     id="path337616" /></g>
<rect
   id="rect10"
   height="64"
   width="143.8"
   class="st4"
   y="89.099998"
   x="218.20001" />
<rect
   id="rect12"
   height="64"
   width="143.8"
   class="st4"
   y="89.099998"
   x="386.09998" />
<rect
   id="rect14"
   height="64"
   width="143.8"
   class="st4"
   y="89.099998"
   x="551.39996" />
<g
   aria-label="Checkout"
   id="text16"
   class="st1 st2 st3"
   style="font-size:16px;font-family:GoogleSans-Medium;fill:#202124"><path
     d="m 263.68457,107.40887 v 1.66407 q -0.79687,-0.74219 -1.70312,-1.10938 -0.89844,-0.36719 -1.91407,-0.36719 -2,0 -3.0625,1.22657 -1.0625,1.21875 -1.0625,3.53125 0,2.30468 1.0625,3.53125 1.0625,1.21875 3.0625,1.21875 1.01563,0 1.91407,-0.36719 0.90625,-0.36719 1.70312,-1.10938 v 1.64844 q -0.82812,0.5625 -1.75781,0.84375 -0.92188,0.28125 -1.95313,0.28125 -2.64843,0 -4.17187,-1.61719 -1.52344,-1.625 -1.52344,-4.42968 0,-2.8125 1.52344,-4.42969 1.52344,-1.625 4.17187,-1.625 1.04688,0 1.96875,0.28125 0.92969,0.27344 1.74219,0.82812 z"
     id="path337619" /><path
     d="m 273.33301,112.89325 v 5.28125 h -1.4375 v -5.23438 q 0,-1.24218 -0.48438,-1.85937 -0.48437,-0.61719 -1.45312,-0.61719 -1.16406,0 -1.83594,0.74219 -0.67187,0.74219 -0.67187,2.02344 v 4.94531 h -1.44532 v -12.15625 h 1.44532 v 4.76562 q 0.51562,-0.78906 1.21093,-1.17968 0.70313,-0.39063 1.61719,-0.39063 1.50781,0 2.28125,0.9375 0.77344,0.92969 0.77344,2.74219 z"
     id="path337621" /><path
     d="m 283.68457,113.44012 v 0.70313 h -6.60937 q 0.0937,1.48437 0.89062,2.26562 0.80469,0.77344 2.23438,0.77344 0.82812,0 1.60156,-0.20312 0.78125,-0.20313 1.54687,-0.60938 v 1.35938 q -0.77343,0.32812 -1.58593,0.5 -0.8125,0.17187 -1.64844,0.17187 -2.09375,0 -3.32031,-1.21875 -1.21875,-1.21875 -1.21875,-3.29687 0,-2.14844 1.15625,-3.40625 1.16406,-1.26563 3.13281,-1.26563 1.76562,0 2.78906,1.14063 1.03125,1.13281 1.03125,3.08593 z m -1.4375,-0.42187 q -0.0156,-1.17969 -0.66406,-1.88281 -0.64063,-0.70313 -1.70313,-0.70313 -1.20312,0 -1.92968,0.67969 -0.71875,0.67969 -0.82813,1.91406 z"
     id="path337623" /><path
     d="m 292.34082,109.76044 v 1.34375 q -0.60937,-0.33594 -1.22656,-0.5 -0.60938,-0.17188 -1.23438,-0.17188 -1.39843,0 -2.17187,0.89063 -0.77344,0.88281 -0.77344,2.48437 0,1.60156 0.77344,2.49219 0.77344,0.88281 2.17187,0.88281 0.625,0 1.23438,-0.16406 0.61719,-0.17188 1.22656,-0.50781 v 1.32812 q -0.60156,0.28125 -1.25,0.42188 -0.64062,0.14062 -1.36719,0.14062 -1.97656,0 -3.14062,-1.24219 -1.16406,-1.24218 -1.16406,-3.35156 0,-2.14062 1.17187,-3.36719 1.17969,-1.22656 3.22656,-1.22656 0.66407,0 1.29688,0.14063 0.63281,0.13281 1.22656,0.40625 z"
     id="path337625" /><path
     d="m 294.78613,106.01825 h 1.44532 v 7.17969 l 4.28906,-3.77344 h 1.83594 l -4.64063,4.09375 4.83594,4.65625 h -1.875 l -4.44531,-4.27344 v 4.27344 h -1.44532 z"
     id="path337627" /><path
     d="m 306.92676,110.43231 q -1.15625,0 -1.82813,0.90625 -0.67187,0.89844 -0.67187,2.46875 0,1.57031 0.66406,2.47656 0.67188,0.89844 1.83594,0.89844 1.14844,0 1.82031,-0.90625 0.67188,-0.90625 0.67188,-2.46875 0,-1.55469 -0.67188,-2.46094 -0.67187,-0.91406 -1.82031,-0.91406 z m 0,-1.21875 q 1.875,0 2.94531,1.21875 1.07031,1.21875 1.07031,3.375 0,2.14844 -1.07031,3.375 -1.07031,1.21875 -2.94531,1.21875 -1.88281,0 -2.95313,-1.21875 -1.0625,-1.22656 -1.0625,-3.375 0,-2.15625 1.0625,-3.375 1.07032,-1.21875 2.95313,-1.21875 z"
     id="path337629" /><path
     d="m 313.17676,114.72137 v -5.29687 h 1.4375 v 5.24219 q 0,1.24218 0.48437,1.86718 0.48438,0.61719 1.45313,0.61719 1.16406,0 1.83594,-0.74219 0.67968,-0.74218 0.67968,-2.02343 v -4.96094 h 1.4375 v 8.75 h -1.4375 v -1.34375 q -0.52343,0.79687 -1.21875,1.1875 -0.6875,0.38281 -1.60156,0.38281 -1.50781,0 -2.28906,-0.9375 -0.78125,-0.9375 -0.78125,-2.74219 z m 3.61719,-5.50781 z"
     id="path337631" /><path
     d="m 324.8877,106.94012 v 2.48438 h 2.96093 v 1.11719 h -2.96093 v 4.75 q 0,1.07031 0.28906,1.375 0.29687,0.30468 1.19531,0.30468 h 1.47656 v 1.20313 h -1.47656 q -1.66406,0 -2.29687,-0.61719 -0.63282,-0.625 -0.63282,-2.26562 v -4.75 h -1.05468 v -1.11719 h 1.05468 v -2.48438 z"
     id="path337633" /></g>
<g
   aria-label="controller"
   id="text18"
   class="st1 st2 st3"
   style="font-size:16px;font-family:GoogleSans-Medium;fill:#202124"><path
     d="m 259.48457,128.96043 v 1.34375 q -0.60937,-0.33593 -1.22656,-0.5 -0.60937,-0.17187 -1.23437,-0.17187 -1.39844,0 -2.17188,0.89062 -0.77344,0.88282 -0.77344,2.48438 0,1.60156 0.77344,2.49219 0.77344,0.88281 2.17188,0.88281 0.625,0 1.23437,-0.16406 0.61719,-0.17188 1.22656,-0.50782 v 1.32813 q -0.60156,0.28125 -1.25,0.42187 -0.64062,0.14063 -1.36718,0.14063 -1.97657,0 -3.14063,-1.24219 -1.16406,-1.24219 -1.16406,-3.35156 0,-2.14063 1.17187,-3.36719 1.17969,-1.22656 3.22657,-1.22656 0.66406,0 1.29687,0.14062 0.63281,0.13282 1.22656,0.40625 z"
     id="path337636" /><path
     d="m 265.3752,129.63231 q -1.15625,0 -1.82813,0.90625 -0.67187,0.89844 -0.67187,2.46875 0,1.57031 0.66406,2.47656 0.67188,0.89844 1.83594,0.89844 1.14844,0 1.82031,-0.90625 0.67188,-0.90625 0.67188,-2.46875 0,-1.55469 -0.67188,-2.46094 -0.67187,-0.91406 -1.82031,-0.91406 z m 0,-1.21875 q 1.875,0 2.94531,1.21875 1.07031,1.21875 1.07031,3.375 0,2.14844 -1.07031,3.375 -1.07031,1.21875 -2.94531,1.21875 -1.88281,0 -2.95313,-1.21875 -1.0625,-1.22656 -1.0625,-3.375 0,-2.15625 1.0625,-3.375 1.07032,-1.21875 2.95313,-1.21875 z"
     id="path337638" /><path
     d="m 279.04707,132.09325 v 5.28125 h -1.4375 v -5.23438 q 0,-1.24219 -0.48437,-1.85937 -0.48438,-0.61719 -1.45313,-0.61719 -1.16406,0 -1.83593,0.74219 -0.67188,0.74218 -0.67188,2.02343 v 4.94532 h -1.44531 v -8.75 h 1.44531 v 1.35937 q 0.51563,-0.78906 1.21094,-1.17969 0.70312,-0.39062 1.61719,-0.39062 1.50781,0 2.28125,0.9375 0.77343,0.92969 0.77343,2.74219 z"
     id="path337640" /><path
     d="m 283.33614,126.14012 v 2.48438 h 2.96093 v 1.11718 h -2.96093 v 4.75 q 0,1.07032 0.28906,1.375 0.29687,0.30469 1.19531,0.30469 h 1.47656 v 1.20313 h -1.47656 q -1.66406,0 -2.29687,-0.61719 -0.63282,-0.625 -0.63282,-2.26563 v -4.75 h -1.05468 v -1.11718 h 1.05468 v -2.48438 z"
     id="path337642" /><path
     d="m 293.25801,129.96825 q -0.24219,-0.14063 -0.53125,-0.20313 -0.28125,-0.0703 -0.625,-0.0703 -1.21875,0 -1.875,0.79687 -0.64844,0.78907 -0.64844,2.27344 v 4.60938 h -1.44531 v -8.75 h 1.44531 v 1.35937 q 0.45313,-0.79687 1.17969,-1.17969 0.72656,-0.39062 1.76563,-0.39062 0.14843,0 0.32812,0.0234 0.17969,0.0156 0.39844,0.0547 z"
     id="path337644" /><path
     d="m 297.80489,129.63231 q -1.15625,0 -1.82813,0.90625 -0.67187,0.89844 -0.67187,2.46875 0,1.57031 0.66406,2.47656 0.67187,0.89844 1.83594,0.89844 1.14843,0 1.82031,-0.90625 0.67187,-0.90625 0.67187,-2.46875 0,-1.55469 -0.67187,-2.46094 -0.67188,-0.91406 -1.82031,-0.91406 z m 0,-1.21875 q 1.875,0 2.94531,1.21875 1.07031,1.21875 1.07031,3.375 0,2.14844 -1.07031,3.375 -1.07031,1.21875 -2.94531,1.21875 -1.88282,0 -2.95313,-1.21875 -1.0625,-1.22656 -1.0625,-3.375 0,-2.15625 1.0625,-3.375 1.07031,-1.21875 2.95313,-1.21875 z"
     id="path337646" /><path
     d="m 304.20332,125.21825 h 1.4375 v 12.15625 h -1.4375 z"
     id="path337648" /><path
     d="m 308.64864,125.21825 h 1.4375 v 12.15625 h -1.4375 z"
     id="path337650" /><path
     d="m 320.57832,132.64012 v 0.70313 h -6.60937 q 0.0937,1.48437 0.89062,2.26562 0.80469,0.77344 2.23438,0.77344 0.82812,0 1.60156,-0.20313 0.78125,-0.20312 1.54688,-0.60937 v 1.35937 q -0.77344,0.32813 -1.58594,0.5 -0.8125,0.17188 -1.64844,0.17188 -2.09375,0 -3.32031,-1.21875 -1.21875,-1.21875 -1.21875,-3.29688 0,-2.14843 1.15625,-3.40625 1.16406,-1.26562 3.13281,-1.26562 1.76563,0 2.78906,1.14062 1.03125,1.13282 1.03125,3.08594 z m -1.4375,-0.42187 q -0.0156,-1.17969 -0.66406,-1.88282 -0.64062,-0.70312 -1.70312,-0.70312 -1.20313,0 -1.92969,0.67969 -0.71875,0.67968 -0.82813,1.91406 z"
     id="path337652" /><path
     d="m 328.00801,129.96825 q -0.24219,-0.14063 -0.53125,-0.20313 -0.28125,-0.0703 -0.625,-0.0703 -1.21875,0 -1.875,0.79687 -0.64844,0.78907 -0.64844,2.27344 v 4.60938 h -1.44531 v -8.75 h 1.44531 v 1.35937 q 0.45313,-0.79687 1.17969,-1.17969 0.72656,-0.39062 1.76563,-0.39062 0.14843,0 0.32812,0.0234 0.17969,0.0156 0.39844,0.0547 z"
     id="path337654" /></g>
<g
   aria-label="Checkout"
   id="text20"
   class="st1 st5 st6"
   style="font-size:14px;font-family:GoogleSans-Regular;fill:#202124"><path
     d="m 204.87349,180.10577 v 1.45606 q -0.69727,-0.64942 -1.49023,-0.9707 -0.78614,-0.32129 -1.67481,-0.32129 -1.75,0 -2.67969,1.07324 -0.92968,1.0664 -0.92968,3.08984 0,2.0166 0.92968,3.08985 0.92969,1.0664 2.67969,1.0664 0.88867,0 1.67481,-0.32129 0.79296,-0.32129 1.49023,-0.9707 v 1.44238 q -0.72461,0.49219 -1.53809,0.73828 -0.80664,0.2461 -1.70898,0.2461 -2.31738,0 -3.65039,-1.41504 -1.33301,-1.42188 -1.33301,-3.87598 0,-2.46094 1.33301,-3.87597 1.33301,-1.42188 3.65039,-1.42188 0.91601,0 1.72266,0.24609 0.81347,0.23926 1.52441,0.72461 z"
     id="path337657" /><path
     d="m 213.31587,184.9046 v 4.6211 h -1.25781 v -4.58008 q 0,-1.08692 -0.42383,-1.62696 -0.42383,-0.54003 -1.27148,-0.54003 -1.01856,0 -1.60645,0.64941 -0.58789,0.64941 -0.58789,1.77051 v 4.32715 h -1.26465 v -10.63672 h 1.26465 v 4.16992 q 0.45117,-0.69043 1.05957,-1.03223 0.61524,-0.34179 1.41504,-0.34179 1.31934,0 1.99609,0.82031 0.67676,0.81347 0.67676,2.39941 z"
     id="path337659" /><path
     d="m 222.37349,185.38312 v 0.61523 h -5.7832 q 0.082,1.29883 0.77929,1.98242 0.7041,0.67676 1.95508,0.67676 0.72461,0 1.40137,-0.17773 0.68359,-0.17774 1.35351,-0.53321 v 1.18946 q -0.67675,0.28711 -1.38769,0.4375 -0.71094,0.15039 -1.44238,0.15039 -1.83204,0 -2.90528,-1.06641 -1.0664,-1.0664 -1.0664,-2.88476 0,-1.87989 1.01172,-2.98047 1.01855,-1.10742 2.74121,-1.10742 1.54492,0 2.44043,0.99804 0.90234,0.99121 0.90234,2.7002 z m -1.25781,-0.36914 q -0.0137,-1.03223 -0.58106,-1.64746 -0.56054,-0.61524 -1.49023,-0.61524 -1.05274,0 -1.68848,0.59473 -0.6289,0.59472 -0.72461,1.6748 z"
     id="path337661" /><path
     d="m 229.94771,182.16339 v 1.17578 q -0.5332,-0.29394 -1.07324,-0.4375 -0.53321,-0.15039 -1.08008,-0.15039 -1.22363,0 -1.90039,0.7793 -0.67676,0.77246 -0.67676,2.17383 0,1.40136 0.67676,2.18066 0.67676,0.77246 1.90039,0.77246 0.54687,0 1.08008,-0.14355 0.54004,-0.15039 1.07324,-0.44434 v 1.16211 q -0.52637,0.24609 -1.09375,0.36914 -0.56055,0.12305 -1.19629,0.12305 -1.72949,0 -2.74805,-1.08692 -1.01855,-1.08691 -1.01855,-2.93261 0,-1.87305 1.02539,-2.94629 1.03222,-1.07324 2.82324,-1.07324 0.58106,0 1.13477,0.12304 0.55371,0.11621 1.07324,0.35547 z"
     id="path337663" /><path
     d="m 232.08736,178.88898 h 1.26465 v 6.28222 l 3.75292,-3.30175 h 1.60645 l -4.06055,3.58203 4.23145,4.07422 h -1.64063 l -3.88964,-3.73926 v 3.73926 h -1.26465 z"
     id="path337665" /><path
     d="m 242.7104,182.75128 q -1.01172,0 -1.59961,0.79297 -0.58789,0.78613 -0.58789,2.16016 0,1.37402 0.58106,2.16699 0.58789,0.78613 1.60644,0.78613 1.00489,0 1.59278,-0.79297 0.58789,-0.79297 0.58789,-2.16015 0,-1.36035 -0.58789,-2.15332 -0.58789,-0.79981 -1.59278,-0.79981 z m 0,-1.0664 q 1.64063,0 2.57715,1.0664 0.93653,1.06641 0.93653,2.95313 0,1.87988 -0.93653,2.95312 -0.93652,1.06641 -2.57715,1.06641 -1.64746,0 -2.58398,-1.06641 -0.92969,-1.07324 -0.92969,-2.95312 0,-1.88672 0.92969,-2.95313 0.93652,-1.0664 2.58398,-1.0664 z"
     id="path337667" /><path
     d="m 248.17915,186.50421 v -4.63476 h 1.25782 v 4.58691 q 0,1.08691 0.42382,1.63379 0.42383,0.54004 1.27149,0.54004 1.01855,0 1.60644,-0.64942 0.59473,-0.64941 0.59473,-1.7705 v -4.34082 h 1.25781 v 7.65625 h -1.25781 v -1.17579 q -0.45801,0.69727 -1.06641,1.03907 -0.60156,0.33496 -1.40136,0.33496 -1.31934,0 -2.00293,-0.82031 -0.6836,-0.82032 -0.6836,-2.39942 z m 3.16504,-4.81933 z"
     id="path337669" /><path
     d="m 258.42622,179.69562 v 2.17383 h 2.59082 v 0.97753 h -2.59082 v 4.15625 q 0,0.93653 0.25293,1.20313 0.25977,0.2666 1.0459,0.2666 h 1.29199 v 1.05274 h -1.29199 q -1.45605,0 -2.00976,-0.54004 -0.55371,-0.54688 -0.55371,-1.98243 v -4.15625 h -0.92286 v -0.97753 h 0.92286 v -2.17383 z"
     id="path337671" /></g>
<g
   aria-label="Process"
   id="text22"
   class="st1 st5 st6"
   style="font-size:14px;font-family:GoogleSans-Regular;fill:#202124"><path
     d="m 352.25186,201.60461 v 3.83497 h 1.73633 q 0.96387,0 1.49023,-0.49903 0.52637,-0.49902 0.52637,-1.42187 0,-0.91602 -0.52637,-1.41504 -0.52636,-0.49903 -1.49023,-0.49903 z m -1.38086,-1.13476 h 3.11719 q 1.71582,0 2.59082,0.7793 0.88184,0.77246 0.88184,2.26953 0,1.51074 -0.88184,2.2832 -0.875,0.77246 -2.59082,0.77246 h -1.73633 v 4.10156 H 350.871 Z"
     id="path337674" /><path
     d="m 363.44913,204.19543 q -0.21192,-0.12304 -0.46485,-0.17773 -0.24609,-0.0615 -0.54687,-0.0615 -1.06641,0 -1.64063,0.69726 -0.56738,0.69043 -0.56738,1.98926 v 4.0332 h -1.26465 v -7.65625 h 1.26465 v 1.18946 q 0.39649,-0.69727 1.03223,-1.03223 0.63574,-0.3418 1.54492,-0.3418 0.12988,0 0.28711,0.0205 0.15723,0.0137 0.34863,0.0478 z"
     id="path337676" /><path
     d="m 367.42764,203.90149 q -1.01172,0 -1.59961,0.79297 -0.58789,0.78613 -0.58789,2.16015 0,1.37403 0.58106,2.167 0.58789,0.78613 1.60644,0.78613 1.00489,0 1.59278,-0.79297 0.58789,-0.79297 0.58789,-2.16016 0,-1.36035 -0.58789,-2.15332 -0.58789,-0.7998 -1.59278,-0.7998 z m 0,-1.06641 q 1.64063,0 2.57715,1.06641 0.93652,1.06641 0.93652,2.95312 0,1.87989 -0.93652,2.95313 -0.93652,1.06641 -2.57715,1.06641 -1.64746,0 -2.58398,-1.06641 -0.92969,-1.07324 -0.92969,-2.95313 0,-1.88671 0.92969,-2.95312 0.93652,-1.06641 2.58398,-1.06641 z"
     id="path337678" /><path
     d="m 378.53604,203.3136 v 1.17578 q -0.5332,-0.29395 -1.07324,-0.4375 -0.5332,-0.15039 -1.08008,-0.15039 -1.22363,0 -1.90039,0.7793 -0.67676,0.77246 -0.67676,2.17382 0,1.40137 0.67676,2.18067 0.67676,0.77246 1.90039,0.77246 0.54688,0 1.08008,-0.14356 0.54004,-0.15039 1.07324,-0.44433 v 1.16211 q -0.52637,0.24609 -1.09375,0.36914 -0.56055,0.12305 -1.19629,0.12305 -1.72949,0 -2.74804,-1.08692 -1.01856,-1.08691 -1.01856,-2.93262 0,-1.87304 1.02539,-2.94628 1.03223,-1.07325 2.82324,-1.07325 0.58106,0 1.13477,0.12305 0.55371,0.11621 1.07324,0.35547 z"
     id="path337680" /><path
     d="m 387.27237,206.53333 v 0.61523 h -5.7832 q 0.082,1.29883 0.77929,1.98242 0.7041,0.67676 1.95508,0.67676 0.72461,0 1.40137,-0.17774 0.68359,-0.17773 1.35351,-0.5332 v 1.18945 q -0.67675,0.28711 -1.38769,0.4375 -0.71094,0.1504 -1.44238,0.1504 -1.83204,0 -2.90528,-1.06641 -1.0664,-1.06641 -1.0664,-2.88477 0,-1.87988 1.01172,-2.98047 1.01855,-1.10742 2.74121,-1.10742 1.54492,0 2.44043,0.99805 0.90234,0.99121 0.90234,2.7002 z m -1.25781,-0.36915 q -0.0137,-1.03222 -0.58106,-1.64746 -0.56054,-0.61523 -1.49023,-0.61523 -1.05274,0 -1.68848,0.59473 -0.6289,0.59472 -0.72461,1.6748 z"
     id="path337682" /><path
     d="m 394.21768,203.24524 v 1.18945 q -0.5332,-0.27344 -1.10742,-0.41015 -0.57422,-0.13672 -1.18945,-0.13672 -0.93653,0 -1.40821,0.28711 -0.46484,0.28711 -0.46484,0.86132 0,0.4375 0.33496,0.69043 0.33496,0.2461 1.34668,0.47168 l 0.43066,0.0957 q 1.33985,0.28711 1.9004,0.81347 0.56738,0.51954 0.56738,1.45606 0,1.0664 -0.84766,1.68848 -0.84082,0.62207 -2.31738,0.62207 -0.61524,0 -1.28516,-0.12305 -0.66308,-0.11621 -1.40136,-0.35547 v -1.29883 q 0.69726,0.36231 1.37402,0.54688 0.67676,0.17773 1.33984,0.17773 0.88867,0 1.36719,-0.30078 0.47852,-0.30762 0.47852,-0.86133 0,-0.51269 -0.34864,-0.78613 -0.34179,-0.27344 -1.51074,-0.52637 l -0.4375,-0.10254 q -1.16894,-0.24609 -1.68848,-0.75195 -0.51953,-0.5127 -0.51953,-1.40137 0,-1.08008 0.76563,-1.66797 0.76562,-0.58789 2.17383,-0.58789 0.69726,0 1.3125,0.10254 0.61523,0.10254 1.13476,0.30762 z"
     id="path337684" /><path
     d="m 401.51163,203.24524 v 1.18945 q -0.53321,-0.27344 -1.10742,-0.41015 -0.57422,-0.13672 -1.18946,-0.13672 -0.93652,0 -1.4082,0.28711 -0.46484,0.28711 -0.46484,0.86132 0,0.4375 0.33496,0.69043 0.33496,0.2461 1.34668,0.47168 l 0.43066,0.0957 q 1.33984,0.28711 1.90039,0.81347 0.56738,0.51954 0.56738,1.45606 0,1.0664 -0.84765,1.68848 -0.84082,0.62207 -2.31739,0.62207 -0.61523,0 -1.28515,-0.12305 -0.66309,-0.11621 -1.40137,-0.35547 v -1.29883 q 0.69727,0.36231 1.37402,0.54688 0.67676,0.17773 1.33985,0.17773 0.88867,0 1.36719,-0.30078 0.47851,-0.30762 0.47851,-0.86133 0,-0.51269 -0.34863,-0.78613 -0.3418,-0.27344 -1.51074,-0.52637 l -0.4375,-0.10254 q -1.16895,-0.24609 -1.68848,-0.75195 -0.51953,-0.5127 -0.51953,-1.40137 0,-1.08008 0.76562,-1.66797 0.76563,-0.58789 2.17383,-0.58789 0.69727,0 1.3125,0.10254 0.61524,0.10254 1.13477,0.30762 z"
     id="path337686" /></g>
<g
   aria-label="payment"
   id="text24"
   class="st1 st5 st6"
   style="font-size:14px;font-family:GoogleSans-Regular;fill:#202124"><path
     d="m 349.33313,226.32747 v 4.06055 h -1.26465 v -10.56836 h 1.26465 v 1.16211 q 0.39648,-0.6836 0.99805,-1.01172 0.6084,-0.33496 1.44922,-0.33496 1.39453,0 2.26269,1.10742 0.875,1.10742 0.875,2.91211 0,1.80468 -0.875,2.91211 -0.86816,1.10742 -2.26269,1.10742 -0.84082,0 -1.44922,-0.32813 -0.60157,-0.33496 -0.99805,-1.01855 z m 4.2793,-2.67285 q 0,-1.3877 -0.57422,-2.17383 -0.56738,-0.79297 -1.56543,-0.79297 -0.99805,0 -1.57227,0.79297 -0.56738,0.78613 -0.56738,2.17383 0,1.38769 0.56738,2.18066 0.57422,0.78613 1.57227,0.78613 0.99805,0 1.56543,-0.78613 0.57422,-0.79297 0.57422,-2.18066 z"
     id="path337689" /><path
     d="m 360.48254,223.62727 q -1.52441,0 -2.1123,0.34864 -0.58789,0.34863 -0.58789,1.18945 0,0.66992 0.4375,1.06641 0.44433,0.38964 1.20312,0.38964 1.0459,0 1.67481,-0.73828 0.63574,-0.74511 0.63574,-1.97558 v -0.28028 z m 2.50879,-0.51953 v 4.36817 h -1.25781 v -1.16211 q -0.43066,0.69726 -1.07324,1.03222 -0.64258,0.32813 -1.57227,0.32813 -1.17578,0 -1.87304,-0.65625 -0.69043,-0.66309 -0.69043,-1.77051 0,-1.29199 0.86132,-1.94824 0.86817,-0.65625 2.58399,-0.65625 h 1.76367 v -0.12305 q 0,-0.86816 -0.57422,-1.33984 -0.56738,-0.47852 -1.59961,-0.47852 -0.65625,0 -1.27832,0.15723 -0.62207,0.15723 -1.19629,0.47168 v -1.16211 q 0.69043,-0.2666 1.33985,-0.39649 0.64941,-0.13671 1.26465,-0.13671 1.66113,0 2.48144,0.86132 0.82031,0.86133 0.82031,2.61133 z"
     id="path337691" /><path
     d="m 368.7677,228.18684 q -0.5332,1.36719 -1.03906,1.78418 -0.50586,0.417 -1.35352,0.417 h -1.00488 v -1.05274 h 0.73828 q 0.51953,0 0.80664,-0.24609 0.28711,-0.2461 0.63574,-1.16211 l 0.22559,-0.57422 -3.09668,-7.5332 h 1.33301 l 2.39258,5.98828 2.39257,-5.98828 h 1.33301 z"
     id="path337693" /><path
     d="m 379.82825,221.28938 q 0.47168,-0.84765 1.12793,-1.25097 0.65625,-0.40332 1.54492,-0.40332 1.19629,0 1.8457,0.84082 0.64942,0.83398 0.64942,2.3789 v 4.6211 h -1.26465 v -4.58008 q 0,-1.10059 -0.38965,-1.63379 -0.38965,-0.5332 -1.18945,-0.5332 -0.97754,0 -1.54493,0.64941 -0.56738,0.64941 -0.56738,1.77051 v 4.32715 h -1.26465 v -4.58008 q 0,-1.10742 -0.38965,-1.63379 -0.38964,-0.5332 -1.20312,-0.5332 -0.96387,0 -1.53125,0.65625 -0.56738,0.64941 -0.56738,1.76367 v 4.32715 h -1.26465 v -7.65625 h 1.26465 v 1.18945 q 0.43066,-0.7041 1.03222,-1.03906 0.60157,-0.33496 1.42871,-0.33496 0.83399,0 1.41504,0.42382 0.58789,0.42383 0.86817,1.23047 z"
     id="path337695" /><path
     d="m 394.05383,223.33333 v 0.61523 h -5.7832 q 0.082,1.29883 0.7793,1.98242 0.7041,0.67676 1.95507,0.67676 0.72461,0 1.40137,-0.17773 0.6836,-0.17774 1.35352,-0.53321 v 1.18946 q -0.67676,0.28711 -1.3877,0.4375 -0.71094,0.15039 -1.44238,0.15039 -1.83203,0 -2.90527,-1.06641 -1.06641,-1.0664 -1.06641,-2.88476 0,-1.87989 1.01172,-2.98047 1.01855,-1.10742 2.74121,-1.10742 1.54492,0 2.44043,0.99804 0.90234,0.99121 0.90234,2.7002 z m -1.25781,-0.36914 q -0.0137,-1.03223 -0.58105,-1.64746 -0.56055,-0.61524 -1.49024,-0.61524 -1.05273,0 -1.68848,0.59473 -0.6289,0.59473 -0.7246,1.6748 z"
     id="path337697" /><path
     d="m 402.48254,222.85481 v 4.6211 h -1.25781 v -4.58008 q 0,-1.08692 -0.42383,-1.62695 -0.42382,-0.54004 -1.27148,-0.54004 -1.01856,0 -1.60645,0.64941 -0.58789,0.64941 -0.58789,1.77051 v 4.32715 h -1.26465 v -7.65625 h 1.26465 v 1.18945 q 0.45117,-0.69043 1.05957,-1.03223 0.61524,-0.34179 1.41504,-0.34179 1.31934,0 1.9961,0.82031 0.67675,0.81348 0.67675,2.39941 z"
     id="path337699" /><path
     d="m 406.23547,217.64583 v 2.17383 h 2.59082 v 0.97754 h -2.59082 v 4.15625 q 0,0.93652 0.25293,1.20312 0.25977,0.2666 1.0459,0.2666 h 1.29199 v 1.05274 h -1.29199 q -1.45605,0 -2.00976,-0.54004 -0.55371,-0.54688 -0.55371,-1.98242 v -4.15625 h -0.92286 v -0.97754 h 0.92286 v -2.17383 z"
     id="path337701" /></g>
<g
   aria-label="Payment"
   id="text26"
   class="st1 st5 st6"
   style="font-size:14px;font-family:GoogleSans-Regular;fill:#202124"><path
     d="m 349.54968,252.08191 v 3.83496 h 1.73633 q 0.96387,0 1.49024,-0.49902 0.52636,-0.49903 0.52636,-1.42188 0,-0.91601 -0.52636,-1.41504 -0.52637,-0.49902 -1.49024,-0.49902 z m -1.38086,-1.13477 h 3.11719 q 1.71582,0 2.59082,0.7793 0.88184,0.77246 0.88184,2.26953 0,1.51074 -0.88184,2.2832 -0.875,0.77247 -2.59082,0.77247 h -1.73633 v 4.10156 h -1.38086 z"
     id="path337704" /><path
     d="m 359.4071,257.30457 q -1.52441,0 -2.1123,0.34863 -0.58789,0.34863 -0.58789,1.18945 0,0.66992 0.4375,1.06641 0.44434,0.38965 1.20312,0.38965 1.0459,0 1.67481,-0.73829 0.63574,-0.74511 0.63574,-1.97558 v -0.28027 z m 2.50879,-0.51954 v 4.36817 h -1.25781 v -1.16211 q -0.43066,0.69726 -1.07324,1.03223 -0.64258,0.32812 -1.57227,0.32812 -1.17578,0 -1.87304,-0.65625 -0.69043,-0.66309 -0.69043,-1.77051 0,-1.29199 0.86132,-1.94824 0.86817,-0.65625 2.58399,-0.65625 h 1.76367 v -0.12305 q 0,-0.86816 -0.57422,-1.33984 -0.56738,-0.47852 -1.59961,-0.47852 -0.65625,0 -1.27832,0.15723 -0.62207,0.15723 -1.19629,0.47168 v -1.16211 q 0.69043,-0.2666 1.33985,-0.39648 0.64941,-0.13672 1.26465,-0.13672 1.66113,0 2.48144,0.86133 0.82031,0.86132 0.82031,2.61132 z"
     id="path337706" /><path
     d="m 367.69226,261.86414 q -0.5332,1.36718 -1.03906,1.78418 -0.50586,0.41699 -1.35352,0.41699 h -1.00488 v -1.05274 h 0.73828 q 0.51953,0 0.80664,-0.24609 0.28711,-0.24609 0.63574,-1.16211 l 0.22559,-0.57422 -3.09668,-7.5332 h 1.33301 l 2.39258,5.98828 2.39257,-5.98828 h 1.33301 z"
     id="path337708" /><path
     d="m 378.75281,254.96667 q 0.47168,-0.84765 1.12793,-1.25097 0.65625,-0.40332 1.54492,-0.40332 1.19629,0 1.8457,0.84082 0.64942,0.83398 0.64942,2.3789 v 4.6211 h -1.26465 v -4.58008 q 0,-1.10059 -0.38965,-1.63379 -0.38965,-0.5332 -1.18945,-0.5332 -0.97754,0 -1.54493,0.64941 -0.56738,0.64942 -0.56738,1.77051 v 4.32715 h -1.26465 v -4.58008 q 0,-1.10742 -0.38965,-1.63379 -0.38964,-0.5332 -1.20312,-0.5332 -0.96387,0 -1.53125,0.65625 -0.56738,0.64941 -0.56738,1.76367 v 4.32715 h -1.26465 v -7.65625 h 1.26465 v 1.18945 q 0.43066,-0.7041 1.03222,-1.03906 0.60157,-0.33496 1.42871,-0.33496 0.83399,0 1.41504,0.42383 0.58789,0.42382 0.86817,1.23046 z"
     id="path337710" /><path
     d="m 392.97839,257.01062 v 0.61523 h -5.7832 q 0.082,1.29883 0.7793,1.98243 0.7041,0.67675 1.95508,0.67675 0.7246,0 1.40136,-0.17773 0.6836,-0.17773 1.35352,-0.5332 v 1.18945 q -0.67676,0.28711 -1.3877,0.4375 -0.71093,0.15039 -1.44238,0.15039 -1.83203,0 -2.90527,-1.06641 -1.06641,-1.0664 -1.06641,-2.88476 0,-1.87988 1.01172,-2.98047 1.01855,-1.10742 2.74121,-1.10742 1.54492,0 2.44043,0.99804 0.90234,0.99122 0.90234,2.7002 z m -1.25781,-0.36914 q -0.0137,-1.03223 -0.58105,-1.64746 -0.56055,-0.61524 -1.49024,-0.61524 -1.05273,0 -1.68847,0.59473 -0.62891,0.59473 -0.72461,1.67481 z"
     id="path337712" /><path
     d="m 401.4071,256.5321 v 4.6211 h -1.25781 v -4.58008 q 0,-1.08691 -0.42383,-1.62695 -0.42382,-0.54004 -1.27148,-0.54004 -1.01856,0 -1.60645,0.64941 -0.58789,0.64942 -0.58789,1.77051 v 4.32715 H 394.995 v -7.65625 h 1.26464 v 1.18945 q 0.45118,-0.69043 1.05957,-1.03223 0.61524,-0.34179 1.41504,-0.34179 1.31934,0 1.9961,0.82031 0.67675,0.81348 0.67675,2.39941 z"
     id="path337714" /><path
     d="m 405.16003,251.32312 v 2.17383 h 2.59082 v 0.97754 h -2.59082 v 4.15625 q 0,0.93652 0.25293,1.20312 0.25977,0.2666 1.0459,0.2666 h 1.29199 v 1.05274 h -1.29199 q -1.45605,0 -2.00976,-0.54004 -0.55371,-0.54688 -0.55371,-1.98242 v -4.15625 h -0.92286 v -0.97754 h 0.92286 v -2.17383 z"
     id="path337716" /></g>
<g
   aria-label="done"
   id="text28"
   class="st1 st5 st6"
   style="font-size:14px;font-family:GoogleSans-Regular;fill:#202124"><path
     d="m 364.15222,271.45908 v -4.14258 h 1.25781 v 10.63672 h -1.25781 v -1.14844 q -0.39648,0.68359 -1.00488,1.01855 -0.60156,0.32813 -1.44922,0.32813 -1.3877,0 -2.2627,-1.10742 -0.86816,-1.10743 -0.86816,-2.91211 0,-1.80469 0.86816,-2.91211 0.875,-1.10742 2.2627,-1.10742 0.84766,0 1.44922,0.33496 0.6084,0.32812 1.00488,1.01172 z m -4.28613,2.67285 q 0,1.38769 0.56738,2.18066 0.57422,0.78613 1.57227,0.78613 0.99804,0 1.57226,-0.78613 0.57422,-0.79297 0.57422,-2.18066 0,-1.3877 -0.57422,-2.17383 -0.57422,-0.79297 -1.57226,-0.79297 -0.99805,0 -1.57227,0.79297 -0.56738,0.78613 -0.56738,2.17383 z"
     id="path337719" /><path
     d="m 370.96765,271.1788 q -1.01172,0 -1.59961,0.79297 -0.58789,0.78613 -0.58789,2.16016 0,1.37402 0.58106,2.16699 0.58789,0.78613 1.60644,0.78613 1.00488,0 1.59277,-0.79297 0.5879,-0.79297 0.5879,-2.16015 0,-1.36035 -0.5879,-2.15332 -0.58789,-0.79981 -1.59277,-0.79981 z m 0,-1.0664 q 1.64063,0 2.57715,1.0664 0.93652,1.06641 0.93652,2.95313 0,1.87988 -0.93652,2.95312 -0.93652,1.06641 -2.57715,1.06641 -1.64746,0 -2.58398,-1.06641 -0.92969,-1.07324 -0.92969,-2.95312 0,-1.88672 0.92969,-2.95313 0.93652,-1.0664 2.58398,-1.0664 z"
     id="path337721" /><path
     d="m 382.93054,273.33212 v 4.6211 h -1.25781 v -4.58008 q 0,-1.08692 -0.42383,-1.62695 -0.42383,-0.54004 -1.27148,-0.54004 -1.01856,0 -1.60645,0.64941 -0.58789,0.64941 -0.58789,1.77051 v 4.32715 h -1.26465 v -7.65625 h 1.26465 v 1.18945 q 0.45117,-0.69043 1.05957,-1.03223 0.61524,-0.34179 1.41504,-0.34179 1.31934,0 1.99609,0.82031 0.67676,0.81348 0.67676,2.39941 z"
     id="path337723" /><path
     d="m 391.98816,273.81064 v 0.61523 h -5.7832 q 0.082,1.29883 0.77929,1.98242 0.7041,0.67676 1.95508,0.67676 0.72461,0 1.40137,-0.17773 0.68359,-0.17774 1.35351,-0.53321 v 1.18946 q -0.67675,0.28711 -1.38769,0.4375 -0.71094,0.15039 -1.44238,0.15039 -1.83204,0 -2.90528,-1.06641 -1.0664,-1.0664 -1.0664,-2.88476 0,-1.87989 1.01171,-2.98047 1.01856,-1.10742 2.74122,-1.10742 1.54492,0 2.44043,0.99804 0.90234,0.99121 0.90234,2.7002 z m -1.25781,-0.36914 q -0.0137,-1.03223 -0.58106,-1.64746 -0.56054,-0.61524 -1.49023,-0.61524 -1.05274,0 -1.68848,0.59473 -0.62891,0.59473 -0.72461,1.6748 z"
     id="path337725" /></g>
<g
   aria-label="Save"
   id="text30"
   class="st1 st5 st6"
   style="font-size:14px;font-family:GoogleSans-Regular;fill:#202124"><path
     d="m 535.2406,301.75931 v 1.34668 q -0.78613,-0.37598 -1.4834,-0.56055 -0.69726,-0.18457 -1.34668,-0.18457 -1.12793,0 -1.74316,0.4375 -0.6084,0.4375 -0.6084,1.24414 0,0.67676 0.40332,1.02539 0.41016,0.3418 1.54492,0.55371 l 0.83399,0.1709 q 1.54492,0.29395 2.27636,1.03906 0.73828,0.73828 0.73828,1.98243 0,1.48339 -0.99804,2.24902 -0.99121,0.76562 -2.91211,0.76562 -0.72461,0 -1.54492,-0.16406 -0.81348,-0.16406 -1.68848,-0.48535 v -1.42188 q 0.84082,0.47168 1.64746,0.71094 0.80664,0.23926 1.58594,0.23926 1.18262,0 1.82519,-0.46484 0.64258,-0.46485 0.64258,-1.32618 0,-0.75195 -0.46484,-1.17578 -0.45801,-0.42382 -1.51074,-0.63574 l -0.84082,-0.16406 q -1.54493,-0.30762 -2.23536,-0.96387 -0.69043,-0.65625 -0.69043,-1.82519 0,-1.35352 0.9502,-2.13282 0.95703,-0.77929 2.63184,-0.77929 0.71777,0 1.46289,0.12988 0.74511,0.12988 1.52441,0.38965 z"
     id="path337728" /><path
     d="m 541.43396,307.78177 q -1.52441,0 -2.1123,0.34863 -0.5879,0.34863 -0.5879,1.18945 0,0.66993 0.4375,1.06641 0.44434,0.38965 1.20313,0.38965 1.0459,0 1.6748,-0.73828 0.63575,-0.74512 0.63575,-1.97559 v -0.28027 z m 2.50879,-0.51953 v 4.36816 h -1.25781 v -1.16211 q -0.43067,0.69727 -1.07325,1.03223 -0.64257,0.32812 -1.57226,0.32812 -1.17578,0 -1.87305,-0.65625 -0.69043,-0.66308 -0.69043,-1.7705 0,-1.292 0.86133,-1.94825 0.86816,-0.65625 2.58398,-0.65625 h 1.76368 v -0.12304 q 0,-0.86817 -0.57422,-1.33985 -0.56739,-0.47851 -1.59961,-0.47851 -0.65625,0 -1.27832,0.15722 -0.62207,0.15723 -1.19629,0.47168 v -1.16211 q 0.69043,-0.2666 1.33984,-0.39648 0.64942,-0.13672 1.26465,-0.13672 1.66113,0 2.48145,0.86133 0.82031,0.86133 0.82031,2.61133 z"
     id="path337730" /><path
     d="m 545.63123,303.97415 h 1.333 l 2.39258,6.42578 2.39258,-6.42578 h 1.33301 l -2.8711,7.65625 h -1.70898 z"
     id="path337732" /><path
     d="m 561.36755,307.48782 v 0.61524 h -5.7832 q 0.082,1.29883 0.7793,1.98242 0.7041,0.67676 1.95508,0.67676 0.7246,0 1.40136,-0.17774 0.6836,-0.17773 1.35352,-0.5332 v 1.18945 q -0.67676,0.28711 -1.3877,0.4375 -0.71093,0.15039 -1.44238,0.15039 -1.83203,0 -2.90527,-1.0664 -1.06641,-1.06641 -1.06641,-2.88477 0,-1.87988 1.01172,-2.98047 1.01855,-1.10742 2.74121,-1.10742 1.54492,0 2.44043,0.99805 0.90234,0.99121 0.90234,2.70019 z m -1.25781,-0.36914 q -0.0137,-1.03222 -0.58105,-1.64746 -0.56055,-0.61523 -1.49024,-0.61523 -1.05273,0 -1.68847,0.59472 -0.62891,0.59473 -0.72461,1.67481 z"
     id="path337734" /></g>
<g
   aria-label="order"
   id="text32"
   class="st1 st5 st6"
   style="font-size:14px;font-family:GoogleSans-Regular;fill:#202124"><path
     d="m 528.03455,321.65598 q -1.01172,0 -1.59961,0.79296 -0.58789,0.78614 -0.58789,2.16016 0,1.37402 0.58105,2.16699 0.58789,0.78614 1.60645,0.78614 1.00488,0 1.59277,-0.79297 0.58789,-0.79297 0.58789,-2.16016 0,-1.36035 -0.58789,-2.15332 -0.58789,-0.7998 -1.59277,-0.7998 z m 0,-1.06641 q 1.64062,0 2.57714,1.06641 0.93653,1.0664 0.93653,2.95312 0,1.87988 -0.93653,2.95313 -0.93652,1.0664 -2.57714,1.0664 -1.64747,0 -2.58399,-1.0664 -0.92969,-1.07325 -0.92969,-2.95313 0,-1.88672 0.92969,-2.95312 0.93652,-1.06641 2.58399,-1.06641 z"
     id="path337737" /><path
     d="m 538.0697,321.94992 q -0.21191,-0.12305 -0.46484,-0.17773 -0.2461,-0.0615 -0.54688,-0.0615 -1.0664,0 -1.64062,0.69727 -0.56738,0.69043 -0.56738,1.98926 v 4.0332 h -1.26465 v -7.65625 h 1.26465 v 1.18945 q 0.39648,-0.69726 1.03222,-1.03222 0.63574,-0.3418 1.54492,-0.3418 0.12989,0 0.28711,0.0205 0.15723,0.0137 0.34864,0.0479 z"
     id="path337739" /><path
     d="m 544.18103,321.93625 v -4.14258 h 1.25781 v 10.63672 h -1.25781 v -1.14844 q -0.39648,0.6836 -1.00488,1.01856 -0.60157,0.32812 -1.44922,0.32812 -1.3877,0 -2.2627,-1.10742 -0.86816,-1.10742 -0.86816,-2.91211 0,-1.80469 0.86816,-2.91211 0.875,-1.10742 2.2627,-1.10742 0.84765,0 1.44922,0.33496 0.6084,0.32813 1.00488,1.01172 z m -4.28613,2.67285 q 0,1.3877 0.56738,2.18066 0.57422,0.78614 1.57227,0.78614 0.99804,0 1.57226,-0.78614 0.57422,-0.79296 0.57422,-2.18066 0,-1.38769 -0.57422,-2.17383 -0.57422,-0.79297 -1.57226,-0.79297 -0.99805,0 -1.57227,0.79297 -0.56738,0.78614 -0.56738,2.17383 z"
     id="path337741" /><path
     d="m 554.57849,324.28781 v 0.61524 h -5.7832 q 0.082,1.29882 0.77929,1.98242 0.70411,0.67676 1.95508,0.67676 0.72461,0 1.40137,-0.17774 0.68359,-0.17773 1.35352,-0.5332 v 1.18945 q -0.67676,0.28711 -1.3877,0.4375 -0.71094,0.15039 -1.44238,0.15039 -1.83203,0 -2.90528,-1.0664 -1.0664,-1.06641 -1.0664,-2.88477 0,-1.87988 1.01172,-2.98047 1.01855,-1.10742 2.74121,-1.10742 1.54492,0 2.44043,0.99805 0.90234,0.99121 0.90234,2.70019 z m -1.25781,-0.36914 q -0.0137,-1.03223 -0.58106,-1.64746 -0.56054,-0.61523 -1.49023,-0.61523 -1.05273,0 -1.68848,0.59472 -0.6289,0.59473 -0.72461,1.67481 z"
     id="path337743" /><path
     d="m 561.07947,321.94992 q -0.21192,-0.12305 -0.46485,-0.17773 -0.24609,-0.0615 -0.54687,-0.0615 -1.06641,0 -1.64063,0.69727 -0.56738,0.69043 -0.56738,1.98926 v 4.0332 h -1.26465 v -7.65625 h 1.26465 v 1.18945 q 0.39649,-0.69726 1.03223,-1.03222 0.63574,-0.3418 1.54492,-0.3418 0.12988,0 0.28711,0.0205 0.15723,0.0137 0.34863,0.0479 z"
     id="path337745" /></g>
<g
   aria-label="Order "
   id="text34"
   class="st1 st5 st6"
   style="font-size:14px;font-family:GoogleSans-Regular;fill:#202124"><path
     d="m 529.26807,352.83746 q -1.50391,0 -2.39258,1.1211 -0.88184,1.12109 -0.88184,3.05566 0,1.92774 0.88184,3.04883 0.88867,1.12109 2.39258,1.12109 1.5039,0 2.3789,-1.12109 0.88184,-1.12109 0.88184,-3.04883 0,-1.93457 -0.88184,-3.05566 -0.875,-1.1211 -2.3789,-1.1211 z m 0,-1.12109 q 2.14648,0 3.43164,1.44238 1.28515,1.43555 1.28515,3.85547 0,2.41309 -1.28515,3.85547 -1.28516,1.43555 -3.43164,1.43555 -2.15332,0 -3.44532,-1.43555 -1.28515,-1.43555 -1.28515,-3.85547 0,-2.41992 1.28515,-3.85547 1.292,-1.44238 3.44532,-1.44238 z"
     id="path337748" /><path
     d="m 540.52686,355.62653 q -0.21192,-0.12305 -0.46485,-0.17774 -0.24609,-0.0615 -0.54687,-0.0615 -1.06641,0 -1.64063,0.69726 -0.56738,0.69043 -0.56738,1.98926 v 4.0332 h -1.26465 v -7.65625 h 1.26465 v 1.18946 q 0.39648,-0.69727 1.03223,-1.03223 0.63574,-0.3418 1.54492,-0.3418 0.12988,0 0.28711,0.0205 0.15722,0.0137 0.34863,0.0478 z"
     id="path337750" /><path
     d="m 546.63818,355.61285 v -4.14257 h 1.25782 v 10.63671 h -1.25782 v -1.14843 q -0.39648,0.68359 -1.00488,1.01855 -0.60156,0.32813 -1.44922,0.32813 -1.38769,0 -2.26269,-1.10743 -0.86817,-1.10742 -0.86817,-2.9121 0,-1.80469 0.86817,-2.91211 0.875,-1.10743 2.26269,-1.10743 0.84766,0 1.44922,0.33497 0.6084,0.32812 1.00488,1.01171 z m -4.28613,2.67286 q 0,1.38769 0.56738,2.18066 0.57422,0.78613 1.57227,0.78613 0.99805,0 1.57226,-0.78613 0.57422,-0.79297 0.57422,-2.18066 0,-1.3877 -0.57422,-2.17383 -0.57421,-0.79297 -1.57226,-0.79297 -0.99805,0 -1.57227,0.79297 -0.56738,0.78613 -0.56738,2.17383 z"
     id="path337752" /><path
     d="m 557.03564,357.96442 v 0.61523 h -5.7832 q 0.082,1.29883 0.7793,1.98242 0.7041,0.67676 1.95508,0.67676 0.72461,0 1.40136,-0.17773 0.6836,-0.17774 1.35352,-0.53321 v 1.18946 q -0.67676,0.28711 -1.3877,0.4375 -0.71093,0.15039 -1.44238,0.15039 -1.83203,0 -2.90527,-1.06641 -1.06641,-1.06641 -1.06641,-2.88477 0,-1.87988 1.01172,-2.98046 1.01855,-1.10743 2.74121,-1.10743 1.54492,0 2.44043,0.99805 0.90234,0.99121 0.90234,2.7002 z m -1.25781,-0.36914 q -0.0137,-1.03223 -0.58105,-1.64747 -0.56055,-0.61523 -1.49024,-0.61523 -1.05273,0 -1.68847,0.59473 -0.62891,0.59472 -0.72461,1.6748 z"
     id="path337754" /><path
     d="m 563.53662,355.62653 q -0.21191,-0.12305 -0.46484,-0.17774 -0.2461,-0.0615 -0.54688,-0.0615 -1.0664,0 -1.64062,0.69726 -0.56739,0.69043 -0.56739,1.98926 v 4.0332 h -1.26464 v -7.65625 h 1.26464 v 1.18946 q 0.39649,-0.69727 1.03223,-1.03223 0.63574,-0.3418 1.54492,-0.3418 0.12989,0 0.28711,0.0205 0.15723,0.0137 0.34864,0.0478 z"
     id="path337756" /></g>
<g
   aria-label="saved"
   id="text36"
   class="st1 st5 st6"
   style="font-size:14px;font-family:GoogleSans-Regular;fill:#202124"><path
     d="m 529.75159,371.47635 v 1.18945 q -0.53321,-0.27344 -1.10742,-0.41015 -0.57422,-0.13672 -1.18946,-0.13672 -0.93652,0 -1.4082,0.28711 -0.46484,0.28711 -0.46484,0.86132 0,0.4375 0.33496,0.69043 0.33496,0.2461 1.34668,0.47168 l 0.43066,0.0957 q 1.33984,0.28711 1.90039,0.81347 0.56738,0.51953 0.56738,1.45606 0,1.0664 -0.84765,1.68847 -0.84082,0.62208 -2.31739,0.62208 -0.61523,0 -1.28515,-0.12305 -0.66309,-0.11621 -1.40137,-0.35547 v -1.29883 q 0.69727,0.36231 1.37402,0.54688 0.67676,0.17773 1.33985,0.17773 0.88867,0 1.36719,-0.30078 0.47851,-0.30762 0.47851,-0.86133 0,-0.51269 -0.34863,-0.78613 -0.3418,-0.27344 -1.51074,-0.52637 l -0.4375,-0.10254 q -1.16895,-0.24609 -1.68848,-0.75195 -0.51953,-0.5127 -0.51953,-1.40137 0,-1.08008 0.76562,-1.66797 0.76563,-0.58789 2.17383,-0.58789 0.69727,0 1.3125,0.10254 0.61524,0.10254 1.13477,0.30762 z"
     id="path337759" /><path
     d="m 535.64417,375.05838 q -1.52442,0 -2.11231,0.34863 -0.58789,0.34864 -0.58789,1.18946 0,0.66992 0.4375,1.0664 0.44434,0.38965 1.20312,0.38965 1.0459,0 1.67481,-0.73828 0.63574,-0.74512 0.63574,-1.97559 v -0.28027 z m 2.50878,-0.51953 v 4.36816 h -1.25781 v -1.16211 q -0.43066,0.69727 -1.07324,1.03223 -0.64258,0.32813 -1.57227,0.32813 -1.17578,0 -1.87304,-0.65625 -0.69043,-0.66309 -0.69043,-1.77051 0,-1.29199 0.86133,-1.94824 0.86816,-0.65625 2.58398,-0.65625 h 1.76367 v -0.12305 q 0,-0.86817 -0.57422,-1.33985 -0.56738,-0.47851 -1.59961,-0.47851 -0.65625,0 -1.27832,0.15723 -0.62207,0.15722 -1.19629,0.47168 v -1.16211 q 0.69043,-0.26661 1.33985,-0.39649 0.64941,-0.13672 1.26465,-0.13672 1.66113,0 2.48144,0.86133 0.82031,0.86133 0.82031,2.61133 z"
     id="path337761" /><path
     d="m 539.84143,371.25076 h 1.33301 l 2.39258,6.42578 2.39257,-6.42578 h 1.33301 l -2.87109,7.65625 h -1.70899 z"
     id="path337763" /><path
     d="m 555.57776,374.76443 v 0.61524 h -5.7832 q 0.082,1.29883 0.77929,1.98242 0.7041,0.67676 1.95508,0.67676 0.72461,0 1.40137,-0.17774 0.68359,-0.17773 1.35351,-0.5332 v 1.18945 q -0.67675,0.28711 -1.38769,0.4375 -0.71094,0.1504 -1.44238,0.1504 -1.83204,0 -2.90528,-1.06641 -1.0664,-1.06641 -1.0664,-2.88477 0,-1.87988 1.01171,-2.98047 1.01856,-1.10742 2.74122,-1.10742 1.54492,0 2.44043,0.99805 0.90234,0.99121 0.90234,2.70019 z m -1.25781,-0.36914 q -0.0137,-1.03222 -0.58106,-1.64746 -0.56055,-0.61523 -1.49023,-0.61523 -1.05274,0 -1.68848,0.59473 -0.62891,0.59472 -0.72461,1.6748 z"
     id="path337765" /><path
     d="m 562.6803,372.41287 v -4.14258 h 1.25781 v 10.63672 h -1.25781 v -1.14843 q -0.39649,0.68359 -1.00488,1.01855 -0.60157,0.32813 -1.44922,0.32813 -1.3877,0 -2.2627,-1.10743 -0.86816,-1.10742 -0.86816,-2.91211 0,-1.80468 0.86816,-2.91211 0.875,-1.10742 2.2627,-1.10742 0.84765,0 1.44922,0.33496 0.60839,0.32813 1.00488,1.01172 z m -4.28613,2.67285 q 0,1.3877 0.56738,2.18067 0.57422,0.78613 1.57226,0.78613 0.99805,0 1.57227,-0.78613 0.57422,-0.79297 0.57422,-2.18067 0,-1.38769 -0.57422,-2.17382 -0.57422,-0.79297 -1.57227,-0.79297 -0.99804,0 -1.57226,0.79297 -0.56738,0.78613 -0.56738,2.17382 z"
     id="path337767" /></g>
<g
   aria-label="Confirmation "
   id="text38"
   class="st1 st5 st6"
   style="font-size:14px;font-family:GoogleSans-Regular;fill:#202124"><path
     d="m 193.81339,395.16208 v 1.45605 q -0.69727,-0.64941 -1.49024,-0.9707 -0.78613,-0.32129 -1.6748,-0.32129 -1.75,0 -2.67969,1.07324 -0.92969,1.06641 -0.92969,3.08985 0,2.0166 0.92969,3.08984 0.92969,1.06641 2.67969,1.06641 0.88867,0 1.6748,-0.32129 0.79297,-0.32129 1.49024,-0.9707 v 1.44238 q -0.72461,0.49219 -1.53809,0.73828 -0.80664,0.24609 -1.70899,0.24609 -2.31738,0 -3.65039,-1.41504 -1.333,-1.42187 -1.333,-3.87597 0,-2.46094 1.333,-3.87598 1.33301,-1.42187 3.65039,-1.42187 0.91602,0 1.72266,0.24609 0.81348,0.23926 1.52442,0.72461 z"
     id="path337770" /><path
     d="m 198.85831,397.80759 q -1.01172,0 -1.59961,0.79297 -0.58789,0.78613 -0.58789,2.16015 0,1.37403 0.58105,2.16699 0.58789,0.78614 1.60645,0.78614 1.00488,0 1.59277,-0.79297 0.58789,-0.79297 0.58789,-2.16016 0,-1.36035 -0.58789,-2.15332 -0.58789,-0.7998 -1.59277,-0.7998 z m 0,-1.06641 q 1.64062,0 2.57715,1.06641 0.93652,1.0664 0.93652,2.95312 0,1.87988 -0.93652,2.95313 -0.93653,1.0664 -2.57715,1.0664 -1.64746,0 -2.58399,-1.0664 -0.92968,-1.07325 -0.92968,-2.95313 0,-1.88672 0.92968,-2.95312 0.93653,-1.06641 2.58399,-1.06641 z"
     id="path337772" /><path
     d="m 210.8212,399.96091 v 4.62109 h -1.25781 v -4.58008 q 0,-1.08691 -0.42383,-1.62695 -0.42383,-0.54004 -1.27149,-0.54004 -1.01855,0 -1.60644,0.64941 -0.58789,0.64942 -0.58789,1.77051 v 4.32715 h -1.26465 v -7.65625 h 1.26465 v 1.18945 q 0.45117,-0.69043 1.05957,-1.03222 0.61523,-0.3418 1.41504,-0.3418 1.31933,0 1.99609,0.82031 0.67676,0.81348 0.67676,2.39942 z"
     id="path337774" /><path
     d="m 219.51651,396.92575 v 7.65625 h -1.26465 v -6.67871 h -3.45215 v 6.67871 h -1.26465 v -6.67871 h -1.20312 v -0.97754 h 1.20312 v -0.5332 q 0,-1.25098 0.5879,-1.84571 0.59472,-0.60156 1.81835,-0.60156 h 1.26465 v 1.0459 h -1.20312 q -0.67676,0 -0.94336,0.27344 -0.25977,0.27344 -0.25977,0.98437 v 0.67676 z m -1.26465,-2.9668 h 1.26465 v 1.59278 h -1.26465 z"
     id="path337776" /><path
     d="m 226.58487,398.10153 q -0.21191,-0.12304 -0.46484,-0.17773 -0.2461,-0.0615 -0.54688,-0.0615 -1.06641,0 -1.64062,0.69727 -0.56739,0.69043 -0.56739,1.98926 v 4.0332 h -1.26465 v -7.65625 h 1.26465 v 1.18945 q 0.39649,-0.69726 1.03223,-1.03222 0.63574,-0.3418 1.54492,-0.3418 0.12988,0 0.28711,0.0205 0.15723,0.0137 0.34863,0.0479 z"
     id="path337778" /><path
     d="m 233.61905,398.39548 q 0.47168,-0.84766 1.12793,-1.25098 0.65625,-0.40332 1.54492,-0.40332 1.19629,0 1.8457,0.84082 0.64942,0.83399 0.64942,2.37891 v 4.62109 h -1.26465 v -4.58008 q 0,-1.10058 -0.38965,-1.63379 -0.38965,-0.5332 -1.18945,-0.5332 -0.97754,0 -1.54492,0.64941 -0.56739,0.64942 -0.56739,1.77051 v 4.32715 h -1.26465 v -4.58008 q 0,-1.10742 -0.38964,-1.63379 -0.38965,-0.5332 -1.20313,-0.5332 -0.96387,0 -1.53125,0.65625 -0.56738,0.64941 -0.56738,1.76367 v 4.32715 h -1.26465 v -7.65625 h 1.26465 v 1.18945 q 0.43066,-0.7041 1.03223,-1.03906 0.60156,-0.33496 1.42871,-0.33496 0.83398,0 1.41504,0.42383 0.58789,0.42383 0.86816,1.23047 z"
     id="path337780" /><path
     d="m 244.7753,400.73337 q -1.52441,0 -2.11231,0.34863 -0.58789,0.34863 -0.58789,1.18945 0,0.66993 0.4375,1.06641 0.44434,0.38965 1.20313,0.38965 1.0459,0 1.6748,-0.73828 0.63575,-0.74512 0.63575,-1.97559 v -0.28027 z m 2.50879,-0.51953 v 4.36816 h -1.25781 v -1.16211 q -0.43067,0.69727 -1.07325,1.03223 -0.64257,0.32812 -1.57226,0.32812 -1.17578,0 -1.87305,-0.65625 -0.69043,-0.66308 -0.69043,-1.7705 0,-1.292 0.86133,-1.94825 0.86816,-0.65625 2.58398,-0.65625 h 1.76368 v -0.12304 q 0,-0.86817 -0.57422,-1.33985 -0.56739,-0.47851 -1.59961,-0.47851 -0.65625,0 -1.27832,0.15722 -0.62207,0.15723 -1.19629,0.47168 v -1.16211 q 0.69043,-0.2666 1.33984,-0.39648 0.64942,-0.13672 1.26465,-0.13672 1.66113,0 2.48145,0.86133 0.82031,0.86133 0.82031,2.61133 z"
     id="path337782" /><path
     d="m 251.11905,394.75192 v 2.17383 h 2.59082 v 0.97754 h -2.59082 v 4.15625 q 0,0.93652 0.25293,1.20312 0.25976,0.26661 1.0459,0.26661 h 1.29199 v 1.05273 h -1.29199 q -1.45606,0 -2.00977,-0.54004 -0.55371,-0.54687 -0.55371,-1.98242 v -4.15625 h -0.92285 v -0.97754 h 0.92285 v -2.17383 z"
     id="path337784" /><path
     d="m 255.36417,396.92575 h 1.25781 v 7.65625 h -1.25781 z m 0,-2.98047 h 1.25781 v 1.59278 h -1.25781 z"
     id="path337786" /><path
     d="m 262.22061,397.80759 q -1.01172,0 -1.59961,0.79297 -0.58789,0.78613 -0.58789,2.16015 0,1.37403 0.58106,2.16699 0.58789,0.78614 1.60644,0.78614 1.00488,0 1.59278,-0.79297 0.58789,-0.79297 0.58789,-2.16016 0,-1.36035 -0.58789,-2.15332 -0.5879,-0.7998 -1.59278,-0.7998 z m 0,-1.06641 q 1.64063,0 2.57715,1.06641 0.93652,1.0664 0.93652,2.95312 0,1.87988 -0.93652,2.95313 -0.93652,1.0664 -2.57715,1.0664 -1.64746,0 -2.58398,-1.0664 -0.92969,-1.07325 -0.92969,-2.95313 0,-1.88672 0.92969,-2.95312 0.93652,-1.06641 2.58398,-1.06641 z"
     id="path337788" /><path
     d="m 274.1835,399.96091 v 4.62109 h -1.25781 v -4.58008 q 0,-1.08691 -0.42383,-1.62695 -0.42383,-0.54004 -1.27148,-0.54004 -1.01856,0 -1.60645,0.64941 -0.58789,0.64942 -0.58789,1.77051 v 4.32715 h -1.26465 v -7.65625 h 1.26465 v 1.18945 q 0.45117,-0.69043 1.05957,-1.03222 0.61524,-0.3418 1.41504,-0.3418 1.31934,0 1.99609,0.82031 0.67676,0.81348 0.67676,2.39942 z"
     id="path337790" /></g>
<g
   aria-label="ID"
   id="text40"
   class="st1 st5 st6"
   style="font-size:14px;font-family:GoogleSans-Regular;fill:#202124"><path
     d="m 221.67081,411.17593 h 1.38086 v 10.20606 h -1.38086 z"
     id="path337793" /><path
     d="m 227.18057,412.3107 v 7.93652 h 1.66797 q 2.11231,0 3.08985,-0.95703 0.98437,-0.95703 0.98437,-3.02148 0,-2.05078 -0.98437,-3.00098 -0.97754,-0.95703 -3.08985,-0.95703 z m -1.38086,-1.13477 h 2.83692 q 2.96679,0 4.35449,1.23731 1.38769,1.23047 1.38769,3.85547 0,2.63867 -1.39453,3.87597 -1.39453,1.23731 -4.34765,1.23731 h -2.83692 z"
     id="path337795" /></g>
<rect
   id="rect42"
   height="64"
   width="143.8"
   class="st4"
   y="441.10001"
   x="218.20001" />
<g
   aria-label="Checkout"
   id="text44"
   class="st1 st2 st3"
   style="font-size:16px;font-family:GoogleSans-Medium;fill:#202124"><path
     d="m 263.68457,459.40887 v 1.66407 q -0.79687,-0.74219 -1.70312,-1.10938 -0.89844,-0.36719 -1.91407,-0.36719 -2,0 -3.0625,1.22657 -1.0625,1.21875 -1.0625,3.53125 0,2.30468 1.0625,3.53125 1.0625,1.21875 3.0625,1.21875 1.01563,0 1.91407,-0.36719 0.90625,-0.36719 1.70312,-1.10938 v 1.64844 q -0.82812,0.5625 -1.75781,0.84375 -0.92188,0.28125 -1.95313,0.28125 -2.64843,0 -4.17187,-1.61719 -1.52344,-1.625 -1.52344,-4.42968 0,-2.8125 1.52344,-4.42969 1.52344,-1.625 4.17187,-1.625 1.04688,0 1.96875,0.28125 0.92969,0.27344 1.74219,0.82812 z"
     id="path337798" /><path
     d="m 273.33301,464.89325 v 5.28125 h -1.4375 v -5.23438 q 0,-1.24218 -0.48438,-1.85937 -0.48437,-0.61719 -1.45312,-0.61719 -1.16406,0 -1.83594,0.74219 -0.67187,0.74219 -0.67187,2.02344 v 4.94531 h -1.44532 v -12.15625 h 1.44532 v 4.76562 q 0.51562,-0.78906 1.21093,-1.17968 0.70313,-0.39063 1.61719,-0.39063 1.50781,0 2.28125,0.9375 0.77344,0.92969 0.77344,2.74219 z"
     id="path337800" /><path
     d="m 283.68457,465.44012 v 0.70313 h -6.60937 q 0.0937,1.48437 0.89062,2.26562 0.80469,0.77344 2.23438,0.77344 0.82812,0 1.60156,-0.20312 0.78125,-0.20313 1.54687,-0.60938 v 1.35938 q -0.77343,0.32812 -1.58593,0.5 -0.8125,0.17187 -1.64844,0.17187 -2.09375,0 -3.32031,-1.21875 -1.21875,-1.21875 -1.21875,-3.29687 0,-2.14844 1.15625,-3.40625 1.16406,-1.26563 3.13281,-1.26563 1.76562,0 2.78906,1.14063 1.03125,1.13281 1.03125,3.08593 z m -1.4375,-0.42187 q -0.0156,-1.17969 -0.66406,-1.88281 -0.64063,-0.70313 -1.70313,-0.70313 -1.20312,0 -1.92968,0.67969 -0.71875,0.67969 -0.82813,1.91406 z"
     id="path337802" /><path
     d="m 292.34082,461.76044 v 1.34375 q -0.60937,-0.33594 -1.22656,-0.5 -0.60938,-0.17188 -1.23438,-0.17188 -1.39843,0 -2.17187,0.89063 -0.77344,0.88281 -0.77344,2.48437 0,1.60156 0.77344,2.49219 0.77344,0.88281 2.17187,0.88281 0.625,0 1.23438,-0.16406 0.61719,-0.17188 1.22656,-0.50781 v 1.32812 q -0.60156,0.28125 -1.25,0.42188 -0.64062,0.14062 -1.36719,0.14062 -1.97656,0 -3.14062,-1.24219 -1.16406,-1.24218 -1.16406,-3.35156 0,-2.14062 1.17187,-3.36719 1.17969,-1.22656 3.22656,-1.22656 0.66407,0 1.29688,0.14063 0.63281,0.13281 1.22656,0.40625 z"
     id="path337804" /><path
     d="m 294.78613,458.01825 h 1.44532 v 7.17969 l 4.28906,-3.77344 h 1.83594 l -4.64063,4.09375 4.83594,4.65625 h -1.875 l -4.44531,-4.27344 v 4.27344 h -1.44532 z"
     id="path337806" /><path
     d="m 306.92676,462.43231 q -1.15625,0 -1.82813,0.90625 -0.67187,0.89844 -0.67187,2.46875 0,1.57031 0.66406,2.47656 0.67188,0.89844 1.83594,0.89844 1.14844,0 1.82031,-0.90625 0.67188,-0.90625 0.67188,-2.46875 0,-1.55469 -0.67188,-2.46094 -0.67187,-0.91406 -1.82031,-0.91406 z m 0,-1.21875 q 1.875,0 2.94531,1.21875 1.07031,1.21875 1.07031,3.375 0,2.14844 -1.07031,3.375 -1.07031,1.21875 -2.94531,1.21875 -1.88281,0 -2.95313,-1.21875 -1.0625,-1.22656 -1.0625,-3.375 0,-2.15625 1.0625,-3.375 1.07032,-1.21875 2.95313,-1.21875 z"
     id="path337808" /><path
     d="m 313.17676,466.72137 v -5.29687 h 1.4375 v 5.24219 q 0,1.24218 0.48437,1.86718 0.48438,0.61719 1.45313,0.61719 1.16406,0 1.83594,-0.74219 0.67968,-0.74218 0.67968,-2.02343 v -4.96094 h 1.4375 v 8.75 h -1.4375 v -1.34375 q -0.52343,0.79687 -1.21875,1.1875 -0.6875,0.38281 -1.60156,0.38281 -1.50781,0 -2.28906,-0.9375 -0.78125,-0.9375 -0.78125,-2.74219 z m 3.61719,-5.50781 z"
     id="path337810" /><path
     d="m 324.8877,458.94012 v 2.48438 h 2.96093 v 1.11719 h -2.96093 v 4.75 q 0,1.07031 0.28906,1.375 0.29687,0.30468 1.19531,0.30468 h 1.47656 v 1.20313 h -1.47656 q -1.66406,0 -2.29687,-0.61719 -0.63282,-0.625 -0.63282,-2.26562 v -4.75 h -1.05468 v -1.11719 h 1.05468 v -2.48438 z"
     id="path337812" /></g>
<g
   aria-label="controller"
   id="text46"
   class="st1 st2 st3"
   style="font-size:16px;font-family:GoogleSans-Medium;fill:#202124"><path
     d="m 259.48457,480.96045 v 1.34375 q -0.60937,-0.33594 -1.22656,-0.5 -0.60937,-0.17188 -1.23437,-0.17188 -1.39844,0 -2.17188,0.89063 -0.77344,0.88281 -0.77344,2.48437 0,1.60157 0.77344,2.49219 0.77344,0.88281 2.17188,0.88281 0.625,0 1.23437,-0.16406 0.61719,-0.17187 1.22656,-0.50781 v 1.32812 q -0.60156,0.28125 -1.25,0.42188 -0.64062,0.14062 -1.36718,0.14062 -1.97657,0 -3.14063,-1.24218 -1.16406,-1.24219 -1.16406,-3.35157 0,-2.14062 1.17187,-3.36718 1.17969,-1.22657 3.22657,-1.22657 0.66406,0 1.29687,0.14063 0.63281,0.13281 1.22656,0.40625 z"
     id="path337815" /><path
     d="m 265.3752,481.63232 q -1.15625,0 -1.82813,0.90625 -0.67187,0.89844 -0.67187,2.46875 0,1.57032 0.66406,2.47657 0.67188,0.89843 1.83594,0.89843 1.14844,0 1.82031,-0.90625 0.67188,-0.90625 0.67188,-2.46875 0,-1.55468 -0.67188,-2.46093 -0.67187,-0.91407 -1.82031,-0.91407 z m 0,-1.21875 q 1.875,0 2.94531,1.21875 1.07031,1.21875 1.07031,3.375 0,2.14844 -1.07031,3.375 -1.07031,1.21875 -2.94531,1.21875 -1.88281,0 -2.95313,-1.21875 -1.0625,-1.22656 -1.0625,-3.375 0,-2.15625 1.0625,-3.375 1.07032,-1.21875 2.95313,-1.21875 z"
     id="path337817" /><path
     d="m 279.04707,484.09326 v 5.28125 h -1.4375 v -5.23437 q 0,-1.24219 -0.48437,-1.85938 -0.48438,-0.61719 -1.45313,-0.61719 -1.16406,0 -1.83593,0.74219 -0.67188,0.74219 -0.67188,2.02344 v 4.94531 h -1.44531 v -8.75 h 1.44531 v 1.35938 q 0.51563,-0.78907 1.21094,-1.17969 0.70312,-0.39063 1.61719,-0.39063 1.50781,0 2.28125,0.9375 0.77343,0.92969 0.77343,2.74219 z"
     id="path337819" /><path
     d="m 283.33614,478.14014 v 2.48437 h 2.96093 v 1.11719 h -2.96093 v 4.75 q 0,1.07031 0.28906,1.375 0.29687,0.30469 1.19531,0.30469 h 1.47656 v 1.20312 h -1.47656 q -1.66406,0 -2.29687,-0.61719 -0.63282,-0.625 -0.63282,-2.26562 v -4.75 h -1.05468 v -1.11719 h 1.05468 v -2.48437 z"
     id="path337821" /><path
     d="m 293.25801,481.96826 q -0.24219,-0.14062 -0.53125,-0.20312 -0.28125,-0.0703 -0.625,-0.0703 -1.21875,0 -1.875,0.79688 -0.64844,0.78906 -0.64844,2.27344 v 4.60937 h -1.44531 v -8.75 h 1.44531 v 1.35938 q 0.45313,-0.79688 1.17969,-1.17969 0.72656,-0.39063 1.76563,-0.39063 0.14843,0 0.32812,0.0234 0.17969,0.0156 0.39844,0.0547 z"
     id="path337823" /><path
     d="m 297.80489,481.63232 q -1.15625,0 -1.82813,0.90625 -0.67187,0.89844 -0.67187,2.46875 0,1.57032 0.66406,2.47657 0.67187,0.89843 1.83594,0.89843 1.14843,0 1.82031,-0.90625 0.67187,-0.90625 0.67187,-2.46875 0,-1.55468 -0.67187,-2.46093 -0.67188,-0.91407 -1.82031,-0.91407 z m 0,-1.21875 q 1.875,0 2.94531,1.21875 1.07031,1.21875 1.07031,3.375 0,2.14844 -1.07031,3.375 -1.07031,1.21875 -2.94531,1.21875 -1.88282,0 -2.95313,-1.21875 -1.0625,-1.22656 -1.0625,-3.375 0,-2.15625 1.0625,-3.375 1.07031,-1.21875 2.95313,-1.21875 z"
     id="path337825" /><path
     d="m 304.20332,477.21826 h 1.4375 v 12.15625 h -1.4375 z"
     id="path337827" /><path
     d="m 308.64864,477.21826 h 1.4375 v 12.15625 h -1.4375 z"
     id="path337829" /><path
     d="m 320.57832,484.64014 v 0.70312 h -6.60937 q 0.0937,1.48438 0.89062,2.26563 0.80469,0.77343 2.23438,0.77343 0.82812,0 1.60156,-0.20312 0.78125,-0.20313 1.54688,-0.60938 v 1.35938 q -0.77344,0.32812 -1.58594,0.5 -0.8125,0.17187 -1.64844,0.17187 -2.09375,0 -3.32031,-1.21875 -1.21875,-1.21875 -1.21875,-3.29687 0,-2.14844 1.15625,-3.40625 1.16406,-1.26563 3.13281,-1.26563 1.76563,0 2.78906,1.14063 1.03125,1.13281 1.03125,3.08594 z m -1.4375,-0.42188 q -0.0156,-1.17969 -0.66406,-1.88281 -0.64062,-0.70313 -1.70312,-0.70313 -1.20313,0 -1.92969,0.67969 -0.71875,0.67969 -0.82813,1.91406 z"
     id="path337831" /><path
     d="m 328.00801,481.96826 q -0.24219,-0.14062 -0.53125,-0.20312 -0.28125,-0.0703 -0.625,-0.0703 -1.21875,0 -1.875,0.79688 -0.64844,0.78906 -0.64844,2.27344 v 4.60937 h -1.44531 v -8.75 h 1.44531 v 1.35938 q 0.45313,-0.79688 1.17969,-1.17969 0.72656,-0.39063 1.76563,-0.39063 0.14843,0 0.32812,0.0234 0.17969,0.0156 0.39844,0.0547 z"
     id="path337833" /></g>
<g
   aria-label="Payment "
   id="text48"
   class="st1 st2 st3"
   style="font-size:16px;font-family:GoogleSans-Medium;fill:#202124"><path
     d="m 427.56021,107.80731 v 4.38281 h 1.98438 q 1.10156,0 1.70312,-0.57031 0.60156,-0.57031 0.60156,-1.625 0,-1.04687 -0.60156,-1.61719 -0.60156,-0.57031 -1.70312,-0.57031 z m -1.57812,-1.29687 h 3.5625 q 1.96093,0 2.96093,0.89062 1.00782,0.88281 1.00782,2.59375 0,1.72656 -1.00782,2.60938 -1,0.88281 -2.96093,0.88281 h -1.98438 v 4.6875 h -1.57812 z"
     id="path337836" /><path
     d="m 438.82584,113.77606 q -1.74219,0 -2.41407,0.39844 -0.67187,0.39844 -0.67187,1.35937 0,0.76563 0.5,1.21875 0.50781,0.44532 1.375,0.44532 1.19531,0 1.91406,-0.84375 0.72656,-0.85157 0.72656,-2.25782 v -0.32031 z m 2.86718,-0.59375 v 4.99219 h -1.4375 v -1.32813 q -0.49218,0.79688 -1.22656,1.17969 -0.73437,0.375 -1.79687,0.375 -1.34375,0 -2.14063,-0.75 -0.78906,-0.75781 -0.78906,-2.02344 0,-1.47656 0.98437,-2.22656 0.99219,-0.75 2.95313,-0.75 h 2.01562 v -0.14062 q 0,-0.99219 -0.65625,-1.53125 -0.64843,-0.54688 -1.82812,-0.54688 -0.75,0 -1.46094,0.17969 -0.71094,0.17969 -1.36719,0.53906 v -1.32812 q 0.78907,-0.30469 1.53125,-0.45313 0.74219,-0.15625 1.44532,-0.15625 1.89843,0 2.83593,0.98438 0.9375,0.98437 0.9375,2.98437 z"
     id="path337838" /><path
     d="m 448.29459,118.987 q -0.60938,1.5625 -1.1875,2.03906 -0.57813,0.47656 -1.54688,0.47656 h -1.14844 v -1.20312 h 0.84375 q 0.59375,0 0.92188,-0.28125 0.32812,-0.28125 0.72656,-1.32813 l 0.25781,-0.65625 -3.53906,-8.60937 h 1.52344 l 2.73437,6.84375 2.73438,-6.84375 h 1.52344 z"
     id="path337840" /><path
     d="m 460.93521,111.10419 q 0.53906,-0.96875 1.28906,-1.42969 0.75,-0.46094 1.76563,-0.46094 1.36719,0 2.10937,0.96094 0.74219,0.95312 0.74219,2.71875 v 5.28125 h -1.44531 v -5.23438 q 0,-1.25781 -0.44531,-1.86718 -0.44532,-0.60938 -1.35938,-0.60938 -1.11719,0 -1.76562,0.74219 -0.64844,0.74219 -0.64844,2.02344 v 4.94531 h -1.44531 v -5.23438 q 0,-1.26562 -0.44532,-1.86718 -0.44531,-0.60938 -1.375,-0.60938 -1.10156,0 -1.75,0.75 -0.64843,0.74219 -0.64843,2.01563 v 4.94531 h -1.44532 v -8.75 h 1.44532 v 1.35937 q 0.49218,-0.80468 1.17968,-1.1875 0.6875,-0.38281 1.63282,-0.38281 0.95312,0 1.61718,0.48438 0.67188,0.48437 0.99219,1.40625 z"
     id="path337842" /><path
     d="m 477.19302,113.44012 v 0.70313 h -6.60937 q 0.0937,1.48437 0.89062,2.26562 0.80469,0.77344 2.23438,0.77344 0.82812,0 1.60156,-0.20312 0.78125,-0.20313 1.54688,-0.60938 v 1.35938 q -0.77344,0.32812 -1.58594,0.5 -0.8125,0.17187 -1.64844,0.17187 -2.09375,0 -3.32031,-1.21875 -1.21875,-1.21875 -1.21875,-3.29687 0,-2.14844 1.15625,-3.40625 1.16406,-1.26563 3.13281,-1.26563 1.76563,0 2.78906,1.14063 1.03125,1.13281 1.03125,3.08593 z m -1.4375,-0.42187 q -0.0156,-1.17969 -0.66406,-1.88281 -0.64062,-0.70313 -1.70312,-0.70313 -1.20313,0 -1.92969,0.67969 -0.71875,0.67969 -0.82813,1.91406 z"
     id="path337844" /><path
     d="m 486.82584,112.89325 v 5.28125 h -1.4375 v -5.23438 q 0,-1.24218 -0.48438,-1.85937 -0.48437,-0.61719 -1.45312,-0.61719 -1.16407,0 -1.83594,0.74219 -0.67188,0.74219 -0.67188,2.02344 v 4.94531 h -1.44531 v -8.75 h 1.44531 v 1.35937 q 0.51563,-0.78906 1.21094,-1.17968 0.70313,-0.39063 1.61719,-0.39063 1.50781,0 2.28125,0.9375 0.77344,0.92969 0.77344,2.74219 z"
     id="path337846" /><path
     d="m 491.1149,106.94012 v 2.48438 h 2.96094 v 1.11719 h -2.96094 v 4.75 q 0,1.07031 0.28906,1.375 0.29688,0.30468 1.19531,0.30468 h 1.47657 v 1.20313 h -1.47657 q -1.66406,0 -2.29687,-0.61719 -0.63281,-0.625 -0.63281,-2.26562 v -4.75 h -1.05469 v -1.11719 h 1.05469 v -2.48438 z"
     id="path337848" /></g>
<g
   aria-label="service"
   id="text50"
   class="st1 st2 st3"
   style="font-size:16px;font-family:GoogleSans-Medium;fill:#202124"><path
     d="m 436.59772,128.88231 v 1.35937 q -0.60938,-0.3125 -1.26563,-0.46875 -0.65625,-0.15625 -1.35937,-0.15625 -1.07032,0 -1.60938,0.32813 -0.53125,0.32812 -0.53125,0.98437 0,0.5 0.38281,0.78907 0.38282,0.28125 1.53907,0.53906 l 0.49218,0.10937 q 1.53125,0.32813 2.17188,0.92969 0.64844,0.59375 0.64844,1.66406 0,1.21875 -0.96875,1.92969 -0.96094,0.71094 -2.64844,0.71094 -0.70313,0 -1.46875,-0.14063 -0.75781,-0.13281 -1.60156,-0.40625 v -1.48437 q 0.79687,0.41406 1.57031,0.625 0.77344,0.20312 1.53125,0.20312 1.01562,0 1.5625,-0.34375 0.54687,-0.35156 0.54687,-0.98437 0,-0.58594 -0.39843,-0.89844 -0.39063,-0.3125 -1.72657,-0.60156 l -0.5,-0.11719 q -1.33593,-0.28125 -1.92968,-0.85937 -0.59375,-0.58594 -0.59375,-1.60157 0,-1.23437 0.875,-1.90625 0.875,-0.67187 2.48437,-0.67187 0.79688,0 1.5,0.11719 0.70313,0.11718 1.29688,0.35156 z"
     id="path337851" /><path
     d="m 446.8399,132.64012 v 0.70313 h -6.60937 q 0.0937,1.48437 0.89062,2.26562 0.80469,0.77344 2.23438,0.77344 0.82812,0 1.60156,-0.20313 0.78125,-0.20312 1.54688,-0.60937 v 1.35937 q -0.77344,0.32813 -1.58594,0.5 -0.8125,0.17188 -1.64844,0.17188 -2.09375,0 -3.32031,-1.21875 -1.21875,-1.21875 -1.21875,-3.29688 0,-2.14843 1.15625,-3.40625 1.16406,-1.26562 3.13281,-1.26562 1.76563,0 2.78906,1.14062 1.03125,1.13282 1.03125,3.08594 z m -1.4375,-0.42187 q -0.0156,-1.17969 -0.66406,-1.88282 -0.64062,-0.70312 -1.70312,-0.70312 -1.20313,0 -1.92969,0.67969 -0.71875,0.67968 -0.82813,1.91406 z"
     id="path337853" /><path
     d="m 454.26959,129.96825 q -0.24219,-0.14063 -0.53125,-0.20313 -0.28125,-0.0703 -0.625,-0.0703 -1.21875,0 -1.875,0.79687 -0.64844,0.78907 -0.64844,2.27344 v 4.60938 h -1.44531 v -8.75 h 1.44531 v 1.35937 q 0.45313,-0.79687 1.17969,-1.17969 0.72656,-0.39062 1.76563,-0.39062 0.14843,0 0.32812,0.0234 0.17969,0.0156 0.39844,0.0547 z"
     id="path337855" /><path
     d="m 454.74615,128.6245 h 1.52344 l 2.73438,7.34375 2.73437,-7.34375 h 1.52344 l -3.28125,8.75 h -1.95313 z"
     id="path337857" /><path
     d="m 465.24615,128.6245 h 1.4375 v 8.75 h -1.4375 z m 0,-3.40625 h 1.4375 v 1.82031 h -1.4375 z"
     id="path337859" /><path
     d="m 475.98834,128.96043 v 1.34375 q -0.60937,-0.33593 -1.22656,-0.5 -0.60938,-0.17187 -1.23438,-0.17187 -1.39843,0 -2.17187,0.89062 -0.77344,0.88282 -0.77344,2.48438 0,1.60156 0.77344,2.49219 0.77344,0.88281 2.17187,0.88281 0.625,0 1.23438,-0.16406 0.61719,-0.17188 1.22656,-0.50782 v 1.32813 q -0.60156,0.28125 -1.25,0.42187 -0.64062,0.14063 -1.36719,0.14063 -1.97656,0 -3.14062,-1.24219 -1.16406,-1.24219 -1.16406,-3.35156 0,-2.14063 1.17187,-3.36719 1.17969,-1.22656 3.22656,-1.22656 0.66407,0 1.29688,0.14062 0.63281,0.13282 1.22656,0.40625 z"
     id="path337861" /><path
     d="m 485.97272,132.64012 v 0.70313 h -6.60938 q 0.0937,1.48437 0.89063,2.26562 0.80468,0.77344 2.23437,0.77344 0.82813,0 1.60156,-0.20313 0.78125,-0.20312 1.54688,-0.60937 v 1.35937 q -0.77344,0.32813 -1.58594,0.5 -0.8125,0.17188 -1.64844,0.17188 -2.09375,0 -3.32031,-1.21875 -1.21875,-1.21875 -1.21875,-3.29688 0,-2.14843 1.15625,-3.40625 1.16406,-1.26562 3.13281,-1.26562 1.76563,0 2.78907,1.14062 1.03125,1.13282 1.03125,3.08594 z m -1.4375,-0.42187 q -0.0156,-1.17969 -0.66407,-1.88282 -0.64062,-0.70312 -1.70312,-0.70312 -1.20313,0 -1.92969,0.67969 -0.71875,0.67968 -0.82812,1.91406 z"
     id="path337863" /></g>
<g
   aria-label="Order "
   id="text52"
   class="st1 st2 st3"
   style="font-size:16px;font-family:GoogleSans-Medium;fill:#202124"><path
     d="m 606.55005,107.58075 q -1.71875,0 -2.73438,1.28125 -1.00781,1.28125 -1.00781,3.49219 0,2.20312 1.00781,3.48437 1.01563,1.28125 2.73438,1.28125 1.71875,0 2.71875,-1.28125 1.00781,-1.28125 1.00781,-3.48437 0,-2.21094 -1.00781,-3.49219 -1,-1.28125 -2.71875,-1.28125 z m 0,-1.28125 q 2.45312,0 3.92187,1.64844 1.46875,1.64062 1.46875,4.40625 0,2.75781 -1.46875,4.40625 -1.46875,1.64062 -3.92187,1.64062 -2.46094,0 -3.9375,-1.64062 -1.46875,-1.64063 -1.46875,-4.40625 0,-2.76563 1.46875,-4.40625 1.47656,-1.64844 3.9375,-1.64844 z"
     id="path337866" /><path
     d="m 619.41724,110.76825 q -0.24219,-0.14063 -0.53125,-0.20313 -0.28125,-0.0703 -0.625,-0.0703 -1.21875,0 -1.875,0.79688 -0.64844,0.78906 -0.64844,2.27343 v 4.60938 h -1.44531 v -8.75 h 1.44531 v 1.35937 q 0.45312,-0.79687 1.17969,-1.17968 0.72656,-0.39063 1.76562,-0.39063 0.14844,0 0.32813,0.0234 0.17968,0.0156 0.39843,0.0547 z"
     id="path337868" /><path
     d="m 626.40161,110.75262 v -4.73437 h 1.4375 v 12.15625 h -1.4375 v -1.3125 q -0.45312,0.78125 -1.14844,1.16406 -0.6875,0.375 -1.65625,0.375 -1.58593,0 -2.58593,-1.26562 -0.99219,-1.26563 -0.99219,-3.32813 0,-2.0625 0.99219,-3.32812 1,-1.26563 2.58593,-1.26563 0.96875,0 1.65625,0.38281 0.69532,0.375 1.14844,1.15625 z m -4.89844,3.05469 q 0,1.58594 0.64844,2.49219 0.65625,0.89844 1.79688,0.89844 1.14062,0 1.79687,-0.89844 0.65625,-0.90625 0.65625,-2.49219 0,-1.58594 -0.65625,-2.48437 -0.65625,-0.90625 -1.79687,-0.90625 -1.14063,0 -1.79688,0.90625 -0.64844,0.89843 -0.64844,2.48437 z"
     id="path337870" /><path
     d="m 638.28442,113.44012 v 0.70313 h -6.60937 q 0.0937,1.48437 0.89062,2.26562 0.80469,0.77344 2.23438,0.77344 0.82812,0 1.60156,-0.20312 0.78125,-0.20313 1.54688,-0.60938 v 1.35938 q -0.77344,0.32812 -1.58594,0.5 -0.8125,0.17187 -1.64844,0.17187 -2.09375,0 -3.32031,-1.21875 -1.21875,-1.21875 -1.21875,-3.29687 0,-2.14844 1.15625,-3.40625 1.16406,-1.26563 3.13281,-1.26563 1.76563,0 2.78906,1.14063 1.03125,1.13281 1.03125,3.08593 z m -1.4375,-0.42187 q -0.0156,-1.17969 -0.66406,-1.88281 -0.64062,-0.70313 -1.70312,-0.70313 -1.20313,0 -1.92969,0.67969 -0.71875,0.67969 -0.82813,1.91406 z"
     id="path337872" /><path
     d="m 645.71411,110.76825 q -0.24219,-0.14063 -0.53125,-0.20313 -0.28125,-0.0703 -0.625,-0.0703 -1.21875,0 -1.875,0.79688 -0.64844,0.78906 -0.64844,2.27343 v 4.60938 h -1.44531 v -8.75 h 1.44531 v 1.35937 q 0.45313,-0.79687 1.17969,-1.17968 0.72656,-0.39063 1.76563,-0.39063 0.14843,0 0.32812,0.0234 0.17969,0.0156 0.39844,0.0547 z"
     id="path337874" /></g>
<g
   aria-label="service"
   id="text54"
   class="st1 st2 st3"
   style="font-size:16px;font-family:GoogleSans-Medium;fill:#202124"><path
     d="m 602.03125,128.88231 v 1.35937 q -0.60938,-0.3125 -1.26563,-0.46875 -0.65625,-0.15625 -1.35937,-0.15625 -1.07031,0 -1.60938,0.32813 -0.53125,0.32812 -0.53125,0.98437 0,0.5 0.38282,0.78907 0.38281,0.28125 1.53906,0.53906 l 0.49219,0.10937 q 1.53125,0.32813 2.17187,0.92969 0.64844,0.59375 0.64844,1.66406 0,1.21875 -0.96875,1.92969 -0.96094,0.71094 -2.64844,0.71094 -0.70312,0 -1.46875,-0.14063 -0.75781,-0.13281 -1.60156,-0.40625 v -1.48437 q 0.79687,0.41406 1.57031,0.625 0.77344,0.20312 1.53125,0.20312 1.01563,0 1.5625,-0.34375 0.54688,-0.35156 0.54688,-0.98437 0,-0.58594 -0.39844,-0.89844 -0.39063,-0.3125 -1.72656,-0.60156 l -0.5,-0.11719 q -1.33594,-0.28125 -1.92969,-0.85937 -0.59375,-0.58594 -0.59375,-1.60157 0,-1.23437 0.875,-1.90625 0.875,-0.67187 2.48437,-0.67187 0.79688,0 1.5,0.11719 0.70313,0.11718 1.29688,0.35156 z"
     id="path337877" /><path
     d="m 612.27344,132.64012 v 0.70313 h -6.60938 q 0.0937,1.48437 0.89063,2.26562 0.80468,0.77344 2.23437,0.77344 0.82813,0 1.60156,-0.20313 0.78125,-0.20312 1.54688,-0.60937 v 1.35937 q -0.77344,0.32813 -1.58594,0.5 -0.8125,0.17188 -1.64844,0.17188 -2.09375,0 -3.32031,-1.21875 -1.21875,-1.21875 -1.21875,-3.29688 0,-2.14843 1.15625,-3.40625 1.16406,-1.26562 3.13281,-1.26562 1.76563,0 2.78907,1.14062 1.03125,1.13282 1.03125,3.08594 z m -1.4375,-0.42187 q -0.0156,-1.17969 -0.66407,-1.88282 -0.64062,-0.70312 -1.70312,-0.70312 -1.20313,0 -1.92969,0.67969 -0.71875,0.67968 -0.82812,1.91406 z"
     id="path337879" /><path
     d="m 619.70312,129.96825 q -0.24218,-0.14063 -0.53125,-0.20313 -0.28125,-0.0703 -0.625,-0.0703 -1.21875,0 -1.875,0.79687 -0.64843,0.78907 -0.64843,2.27344 v 4.60938 h -1.44532 v -8.75 h 1.44532 v 1.35937 q 0.45312,-0.79687 1.17968,-1.17969 0.72657,-0.39062 1.76563,-0.39062 0.14844,0 0.32812,0.0234 0.17969,0.0156 0.39844,0.0547 z"
     id="path337881" /><path
     d="m 620.17969,128.6245 h 1.52343 l 2.73438,7.34375 2.73437,-7.34375 h 1.52344 l -3.28125,8.75 h -1.95312 z"
     id="path337883" /><path
     d="m 630.67969,128.6245 h 1.4375 v 8.75 h -1.4375 z m 0,-3.40625 h 1.4375 v 1.82031 h -1.4375 z"
     id="path337885" /><path
     d="m 641.42187,128.96043 v 1.34375 q -0.60937,-0.33593 -1.22656,-0.5 -0.60937,-0.17187 -1.23437,-0.17187 -1.39844,0 -2.17188,0.89062 -0.77344,0.88282 -0.77344,2.48438 0,1.60156 0.77344,2.49219 0.77344,0.88281 2.17188,0.88281 0.625,0 1.23437,-0.16406 0.61719,-0.17188 1.22656,-0.50782 v 1.32813 q -0.60156,0.28125 -1.25,0.42187 -0.64062,0.14063 -1.36718,0.14063 -1.97657,0 -3.14063,-1.24219 -1.16406,-1.24219 -1.16406,-3.35156 0,-2.14063 1.17187,-3.36719 1.17969,-1.22656 3.22657,-1.22656 0.66406,0 1.29687,0.14062 0.63281,0.13282 1.22656,0.40625 z"
     id="path337887" /><path
     d="m 651.40625,132.64012 v 0.70313 h -6.60938 q 0.0937,1.48437 0.89063,2.26562 0.80469,0.77344 2.23437,0.77344 0.82813,0 1.60157,-0.20313 0.78125,-0.20312 1.54687,-0.60937 v 1.35937 q -0.77344,0.32813 -1.58594,0.5 -0.8125,0.17188 -1.64843,0.17188 -2.09375,0 -3.32032,-1.21875 -1.21875,-1.21875 -1.21875,-3.29688 0,-2.14843 1.15625,-3.40625 1.16407,-1.26562 3.13282,-1.26562 1.76562,0 2.78906,1.14062 1.03125,1.13282 1.03125,3.08594 z m -1.4375,-0.42187 q -0.0156,-1.17969 -0.66406,-1.88282 -0.64063,-0.70312 -1.70313,-0.70312 -1.20312,0 -1.92969,0.67969 -0.71875,0.67968 -0.82812,1.91406 z"
     id="path337889" /></g>
<g
   transform="translate(-406.20001,-70.099998)"
   id="g66">
	<g
   id="g60">
		<path
   id="path56"
   d="m 1071.8,371.1 v 70.2 c 0,7.1 21.5,12.9 48,12.9 26.5,0 48,-5.8 48,-12.9 v -70.2 z"
   class="st7" />
		<path
   id="ellipse58"
   class="st7"
   style="fill:#ffffff;stroke:#bdc1c6;stroke-miterlimit:10;stroke-dasharray:4, 4, 4, 4"
   d="m 1167.8,371.10001 a 48,12.9 0 0 1 -48,12.9 48,12.9 0 0 1 -48,-12.9 48,12.9 0 0 1 48,-12.9 48,12.9 0 0 1 48,12.9 z" />
	</g>
	<path
   id="rect62"
   class="st8"
   style="fill:none"
   d="m 1102.7,412.70001 h 34.3 v 13.5 h -34.3 z" />
	<g
   aria-label="Database"
   transform="translate(1084.676,424.2226)"
   id="text64"
   class="st1 st2 st3"
   style="font-size:16px;font-family:GoogleSans-Medium;fill:#202124"><path
     d="m 3.1484375,-10.367188 v 9.070313 h 1.90625 q 2.4140625,0 3.53125,-1.09375 1.125,-1.09375 1.125,-3.453125 0,-2.34375 -1.125,-3.4296875 -1.1171875,-1.0937505 -3.53125,-1.0937505 z m -1.578125,-1.296875 H 4.8125 q 3.390625,0 4.9765625,1.414063 1.5859375,1.40625 1.5859375,4.40625 0,3.015625 -1.59375,4.4296875 Q 8.1875,0 4.8125,0 H 1.5703125 Z"
     id="path337894" /><path
     d="m 17.804687,-4.3984375 q -1.742187,0 -2.414062,0.3984375 -0.671875,0.3984375 -0.671875,1.359375 0,0.765625 0.5,1.21875 0.507813,0.4453125 1.375,0.4453125 1.195312,0 1.914062,-0.84375 0.726563,-0.8515625 0.726563,-2.2578125 v -0.3203125 z m 2.867188,-0.59375 V 0 h -1.4375 v -1.328125 q -0.492188,0.796875 -1.226563,1.1796875 -0.734375,0.375 -1.796875,0.375 -1.343749,0 -2.140624,-0.75 Q 13.28125,-1.28125 13.28125,-2.546875 q 0,-1.4765625 0.984375,-2.2265625 0.992188,-0.75 2.953125,-0.75 h 2.015625 v -0.140625 q 0,-0.9921875 -0.65625,-1.53125 -0.648438,-0.546875 -1.828125,-0.546875 -0.75,0 -1.460937,0.1796875 -0.710938,0.1796875 -1.367188,0.5390625 v -1.328125 q 0.789063,-0.3046875 1.53125,-0.453125 0.742187,-0.15625 1.445312,-0.15625 1.898438,0 2.835938,0.984375 0.9375,0.984375 0.9375,2.984375 z"
     id="path337896" /><path
     d="M 25.054687,-11.234375 V -8.75 h 2.960938 v 1.1171875 h -2.960938 v 4.75 q 0,1.0703125 0.289063,1.375 0.296875,0.3046875 1.195312,0.3046875 h 1.476563 V 0 H 26.539062 Q 24.875,0 24.242187,-0.6171875 q -0.632812,-0.625 -0.632812,-2.265625 v -4.75 H 22.554687 V -8.75 h 1.054688 v -2.484375 z"
     id="path337898" /><path
     d="m 33.882812,-4.3984375 q -1.742187,0 -2.414062,0.3984375 -0.671875,0.3984375 -0.671875,1.359375 0,0.765625 0.5,1.21875 0.507812,0.4453125 1.375,0.4453125 1.195312,0 1.914062,-0.84375 Q 35.3125,-2.671875 35.3125,-4.078125 V -4.3984375 Z M 36.75,-4.9921875 V 0 h -1.4375 v -1.328125 q -0.492188,0.796875 -1.226563,1.1796875 -0.734375,0.375 -1.796875,0.375 -1.34375,0 -2.140625,-0.75 -0.789062,-0.7578125 -0.789062,-2.0234375 0,-1.4765625 0.984375,-2.2265625 0.992187,-0.75 2.953125,-0.75 H 35.3125 v -0.140625 q 0,-0.9921875 -0.65625,-1.53125 -0.648438,-0.546875 -1.828125,-0.546875 -0.75,0 -1.460938,0.1796875 Q 30.65625,-7.3828125 30,-7.0234375 v -1.328125 q 0.789062,-0.3046875 1.53125,-0.453125 0.742187,-0.15625 1.445312,-0.15625 1.898438,0 2.835938,0.984375 0.9375,0.984375 0.9375,2.984375 z"
     id="path337900" /><path
     d="m 45.992187,-4.3671875 q 0,-1.5859375 -0.65625,-2.484375 -0.648437,-0.90625 -1.789062,-0.90625 -1.140625,0 -1.796875,0.90625 -0.648438,0.8984375 -0.648438,2.484375 0,1.5859375 0.648438,2.4921875 0.65625,0.8984375 1.796875,0.8984375 1.140625,0 1.789062,-0.8984375 0.65625,-0.90625 0.65625,-2.4921875 z M 41.101562,-7.421875 q 0.453125,-0.78125 1.140625,-1.15625 0.695313,-0.3828125 1.65625,-0.3828125 1.59375,0 2.585938,1.265625 1,1.265625 1,3.328125 0,2.0625 -1,3.328125 -0.992188,1.265625 -2.585938,1.265625 -0.960937,0 -1.65625,-0.375 Q 41.554687,-0.53125 41.101562,-1.3125 V 0 H 39.65625 v -12.15625 h 1.445312 z"
     id="path337902" /><path
     d="m 53.84375,-4.3984375 q -1.742188,0 -2.414063,0.3984375 -0.671875,0.3984375 -0.671875,1.359375 0,0.765625 0.5,1.21875 0.507813,0.4453125 1.375,0.4453125 1.195313,0 1.914063,-0.84375 0.726562,-0.8515625 0.726562,-2.2578125 v -0.3203125 z m 2.867187,-0.59375 V 0 h -1.4375 v -1.328125 q -0.492187,0.796875 -1.226562,1.1796875 -0.734375,0.375 -1.796875,0.375 -1.34375,0 -2.140625,-0.75 -0.789063,-0.7578125 -0.789063,-2.0234375 0,-1.4765625 0.984375,-2.2265625 0.992188,-0.75 2.953125,-0.75 h 2.015625 v -0.140625 q 0,-0.9921875 -0.65625,-1.53125 -0.648437,-0.546875 -1.828125,-0.546875 -0.75,0 -1.460937,0.1796875 -0.710938,0.1796875 -1.367188,0.5390625 v -1.328125 q 0.789063,-0.3046875 1.53125,-0.453125 0.742188,-0.15625 1.445313,-0.15625 1.898437,0 2.835937,0.984375 0.9375,0.984375 0.9375,2.984375 z"
     id="path337904" /><path
     d="m 65.25,-8.4921875 v 1.359375 q -0.609375,-0.3125 -1.265625,-0.46875 -0.65625,-0.15625 -1.359375,-0.15625 -1.070313,0 -1.609375,0.328125 -0.53125,0.328125 -0.53125,0.984375 0,0.5 0.382812,0.7890625 Q 61.25,-5.375 62.40625,-5.1171875 l 0.492187,0.109375 q 1.53125,0.328125 2.171875,0.9296875 0.648438,0.59375 0.648438,1.6640625 0,1.21875 -0.96875,1.9296875 -0.960938,0.7109375 -2.648438,0.7109375 -0.703125,0 -1.46875,-0.140625 Q 59.875,-0.046875 59.03125,-0.3203125 v -1.484375 q 0.796875,0.4140625 1.570312,0.625 0.773438,0.203125 1.53125,0.203125 1.015625,0 1.5625,-0.34375 0.546875,-0.3515625 0.546875,-0.984375 0,-0.5859375 -0.398437,-0.8984375 -0.390625,-0.3125 -1.726563,-0.6015625 l -0.5,-0.1171875 Q 60.28125,-4.203125 59.6875,-4.78125 q -0.59375,-0.5859375 -0.59375,-1.6015625 0,-1.234375 0.875,-1.90625 0.875,-0.671875 2.484375,-0.671875 0.796875,0 1.5,0.1171875 0.703125,0.1171875 1.296875,0.3515625 z"
     id="path337906" /><path
     d="m 75.492187,-4.734375 v 0.703125 h -6.609375 q 0.09375,1.484375 0.890625,2.265625 0.804688,0.7734375 2.234375,0.7734375 0.828125,0 1.601563,-0.203125 0.78125,-0.203125 1.546875,-0.609375 v 1.359375 q -0.773438,0.328125 -1.585938,0.5 -0.8125,0.171875 -1.648437,0.171875 -2.09375,0 -3.320313,-1.21875 -1.21875,-1.21875 -1.21875,-3.296875 0,-2.1484375 1.15625,-3.40625 1.164063,-1.265625 3.132813,-1.265625 1.765625,0 2.789062,1.140625 1.03125,1.1328125 1.03125,3.0859375 z m -1.4375,-0.421875 Q 74.039062,-6.3359375 73.390625,-7.0390625 72.75,-7.7421875 71.6875,-7.7421875 q -1.203125,0 -1.929688,0.6796875 -0.71875,0.6796875 -0.828125,1.9140625 z"
     id="path337908" /></g>
</g>
<line
   id="line68"
   y2="441.10001"
   x2="290.09998"
   y1="152.29999"
   x1="290.09998"
   class="st9" />
<line
   id="line70"
   y2="441.10001"
   x2="62.299988"
   y1="227.5"
   x1="62.299988"
   class="st9" />
<g
   transform="translate(-406.20001,-70.099998)"
   id="g80">
	<g
   id="g78">
		<path
   id="line72"
   class="st10"
   style="fill:none;stroke:#4285f4;stroke-miterlimit:10"
   d="M 610.40002,487.20001 H 475.60001" />
		<g
   id="g76">
			<path
   id="polygon74"
   class="st11"
   style="fill:#4285f4"
   d="m 468.5,487.2 8.6,5 v -10 z" />
		</g>
	</g>
</g>
<g
   transform="translate(-406.20001,-70.099998)"
   id="g90">
	<g
   id="g88">
		<path
   id="line82"
   class="st10"
   style="fill:none;stroke:#4285f4;stroke-miterlimit:10"
   d="m 672.09998,255.2 h 17" />
		<g
   id="g86">
			<path
   id="polygon84"
   class="st11"
   style="fill:#4285f4"
   d="m 696.3,255.2 -8.7,-5 v 10 z" />
		</g>
	</g>
</g>
<g
   transform="translate(-406.20001,-70.099998)"
   id="g100">
	<g
   id="g98">
		<path
   id="line92"
   class="st10"
   style="fill:none;stroke:#4285f4;stroke-miterlimit:10"
   d="m 811.59998,284.39999 h 46.10003" />
		<g
   id="g96">
			<path
   id="polygon94"
   class="st11"
   style="fill:#4285f4"
   d="m 864.8,284.4 -8.6,-5 v 10 z" />
		</g>
	</g>
</g>
<g
   transform="translate(-406.20001,-70.099998)"
   id="g110">
	<g
   id="g108">
		<path
   id="line102"
   class="st10"
   style="fill:none;stroke:#4285f4;stroke-miterlimit:10"
   d="m 975,384.20001 h 46.1" />
		<g
   id="g106">
			<path
   id="polygon104"
   class="st11"
   style="fill:#4285f4"
   d="m 1028.2,384.2 -8.6,-5 v 10 z" />
		</g>
	</g>
</g>
<line
   id="line112"
   y2="441.10001"
   x2="458.29999"
   y1="152.29999"
   x1="458.29999"
   class="st9" />
<line
   id="line114"
   y2="441.10001"
   x2="623.29999"
   y1="152.29999"
   x1="623.29999"
   class="st9" />
<line
   id="line116"
   y2="185.10001"
   x2="186.79999"
   y1="185.10001"
   x1="94.699982"
   class="st10" />
<line
   id="line118"
   y2="214.29999"
   x2="340.79999"
   y1="214.29999"
   x1="290.39996"
   class="st10" />
<line
   id="line120"
   y2="314.10001"
   x2="518"
   y1="314.10001"
   x1="290.39996"
   class="st10" />
<line
   id="line122"
   y2="364.10001"
   x2="621.99994"
   y1="364.10001"
   x1="568.79999"
   class="st10" />
<g
   transform="translate(-406.20001,-70.099998)"
   id="g132">
	<g
   id="g130">
		<path
   id="line124"
   class="st10"
   style="fill:none;stroke:#4285f4;stroke-miterlimit:10"
   d="m 1029.6,409.20001 h 35" />
		<g
   id="g128">
			<path
   id="polygon126"
   class="st11"
   style="fill:#4285f4"
   d="m 1071.8,409.2 -8.6,-5 v 10 z" />
		</g>
	</g>
</g>
<g
   transform="translate(-406.20001,-70.099998)"
   id="g142">
	<g
   id="g140">
		<path
   id="line134"
   class="st10"
   style="fill:none;stroke:#4285f4;stroke-miterlimit:10"
   d="M 703.79999,434.20001 H 924.20001" />
		<g
   id="g138">
			<path
   id="polygon136"
   class="st11"
   style="fill:#4285f4"
   d="m 696.6,434.2 8.7,-5 v 10 z" />
		</g>
	</g>
</g>
<g
   transform="translate(-406.20001,-70.099998)"
   id="g152">
	<g
   id="g150">
		<path
   id="line144"
   class="st10"
   style="fill:none;stroke:#4285f4;stroke-miterlimit:10"
   d="m 749.79999,334.29999 h -46" />
		<g
   id="g148">
			<path
   id="polygon146"
   class="st11"
   style="fill:#4285f4"
   d="m 696.6,334.3 8.7,5 v -10 z" />
		</g>
	</g>
</g>
<line
   id="line154"
   y2="264.19998"
   x2="408.29999"
   y1="264.19998"
   x1="458.59998"
   class="st10" />
<line
   id="line156"
   y2="417.10001"
   x2="290.09998"
   y1="417.10001"
   x1="244"
   class="st10" />



<rect
   id="rect164"
   height="84.599998"
   width="75.5"
   class="st4"
   y="142.79999"
   x="25.099976" />
<path
   id="path166"
   d="m 62.799988,177.5 c -10.1,0 -18.3,8.2 -18.3,18.3 0,10.1 8.2,18.3 18.3,18.3 10.1,0 18.3,-8.2 18.3,-18.3 0,-10.2 -8.2,-18.3 -18.3,-18.3 z m 0,5.4 c 3,0 5.5,2.5 5.5,5.5 0,3 -2.5,5.5 -5.5,5.5 -3,0 -5.5,-2.5 -5.5,-5.5 0,-3 2.5,-5.5 5.5,-5.5 z m 0,26 c -4.6,0 -8.6,-2.3 -10.9,-5.9 0.1,-3.6 7.3,-5.6 10.9,-5.6 3.6,0 10.9,2 10.9,5.6 -2.2,3.6 -6.3,5.9 -10.9,5.9 z"
   class="st1" />
<g
   aria-label="User"
   id="text168"
   class="st15 st2 st3"
   style="font-size:16px;font-family:GoogleSans-Medium;fill:#3b4043"><path
     d="m 35.656815,151.98134 h 1.585937 v 7.08594 q 0,1.875 0.679688,2.70312 0.679687,0.82031 2.203125,0.82031 1.515625,0 2.195312,-0.82031 0.679688,-0.82812 0.679688,-2.70312 v -7.08594 h 1.585937 v 7.28125 q 0,2.28125 -1.132812,3.44531 -1.125,1.16406 -3.328125,1.16406 -2.210938,0 -3.34375,-1.16406 -1.125,-1.16406 -1.125,-3.44531 z"
     id="path337925" /><path
     d="m 53.063065,155.15321 v 1.35938 q -0.609375,-0.3125 -1.265625,-0.46875 -0.65625,-0.15625 -1.359375,-0.15625 -1.070313,0 -1.609375,0.32812 -0.53125,0.32813 -0.53125,0.98438 0,0.5 0.382812,0.78906 0.382813,0.28125 1.539063,0.53906 l 0.492187,0.10938 q 1.53125,0.32812 2.171875,0.92969 0.648438,0.59375 0.648438,1.66406 0,1.21875 -0.96875,1.92969 -0.960938,0.71093 -2.648438,0.71093 -0.703125,0 -1.46875,-0.14062 -0.757812,-0.13281 -1.601562,-0.40625 v -1.48438 q 0.796875,0.41407 1.570312,0.625 0.773438,0.20313 1.53125,0.20313 1.015625,0 1.5625,-0.34375 0.546875,-0.35156 0.546875,-0.98438 0,-0.58593 -0.398437,-0.89843 -0.390625,-0.3125 -1.726563,-0.60157 l -0.5,-0.11718 q -1.335937,-0.28125 -1.929687,-0.85938 -0.59375,-0.58594 -0.59375,-1.60156 0,-1.23438 0.875,-1.90625 0.875,-0.67188 2.484375,-0.67188 0.796875,0 1.5,0.11719 0.703125,0.11719 1.296875,0.35156 z"
     id="path337927" /><path
     d="m 63.305252,158.91103 v 0.70312 h -6.609375 q 0.09375,1.48438 0.890625,2.26563 0.804688,0.77343 2.234375,0.77343 0.828125,0 1.601563,-0.20312 0.78125,-0.20313 1.546875,-0.60938 v 1.35938 q -0.773438,0.32812 -1.585938,0.5 -0.8125,0.17187 -1.648437,0.17187 -2.09375,0 -3.320313,-1.21875 -1.21875,-1.21875 -1.21875,-3.29687 0,-2.14844 1.15625,-3.40625 1.164063,-1.26563 3.132813,-1.26563 1.765625,0 2.789062,1.14063 1.03125,1.13281 1.03125,3.08594 z m -1.4375,-0.42188 q -0.01563,-1.17969 -0.664062,-1.88281 -0.640625,-0.70313 -1.703125,-0.70313 -1.203125,0 -1.929688,0.67969 -0.71875,0.67969 -0.828125,1.91406 z"
     id="path337929" /><path
     d="m 70.73494,156.23915 q -0.242188,-0.14062 -0.53125,-0.20312 -0.28125,-0.0703 -0.625,-0.0703 -1.21875,0 -1.875,0.79688 -0.648438,0.78906 -0.648438,2.27344 v 4.60937 H 65.60994 v -8.75 h 1.445312 v 1.35938 q 0.453125,-0.79688 1.179688,-1.17969 0.726562,-0.39063 1.765625,-0.39063 0.148437,0 0.328125,0.0234 0.179687,0.0156 0.398437,0.0547 z"
     id="path337931" /></g>
<rect
   id="rect170"
   height="84.599998"
   width="75.5"
   class="st4"
   y="439"
   x="24.5" />
<path
   id="path172"
   d="m 62.799988,473.6 c -10.1,0 -18.3,8.2 -18.3,18.3 0,10.1 8.2,18.3 18.3,18.3 10.1,0 18.3,-8.2 18.3,-18.3 0,-10.1 -8.2,-18.3 -18.3,-18.3 z m 0,5.5 c 3,0 5.5,2.5 5.5,5.5 0,3 -2.5,5.5 -5.5,5.5 -3,0 -5.5,-2.5 -5.5,-5.5 0,-3.1 2.5,-5.5 5.5,-5.5 z m 0,25.9 c -4.6,0 -8.6,-2.3 -10.9,-5.9 0.1,-3.6 7.3,-5.6 10.9,-5.6 3.6,0 10.9,2 10.9,5.6 -2.2,3.6 -6.3,5.9 -10.9,5.9 z"
   class="st1" />
<g
   aria-label="User"
   id="text174"
   class="st15 st2 st3"
   style="font-size:16px;font-family:GoogleSans-Medium;fill:#3b4043"><path
     d="m 35.656815,448.13174 h 1.585937 v 7.08594 q 0,1.875 0.679688,2.70313 0.679687,0.82031 2.203125,0.82031 1.515625,0 2.195312,-0.82031 0.679688,-0.82813 0.679688,-2.70313 v -7.08594 h 1.585937 v 7.28125 q 0,2.28125 -1.132812,3.44532 -1.125,1.16406 -3.328125,1.16406 -2.210938,0 -3.34375,-1.16406 -1.125,-1.16407 -1.125,-3.44532 z"
     id="path337934" /><path
     d="m 53.063065,451.30362 v 1.35937 q -0.609375,-0.3125 -1.265625,-0.46875 -0.65625,-0.15625 -1.359375,-0.15625 -1.070313,0 -1.609375,0.32813 -0.53125,0.32812 -0.53125,0.98437 0,0.5 0.382812,0.78907 0.382813,0.28125 1.539063,0.53906 l 0.492187,0.10937 q 1.53125,0.32813 2.171875,0.92969 0.648438,0.59375 0.648438,1.66406 0,1.21875 -0.96875,1.92969 -0.960938,0.71094 -2.648438,0.71094 -0.703125,0 -1.46875,-0.14063 -0.757812,-0.13281 -1.601562,-0.40625 v -1.48437 q 0.796875,0.41406 1.570312,0.625 0.773438,0.20312 1.53125,0.20312 1.015625,0 1.5625,-0.34375 0.546875,-0.35156 0.546875,-0.98437 0,-0.58594 -0.398437,-0.89844 -0.390625,-0.3125 -1.726563,-0.60156 l -0.5,-0.11719 q -1.335937,-0.28125 -1.929687,-0.85937 -0.59375,-0.58594 -0.59375,-1.60157 0,-1.23437 0.875,-1.90625 0.875,-0.67187 2.484375,-0.67187 0.796875,0 1.5,0.11719 0.703125,0.11718 1.296875,0.35156 z"
     id="path337936" /><path
     d="m 63.305252,455.06143 v 0.70313 h -6.609375 q 0.09375,1.48437 0.890625,2.26562 0.804688,0.77344 2.234375,0.77344 0.828125,0 1.601563,-0.20313 0.78125,-0.20312 1.546875,-0.60937 v 1.35937 q -0.773438,0.32813 -1.585938,0.5 -0.8125,0.17188 -1.648437,0.17188 -2.09375,0 -3.320313,-1.21875 -1.21875,-1.21875 -1.21875,-3.29688 0,-2.14843 1.15625,-3.40625 1.164063,-1.26562 3.132813,-1.26562 1.765625,0 2.789062,1.14062 1.03125,1.13282 1.03125,3.08594 z m -1.4375,-0.42187 q -0.01563,-1.17969 -0.664062,-1.88282 -0.640625,-0.70312 -1.703125,-0.70312 -1.203125,0 -1.929688,0.67969 -0.71875,0.67968 -0.828125,1.91406 z"
     id="path337938" /><path
     d="m 70.73494,452.38956 q -0.242188,-0.14063 -0.53125,-0.20313 -0.28125,-0.0703 -0.625,-0.0703 -1.21875,0 -1.875,0.79687 -0.648438,0.78907 -0.648438,2.27344 v 4.60938 H 65.60994 v -8.75 h 1.445312 v 1.35937 q 0.453125,-0.79687 1.179688,-1.17969 0.726562,-0.39062 1.765625,-0.39062 0.148437,0 0.328125,0.0234 0.179687,0.0156 0.398437,0.0547 z"
     id="path337940" /></g>
</svg>
