<?xml version="1.0" encoding="UTF-8" standalone="no"?>
<svg
   height="2.8499999in"
   width="10.941667in"
   xml:space="preserve"
   viewBox="0 0 1050.4 273.59998"
   y="0px"
   x="0px"
   id="Layer_2_1_"
   version="1.1"
   xmlns="http://www.w3.org/2000/svg"
   xmlns:svg="http://www.w3.org/2000/svg"
   xmlns:rdf="http://www.w3.org/1999/02/22-rdf-syntax-ns#"
   xmlns:cc="http://creativecommons.org/ns#"
   xmlns:dc="http://purl.org/dc/elements/1.1/"><metadata
   id="metadata203"><rdf:RDF><cc:Work
       rdf:about=""><dc:format>image/svg+xml</dc:format><dc:type
         rdf:resource="http://purl.org/dc/dcmitype/StillImage" /><dc:title /></cc:Work></rdf:RDF></metadata><defs
   id="defs201" />
	<rect width="100%" height="100%" fill="grey"/>
<style
   id="style2"
   type="text/css">
	.st0{fill:#F1F3F4;stroke:#202124;stroke-miterlimit:10;}
	.st1{fill:#FFFFFF;stroke:#202124;stroke-miterlimit:10;}
	.st2{fill:#202124;}
	.st3{font-family:'GoogleSans-Medium';}
	.st4{font-size:16px;}
	.st5{fill:none;stroke:#4285F4;stroke-miterlimit:10;}
	.st6{fill:#4285F4;}
	.st7{fill:none;stroke:#4285F4;stroke-width:2;stroke-miterlimit:10;}
	.st8{fill-rule:evenodd;clip-rule:evenodd;fill:#202124;}
	.st9{font-family:'GoogleSans-Regular';}
	.st10{font-size:10px;}
	.st11{fill:none;stroke:#202124;stroke-miterlimit:10;}
	.st12{font-family:'GoogleSans-Bold';}
	.st13{font-size:20px;}
</style>
<rect
   id="rect4"
   height="96"
   width="150"
   class="st0"
   y="24.5"
   x="450.60001" />
<rect
   id="rect6"
   height="51.5"
   width="51.5"
   class="st1"
   y="89.800003"
   x="499.80002" />
<rect
   id="rect8"
   height="64"
   width="150"
   class="st0"
   y="24.5"
   x="120.7" />
<g
   aria-label="Order"
   id="text10"
   class="st2 st3 st4"
   style="font-size:16px;font-family:GoogleSans-Medium;fill:#202124"><path
     d="m 135.99019,34.237045 q -1.71875,0 -2.73438,1.28125 -1.00781,1.28125 -1.00781,3.492188 0,2.203125 1.00781,3.484375 1.01563,1.28125 2.73438,1.28125 1.71875,0 2.71875,-1.28125 1.00781,-1.28125 1.00781,-3.484375 0,-2.210938 -1.00781,-3.492188 -1,-1.28125 -2.71875,-1.28125 z m 0,-1.28125 q 2.45312,0 3.92187,1.648438 1.46875,1.640625 1.46875,4.40625 0,2.757812 -1.46875,4.40625 -1.46875,1.640625 -3.92187,1.640625 -2.46094,0 -3.9375,-1.640625 -1.46875,-1.640625 -1.46875,-4.40625 0,-2.765625 1.46875,-4.40625 1.47656,-1.648438 3.9375,-1.648438 z"
     id="path431212" /><path
     d="m 148.85738,37.424545 q -0.24219,-0.140625 -0.53125,-0.203125 -0.28125,-0.07031 -0.625,-0.07031 -1.21875,0 -1.875,0.796875 -0.64844,0.789062 -0.64844,2.273437 v 4.609375 h -1.44531 v -8.75 h 1.44531 v 1.359375 q 0.45312,-0.796875 1.17969,-1.179687 0.72656,-0.390625 1.76562,-0.390625 0.14844,0 0.32813,0.02344 0.17968,0.01563 0.39843,0.05469 z"
     id="path431214" /><path
     d="m 155.84175,37.40892 v -4.734375 h 1.4375 v 12.15625 h -1.4375 v -1.3125 q -0.45312,0.78125 -1.14844,1.164063 -0.6875,0.375 -1.65625,0.375 -1.58593,0 -2.58593,-1.265625 -0.99219,-1.265625 -0.99219,-3.328125 0,-2.0625 0.99219,-3.328125 1,-1.265625 2.58593,-1.265625 0.96875,0 1.65625,0.382812 0.69532,0.375 1.14844,1.15625 z m -4.89844,3.054688 q 0,1.585937 0.64844,2.492187 0.65625,0.898438 1.79688,0.898438 1.14062,0 1.79687,-0.898438 0.65625,-0.90625 0.65625,-2.492187 0,-1.585938 -0.65625,-2.484375 -0.65625,-0.90625 -1.79687,-0.90625 -1.14063,0 -1.79688,0.90625 -0.64844,0.898437 -0.64844,2.484375 z"
     id="path431216" /><path
     d="m 167.72456,40.09642 v 0.703125 h -6.60937 q 0.0937,1.484375 0.89062,2.265625 0.80469,0.773438 2.23438,0.773438 0.82812,0 1.60156,-0.203125 0.78125,-0.203125 1.54688,-0.609375 v 1.359375 q -0.77344,0.328125 -1.58594,0.5 -0.8125,0.171875 -1.64844,0.171875 -2.09375,0 -3.32031,-1.21875 -1.21875,-1.21875 -1.21875,-3.296875 0,-2.148438 1.15625,-3.40625 1.16406,-1.265625 3.13281,-1.265625 1.76563,0 2.78906,1.140625 1.03125,1.132812 1.03125,3.085937 z m -1.4375,-0.421875 q -0.0156,-1.179687 -0.66406,-1.882812 -0.64062,-0.703125 -1.70312,-0.703125 -1.20313,0 -1.92969,0.679687 -0.71875,0.679688 -0.82813,1.914063 z"
     id="path431218" /><path
     d="m 175.15425,37.424545 q -0.24219,-0.140625 -0.53125,-0.203125 -0.28125,-0.07031 -0.625,-0.07031 -1.21875,0 -1.875,0.796875 -0.64844,0.789062 -0.64844,2.273437 v 4.609375 h -1.44531 v -8.75 h 1.44531 v 1.359375 q 0.45313,-0.796875 1.17969,-1.179687 0.72656,-0.390625 1.76563,-0.390625 0.14843,0 0.32812,0.02344 0.17969,0.01563 0.39844,0.05469 z"
     id="path431220" /></g>
<g
   aria-label="placed"
   id="text12"
   class="st2 st3 st4"
   style="font-size:16px;font-family:GoogleSans-Medium;fill:#202124"><path
     d="m 132.58394,62.7183 v 4.640625 h -1.44531 V 55.2808 h 1.44531 v 1.328125 q 0.45312,-0.78125 1.14062,-1.15625 0.69532,-0.382813 1.65625,-0.382813 1.59375,0 2.58594,1.265625 1,1.265625 1,3.328125 0,2.0625 -1,3.328125 -0.99219,1.265625 -2.58594,1.265625 -0.96093,0 -1.65625,-0.375 -0.6875,-0.382812 -1.14062,-1.164062 z m 4.89062,-3.054688 q 0,-1.585937 -0.65625,-2.484375 -0.64843,-0.90625 -1.78906,-0.90625 -1.14062,0 -1.79687,0.90625 -0.64844,0.898438 -0.64844,2.484375 0,1.585938 0.64844,2.492188 0.65625,0.898437 1.79687,0.898437 1.14063,0 1.78906,-0.898437 0.65625,-0.90625 0.65625,-2.492188 z"
     id="path431223" /><path
     d="m 141.34956,51.87455 h 1.4375 V 64.0308 h -1.4375 z"
     id="path431225" /><path
     d="m 149.77144,59.632362 q -1.74219,0 -2.41406,0.398438 -0.67188,0.398437 -0.67188,1.359375 0,0.765625 0.5,1.21875 0.50781,0.445312 1.375,0.445312 1.19531,0 1.91406,-0.84375 0.72657,-0.851562 0.72657,-2.257812 v -0.320313 z m 2.86719,-0.59375 V 64.0308 h -1.4375 v -1.328125 q -0.49219,0.796875 -1.22657,1.179687 -0.73437,0.375 -1.79687,0.375 -1.34375,0 -2.14063,-0.75 -0.78906,-0.757812 -0.78906,-2.023437 0,-1.476563 0.98438,-2.226563 0.99218,-0.75 2.95312,-0.75 h 2.01563 v -0.140625 q 0,-0.992187 -0.65625,-1.53125 -0.64844,-0.546875 -1.82813,-0.546875 -0.75,0 -1.46094,0.179688 -0.71093,0.179687 -1.36718,0.539062 v -1.328125 q 0.78906,-0.304687 1.53125,-0.453125 0.74218,-0.15625 1.44531,-0.15625 1.89844,0 2.83594,0.984375 0.9375,0.984375 0.9375,2.984375 z"
     id="path431227" /><path
     d="m 161.89644,55.616737 v 1.34375 q -0.60938,-0.335937 -1.22656,-0.5 -0.60938,-0.171875 -1.23438,-0.171875 -1.39844,0 -2.17187,0.890625 -0.77344,0.882813 -0.77344,2.484375 0,1.601563 0.77344,2.492188 0.77343,0.882812 2.17187,0.882812 0.625,0 1.23438,-0.164062 0.61718,-0.171875 1.22656,-0.507813 v 1.328125 q -0.60156,0.28125 -1.25,0.421875 -0.64063,0.140625 -1.36719,0.140625 -1.97656,0 -3.14062,-1.242187 -1.16407,-1.242188 -1.16407,-3.351563 0,-2.140625 1.17188,-3.367187 1.17969,-1.226563 3.22656,-1.226563 0.66406,0 1.29688,0.140625 0.63281,0.132813 1.22656,0.40625 z"
     id="path431229" /><path
     d="m 171.88081,59.296425 v 0.703125 h -6.60937 q 0.0937,1.484375 0.89062,2.265625 0.80469,0.773437 2.23438,0.773437 0.82812,0 1.60156,-0.203125 0.78125,-0.203125 1.54688,-0.609375 v 1.359375 q -0.77344,0.328125 -1.58594,0.5 -0.8125,0.171875 -1.64844,0.171875 -2.09375,0 -3.32031,-1.21875 -1.21875,-1.21875 -1.21875,-3.296875 0,-2.148437 1.15625,-3.40625 1.16406,-1.265625 3.13281,-1.265625 1.76563,0 2.78906,1.140625 1.03125,1.132813 1.03125,3.085938 z m -1.4375,-0.421875 q -0.0156,-1.179688 -0.66406,-1.882813 -0.64062,-0.703125 -1.70312,-0.703125 -1.20313,0 -1.92969,0.679688 -0.71875,0.679687 -0.82813,1.914062 z"
     id="path431231" /><path
     d="M 179.998,56.608925 V 51.87455 h 1.4375 V 64.0308 h -1.4375 v -1.3125 q -0.45312,0.78125 -1.14844,1.164062 -0.6875,0.375 -1.65625,0.375 -1.58593,0 -2.58593,-1.265625 -0.99219,-1.265625 -0.99219,-3.328125 0,-2.0625 0.99219,-3.328125 1,-1.265625 2.58593,-1.265625 0.96875,0 1.65625,0.382813 0.69532,0.375 1.14844,1.15625 z m -4.89844,3.054687 q 0,1.585938 0.64844,2.492188 0.65625,0.898437 1.79688,0.898437 1.14062,0 1.79687,-0.898437 0.65625,-0.90625 0.65625,-2.492188 0,-1.585937 -0.65625,-2.484375 -0.65625,-0.90625 -1.79687,-0.90625 -1.14063,0 -1.79688,0.90625 -0.64844,0.898438 -0.64844,2.484375 z"
     id="path431233" /></g>
<line
   id="line14"
   y2="56.5"
   x2="379.20001"
   y1="56.5"
   x1="363.20001"
   class="st5" />
<line
   id="line16"
   y2="122.2"
   x2="338.30002"
   y1="80.5"
   x1="338.30002"
   class="st5" />
<g
   transform="translate(-18.9,-69.300003)"
   id="g26">
	<g
   id="g24">
		<path
   id="line18"
   class="st5"
   style="fill:none;stroke:#4285f4;stroke-miterlimit:10"
   d="m 289.5,125.8 h 35.10001" />
		<g
   id="g22">
			<path
   id="polygon20"
   class="st6"
   style="fill:#4285f4"
   d="m 323.1,130.8 8.6,-5 -8.6,-5 z" />
		</g>
	</g>
</g>
<g
   transform="translate(-18.9,-69.300003)"
   id="g36">
	<g
   id="g34">
		<path
   id="line28"
   class="st5"
   style="fill:none;stroke:#4285f4;stroke-miterlimit:10"
   d="M 94.199997,125.8 H 132.39999" />
		<g
   id="g32">
			<path
   id="polygon30"
   class="st6"
   style="fill:#4285f4"
   d="m 131,130.8 8.6,-5 -8.6,-5 z" />
		</g>
	</g>
</g>
<g
   transform="translate(-18.9,-69.300003)"
   id="g46">
	<g
   id="g44">
		<path
   id="line38"
   class="st5"
   style="fill:none;stroke:#4285f4;stroke-miterlimit:10"
   d="m 357.20001,211.5 v 35" />
		<g
   id="g42">
			<path
   id="polygon40"
   class="st6"
   style="fill:#4285f4"
   d="m 352.2,245.1 5,8.6 5,-8.6 z" />
		</g>
	</g>
</g>
<g
   transform="translate(-18.9,-69.300003)"
   id="g56">
	<g
   id="g54">
		<path
   id="line48"
   class="st5"
   style="fill:none;stroke:#4285f4;stroke-miterlimit:10"
   d="M 610,301.79999 H 438.20001" />
		<g
   id="g52">
			<path
   id="polygon50"
   class="st6"
   style="fill:#4285f4"
   d="m 439.7,296.8 -8.7,5 8.7,5 z" />
		</g>
	</g>
</g>
<g
   transform="translate(-18.9,-69.300003)"
   id="g66">
	<g
   id="g64">
		<path
   id="line58"
   class="st5"
   style="fill:none;stroke:#4285f4;stroke-miterlimit:10"
   d="M 544.29999,271.70001 H 438.20001" />
		<g
   id="g62">
			<path
   id="polygon60"
   class="st6"
   style="fill:#4285f4"
   d="m 439.7,266.8 -8.7,4.9 8.7,5 z" />
		</g>
	</g>
</g>
<line
   id="line68"
   y2="122.2"
   x2="667.5"
   y1="80.5"
   x1="667.5"
   class="st5" />
<line
   id="line70"
   y2="202.8"
   x2="525.39996"
   y1="184.5"
   x1="525.39996"
   class="st5" />
<line
   id="line72"
   y2="160"
   x2="525.39996"
   y1="141.7"
   x1="525.39996"
   class="st5" />
<g
   transform="translate(-18.9,-69.300003)"
   id="g82">
	<g
   id="g80">
		<path
   id="line74"
   class="st5"
   style="fill:none;stroke:#4285f4;stroke-miterlimit:10"
   d="m 686.40002,211.5 v 35" />
		<g
   id="g78">
			<path
   id="polygon76"
   class="st6"
   style="fill:#4285f4"
   d="m 681.5,245.1 4.9,8.6 5,-8.6 z" />
		</g>
	</g>
</g>
<g
   transform="translate(-18.9,-69.300003)"
   id="g92">
	<g
   id="g90">
		<path
   id="line84"
   class="st5"
   style="fill:none;stroke:#4285f4;stroke-miterlimit:10"
   d="m 448.70001,125.8 h 14" />
		<g
   id="g88">
			<path
   id="polygon86"
   class="st6"
   style="fill:#4285f4"
   d="m 461.2,130.8 8.6,-5 -8.6,-5 z" />
		</g>
	</g>
</g>
<line
   id="line94"
   y2="56.5"
   x2="709.19995"
   y1="56.5"
   x1="693.19995"
   class="st5" />
<g
   transform="translate(-18.9,-69.300003)"
   id="g104">
	<g
   id="g102">
		<path
   id="line96"
   class="st5"
   style="fill:none;stroke:#4285f4;stroke-miterlimit:10"
   d="m 619.5,125.8 h 35.09998" />
		<g
   id="g100">
			<path
   id="polygon98"
   class="st6"
   style="fill:#4285f4"
   d="m 653.1,130.8 8.7,-5 -8.7,-5 z" />
		</g>
	</g>
</g>
<g
   transform="translate(-18.9,-69.300003)"
   id="g114">
	<g
   id="g112">
		<path
   id="line106"
   class="st5"
   style="fill:none;stroke:#4285f4;stroke-miterlimit:10"
   d="m 778.70001,125.8 h 14" />
		<g
   id="g110">
			<path
   id="polygon108"
   class="st6"
   style="fill:#4285f4"
   d="m 791.2,130.8 8.7,-5 -8.7,-5 z" />
		</g>
	</g>
</g>
<g
   transform="translate(-18.9,-69.300003)"
   id="g124">
	<g
   id="g122">
		<path
   id="line116"
   class="st5"
   style="fill:none;stroke:#4285f4;stroke-miterlimit:10"
   d="m 949.79999,125.8 h 36.5" />
		<g
   id="g120">
			<path
   id="polygon118"
   class="st6"
   style="fill:#4285f4"
   d="m 984.8,130.8 8.6,-5 -8.6,-5 z" />
		</g>
	</g>
</g>
<g
   transform="translate(-18.9,-69.300003)"
   id="g128">
	<path
   id="path126"
   d="m 43.4,125.8 v 0 c 0,-14 11.4,-25.4 25.4,-25.4 v 0 c 6.7,0 13.2,2.7 18,7.4 4.8,4.8 7.4,11.2 7.4,18 v 0 c 0,14 -11.4,25.4 -25.4,25.4 v 0 C 54.7,151.3 43.4,139.9 43.4,125.8 Z"
   class="st5" />
</g>
<g
   transform="translate(-18.9,-69.300003)"
   id="g132">
	<path
   id="path130"
   d="m 1044.3,125.8 v 0 c 0,14 -11.4,25.4 -25.4,25.4 v 0 c -6.7,0 -13.2,-2.7 -18,-7.4 -4.8,-4.8 -7.4,-11.2 -7.4,-18 v 0 c 0,-14 11.4,-25.4 25.4,-25.4 v 0 c 14,0 25.4,11.4 25.4,25.4 z"
   class="st7" />
</g>
<path
   id="path134"
   d="m 241.9,52.399997 c 2.4,0 4.8,1.9 4.8,4.7 0,2.6 -2.1,4.7 -4.7,4.7 -4.2,0 -6.3,-5.1 -3.3,-8 0.8,-1 2,-1.4 3.2,-1.4 z m -2.7,-8.8 c -0.3,0 -0.6,0.2 -0.7,0.6 l -0.5,3.6 c -0.8,0.3 -1.6,0.8 -2.3,1.3 l -3.4,-1.4 c -0.1,0 -0.2,0 -0.2,0 -0.2,0 -0.5,0.1 -0.6,0.3 l -2.7,4.7 c -0.2,0.3 -0.1,0.7 0.2,0.9 l 2.8,2.2 c -0.1,0.9 -0.1,1.8 0,2.6 l -2.8,2.2 c -0.2,0.2 -0.3,0.6 -0.2,0.9 l 2.7,4.7 c 0.1,0.2 0.3,0.3 0.6,0.3 0.1,0 0.2,0 0.2,0 l 3.4,-1.4 c 0.7,0.5 1.5,1 2.3,1.3 l 0.5,3.6 c 0.1,0.3 0.3,0.6 0.7,0.6 h 5.4 c 0.3,0 0.6,-0.2 0.7,-0.6 l 0.5,-3.6 c 0.8,-0.3 1.6,-0.8 2.3,-1.3 l 3.4,1.4 c 0.1,0 0.2,0 0.2,0 0.2,0 0.5,-0.1 0.6,-0.3 l 2.7,-4.7 c 0.2,-0.3 0.1,-0.6 -0.2,-0.9 l -2.8,-2.2 c 0.1,-0.9 0.1,-1.8 0,-2.6 l 2.8,-2.2 c 0.3,-0.2 0.3,-0.6 0.2,-0.9 l -2.7,-4.7 c -0.1,-0.2 -0.3,-0.3 -0.6,-0.3 -0.1,0 -0.2,0 -0.2,0 l -3.4,1.4 c -0.7,-0.5 -1.5,-1 -2.3,-1.3 l -0.5,-3.6 c -0.1,-0.3 -0.3,-0.6 -0.7,-0.6 z"
   class="st8" />
<rect
   id="rect136"
   height="64"
   width="150"
   class="st0"
   y="185.09999"
   x="262.5" />
<g
   aria-label="Cancel"
   id="text138"
   class="st2 st3 st4"
   style="font-size:16px;font-family:GoogleSans-Medium;fill:#202124"><path
     d="m 282.8024,196.30557 v 1.66407 q -0.79688,-0.74219 -1.70313,-1.10938 -0.89843,-0.36719 -1.91406,-0.36719 -2,0 -3.0625,1.22657 -1.0625,1.21875 -1.0625,3.53125 0,2.30468 1.0625,3.53125 1.0625,1.21875 3.0625,1.21875 1.01563,0 1.91406,-0.36719 0.90625,-0.36719 1.70313,-1.10938 v 1.64844 q -0.82813,0.5625 -1.75781,0.84375 -0.92188,0.28125 -1.95313,0.28125 -2.64844,0 -4.17187,-1.61719 -1.52344,-1.625 -1.52344,-4.42968 0,-2.8125 1.52344,-4.42969 1.52343,-1.625 4.17187,-1.625 1.04688,0 1.96875,0.28125 0.92969,0.27344 1.74219,0.82812 z"
     id="path431256" /><path
     d="m 289.15396,202.67276 q -1.74219,0 -2.41406,0.39844 -0.67188,0.39844 -0.67188,1.35937 0,0.76563 0.5,1.21875 0.50782,0.44532 1.375,0.44532 1.19532,0 1.91407,-0.84375 0.72656,-0.85157 0.72656,-2.25782 v -0.32031 z m 2.86719,-0.59375 v 4.99219 h -1.4375 v -1.32813 q -0.49219,0.79688 -1.22656,1.17969 -0.73438,0.375 -1.79688,0.375 -1.34375,0 -2.14062,-0.75 -0.78907,-0.75781 -0.78907,-2.02344 0,-1.47656 0.98438,-2.22656 0.99219,-0.75 2.95312,-0.75 h 2.01563 v -0.14062 q 0,-0.99219 -0.65625,-1.53125 -0.64844,-0.54688 -1.82813,-0.54688 -0.75,0 -1.46093,0.17969 -0.71094,0.17969 -1.36719,0.53906 v -1.32812 q 0.78906,-0.30469 1.53125,-0.45313 0.74219,-0.15625 1.44531,-0.15625 1.89844,0 2.83594,0.98438 0.9375,0.98437 0.9375,2.98437 z"
     id="path431258" /><path
     d="m 302.25552,201.78995 v 5.28125 h -1.4375 v -5.23438 q 0,-1.24218 -0.48437,-1.85937 -0.48438,-0.61719 -1.45313,-0.61719 -1.16406,0 -1.83593,0.74219 -0.67188,0.74219 -0.67188,2.02344 v 4.94531 h -1.44531 v -8.75 h 1.44531 v 1.35937 q 0.51563,-0.78906 1.21094,-1.17968 0.70312,-0.39063 1.61719,-0.39063 1.50781,0 2.28125,0.9375 0.77343,0.92969 0.77343,2.74219 z"
     id="path431260" /><path
     d="m 311.41959,198.65714 v 1.34375 q -0.60938,-0.33594 -1.22657,-0.5 -0.60937,-0.17188 -1.23437,-0.17188 -1.39844,0 -2.17188,0.89063 -0.77343,0.88281 -0.77343,2.48437 0,1.60156 0.77343,2.49219 0.77344,0.88281 2.17188,0.88281 0.625,0 1.23437,-0.16406 0.61719,-0.17188 1.22657,-0.50781 v 1.32812 q -0.60157,0.28125 -1.25,0.42188 -0.64063,0.14062 -1.36719,0.14062 -1.97656,0 -3.14063,-1.24219 -1.16406,-1.24218 -1.16406,-3.35156 0,-2.14062 1.17188,-3.36719 1.17968,-1.22656 3.22656,-1.22656 0.66406,0 1.29687,0.14063 0.63282,0.13281 1.22657,0.40625 z"
     id="path431262" /><path
     d="m 321.40396,202.33682 v 0.70313 h -6.60937 q 0.0937,1.48437 0.89062,2.26562 0.80469,0.77344 2.23438,0.77344 0.82812,0 1.60156,-0.20312 0.78125,-0.20313 1.54687,-0.60938 v 1.35938 q -0.77343,0.32812 -1.58593,0.5 -0.8125,0.17187 -1.64844,0.17187 -2.09375,0 -3.32031,-1.21875 -1.21875,-1.21875 -1.21875,-3.29687 0,-2.14844 1.15625,-3.40625 1.16406,-1.26563 3.13281,-1.26563 1.76562,0 2.78906,1.14063 1.03125,1.13281 1.03125,3.08593 z m -1.4375,-0.42187 q -0.0156,-1.17969 -0.66406,-1.88281 -0.64063,-0.70313 -1.70313,-0.70313 -1.20312,0 -1.92968,0.67969 -0.71875,0.67969 -0.82813,1.91406 z"
     id="path431264" /><path
     d="m 323.76334,194.91495 h 1.4375 v 12.15625 h -1.4375 z"
     id="path431266" /></g>
<g
   aria-label="order"
   id="text140"
   class="st2 st3 st4"
   style="font-size:16px;font-family:GoogleSans-Medium;fill:#202124"><path
     d="m 277.39615,218.52901 q -1.15625,0 -1.82813,0.90625 -0.67187,0.89843 -0.67187,2.46875 0,1.57031 0.66406,2.47656 0.67188,0.89844 1.83594,0.89844 1.14844,0 1.82031,-0.90625 0.67188,-0.90625 0.67188,-2.46875 0,-1.55469 -0.67188,-2.46094 -0.67187,-0.91406 -1.82031,-0.91406 z m 0,-1.21875 q 1.875,0 2.94531,1.21875 1.07031,1.21875 1.07031,3.375 0,2.14843 -1.07031,3.375 -1.07031,1.21875 -2.94531,1.21875 -1.88281,0 -2.95313,-1.21875 -1.0625,-1.22657 -1.0625,-3.375 0,-2.15625 1.0625,-3.375 1.07032,-1.21875 2.95313,-1.21875 z"
     id="path431269" /><path
     d="m 288.8649,218.86494 q -0.24219,-0.14062 -0.53125,-0.20312 -0.28125,-0.0703 -0.625,-0.0703 -1.21875,0 -1.875,0.79687 -0.64844,0.78906 -0.64844,2.27344 v 4.60937 h -1.44531 v -8.75 h 1.44531 v 1.35938 q 0.45313,-0.79688 1.17969,-1.17969 0.72656,-0.39062 1.76562,-0.39062 0.14844,0 0.32813,0.0234 0.17969,0.0156 0.39844,0.0547 z"
     id="path431271" /><path
     d="m 295.84927,218.84932 v -4.73438 h 1.4375 v 12.15625 h -1.4375 v -1.3125 q -0.45312,0.78125 -1.14843,1.16407 -0.6875,0.375 -1.65625,0.375 -1.58594,0 -2.58594,-1.26563 -0.99219,-1.26562 -0.99219,-3.32812 0,-2.0625 0.99219,-3.32813 1,-1.26562 2.58594,-1.26562 0.96875,0 1.65625,0.38281 0.69531,0.375 1.14843,1.15625 z m -4.89843,3.05469 q 0,1.58593 0.64843,2.49218 0.65625,0.89844 1.79688,0.89844 1.14062,0 1.79687,-0.89844 0.65625,-0.90625 0.65625,-2.49218 0,-1.58594 -0.65625,-2.48438 -0.65625,-0.90625 -1.79687,-0.90625 -1.14063,0 -1.79688,0.90625 -0.64843,0.89844 -0.64843,2.48438 z"
     id="path431273" /><path
     d="m 307.73209,221.53682 v 0.70312 h -6.60938 q 0.0937,1.48438 0.89063,2.26563 0.80468,0.77344 2.23437,0.77344 0.82813,0 1.60156,-0.20313 0.78125,-0.20312 1.54688,-0.60937 v 1.35937 q -0.77344,0.32813 -1.58594,0.5 -0.8125,0.17188 -1.64844,0.17188 -2.09375,0 -3.32031,-1.21875 -1.21875,-1.21875 -1.21875,-3.29688 0,-2.14844 1.15625,-3.40625 1.16406,-1.26562 3.13281,-1.26562 1.76563,0 2.78907,1.14062 1.03125,1.13281 1.03125,3.08594 z m -1.4375,-0.42188 q -0.0156,-1.17968 -0.66407,-1.88281 -0.64062,-0.70312 -1.70312,-0.70312 -1.20313,0 -1.92969,0.67968 -0.71875,0.67969 -0.82812,1.91407 z"
     id="path431275" /><path
     d="m 315.16177,218.86494 q -0.24218,-0.14062 -0.53125,-0.20312 -0.28125,-0.0703 -0.625,-0.0703 -1.21875,0 -1.875,0.79687 -0.64843,0.78906 -0.64843,2.27344 v 4.60937 h -1.44532 v -8.75 h 1.44532 v 1.35938 q 0.45312,-0.79688 1.17968,-1.17969 0.72657,-0.39062 1.76563,-0.39062 0.14844,0 0.32812,0.0234 0.17969,0.0156 0.39844,0.0547 z"
     id="path431277" /></g>
<path
   id="path142"
   d="m 383.3,212.4 c 2.4,0 4.8,1.9 4.8,4.7 0,2.6 -2.1,4.7 -4.7,4.7 -4.2,0 -6.3,-5.1 -3.3,-8 0.9,-1 2.1,-1.4 3.2,-1.4 z m -2.6,-8.8 c -0.3,0 -0.6,0.2 -0.7,0.6 l -0.5,3.6 c -0.8,0.3 -1.6,0.8 -2.3,1.3 l -3.4,-1.4 c -0.1,0 -0.2,0 -0.2,0 -0.2,0 -0.5,0.1 -0.6,0.3 l -2.7,4.7 c -0.2,0.3 -0.1,0.7 0.2,0.9 l 2.8,2.2 c -0.1,0.9 -0.1,1.8 0,2.6 l -2.8,2.2 c -0.2,0.2 -0.3,0.6 -0.2,0.9 l 2.7,4.7 c 0.1,0.2 0.3,0.3 0.6,0.3 0.1,0 0.2,0 0.2,0 l 3.4,-1.4 c 0.7,0.5 1.5,1 2.3,1.3 l 0.5,3.6 c 0.1,0.3 0.3,0.6 0.7,0.6 h 5.4 c 0.3,0 0.6,-0.2 0.7,-0.6 l 0.5,-3.6 c 0.8,-0.3 1.6,-0.8 2.3,-1.3 l 3.4,1.4 c 0.1,0 0.2,0 0.2,0 0.2,0 0.5,-0.1 0.6,-0.3 l 2.7,-4.7 c 0.2,-0.3 0.1,-0.6 -0.2,-0.9 l -2.8,-2.2 c 0.1,-0.9 0.1,-1.8 0,-2.6 l 2.8,-2.2 c 0.3,-0.2 0.3,-0.6 0.2,-0.9 l -2.7,-4.7 c -0.1,-0.2 -0.3,-0.3 -0.6,-0.3 -0.1,0 -0.2,0 -0.2,0 l -3.4,1.4 c -0.7,-0.5 -1.5,-1 -2.3,-1.3 l -0.5,-3.6 c -0.1,-0.3 -0.3,-0.6 -0.7,-0.6 z"
   class="st8" />
<rect
   id="rect144"
   height="64"
   width="150"
   class="st0"
   y="185.09999"
   x="591.69995" />
<g
   aria-label="Cancel"
   id="text146"
   class="st2 st3 st4"
   style="font-size:16px;font-family:GoogleSans-Medium;fill:#202124"><path
     d="m 611.44751,195.59357 v 1.66406 q -0.79688,-0.74219 -1.70313,-1.10938 -0.89843,-0.36718 -1.91406,-0.36718 -2,0 -3.0625,1.22656 -1.0625,1.21875 -1.0625,3.53125 0,2.30469 1.0625,3.53125 1.0625,1.21875 3.0625,1.21875 1.01563,0 1.91406,-0.36719 0.90625,-0.36719 1.70313,-1.10937 v 1.64843 q -0.82813,0.5625 -1.75781,0.84375 -0.92188,0.28125 -1.95313,0.28125 -2.64844,0 -4.17187,-1.61718 -1.52344,-1.625 -1.52344,-4.42969 0,-2.8125 1.52344,-4.42969 1.52343,-1.625 4.17187,-1.625 1.04688,0 1.96875,0.28125 0.92969,0.27344 1.74219,0.82813 z"
     id="path431280" /><path
     d="m 617.79907,201.96075 q -1.74219,0 -2.41406,0.39844 -0.67188,0.39844 -0.67188,1.35938 0,0.76562 0.5,1.21875 0.50782,0.44531 1.375,0.44531 1.19532,0 1.91407,-0.84375 0.72656,-0.85156 0.72656,-2.25781 v -0.32032 z m 2.86719,-0.59375 v 4.99219 h -1.4375 v -1.32812 q -0.49219,0.79687 -1.22656,1.17968 -0.73438,0.375 -1.79688,0.375 -1.34375,0 -2.14062,-0.75 -0.78907,-0.75781 -0.78907,-2.02343 0,-1.47657 0.98438,-2.22657 0.99219,-0.75 2.95312,-0.75 h 2.01563 v -0.14062 q 0,-0.99219 -0.65625,-1.53125 -0.64844,-0.54688 -1.82813,-0.54688 -0.75,0 -1.46093,0.17969 -0.71094,0.17969 -1.36719,0.53906 v -1.32812 q 0.78906,-0.30469 1.53125,-0.45313 0.74219,-0.15625 1.44531,-0.15625 1.89844,0 2.83594,0.98438 0.9375,0.98437 0.9375,2.98437 z"
     id="path431282" /><path
     d="m 630.90063,201.07794 v 5.28125 h -1.4375 v -5.23437 q 0,-1.24219 -0.48437,-1.85938 -0.48438,-0.61719 -1.45313,-0.61719 -1.16406,0 -1.83593,0.74219 -0.67188,0.74219 -0.67188,2.02344 v 4.94531 h -1.44531 v -8.75 h 1.44531 v 1.35938 q 0.51563,-0.78907 1.21094,-1.17969 0.70312,-0.39063 1.61719,-0.39063 1.50781,0 2.28125,0.9375 0.77343,0.92969 0.77343,2.74219 z"
     id="path431284" /><path
     d="m 640.0647,197.94513 v 1.34375 q -0.60938,-0.33594 -1.22657,-0.5 -0.60937,-0.17188 -1.23437,-0.17188 -1.39844,0 -2.17188,0.89063 -0.77343,0.88281 -0.77343,2.48437 0,1.60157 0.77343,2.49219 0.77344,0.88281 2.17188,0.88281 0.625,0 1.23437,-0.16406 0.61719,-0.17187 1.22657,-0.50781 v 1.32812 q -0.60157,0.28125 -1.25,0.42188 -0.64063,0.14062 -1.36719,0.14062 -1.97656,0 -3.14063,-1.24218 -1.16406,-1.24219 -1.16406,-3.35157 0,-2.14062 1.17188,-3.36718 1.17968,-1.22657 3.22656,-1.22657 0.66406,0 1.29687,0.14063 0.63282,0.13281 1.22657,0.40625 z"
     id="path431286" /><path
     d="m 650.04907,201.62482 v 0.70312 h -6.60937 q 0.0937,1.48438 0.89062,2.26563 0.80469,0.77343 2.23438,0.77343 0.82812,0 1.60156,-0.20312 0.78125,-0.20313 1.54687,-0.60938 v 1.35938 q -0.77343,0.32812 -1.58593,0.5 -0.8125,0.17187 -1.64844,0.17187 -2.09375,0 -3.32031,-1.21875 -1.21875,-1.21875 -1.21875,-3.29687 0,-2.14844 1.15625,-3.40625 1.16406,-1.26563 3.13281,-1.26563 1.76562,0 2.78906,1.14063 1.03125,1.13281 1.03125,3.08594 z m -1.4375,-0.42188 q -0.0156,-1.17969 -0.66406,-1.88281 -0.64063,-0.70313 -1.70313,-0.70313 -1.20312,0 -1.92968,0.67969 -0.71875,0.67969 -0.82813,1.91406 z"
     id="path431288" /><path
     d="m 652.40845,194.20294 h 1.4375 v 12.15625 h -1.4375 z"
     id="path431290" /></g>
<g
   aria-label="payment"
   id="text148"
   class="st2 st3 st4"
   style="font-size:16px;font-family:GoogleSans-Medium;fill:#202124"><path
     d="m 604.04126,224.2467 v 4.64063 h -1.44531 V 216.8092 h 1.44531 v 1.32813 q 0.45312,-0.78125 1.14062,-1.15625 0.69532,-0.38281 1.65625,-0.38281 1.59375,0 2.58594,1.26562 1,1.26563 1,3.32813 0,2.0625 -1,3.32812 -0.99219,1.26563 -2.58594,1.26563 -0.96093,0 -1.65625,-0.375 -0.6875,-0.38282 -1.14062,-1.16407 z m 4.89062,-3.05468 q 0,-1.58594 -0.65625,-2.48438 -0.64843,-0.90625 -1.78906,-0.90625 -1.14062,0 -1.79687,0.90625 -0.64844,0.89844 -0.64844,2.48438 0,1.58593 0.64844,2.49218 0.65625,0.89844 1.79687,0.89844 1.14063,0 1.78906,-0.89844 0.65625,-0.90625 0.65625,-2.49218 z"
     id="path431293" /><path
     d="m 616.78345,221.16077 q -1.74219,0 -2.41407,0.39843 -0.67187,0.39844 -0.67187,1.35938 0,0.76562 0.5,1.21875 0.50781,0.44531 1.375,0.44531 1.19531,0 1.91406,-0.84375 0.72656,-0.85156 0.72656,-2.25781 v -0.32031 z m 2.86718,-0.59375 v 4.99218 h -1.4375 v -1.32812 q -0.49218,0.79687 -1.22656,1.17969 -0.73437,0.375 -1.79687,0.375 -1.34375,0 -2.14063,-0.75 -0.78906,-0.75782 -0.78906,-2.02344 0,-1.47656 0.98437,-2.22656 0.99219,-0.75 2.95313,-0.75 h 2.01562 v -0.14063 q 0,-0.99219 -0.65625,-1.53125 -0.64843,-0.54687 -1.82812,-0.54687 -0.75,0 -1.46094,0.17968 -0.71094,0.17969 -1.36719,0.53907 v -1.32813 q 0.78907,-0.30469 1.53125,-0.45312 0.74219,-0.15625 1.44532,-0.15625 1.89843,0 2.83593,0.98437 0.9375,0.98438 0.9375,2.98438 z"
     id="path431295" /><path
     d="m 626.2522,226.3717 q -0.60938,1.5625 -1.1875,2.03907 -0.57813,0.47656 -1.54688,0.47656 h -1.14844 v -1.20313 h 0.84375 q 0.59375,0 0.92188,-0.28125 0.32812,-0.28125 0.72656,-1.32812 l 0.25781,-0.65625 -3.53906,-8.60938 h 1.52344 l 2.73437,6.84375 2.73438,-6.84375 h 1.52344 z"
     id="path431297" /><path
     d="m 638.89282,218.48889 q 0.53906,-0.96875 1.28906,-1.42969 0.75,-0.46093 1.76563,-0.46093 1.36719,0 2.10937,0.96093 0.74219,0.95313 0.74219,2.71875 v 5.28125 h -1.44531 v -5.23437 q 0,-1.25781 -0.44531,-1.86719 -0.44532,-0.60937 -1.35938,-0.60937 -1.11719,0 -1.76562,0.74218 -0.64844,0.74219 -0.64844,2.02344 v 4.94531 h -1.44531 v -5.23437 q 0,-1.26563 -0.44532,-1.86719 -0.44531,-0.60937 -1.375,-0.60937 -1.10156,0 -1.75,0.75 -0.64843,0.74218 -0.64843,2.01562 v 4.94531 h -1.44532 v -8.75 h 1.44532 v 1.35938 q 0.49218,-0.80469 1.17968,-1.1875 0.6875,-0.38281 1.63282,-0.38281 0.95312,0 1.61718,0.48437 0.67188,0.48438 0.99219,1.40625 z"
     id="path431299" /><path
     d="m 655.15063,220.82483 v 0.70312 h -6.60937 q 0.0937,1.48438 0.89062,2.26563 0.80469,0.77344 2.23438,0.77344 0.82812,0 1.60156,-0.20313 0.78125,-0.20312 1.54688,-0.60937 v 1.35937 q -0.77344,0.32813 -1.58594,0.5 -0.8125,0.17188 -1.64844,0.17188 -2.09375,0 -3.32031,-1.21875 -1.21875,-1.21875 -1.21875,-3.29688 0,-2.14844 1.15625,-3.40625 1.16406,-1.26562 3.13281,-1.26562 1.76563,0 2.78906,1.14062 1.03125,1.13281 1.03125,3.08594 z m -1.4375,-0.42188 q -0.0156,-1.17968 -0.66406,-1.88281 -0.64062,-0.70312 -1.70312,-0.70312 -1.20313,0 -1.92969,0.67968 -0.71875,0.67969 -0.82813,1.91407 z"
     id="path431301" /><path
     d="m 664.78345,220.27795 v 5.28125 h -1.4375 v -5.23437 q 0,-1.24219 -0.48438,-1.85938 -0.48437,-0.61718 -1.45312,-0.61718 -1.16407,0 -1.83594,0.74218 -0.67188,0.74219 -0.67188,2.02344 v 4.94531 h -1.44531 v -8.75 h 1.44531 v 1.35938 q 0.51563,-0.78906 1.21094,-1.17969 0.70313,-0.39062 1.61719,-0.39062 1.50781,0 2.28125,0.9375 0.77344,0.92968 0.77344,2.74218 z"
     id="path431303" /><path
     d="m 669.07251,214.32483 v 2.48437 h 2.96094 v 1.11719 h -2.96094 v 4.75 q 0,1.07031 0.28906,1.375 0.29688,0.30469 1.19531,0.30469 h 1.47657 v 1.20312 h -1.47657 q -1.66406,0 -2.29687,-0.61718 -0.63281,-0.625 -0.63281,-2.26563 v -4.75 h -1.05469 v -1.11719 h 1.05469 v -2.48437 z"
     id="path431305" /></g>
<path
   id="path150"
   d="m 713.5,212.4 c 2.4,0 4.8,1.9 4.8,4.7 0,2.6 -2.1,4.7 -4.7,4.7 -4.2,0 -6.3,-5.1 -3.3,-8 0.8,-1 2,-1.4 3.2,-1.4 z m -2.7,-8.8 c -0.3,0 -0.6,0.2 -0.7,0.6 l -0.5,3.6 c -0.8,0.3 -1.6,0.8 -2.3,1.3 l -3.4,-1.4 c -0.1,0 -0.2,0 -0.2,0 -0.2,0 -0.5,0.1 -0.6,0.3 l -2.7,4.7 c -0.2,0.3 -0.1,0.7 0.2,0.9 l 2.8,2.2 c -0.1,0.9 -0.1,1.8 0,2.6 l -2.8,2.2 c -0.2,0.2 -0.3,0.6 -0.2,0.9 l 2.7,4.7 c 0.1,0.2 0.3,0.3 0.6,0.3 0.1,0 0.2,0 0.2,0 l 3.4,-1.4 c 0.7,0.5 1.5,1 2.3,1.3 l 0.5,3.6 c 0.1,0.3 0.3,0.6 0.7,0.6 h 5.4 c 0.3,0 0.6,-0.2 0.7,-0.6 l 0.5,-3.6 c 0.8,-0.3 1.6,-0.8 2.3,-1.3 l 3.4,1.4 c 0.1,0 0.2,0 0.2,0 0.2,0 0.5,-0.1 0.6,-0.3 l 2.7,-4.7 c 0.2,-0.3 0.1,-0.6 -0.2,-0.9 l -2.8,-2.2 c 0.1,-0.9 0.1,-1.8 0,-2.6 l 2.8,-2.2 c 0.3,-0.2 0.3,-0.6 0.2,-0.9 l -2.7,-4.7 c -0.1,-0.2 -0.3,-0.3 -0.6,-0.3 -0.1,0 -0.2,0 -0.2,0 l -3.4,1.4 c -0.7,-0.5 -1.5,-1 -2.3,-1.3 l -0.5,-3.6 c -0.1,-0.3 -0.3,-0.6 -0.7,-0.6 z"
   class="st8" />
<g
   aria-label="Make"
   id="text152"
   class="st2 st3 st4"
   style="font-size:16px;font-family:GoogleSans-Medium;fill:#202124"><path
     d="m 461.51501,34.622635 h 2.35157 l 2.97656,7.9375 2.99219,-7.9375 h 2.35156 v 11.664062 h -1.53906 V 36.04451 l -3.00782,8 h -1.58593 l -3.00782,-8 v 10.242187 h -1.53125 z"
     id="path431308" /><path
     d="m 479.23376,41.88826 q -1.74218,0 -2.41406,0.398437 -0.67187,0.398438 -0.67187,1.359375 0,0.765625 0.5,1.21875 0.50781,0.445313 1.375,0.445313 1.19531,0 1.91406,-0.84375 0.72656,-0.851563 0.72656,-2.257813 V 41.88826 Z m 2.86719,-0.59375 v 4.992187 h -1.4375 v -1.328125 q -0.49219,0.796875 -1.22656,1.179688 -0.73438,0.375 -1.79688,0.375 -1.34375,0 -2.14062,-0.75 -0.78906,-0.757813 -0.78906,-2.023438 0,-1.476562 0.98437,-2.226562 0.99219,-0.75 2.95313,-0.75 h 2.01562 v -0.140625 q 0,-0.992188 -0.65625,-1.53125 -0.64844,-0.546875 -1.82812,-0.546875 -0.75,0 -1.46094,0.179687 -0.71094,0.179688 -1.36719,0.539063 v -1.328125 q 0.78906,-0.304688 1.53125,-0.453125 0.74219,-0.15625 1.44531,-0.15625 1.89844,0 2.83594,0.984375 0.9375,0.984375 0.9375,2.984375 z"
     id="path431310" /><path
     d="m 485.0072,34.130447 h 1.44531 v 7.179688 l 4.28907,-3.773438 h 1.83593 l -4.64062,4.09375 4.83594,4.65625 h -1.875 l -4.44532,-4.273437 v 4.273437 h -1.44531 z"
     id="path431312" /><path
     d="m 501.24158,41.552322 v 0.703125 h -6.60938 q 0.0937,1.484375 0.89063,2.265625 0.80468,0.773438 2.23437,0.773438 0.82813,0 1.60156,-0.203125 0.78125,-0.203125 1.54688,-0.609375 v 1.359375 q -0.77344,0.328125 -1.58594,0.5 -0.8125,0.171875 -1.64844,0.171875 -2.09375,0 -3.32031,-1.21875 -1.21875,-1.21875 -1.21875,-3.296875 0,-2.148438 1.15625,-3.40625 1.16406,-1.265625 3.13281,-1.265625 1.76563,0 2.78907,1.140625 1.03125,1.132812 1.03125,3.085937 z m -1.4375,-0.421875 q -0.0156,-1.179687 -0.66407,-1.882812 -0.64062,-0.703125 -1.70312,-0.703125 -1.20313,0 -1.92969,0.679687 -0.71875,0.679688 -0.82812,1.914063 z"
     id="path431314" /></g>
<g
   aria-label="payment"
   id="text154"
   class="st2 st3 st4"
   style="font-size:16px;font-family:GoogleSans-Medium;fill:#202124"><path
     d="m 462.84314,64.174194 v 4.640625 h -1.44531 V 56.736694 h 1.44531 v 1.328125 q 0.45312,-0.78125 1.14062,-1.15625 0.69532,-0.382812 1.65625,-0.382812 1.59375,0 2.58594,1.265625 1,1.265625 1,3.328125 0,2.0625 -1,3.328125 -0.99219,1.265625 -2.58594,1.265625 -0.96093,0 -1.65625,-0.375 -0.6875,-0.382813 -1.14062,-1.164063 z m 4.89062,-3.054687 q 0,-1.585938 -0.65625,-2.484375 -0.64843,-0.90625 -1.78906,-0.90625 -1.14062,0 -1.79687,0.90625 -0.64844,0.898437 -0.64844,2.484375 0,1.585937 0.64844,2.492187 0.65625,0.898438 1.79687,0.898438 1.14063,0 1.78906,-0.898438 0.65625,-0.90625 0.65625,-2.492187 z"
     id="path431317" /><path
     d="m 475.58533,61.088257 q -1.74219,0 -2.41407,0.398437 -0.67187,0.398438 -0.67187,1.359375 0,0.765625 0.5,1.21875 0.50781,0.445313 1.375,0.445313 1.19531,0 1.91406,-0.84375 0.72656,-0.851563 0.72656,-2.257813 v -0.320312 z m 2.86718,-0.59375 v 4.992187 h -1.4375 v -1.328125 q -0.49218,0.796875 -1.22656,1.179688 -0.73437,0.375 -1.79687,0.375 -1.34375,0 -2.14063,-0.75 -0.78906,-0.757813 -0.78906,-2.023438 0,-1.476562 0.98437,-2.226562 0.99219,-0.75 2.95313,-0.75 h 2.01562 v -0.140625 q 0,-0.992188 -0.65625,-1.53125 -0.64843,-0.546875 -1.82812,-0.546875 -0.75,0 -1.46094,0.179687 -0.71094,0.179688 -1.36719,0.539063 v -1.328125 q 0.78907,-0.304688 1.53125,-0.453125 0.74219,-0.15625 1.44532,-0.15625 1.89843,0 2.83593,0.984375 0.9375,0.984375 0.9375,2.984375 z"
     id="path431319" /><path
     d="m 485.05408,66.299194 q -0.60938,1.5625 -1.1875,2.039063 -0.57813,0.476562 -1.54688,0.476562 h -1.14844 v -1.203125 h 0.84375 q 0.59375,0 0.92188,-0.28125 0.32812,-0.28125 0.72656,-1.328125 l 0.25781,-0.65625 -3.53906,-8.609375 h 1.52344 l 2.73437,6.84375 2.73438,-6.84375 h 1.52344 z"
     id="path431321" /><path
     d="m 497.6947,58.416382 q 0.53906,-0.96875 1.28906,-1.429688 0.75,-0.460937 1.76563,-0.460937 1.36719,0 2.10937,0.960937 0.74219,0.953125 0.74219,2.71875 v 5.28125 h -1.44531 v -5.234375 q 0,-1.257812 -0.44531,-1.867187 -0.44532,-0.609375 -1.35938,-0.609375 -1.11719,0 -1.76562,0.742187 -0.64844,0.742188 -0.64844,2.023438 v 4.945312 h -1.44531 v -5.234375 q 0,-1.265625 -0.44532,-1.867187 -0.44531,-0.609375 -1.375,-0.609375 -1.10156,0 -1.75,0.75 -0.64843,0.742187 -0.64843,2.015625 v 4.945312 h -1.44532 v -8.75 h 1.44532 v 1.359375 q 0.49218,-0.804687 1.17968,-1.1875 0.6875,-0.382812 1.63282,-0.382812 0.95312,0 1.61718,0.484375 0.67188,0.484375 0.99219,1.40625 z"
     id="path431323" /><path
     d="m 513.95251,60.752319 v 0.703125 h -6.60937 q 0.0937,1.484375 0.89062,2.265625 0.80469,0.773438 2.23438,0.773438 0.82812,0 1.60156,-0.203125 0.78125,-0.203125 1.54688,-0.609375 v 1.359375 q -0.77344,0.328125 -1.58594,0.5 -0.8125,0.171875 -1.64844,0.171875 -2.09375,0 -3.32031,-1.21875 -1.21875,-1.21875 -1.21875,-3.296875 0,-2.148438 1.15625,-3.40625 1.16406,-1.265625 3.13281,-1.265625 1.76563,0 2.78906,1.140625 1.03125,1.132812 1.03125,3.085937 z m -1.4375,-0.421875 q -0.0156,-1.179687 -0.66406,-1.882812 -0.64062,-0.703125 -1.70312,-0.703125 -1.20313,0 -1.92969,0.679687 -0.71875,0.679688 -0.82813,1.914063 z"
     id="path431325" /><path
     d="m 523.58533,60.205444 v 5.28125 h -1.4375 v -5.234375 q 0,-1.242187 -0.48438,-1.859375 -0.48437,-0.617187 -1.45312,-0.617187 -1.16407,0 -1.83594,0.742187 -0.67188,0.742188 -0.67188,2.023438 v 4.945312 h -1.44531 v -8.75 h 1.44531 v 1.359375 q 0.51563,-0.789062 1.21094,-1.179687 0.70313,-0.390625 1.61719,-0.390625 1.50781,0 2.28125,0.9375 0.77344,0.929687 0.77344,2.742187 z"
     id="path431327" /><path
     d="m 527.87439,54.252319 v 2.484375 h 2.96094 v 1.117188 h -2.96094 v 4.75 q 0,1.070312 0.28906,1.375 0.29688,0.304687 1.19531,0.304687 h 1.47657 v 1.203125 h -1.47657 q -1.66406,0 -2.29687,-0.617187 -0.63281,-0.625 -0.63281,-2.265625 v -4.75 h -1.05469 v -1.117188 h 1.05469 v -2.484375 z"
     id="path431329" /></g>
<g
   aria-label="Succeeds"
   id="text156"
   class="st2 st9 st10"
   style="font-size:10px;font-family:GoogleSans-Regular;fill:#202124"><path
     d="m 388.41467,52.293118 v 0.961914 q -0.56152,-0.268555 -1.05957,-0.400391 -0.49804,-0.131836 -0.96191,-0.131836 -0.80567,0 -1.24512,0.3125 -0.43457,0.3125 -0.43457,0.888672 0,0.483398 0.28809,0.732422 0.29297,0.24414 1.10351,0.395508 l 0.59571,0.12207 q 1.10351,0.209961 1.62597,0.742187 0.52735,0.527344 0.52735,1.416016 0,1.05957 -0.71289,1.606445 -0.70801,0.546875 -2.08008,0.546875 -0.51758,0 -1.10352,-0.117187 -0.58105,-0.117188 -1.20605,-0.34668 v -1.015625 q 0.60058,0.336914 1.17675,0.507813 0.57618,0.170898 1.13282,0.170898 0.84472,0 1.30371,-0.332031 0.45898,-0.332031 0.45898,-0.947266 0,-0.537109 -0.33203,-0.839844 -0.32715,-0.302734 -1.0791,-0.454101 l -0.60059,-0.117188 q -1.10351,-0.219726 -1.59668,-0.688476 -0.49316,-0.46875 -0.49316,-1.303711 0,-0.966797 0.67871,-1.523438 0.68359,-0.55664 1.87988,-0.55664 0.5127,0 1.04493,0.09277 0.53222,0.09277 1.08886,0.278321 z"
     id="path431332" /><path
     d="m 390.26038,57.185696 v -3.310547 h 0.89843 v 3.276367 q 0,0.776367 0.30274,1.166992 0.30273,0.385742 0.9082,0.385742 0.72754,0 1.14746,-0.463867 0.42481,-0.463867 0.42481,-1.264648 v -3.100586 h 0.89843 v 5.46875 h -0.89843 v -0.839844 q -0.32715,0.498047 -0.76172,0.742188 -0.42969,0.239257 -1.00098,0.239257 -0.94238,0 -1.43066,-0.585937 -0.48828,-0.585938 -0.48828,-1.713867 z m 2.26074,-3.442383 z"
     id="path431334" /><path
     d="m 400.62659,54.08511 v 0.839843 q -0.38086,-0.20996 -0.7666,-0.3125 -0.38086,-0.107421 -0.77149,-0.107421 -0.87402,0 -1.35742,0.55664 -0.4834,0.551758 -0.4834,1.552735 0,1.000976 0.4834,1.557617 0.4834,0.551758 1.35742,0.551758 0.39063,0 0.77149,-0.102539 0.38574,-0.107422 0.7666,-0.317383 v 0.830078 q -0.37598,0.175781 -0.78125,0.263672 -0.40039,0.08789 -0.8545,0.08789 -1.23535,0 -1.96289,-0.776367 -0.72753,-0.776367 -0.72753,-2.094726 0,-1.337891 0.73242,-2.104493 0.7373,-0.766601 2.0166,-0.766601 0.41504,0 0.81055,0.08789 0.3955,0.08301 0.7666,0.253907 z"
     id="path431336" /><path
     d="m 406.12463,54.08511 v 0.839843 q -0.38086,-0.20996 -0.7666,-0.3125 -0.38086,-0.107421 -0.77148,-0.107421 -0.87403,0 -1.35742,0.55664 -0.4834,0.551758 -0.4834,1.552735 0,1.000976 0.4834,1.557617 0.48339,0.551758 1.35742,0.551758 0.39062,0 0.77148,-0.102539 0.38574,-0.107422 0.7666,-0.317383 v 0.830078 q -0.37597,0.175781 -0.78125,0.263672 -0.40039,0.08789 -0.85449,0.08789 -1.23535,0 -1.96289,-0.776367 -0.72754,-0.776367 -0.72754,-2.094726 0,-1.337891 0.73242,-2.104493 0.73731,-0.766601 2.01661,-0.766601 0.41503,0 0.81054,0.08789 0.39551,0.08301 0.7666,0.253907 z"
     id="path431338" /><path
     d="m 412.36487,56.384914 v 0.439454 h -4.13086 q 0.0586,0.927734 0.55664,1.416015 0.50293,0.483399 1.39648,0.483399 0.51758,0 1.00098,-0.126954 0.48828,-0.126953 0.9668,-0.380859 v 0.849609 q -0.4834,0.205079 -0.99121,0.3125 -0.50782,0.107422 -1.03028,0.107422 -1.30859,0 -2.07519,-0.761718 -0.76172,-0.761719 -0.76172,-2.060547 0,-1.342774 0.72266,-2.128907 0.72753,-0.791015 1.958,-0.791015 1.10352,0 1.74317,0.71289 0.64453,0.708008 0.64453,1.928711 z m -0.89844,-0.263671 q -0.01,-0.737305 -0.41504,-1.176758 -0.40039,-0.439453 -1.06445,-0.439453 -0.75195,0 -1.20606,0.424804 -0.44921,0.424805 -0.51757,1.196289 z"
     id="path431340" /><path
     d="m 418.51721,56.384914 v 0.439454 h -4.13086 q 0.0586,0.927734 0.55664,1.416015 0.50293,0.483399 1.39649,0.483399 0.51758,0 1.00097,-0.126954 0.48829,-0.126953 0.9668,-0.380859 v 0.849609 q -0.4834,0.205079 -0.99121,0.3125 -0.50781,0.107422 -1.03027,0.107422 -1.3086,0 -2.0752,-0.761718 -0.76172,-0.761719 -0.76172,-2.060547 0,-1.342774 0.72266,-2.128907 0.72754,-0.791015 1.95801,-0.791015 1.10351,0 1.74316,0.71289 0.64453,0.708008 0.64453,1.928711 z m -0.89844,-0.263671 q -0.01,-0.737305 -0.41503,-1.176758 -0.4004,-0.439453 -1.06446,-0.439453 -0.75195,0 -1.20605,0.424804 -0.44922,0.424805 -0.51758,1.196289 z"
     id="path431342" /><path
     d="m 423.59045,54.705227 v -2.958984 h 0.89844 v 7.597656 h -0.89844 v -0.820313 q -0.2832,0.488282 -0.71777,0.727539 -0.42969,0.234375 -1.03516,0.234375 -0.99121,0 -1.61621,-0.791015 -0.62011,-0.791016 -0.62011,-2.080078 0,-1.289063 0.62011,-2.080079 0.625,-0.791015 1.61621,-0.791015 0.60547,0 1.03516,0.239258 0.43457,0.234375 0.71777,0.722656 z m -3.06152,1.90918 q 0,0.991211 0.40527,1.557617 0.41016,0.561523 1.12305,0.561523 0.71289,0 1.12305,-0.561523 0.41015,-0.566406 0.41015,-1.557617 0,-0.991211 -0.41015,-1.552735 -0.41016,-0.566406 -1.12305,-0.566406 -0.71289,0 -1.12305,0.566406 -0.40527,0.561524 -0.40527,1.552735 z"
     id="path431344" /><path
     d="m 429.82581,54.036282 v 0.849609 q -0.38086,-0.195313 -0.79102,-0.292969 -0.41016,-0.09766 -0.84961,-0.09766 -0.66894,0 -1.00586,0.205078 -0.33203,0.205078 -0.33203,0.615234 0,0.3125 0.23926,0.493165 0.23926,0.175781 0.96191,0.336914 l 0.30762,0.06836 q 0.95703,0.205078 1.35742,0.581055 0.40527,0.371093 0.40527,1.040039 0,0.761718 -0.60546,1.206054 -0.60059,0.444336 -1.65528,0.444336 -0.43945,0 -0.91797,-0.08789 -0.47363,-0.08301 -1.00097,-0.253907 v -0.927734 q 0.49804,0.258789 0.98144,0.390625 0.4834,0.126953 0.95703,0.126953 0.63477,0 0.97657,-0.214844 0.34179,-0.219726 0.34179,-0.615234 0,-0.366211 -0.24902,-0.561523 -0.24414,-0.195313 -1.0791,-0.375977 l -0.3125,-0.07324 q -0.83496,-0.175781 -1.20606,-0.537109 -0.37109,-0.366211 -0.37109,-1.000977 0,-0.771484 0.54687,-1.191406 0.54688,-0.419922 1.55274,-0.419922 0.49805,0 0.9375,0.07324 0.43945,0.07324 0.81055,0.219727 z"
     id="path431346" /></g>
<g
   aria-label="Start"
   id="text158"
   class="st2 st9 st10"
   style="font-size:10px;font-family:GoogleSans-Regular;fill:#202124"><path
     d="m 44.224564,94.290306 v 0.961914 q -0.561524,-0.268555 -1.059571,-0.40039 -0.498047,-0.131836 -0.961914,-0.131836 -0.805664,0 -1.245117,0.3125 -0.43457,0.3125 -0.43457,0.888671 0,0.483399 0.288086,0.732422 0.292968,0.244141 1.103515,0.395508 l 0.595703,0.12207 q 1.103516,0.209961 1.625977,0.742188 0.527344,0.527344 0.527344,1.416016 0,1.059571 -0.712891,1.606441 -0.708008,0.54688 -2.080078,0.54688 -0.517578,0 -1.103516,-0.11719 -0.581054,-0.11719 -1.206054,-0.34668 v -1.01562 q 0.600586,0.33691 1.176757,0.50781 0.576172,0.1709 1.132813,0.1709 0.844727,0 1.303711,-0.33203 0.458984,-0.33203 0.458984,-0.947269 0,-0.53711 -0.332031,-0.839844 -0.327148,-0.302734 -1.079102,-0.454102 l -0.600585,-0.117187 q -1.103516,-0.219727 -1.59668,-0.688477 -0.493164,-0.46875 -0.493164,-1.303711 0,-0.966796 0.678711,-1.523437 0.683593,-0.556641 1.879883,-0.556641 0.512695,0 1.044921,0.09277 0.532227,0.09277 1.088868,0.27832 z"
     id="path431349" /><path
     d="m 47.051712,94.319603 v 1.552734 h 1.850586 v 0.698243 h -1.850586 v 2.96875 q 0,0.66894 0.180664,0.85937 0.185547,0.19043 0.74707,0.19043 h 0.922852 v 0.75196 h -0.922852 q -1.040039,0 -1.435546,-0.38574 -0.395508,-0.39063 -0.395508,-1.41602 v -2.96875 h -0.65918 v -0.698243 h 0.65918 v -1.552734 z"
     id="path431351" /><path
     d="m 52.56929,98.592064 q -1.088867,0 -1.508789,0.249023 -0.419922,0.249024 -0.419922,0.84961 0,0.478513 0.3125,0.761723 0.317383,0.27832 0.859375,0.27832 0.747071,0 1.196289,-0.52735 0.454102,-0.532225 0.454102,-1.411131 v -0.200195 z m 1.791992,-0.371094 v 3.12012 h -0.898437 v -0.83008 q -0.307617,0.49805 -0.766602,0.7373 -0.458984,0.23438 -1.123047,0.23438 -0.839843,0 -1.33789,-0.46875 -0.493164,-0.47363 -0.493164,-1.26465 0,-0.922851 0.615234,-1.391601 0.620117,-0.46875 1.845703,-0.46875 h 1.259766 v -0.08789 q 0,-0.620117 -0.410156,-0.957031 -0.405274,-0.341797 -1.142579,-0.341797 -0.46875,0 -0.913085,0.112305 -0.444336,0.112305 -0.854493,0.336914 v -0.830078 q 0.493164,-0.19043 0.957032,-0.283203 0.463867,-0.09766 0.90332,-0.09766 1.186523,0 1.772461,0.615235 0.585937,0.615234 0.585937,1.865234 z"
     id="path431353" /><path
     d="m 59.380814,96.712181 q -0.151368,-0.08789 -0.332032,-0.126953 -0.175781,-0.04394 -0.390625,-0.04394 -0.761718,0 -1.171875,0.498047 -0.405273,0.493164 -0.405273,1.420898 v 2.880862 h -0.90332 v -5.468753 h 0.90332 v 0.84961 q 0.283203,-0.498047 0.737305,-0.737305 0.454101,-0.244141 1.103515,-0.244141 0.09277,0 0.205078,0.01465 0.112305,0.0098 0.249024,0.03418 z"
     id="path431355" /><path
     d="m 61.211868,94.319603 v 1.552734 h 1.850586 v 0.698243 h -1.850586 v 2.96875 q 0,0.66894 0.180664,0.85937 0.185547,0.19043 0.747071,0.19043 h 0.922851 v 0.75196 h -0.922851 q -1.040039,0 -1.435547,-0.38574 -0.395508,-0.39063 -0.395508,-1.41602 v -2.96875 h -0.65918 v -0.698243 h 0.65918 v -1.552734 z"
     id="path431357" /></g>
<g
   aria-label="Fails"
   id="text160"
   class="st2 st9 st10"
   style="font-size:10px;font-family:GoogleSans-Regular;fill:#202124"><path
     d="m 329.72815,128.08015 h 4.18945 v 0.83008 h -3.20312 v 2.14844 h 2.89062 v 0.83008 h -2.89062 v 3.48144 h -0.98633 z"
     id="path431360" /><path
     d="m 337.00842,132.62117 q -1.08886,0 -1.50879,0.24902 -0.41992,0.24903 -0.41992,0.84961 0,0.47852 0.3125,0.76172 0.31738,0.27832 0.85938,0.27832 0.74707,0 1.19629,-0.52734 0.4541,-0.53223 0.4541,-1.41113 v -0.2002 z m 1.792,-0.37109 v 3.12011 h -0.89844 v -0.83007 q -0.30762,0.49804 -0.7666,0.7373 -0.45899,0.23438 -1.12305,0.23438 -0.83984,0 -1.33789,-0.46875 -0.49317,-0.47364 -0.49317,-1.26465 0,-0.92285 0.61524,-1.3916 0.62012,-0.46875 1.8457,-0.46875 h 1.25977 v -0.0879 q 0,-0.62011 -0.41016,-0.95703 -0.40527,-0.34179 -1.14258,-0.34179 -0.46875,0 -0.91308,0.1123 -0.44434,0.11231 -0.85449,0.33692 v -0.83008 q 0.49316,-0.19043 0.95703,-0.28321 0.46386,-0.0976 0.90332,-0.0976 1.18652,0 1.77246,0.61523 0.58594,0.61524 0.58594,1.86524 z"
     id="path431362" /><path
     d="m 340.651,129.90144 h 0.89844 v 5.46875 H 340.651 Z m 0,-2.1289 h 0.89844 v 1.13769 H 340.651 Z"
     id="path431364" /><path
     d="m 343.42932,127.77254 h 0.89844 v 7.59765 h -0.89844 z"
     id="path431366" /><path
     d="m 349.69397,130.06258 v 0.84961 q -0.38086,-0.19532 -0.79102,-0.29297 -0.41015,-0.0977 -0.84961,-0.0977 -0.66894,0 -1.00585,0.20508 -0.33204,0.20508 -0.33204,0.61523 0,0.3125 0.23926,0.49317 0.23926,0.17578 0.96192,0.33691 l 0.30761,0.0684 q 0.95703,0.20508 1.35743,0.58106 0.40527,0.37109 0.40527,1.04003 0,0.76172 -0.60547,1.20606 -0.60059,0.44434 -1.65527,0.44434 -0.43946,0 -0.91797,-0.0879 -0.47364,-0.083 -1.00098,-0.2539 v -0.92774 q 0.49805,0.25879 0.98145,0.39063 0.48339,0.12695 0.95703,0.12695 0.63476,0 0.97656,-0.21484 0.3418,-0.21973 0.3418,-0.61524 0,-0.36621 -0.24903,-0.56152 -0.24414,-0.19531 -1.0791,-0.37598 l -0.3125,-0.0732 q -0.83496,-0.17578 -1.20605,-0.53711 -0.3711,-0.36621 -0.3711,-1.00097 0,-0.77149 0.54688,-1.19141 0.54687,-0.41992 1.55273,-0.41992 0.49805,0 0.9375,0.0732 0.43946,0.0732 0.81055,0.21973 z"
     id="path431368" /></g>
<g
   aria-label="Timeout"
   id="text162"
   class="st2 st9 st10"
   style="font-size:10px;font-family:GoogleSans-Regular;fill:#202124"><path
     d="m 506.92792,161.09346 h 6.16699 v 0.83008 h -2.58789 v 6.45996 h -0.99121 v -6.45996 h -2.58789 z"
     id="path431371" /><path
     d="m 513.70038,162.91475 h 0.89844 v 5.46875 h -0.89844 z m 0,-2.12891 h 0.89844 v 1.1377 h -0.89844 z"
     id="path431373" /><path
     d="m 520.73651,163.96455 q 0.33692,-0.60546 0.80567,-0.89355 0.46875,-0.28809 1.10351,-0.28809 0.85449,0 1.31836,0.60059 0.46387,0.5957 0.46387,1.69922 v 3.30078 h -0.90332 v -3.27149 q 0,-0.78613 -0.27832,-1.16699 -0.27832,-0.38086 -0.84961,-0.38086 -0.69824,0 -1.10352,0.46387 -0.40527,0.46387 -0.40527,1.26465 v 3.09082 h -0.90332 v -3.27149 q 0,-0.79101 -0.27832,-1.16699 -0.27832,-0.38086 -0.85938,-0.38086 -0.68847,0 -1.09375,0.46875 -0.40527,0.46387 -0.40527,1.25977 v 3.09082 h -0.90332 v -5.46875 h 0.90332 v 0.84961 q 0.30762,-0.50293 0.7373,-0.74219 0.42969,-0.23926 1.02051,-0.23926 0.5957,0 1.01074,0.30274 0.41993,0.30273 0.62012,0.8789 z"
     id="path431375" /><path
     d="m 530.89764,165.42451 v 0.43946 h -4.13086 q 0.0586,0.92773 0.55665,1.41601 0.50292,0.4834 1.39648,0.4834 0.51758,0 1.00098,-0.12695 0.48828,-0.12695 0.96679,-0.38086 v 0.84961 q -0.4834,0.20508 -0.99121,0.3125 -0.50781,0.10742 -1.03027,0.10742 -1.3086,0 -2.0752,-0.76172 -0.76172,-0.76172 -0.76172,-2.06054 0,-1.34278 0.72266,-2.12891 0.72754,-0.79102 1.95801,-0.79102 1.10351,0 1.74316,0.71289 0.64453,0.70801 0.64453,1.92871 z m -0.89843,-0.26367 q -0.01,-0.7373 -0.41504,-1.17675 -0.40039,-0.43946 -1.06446,-0.43946 -0.75195,0 -1.20605,0.42481 -0.44922,0.4248 -0.51758,1.19629 z"
     id="path431377" /><path
     d="m 534.49139,163.54463 q -0.72265,0 -1.14257,0.56641 -0.41993,0.56152 -0.41993,1.54297 0,0.98144 0.41504,1.54785 0.41992,0.56152 1.14746,0.56152 0.71778,0 1.1377,-0.5664 0.41992,-0.56641 0.41992,-1.54297 0,-0.97168 -0.41992,-1.53809 -0.41992,-0.57129 -1.1377,-0.57129 z m 0,-0.76172 q 1.17188,0 1.84082,0.76172 0.66895,0.76172 0.66895,2.10938 0,1.34277 -0.66895,2.10937 -0.66894,0.76172 -1.84082,0.76172 -1.17675,0 -1.8457,-0.76172 -0.66406,-0.7666 -0.66406,-2.10937 0,-1.34766 0.66406,-2.10938 0.66895,-0.76172 1.8457,-0.76172 z"
     id="path431379" /><path
     d="m 538.39764,166.2253 v -3.31055 h 0.89844 v 3.27637 q 0,0.77636 0.30274,1.16699 0.30273,0.38574 0.9082,0.38574 0.72754,0 1.14746,-0.46387 0.4248,-0.46386 0.4248,-1.26464 v -3.10059 h 0.89844 v 5.46875 h -0.89844 v -0.83984 q -0.32714,0.49804 -0.76171,0.74218 -0.42969,0.23926 -1.00098,0.23926 -0.94238,0 -1.43066,-0.58594 -0.48829,-0.58593 -0.48829,-1.71386 z m 2.26075,-3.44239 z"
     id="path431381" /><path
     d="m 545.71698,161.36201 v 1.55274 h 1.85059 v 0.69824 h -1.85059 v 2.96875 q 0,0.66895 0.18066,0.85938 0.18555,0.19043 0.74707,0.19043 h 0.92286 v 0.75195 h -0.92286 q -1.04003,0 -1.43554,-0.38574 -0.39551,-0.39063 -0.39551,-1.41602 v -2.96875 h -0.65918 v -0.69824 h 0.65918 v -1.55274 z"
     id="path431383" /></g>
<g
   aria-label="10s"
   id="text164"
   class="st2 st9 st10"
   style="font-size:10px;font-family:GoogleSans-Regular;fill:#202124"><path
     d="m 519.29742,179.55342 h 1.61133 v -5.56152 l -1.75293,0.35156 v -0.89844 l 1.74317,-0.35156 h 0.98632 v 6.45996 h 1.61133 v 0.83008 h -4.19922 z"
     id="path431386" /><path
     d="m 527.59821,173.74287 q -0.76172,0 -1.14747,0.75196 -0.38085,0.74707 -0.38085,2.25097 0,1.49903 0.38085,2.25098 0.38575,0.74707 1.14747,0.74707 0.7666,0 1.14746,-0.74707 0.38574,-0.75195 0.38574,-2.25098 0,-1.5039 -0.38574,-2.25097 -0.38086,-0.75196 -1.14746,-0.75196 z m 0,-0.78125 q 1.22558,0 1.87011,0.97168 0.64942,0.9668 0.64942,2.8125 0,1.84082 -0.64942,2.8125 -0.64453,0.9668 -1.87011,0.9668 -1.22559,0 -1.875,-0.9668 -0.64454,-0.97168 -0.64454,-2.8125 0,-1.8457 0.64454,-2.8125 0.64941,-0.97168 1.875,-0.97168 z"
     id="path431388" /><path
     d="m 535.21051,175.07588 v 0.84961 q -0.38086,-0.19531 -0.79102,-0.29297 -0.41015,-0.0976 -0.8496,-0.0976 -0.66895,0 -1.00586,0.20507 -0.33204,0.20508 -0.33204,0.61524 0,0.3125 0.23926,0.49316 0.23926,0.17578 0.96192,0.33692 l 0.30761,0.0684 q 0.95703,0.20507 1.35743,0.58105 0.40527,0.37109 0.40527,1.04004 0,0.76172 -0.60547,1.20605 -0.60059,0.44434 -1.65527,0.44434 -0.43946,0 -0.91797,-0.0879 -0.47363,-0.083 -1.00098,-0.25391 v -0.92773 q 0.49805,0.25879 0.98145,0.39062 0.4834,0.12696 0.95703,0.12696 0.63476,0 0.97656,-0.21485 0.3418,-0.21972 0.3418,-0.61523 0,-0.36621 -0.24903,-0.56152 -0.24414,-0.19532 -1.0791,-0.37598 l -0.3125,-0.0732 q -0.83496,-0.17578 -1.20605,-0.53711 -0.3711,-0.36621 -0.3711,-1.00098 0,-0.77148 0.54688,-1.1914 0.54687,-0.41993 1.55273,-0.41993 0.49805,0 0.9375,0.0733 0.43946,0.0732 0.81055,0.21972 z"
     id="path431390" /></g>
<g
   aria-label="Succeeds"
   id="text166"
   class="st2 st9 st10"
   style="font-size:10px;font-family:GoogleSans-Regular;fill:#202124"><path
     d="m 720.43085,52.293118 v 0.961914 q -0.56153,-0.268555 -1.05957,-0.400391 -0.49805,-0.131836 -0.96192,-0.131836 -0.80566,0 -1.24511,0.3125 -0.43457,0.3125 -0.43457,0.888672 0,0.483398 0.28808,0.732422 0.29297,0.24414 1.10352,0.395508 l 0.5957,0.12207 q 1.10352,0.209961 1.62598,0.742187 0.52734,0.527344 0.52734,1.416016 0,1.05957 -0.71289,1.606445 -0.70801,0.546875 -2.08008,0.546875 -0.51758,0 -1.10351,-0.117187 -0.58106,-0.117188 -1.20606,-0.34668 v -1.015625 q 0.60059,0.336914 1.17676,0.507813 0.57617,0.170898 1.13281,0.170898 0.84473,0 1.30371,-0.332031 0.45899,-0.332031 0.45899,-0.947266 0,-0.537109 -0.33203,-0.839844 -0.32715,-0.302734 -1.07911,-0.454101 l -0.60058,-0.117188 q -1.10352,-0.219726 -1.59668,-0.688476 -0.49317,-0.46875 -0.49317,-1.303711 0,-0.966797 0.67872,-1.523438 0.68359,-0.55664 1.87988,-0.55664 0.51269,0 1.04492,0.09277 0.53223,0.09277 1.08887,0.278321 z"
     id="path431393" /><path
     d="m 722.27655,57.185696 v -3.310547 h 0.89844 v 3.276367 q 0,0.776367 0.30273,1.166992 0.30274,0.385742 0.90821,0.385742 0.72753,0 1.14746,-0.463867 0.4248,-0.463867 0.4248,-1.264648 v -3.100586 h 0.89844 v 5.46875 h -0.89844 v -0.839844 q -0.32715,0.498047 -0.76172,0.742188 -0.42969,0.239257 -1.00097,0.239257 -0.94239,0 -1.43067,-0.585937 -0.48828,-0.585938 -0.48828,-1.713867 z m 2.26074,-3.442383 z"
     id="path431395" /><path
     d="m 732.64276,54.08511 v 0.839843 q -0.38086,-0.20996 -0.7666,-0.3125 -0.38086,-0.107421 -0.77148,-0.107421 -0.87403,0 -1.35743,0.55664 -0.4834,0.551758 -0.4834,1.552735 0,1.000976 0.4834,1.557617 0.4834,0.551758 1.35743,0.551758 0.39062,0 0.77148,-0.102539 0.38574,-0.107422 0.7666,-0.317383 v 0.830078 q -0.37598,0.175781 -0.78125,0.263672 -0.40039,0.08789 -0.85449,0.08789 -1.23535,0 -1.96289,-0.776367 -0.72754,-0.776367 -0.72754,-2.094726 0,-1.337891 0.73242,-2.104493 0.73731,-0.766601 2.0166,-0.766601 0.41504,0 0.81055,0.08789 0.39551,0.08301 0.7666,0.253907 z"
     id="path431397" /><path
     d="m 738.14081,54.08511 v 0.839843 q -0.38086,-0.20996 -0.7666,-0.3125 -0.38086,-0.107421 -0.77149,-0.107421 -0.87402,0 -1.35742,0.55664 -0.4834,0.551758 -0.4834,1.552735 0,1.000976 0.4834,1.557617 0.4834,0.551758 1.35742,0.551758 0.39063,0 0.77149,-0.102539 0.38574,-0.107422 0.7666,-0.317383 v 0.830078 q -0.37598,0.175781 -0.78125,0.263672 -0.40039,0.08789 -0.85449,0.08789 -1.23536,0 -1.96289,-0.776367 -0.72754,-0.776367 -0.72754,-2.094726 0,-1.337891 0.73242,-2.104493 0.7373,-0.766601 2.0166,-0.766601 0.41504,0 0.81055,0.08789 0.3955,0.08301 0.7666,0.253907 z"
     id="path431399" /><path
     d="m 744.38104,56.384914 v 0.439454 h -4.13086 q 0.0586,0.927734 0.55664,1.416015 0.50293,0.483399 1.39649,0.483399 0.51758,0 1.00097,-0.126954 0.48829,-0.126953 0.9668,-0.380859 v 0.849609 q -0.4834,0.205079 -0.99121,0.3125 -0.50781,0.107422 -1.03027,0.107422 -1.3086,0 -2.0752,-0.761718 -0.76172,-0.761719 -0.76172,-2.060547 0,-1.342774 0.72266,-2.128907 0.72754,-0.791015 1.95801,-0.791015 1.10351,0 1.74316,0.71289 0.64453,0.708008 0.64453,1.928711 z m -0.89844,-0.263671 q -0.01,-0.737305 -0.41503,-1.176758 -0.40039,-0.439453 -1.06446,-0.439453 -0.75195,0 -1.20605,0.424804 -0.44922,0.424805 -0.51758,1.196289 z"
     id="path431401" /><path
     d="m 750.53339,56.384914 v 0.439454 h -4.13086 q 0.0586,0.927734 0.55664,1.416015 0.50293,0.483399 1.39648,0.483399 0.51758,0 1.00098,-0.126954 0.48828,-0.126953 0.9668,-0.380859 v 0.849609 q -0.4834,0.205079 -0.99122,0.3125 -0.50781,0.107422 -1.03027,0.107422 -1.30859,0 -2.07519,-0.761718 -0.76172,-0.761719 -0.76172,-2.060547 0,-1.342774 0.72265,-2.128907 0.72754,-0.791015 1.95801,-0.791015 1.10352,0 1.74316,0.71289 0.64454,0.708008 0.64454,1.928711 z m -0.89844,-0.263671 q -0.01,-0.737305 -0.41504,-1.176758 -0.40039,-0.439453 -1.06445,-0.439453 -0.75196,0 -1.20606,0.424804 -0.44922,0.424805 -0.51758,1.196289 z"
     id="path431403" /><path
     d="m 755.60663,54.705227 v -2.958984 h 0.89844 v 7.597656 h -0.89844 v -0.820313 q -0.2832,0.488282 -0.71778,0.727539 -0.42968,0.234375 -1.03515,0.234375 -0.99121,0 -1.61621,-0.791015 -0.62012,-0.791016 -0.62012,-2.080078 0,-1.289063 0.62012,-2.080079 0.625,-0.791015 1.61621,-0.791015 0.60547,0 1.03515,0.239258 0.43458,0.234375 0.71778,0.722656 z m -3.06153,1.90918 q 0,0.991211 0.40528,1.557617 0.41015,0.561523 1.12305,0.561523 0.71289,0 1.12304,-0.561523 0.41016,-0.566406 0.41016,-1.557617 0,-0.991211 -0.41016,-1.552735 -0.41015,-0.566406 -1.12304,-0.566406 -0.7129,0 -1.12305,0.566406 -0.40528,0.561524 -0.40528,1.552735 z"
     id="path431405" /><path
     d="m 761.84198,54.036282 v 0.849609 q -0.38086,-0.195313 -0.79102,-0.292969 -0.41015,-0.09766 -0.84961,-0.09766 -0.66894,0 -1.00585,0.205078 -0.33204,0.205078 -0.33204,0.615234 0,0.3125 0.23926,0.493165 0.23926,0.175781 0.96192,0.336914 l 0.30761,0.06836 q 0.95703,0.205078 1.35743,0.581055 0.40527,0.371093 0.40527,1.040039 0,0.761718 -0.60547,1.206054 -0.60059,0.444336 -1.65527,0.444336 -0.43946,0 -0.91797,-0.08789 -0.47364,-0.08301 -1.00098,-0.253907 v -0.927734 q 0.49805,0.258789 0.98145,0.390625 0.48339,0.126953 0.95703,0.126953 0.63476,0 0.97656,-0.214844 0.3418,-0.219726 0.3418,-0.615234 0,-0.366211 -0.24903,-0.561523 -0.24414,-0.195313 -1.0791,-0.375977 l -0.3125,-0.07324 q -0.83496,-0.175781 -1.20605,-0.537109 -0.3711,-0.366211 -0.3711,-1.000977 0,-0.771484 0.54688,-1.191406 0.54687,-0.419922 1.55273,-0.419922 0.49805,0 0.9375,0.07324 0.43946,0.07324 0.81055,0.219727 z"
     id="path431407" /></g>
<path
   id="path168"
   d="m 573.6,51.799997 c 2.4,0 4.8,1.9 4.8,4.7 0,2.6 -2.1,4.7 -4.7,4.7 -4.2,0 -6.3,-5.1 -3.3,-8 0.9,-1 2.1,-1.4 3.2,-1.4 z m -2.6,-8.8 c -0.3,0 -0.6,0.2 -0.7,0.6 l -0.5,3.6 c -0.8,0.3 -1.6,0.8 -2.3,1.3 l -3.4,-1.4 c -0.1,0 -0.2,0 -0.2,0 -0.2,0 -0.5,0.1 -0.6,0.3 l -2.7,4.7 c -0.2,0.3 -0.1,0.7 0.2,0.9 l 2.8,2.2 c -0.1,0.9 -0.1,1.8 0,2.6 l -2.8,2.2 c -0.2,0.2 -0.3,0.6 -0.2,0.9 l 2.7,4.7 c 0.1,0.2 0.3,0.3 0.6,0.3 0.1,0 0.2,0 0.2,0 l 3.4,-1.4 c 0.7,0.5 1.5,1 2.3,1.3 l 0.5,3.6 c 0.1,0.3 0.3,0.6 0.7,0.6 h 5.4 c 0.3,0 0.6,-0.2 0.7,-0.6 l 0.5,-3.6 c 0.8,-0.3 1.6,-0.8 2.3,-1.3 l 3.4,1.4 c 0.1,0 0.2,0 0.2,0 0.2,0 0.5,-0.1 0.6,-0.3 l 2.7,-4.7 c 0.2,-0.3 0.1,-0.6 -0.2,-0.9 l -2.8,-2.2 c 0.1,-0.9 0.1,-1.8 0,-2.6 l 2.8,-2.2 c 0.3,-0.2 0.3,-0.6 0.2,-0.9 l -2.7,-4.7 c -0.1,-0.2 -0.3,-0.3 -0.6,-0.3 -0.1,0 -0.2,0 -0.2,0 l -3.4,1.4 c -0.7,-0.5 -1.5,-1 -2.3,-1.3 l -0.5,-3.6 c -0.1,-0.3 -0.3,-0.6 -0.7,-0.6 z"
   class="st8" />
<rect
   id="rect170"
   height="64"
   width="150"
   class="st0"
   y="24.5"
   x="780.79999" />
<g
   aria-label="Process"
   id="text172"
   class="st2 st3 st4"
   style="font-size:16px;font-family:GoogleSans-Medium;fill:#202124"><path
     d="m 793.96344,35.463608 v 4.382812 h 1.98437 q 1.10157,0 1.70313,-0.570312 0.60156,-0.570313 0.60156,-1.625 0,-1.046875 -0.60156,-1.617188 -0.60156,-0.570312 -1.70313,-0.570312 z m -1.57813,-1.296875 h 3.5625 q 1.96094,0 2.96094,0.890625 1.00781,0.882812 1.00781,2.59375 0,1.726562 -1.00781,2.609375 -1,0.882812 -2.96094,0.882812 h -1.98437 v 4.6875 h -1.57813 z"
     id="path431410" /><path
     d="m 806.76031,38.424545 q -0.24218,-0.140625 -0.53125,-0.203125 -0.28125,-0.07031 -0.625,-0.07031 -1.21875,0 -1.875,0.796875 -0.64843,0.789062 -0.64843,2.273437 v 4.609375 h -1.44532 v -8.75 h 1.44532 v 1.359375 q 0.45312,-0.796875 1.17968,-1.179687 0.72657,-0.390625 1.76563,-0.390625 0.14844,0 0.32812,0.02344 0.17969,0.01563 0.39844,0.05469 z"
     id="path431412" /><path
     d="m 811.30719,38.088608 q -1.15625,0 -1.82813,0.90625 -0.67187,0.898437 -0.67187,2.46875 0,1.570312 0.66406,2.476562 0.67188,0.898438 1.83594,0.898438 1.14844,0 1.82031,-0.90625 0.67188,-0.90625 0.67188,-2.46875 0,-1.554688 -0.67188,-2.460938 -0.67187,-0.914062 -1.82031,-0.914062 z m 0,-1.21875 q 1.875,0 2.94531,1.21875 1.07031,1.21875 1.07031,3.375 0,2.148437 -1.07031,3.375 -1.07031,1.21875 -2.94531,1.21875 -1.88281,0 -2.95313,-1.21875 -1.0625,-1.226563 -1.0625,-3.375 0,-2.15625 1.0625,-3.375 1.07032,-1.21875 2.95313,-1.21875 z"
     id="path431414" /><path
     d="m 824.0025,37.416733 v 1.34375 q -0.60937,-0.335938 -1.22656,-0.5 -0.60938,-0.171875 -1.23438,-0.171875 -1.39843,0 -2.17187,0.890625 -0.77344,0.882812 -0.77344,2.484375 0,1.601562 0.77344,2.492187 0.77344,0.882813 2.17187,0.882813 0.625,0 1.23438,-0.164063 0.61719,-0.171875 1.22656,-0.507812 v 1.328125 q -0.60156,0.28125 -1.25,0.421875 -0.64062,0.140625 -1.36719,0.140625 -1.97656,0 -3.14062,-1.242188 -1.16406,-1.242187 -1.16406,-3.351562 0,-2.140625 1.17187,-3.367188 1.17969,-1.226562 3.22656,-1.226562 0.66407,0 1.29688,0.140625 0.63281,0.132812 1.22656,0.40625 z"
     id="path431416" /><path
     d="m 833.98688,41.09642 v 0.703125 h -6.60938 q 0.0937,1.484375 0.89063,2.265625 0.80468,0.773438 2.23437,0.773438 0.82813,0 1.60156,-0.203125 0.78125,-0.203125 1.54688,-0.609375 v 1.359375 q -0.77344,0.328125 -1.58594,0.5 -0.8125,0.171875 -1.64844,0.171875 -2.09375,0 -3.32031,-1.21875 -1.21875,-1.21875 -1.21875,-3.296875 0,-2.148438 1.15625,-3.40625 1.16406,-1.265625 3.13281,-1.265625 1.76563,0 2.78907,1.140625 1.03125,1.132812 1.03125,3.085937 z m -1.4375,-0.421875 q -0.0156,-1.179687 -0.66407,-1.882812 -0.64062,-0.703125 -1.70312,-0.703125 -1.20313,0 -1.92969,0.679687 -0.71875,0.679688 -0.82812,1.914063 z"
     id="path431418" /><path
     d="m 841.92438,37.338608 v 1.359375 q -0.60938,-0.3125 -1.26563,-0.46875 -0.65625,-0.15625 -1.35937,-0.15625 -1.07032,0 -1.60938,0.328125 -0.53125,0.328125 -0.53125,0.984375 0,0.5 0.38281,0.789062 0.38282,0.28125 1.53907,0.539063 l 0.49218,0.109375 q 1.53125,0.328125 2.17188,0.929687 0.64844,0.59375 0.64844,1.664063 0,1.21875 -0.96875,1.929687 -0.96094,0.710938 -2.64844,0.710938 -0.70313,0 -1.46875,-0.140625 -0.75781,-0.132813 -1.60156,-0.40625 v -1.484375 q 0.79687,0.414062 1.57031,0.625 0.77344,0.203125 1.53125,0.203125 1.01562,0 1.5625,-0.34375 0.54687,-0.351563 0.54687,-0.984375 0,-0.585938 -0.39843,-0.898438 -0.39063,-0.3125 -1.72657,-0.601562 l -0.5,-0.117188 q -1.33593,-0.28125 -1.92968,-0.859375 -0.59375,-0.585937 -0.59375,-1.601562 0,-1.234375 0.875,-1.90625 0.875,-0.671875 2.48437,-0.671875 0.79688,0 1.5,0.117187 0.70313,0.117188 1.29688,0.351563 z"
     id="path431420" /><path
     d="m 850.26031,37.338608 v 1.359375 q -0.60937,-0.3125 -1.26562,-0.46875 -0.65625,-0.15625 -1.35938,-0.15625 -1.07031,0 -1.60937,0.328125 -0.53125,0.328125 -0.53125,0.984375 0,0.5 0.38281,0.789062 0.38281,0.28125 1.53906,0.539063 l 0.49219,0.109375 q 1.53125,0.328125 2.17188,0.929687 0.64843,0.59375 0.64843,1.664063 0,1.21875 -0.96875,1.929687 -0.96093,0.710938 -2.64843,0.710938 -0.70313,0 -1.46875,-0.140625 -0.75782,-0.132813 -1.60157,-0.40625 v -1.484375 q 0.79688,0.414062 1.57032,0.625 0.77343,0.203125 1.53125,0.203125 1.01562,0 1.5625,-0.34375 0.54687,-0.351563 0.54687,-0.984375 0,-0.585938 -0.39844,-0.898438 -0.39062,-0.3125 -1.72656,-0.601562 l -0.5,-0.117188 q -1.33594,-0.28125 -1.92969,-0.859375 -0.59375,-0.585937 -0.59375,-1.601562 0,-1.234375 0.875,-1.90625 0.875,-0.671875 2.48438,-0.671875 0.79687,0 1.5,0.117187 0.70312,0.117188 1.29687,0.351563 z"
     id="path431422" /></g>
<g
   aria-label="order"
   id="text174"
   class="st2 st3 st4"
   style="font-size:16px;font-family:GoogleSans-Medium;fill:#202124"><path
     d="m 795.71344,57.288612 q -1.15625,0 -1.82813,0.90625 -0.67187,0.898438 -0.67187,2.46875 0,1.570313 0.66406,2.476563 0.67188,0.898437 1.83594,0.898437 1.14844,0 1.82031,-0.90625 0.67188,-0.90625 0.67188,-2.46875 0,-1.554687 -0.67188,-2.460937 -0.67187,-0.914063 -1.82031,-0.914063 z m 0,-1.21875 q 1.875,0 2.94531,1.21875 1.07031,1.21875 1.07031,3.375 0,2.148438 -1.07031,3.375 -1.07031,1.21875 -2.94531,1.21875 -1.88281,0 -2.95313,-1.21875 -1.0625,-1.226562 -1.0625,-3.375 0,-2.15625 1.0625,-3.375 1.07032,-1.21875 2.95313,-1.21875 z"
     id="path431425" /><path
     d="m 807.18219,57.62455 q -0.24219,-0.140625 -0.53125,-0.203125 -0.28125,-0.07031 -0.625,-0.07031 -1.21875,0 -1.875,0.796875 -0.64844,0.789063 -0.64844,2.273438 V 65.0308 h -1.44531 v -8.75 h 1.44531 v 1.359375 q 0.45313,-0.796875 1.17969,-1.179688 0.72656,-0.390625 1.76562,-0.390625 0.14844,0 0.32813,0.02344 0.17969,0.01563 0.39844,0.05469 z"
     id="path431427" /><path
     d="M 814.16656,57.608925 V 52.87455 h 1.4375 V 65.0308 h -1.4375 v -1.3125 q -0.45312,0.78125 -1.14843,1.164062 -0.6875,0.375 -1.65625,0.375 -1.58594,0 -2.58594,-1.265625 -0.99219,-1.265625 -0.99219,-3.328125 0,-2.0625 0.99219,-3.328125 1,-1.265625 2.58594,-1.265625 0.96875,0 1.65625,0.382813 0.69531,0.375 1.14843,1.15625 z m -4.89843,3.054687 q 0,1.585938 0.64843,2.492188 0.65625,0.898437 1.79688,0.898437 1.14062,0 1.79687,-0.898437 0.65625,-0.90625 0.65625,-2.492188 0,-1.585937 -0.65625,-2.484375 -0.65625,-0.90625 -1.79687,-0.90625 -1.14063,0 -1.79688,0.90625 -0.64843,0.898438 -0.64843,2.484375 z"
     id="path431429" /><path
     d="M 826.04938,60.296425 V 60.99955 H 819.44 q 0.0937,1.484375 0.89063,2.265625 0.80468,0.773437 2.23437,0.773437 0.82813,0 1.60156,-0.203125 0.78125,-0.203125 1.54688,-0.609375 v 1.359375 q -0.77344,0.328125 -1.58594,0.5 -0.8125,0.171875 -1.64844,0.171875 -2.09375,0 -3.32031,-1.21875 -1.21875,-1.21875 -1.21875,-3.296875 0,-2.148437 1.15625,-3.40625 1.16406,-1.265625 3.13281,-1.265625 1.76563,0 2.78907,1.140625 1.03125,1.132813 1.03125,3.085938 z m -1.4375,-0.421875 q -0.0156,-1.179688 -0.66407,-1.882813 -0.64062,-0.703125 -1.70312,-0.703125 -1.20313,0 -1.92969,0.679688 -0.71875,0.679687 -0.82812,1.914062 z"
     id="path431431" /><path
     d="m 833.47906,57.62455 q -0.24218,-0.140625 -0.53125,-0.203125 -0.28125,-0.07031 -0.625,-0.07031 -1.21875,0 -1.875,0.796875 -0.64843,0.789063 -0.64843,2.273438 V 65.0308 h -1.44532 v -8.75 h 1.44532 v 1.359375 q 0.45312,-0.796875 1.17968,-1.179688 0.72657,-0.390625 1.76563,-0.390625 0.14844,0 0.32812,0.02344 0.17969,0.01563 0.39844,0.05469 z"
     id="path431433" /></g>
<path
   id="path176"
   d="m 905.9,51.799997 c 2.4,0 4.8,1.9 4.8,4.7 0,2.6 -2.1,4.7 -4.7,4.7 -4.2,0 -6.3,-5.1 -3.3,-8 0.8,-1 2,-1.4 3.2,-1.4 z m -2.7,-8.8 c -0.3,0 -0.6,0.2 -0.7,0.6 l -0.5,3.6 c -0.8,0.3 -1.6,0.8 -2.3,1.3 l -3.4,-1.4 c -0.1,0 -0.2,0 -0.2,0 -0.2,0 -0.5,0.1 -0.6,0.3 l -2.7,4.7 c -0.2,0.3 -0.1,0.7 0.2,0.9 l 2.8,2.2 c -0.1,0.9 -0.1,1.8 0,2.6 l -2.8,2.2 c -0.2,0.2 -0.3,0.6 -0.2,0.9 l 2.7,4.7 c 0.1,0.2 0.3,0.3 0.6,0.3 0.1,0 0.2,0 0.2,0 l 3.4,-1.4 c 0.7,0.5 1.5,1 2.3,1.3 l 0.5,3.6 c 0.1,0.3 0.3,0.6 0.7,0.6 h 5.4 c 0.3,0 0.6,-0.2 0.7,-0.6 l 0.5,-3.6 c 0.8,-0.3 1.6,-0.8 2.3,-1.3 l 3.4,1.4 c 0.1,0 0.2,0 0.2,0 0.2,0 0.5,-0.1 0.6,-0.3 l 2.7,-4.7 c 0.2,-0.3 0.1,-0.6 -0.2,-0.9 l -2.8,-2.2 c 0.1,-0.9 0.1,-1.8 0,-2.6 l 2.8,-2.2 c 0.3,-0.2 0.3,-0.6 0.2,-0.9 l -2.7,-4.7 c -0.1,-0.2 -0.3,-0.3 -0.6,-0.3 -0.1,0 -0.2,0 -0.2,0 l -3.4,1.4 c -0.7,-0.5 -1.5,-1 -2.3,-1.3 l -0.5,-3.6 c -0.1,-0.3 -0.3,-0.6 -0.7,-0.6 z"
   class="st8" />
<g
   aria-label="Fails"
   id="text178"
   class="st2 st9 st10"
   style="font-size:10px;font-family:GoogleSans-Regular;fill:#202124"><path
     d="m 659.31482,128.08015 h 4.18945 v 0.83008 h -3.20312 v 2.14844 h 2.89062 v 0.83008 h -2.89062 v 3.48144 h -0.98633 z"
     id="path431436" /><path
     d="m 666.59509,132.62117 q -1.08886,0 -1.50879,0.24902 -0.41992,0.24903 -0.41992,0.84961 0,0.47852 0.3125,0.76172 0.31738,0.27832 0.85938,0.27832 0.74707,0 1.19629,-0.52734 0.4541,-0.53223 0.4541,-1.41113 v -0.2002 z m 1.79199,-0.37109 v 3.12011 h -0.89843 v -0.83007 q -0.30762,0.49804 -0.7666,0.7373 -0.45899,0.23438 -1.12305,0.23438 -0.83984,0 -1.33789,-0.46875 -0.49317,-0.47364 -0.49317,-1.26465 0,-0.92285 0.61524,-1.3916 0.62012,-0.46875 1.8457,-0.46875 h 1.25977 v -0.0879 q 0,-0.62011 -0.41016,-0.95703 -0.40527,-0.34179 -1.14258,-0.34179 -0.46875,0 -0.91308,0.1123 -0.44434,0.11231 -0.8545,0.33692 v -0.83008 q 0.49317,-0.19043 0.95704,-0.28321 0.46386,-0.0976 0.90332,-0.0976 1.18652,0 1.77246,0.61523 0.58593,0.61524 0.58593,1.86524 z"
     id="path431438" /><path
     d="m 670.23767,129.90144 h 0.89844 v 5.46875 h -0.89844 z m 0,-2.1289 h 0.89844 v 1.13769 h -0.89844 z"
     id="path431440" /><path
     d="m 673.01599,127.77254 h 0.89844 v 7.59765 h -0.89844 z"
     id="path431442" /><path
     d="m 679.28064,130.06258 v 0.84961 q -0.38086,-0.19532 -0.79102,-0.29297 -0.41015,-0.0977 -0.84961,-0.0977 -0.66894,0 -1.00585,0.20508 -0.33204,0.20508 -0.33204,0.61523 0,0.3125 0.23926,0.49317 0.23926,0.17578 0.96192,0.33691 l 0.30761,0.0684 q 0.95703,0.20508 1.35742,0.58106 0.40528,0.37109 0.40528,1.04003 0,0.76172 -0.60547,1.20606 -0.60059,0.44434 -1.65527,0.44434 -0.43946,0 -0.91797,-0.0879 -0.47364,-0.083 -1.00098,-0.2539 v -0.92774 q 0.49805,0.25879 0.98145,0.39063 0.48339,0.12695 0.95703,0.12695 0.63476,0 0.97656,-0.21484 0.3418,-0.21973 0.3418,-0.61524 0,-0.36621 -0.24903,-0.56152 -0.24414,-0.19531 -1.0791,-0.37598 l -0.3125,-0.0732 q -0.83496,-0.17578 -1.20605,-0.53711 -0.3711,-0.36621 -0.3711,-1.00097 0,-0.77149 0.54688,-1.19141 0.54687,-0.41992 1.55273,-0.41992 0.49805,0 0.9375,0.0732 0.43946,0.0732 0.81055,0.21973 z"
     id="path431444" /></g>
<path
   id="path180"
   d="m 526.9,109 v 7.5 l 6.4,3.8 -1.1,1.8 -7.5,-4.5 V 109 Z m -0.7,-7.1 v 0 c -5.9,0 -11.1,3.5 -13.3,8.9 -2.2,5.4 -1,11.5 3.1,15.6 2.7,2.7 6.4,4.2 10.1,4.2 1.9,0 3.7,-0.4 5.5,-1.1 5.4,-2.2 8.9,-7.4 8.9,-13.2 0,-8 -6.4,-14.4 -14.3,-14.4 z"
   class="st8" />
<g
   aria-label="End"
   id="text182"
   class="st2 st9 st10"
   style="font-size:10px;font-family:GoogleSans-Regular;fill:#202124"><path
     d="m 992.37445,94.051048 h 4.60938 v 0.830078 h -3.62305 v 2.158204 h 3.47168 v 0.830078 h -3.47168 v 2.641602 h 3.71094 v 0.83008 h -4.69727 z"
     id="path431447" /><path
     d="m 1003.1996,98.040306 v 3.300784 h -0.8984 v -3.271487 q 0,-0.776367 -0.3027,-1.162109 -0.3028,-0.385743 -0.9082,-0.385743 -0.7276,0 -1.14749,0.463868 -0.41992,0.463867 -0.41992,1.264648 v 3.090823 h -0.90332 v -5.468753 h 0.90332 v 0.84961 q 0.32226,-0.493164 0.75681,-0.737305 0.4395,-0.244141 1.0108,-0.244141 0.9423,0 1.4257,0.585938 0.4834,0.581055 0.4834,1.713867 z"
     id="path431449" /><path
     d="m 1008.5903,96.702415 v -2.958984 h 0.8984 v 7.597659 h -0.8984 v -0.82032 q -0.2832,0.48829 -0.7178,0.72754 -0.4297,0.23438 -1.0352,0.23438 -0.9912,0 -1.6162,-0.79102 -0.6201,-0.791012 -0.6201,-2.080075 0,-1.289062 0.6201,-2.080078 0.625,-0.791016 1.6162,-0.791016 0.6055,0 1.0352,0.239258 0.4346,0.234375 0.7178,0.722656 z m -3.0616,1.90918 q 0,0.991211 0.4053,1.557615 0.4102,0.56153 1.1231,0.56153 0.7129,0 1.123,-0.56153 0.4102,-0.566404 0.4102,-1.557615 0,-0.991211 -0.4102,-1.552734 -0.4101,-0.566406 -1.123,-0.566406 -0.7129,0 -1.1231,0.566406 -0.4053,0.561523 -0.4053,1.552734 z"
     id="path431451" /></g>



<rect
   id="rect190"
   height="51.5"
   width="51.5"
   class="st1"
   y="31.299995"
   x="312.60001" />
<path
   id="path192"
   d="m 333.6,49.999997 -2.6,2.6 4.8,4.7 -4.8,4.7 2.6,2.6 4.8,-4.7 4.7,4.7 2.6,-2.6 -4.7,-4.7 4.7,-4.7 -2.6,-2.6 -4.7,4.7 z m 4.8,-7.4 c 1.9,0 3.8,0.4 5.6,1.1 5.5,2.3 9.1,7.7 9.1,13.6 0,8.1 -6.6,14.7 -14.7,14.8 v 0 c -6,0 -11.3,-3.6 -13.6,-9.1 -2.3,-5.5 -1,-11.8 3.2,-16.1 2.8,-2.8 6.6,-4.3 10.4,-4.3 z m 0,-3.7 c -7.4,0 -14.1,4.5 -17,11.4 -2.8,6.9 -1.3,14.8 4,20 3.5,3.5 8.2,5.4 13,5.4 2.4,0 4.8,-0.5 7,-1.4 6.9,-2.9 11.4,-9.6 11.4,-17 0,-10.1 -8.2,-18.4 -18.4,-18.4 z"
   class="st8" />
<rect
   id="rect194"
   height="51.5"
   width="51.5"
   class="st1"
   y="31.299995"
   x="641.69995" />
<path
   id="path196"
   d="m 662.7,49.999997 -2.6,2.6 4.8,4.7 -4.8,4.7 2.6,2.6 4.8,-4.7 4.7,4.7 2.6,-2.6 -4.7,-4.7 4.7,-4.7 -2.6,-2.6 -4.7,4.7 z m 4.8,-7.4 c 1.9,0 3.8,0.4 5.6,1.1 5.5,2.3 9.1,7.7 9.1,13.6 0,8.1 -6.6,14.7 -14.7,14.8 v 0 c -6,0 -11.3,-3.6 -13.6,-9.1 -2.3,-5.5 -1,-11.8 3.2,-16.1 2.8,-2.8 6.5,-4.3 10.4,-4.3 z m 0,-3.7 c -7.4,0 -14.1,4.5 -17,11.4 -2.8,6.9 -1.3,14.8 4,20 3.5,3.5 8.2,5.4 13,5.4 2.4,0 4.8,-0.5 7,-1.4 6.9,-2.9 11.4,-9.6 11.4,-17 0,-10.1 -8.3,-18.4 -18.4,-18.4 z"
   class="st8" />
</svg>
