<?xml version="1.0" encoding="UTF-8" standalone="no"?>
<svg
   height="2.8385417in"
   width="9.0145836in"
   xml:space="preserve"
   viewBox="0 0 865.40006 272.5"
   y="0px"
   x="0px"
   id="Layer_2_1_"
   version="1.1"
   xmlns="http://www.w3.org/2000/svg"
   xmlns:svg="http://www.w3.org/2000/svg"
   xmlns:rdf="http://www.w3.org/1999/02/22-rdf-syntax-ns#"
   xmlns:cc="http://creativecommons.org/ns#"
   xmlns:dc="http://purl.org/dc/elements/1.1/"><metadata
   id="metadata111"><rdf:RDF><cc:Work
       rdf:about=""><dc:format>image/svg+xml</dc:format><dc:type
         rdf:resource="http://purl.org/dc/dcmitype/StillImage" /><dc:title /></cc:Work></rdf:RDF></metadata><defs
   id="defs109" />
	<rect width="100%" height="100%" fill="grey"/>
<style
   id="style2"
   type="text/css">
	.st0{fill:none;stroke:#202124;stroke-miterlimit:10;}
	.st1{fill:#EFF1F2;stroke:#202124;stroke-miterlimit:10;}
	.st2{fill:#202124;}
	.st3{font-family:'GoogleSans-Bold';}
	.st4{font-size:20px;}
	.st5{fill:#FFFFFF;stroke:#202124;stroke-miterlimit:10;}
	.st6{fill:none;}
	.st7{font-family:'GoogleSans-Medium';}
	.st8{font-size:16px;}
	.st9{fill:none;stroke:#4285F4;stroke-miterlimit:10;}
	.st10{fill:#4285F4;}
	.st11{fill:#FFFFFF;}
	.st12{fill:#4285F4;stroke:#FFFFFF;stroke-miterlimit:10;}
</style>



<rect
   id="rect10"
   height="65.300003"
   width="193.10001"
   class="st5"
   y="40"
   x="71.800003" />
<rect
   id="rect12"
   height="13.5"
   width="193.10001"
   class="st6"
   y="67.5"
   x="71.800003" />
<g
   aria-label="Order management"
   id="text14"
   class="st2 st7 st8"
   style="font-size:16px;font-family:GoogleSans-Medium;fill:#202124"><path
     d="m 100.44469,68.394653 q -1.718753,0 -2.734378,1.28125 -1.007813,1.28125 -1.007813,3.492188 0,2.203125 1.007813,3.484375 1.015625,1.28125 2.734378,1.28125 1.71875,0 2.71875,-1.28125 1.00781,-1.28125 1.00781,-3.484375 0,-2.210938 -1.00781,-3.492188 -1,-1.28125 -2.71875,-1.28125 z m 0,-1.28125 q 2.45312,0 3.92187,1.648438 1.46875,1.640625 1.46875,4.40625 0,2.757812 -1.46875,4.40625 -1.46875,1.640625 -3.92187,1.640625 -2.460941,0 -3.937503,-1.640625 -1.46875,-1.640625 -1.46875,-4.40625 0,-2.765625 1.46875,-4.40625 1.476562,-1.648438 3.937503,-1.648438 z"
     id="path736371" /><path
     d="m 113.31187,71.582153 q -0.24218,-0.140625 -0.53125,-0.203125 -0.28125,-0.07031 -0.625,-0.07031 -1.21875,0 -1.875,0.796875 -0.64843,0.789062 -0.64843,2.273437 v 4.609375 h -1.44532 v -8.75 h 1.44532 v 1.359375 q 0.45312,-0.796875 1.17968,-1.179687 0.72657,-0.390625 1.76563,-0.390625 0.14844,0 0.32812,0.02344 0.17969,0.01563 0.39844,0.05469 z"
     id="path736373" /><path
     d="m 120.29625,71.566528 v -4.734375 h 1.4375 v 12.15625 h -1.4375 v -1.3125 q -0.45313,0.78125 -1.14844,1.164063 -0.6875,0.375 -1.65625,0.375 -1.58594,0 -2.58594,-1.265625 -0.99218,-1.265625 -0.99218,-3.328125 0,-2.0625 0.99218,-3.328125 1,-1.265625 2.58594,-1.265625 0.96875,0 1.65625,0.382812 0.69531,0.375 1.14844,1.15625 z m -4.89844,3.054688 q 0,1.585937 0.64844,2.492187 0.65625,0.898438 1.79687,0.898438 1.14063,0 1.79688,-0.898438 0.65625,-0.90625 0.65625,-2.492187 0,-1.585938 -0.65625,-2.484375 -0.65625,-0.90625 -1.79688,-0.90625 -1.14062,0 -1.79687,0.90625 -0.64844,0.898437 -0.64844,2.484375 z"
     id="path736375" /><path
     d="m 132.17906,74.254028 v 0.703125 h -6.60937 q 0.0937,1.484375 0.89062,2.265625 0.80469,0.773438 2.23438,0.773438 0.82812,0 1.60156,-0.203125 0.78125,-0.203125 1.54687,-0.609375 v 1.359375 q -0.77343,0.328125 -1.58593,0.5 -0.8125,0.171875 -1.64844,0.171875 -2.09375,0 -3.32031,-1.21875 -1.21875,-1.21875 -1.21875,-3.296875 0,-2.148438 1.15625,-3.40625 1.16406,-1.265625 3.13281,-1.265625 1.76562,0 2.78906,1.140625 1.03125,1.132812 1.03125,3.085937 z m -1.4375,-0.421875 q -0.0156,-1.179687 -0.66406,-1.882812 -0.64063,-0.703125 -1.70313,-0.703125 -1.20312,0 -1.92968,0.679687 -0.71875,0.679688 -0.82813,1.914063 z"
     id="path736377" /><path
     d="m 139.60875,71.582153 q -0.24219,-0.140625 -0.53125,-0.203125 -0.28125,-0.07031 -0.625,-0.07031 -1.21875,0 -1.875,0.796875 -0.64844,0.789062 -0.64844,2.273437 v 4.609375 h -1.44531 v -8.75 h 1.44531 v 1.359375 q 0.45313,-0.796875 1.17969,-1.179687 0.72656,-0.390625 1.76562,-0.390625 0.14844,0 0.32813,0.02344 0.17969,0.01563 0.39844,0.05469 z"
     id="path736379" /><path
     d="m 153.015,71.918091 q 0.53906,-0.96875 1.28906,-1.429688 0.75,-0.460937 1.76563,-0.460937 1.36718,0 2.10937,0.960937 0.74219,0.953125 0.74219,2.71875 v 5.28125 h -1.44531 v -5.234375 q 0,-1.257812 -0.44532,-1.867187 -0.44531,-0.609375 -1.35937,-0.609375 -1.11719,0 -1.76563,0.742187 -0.64843,0.742188 -0.64843,2.023438 v 4.945312 h -1.44532 v -5.234375 q 0,-1.265625 -0.44531,-1.867187 -0.44531,-0.609375 -1.375,-0.609375 -1.10156,0 -1.75,0.75 -0.64844,0.742187 -0.64844,2.015625 v 4.945312 h -1.44531 v -8.75 h 1.44531 v 1.359375 q 0.49219,-0.804687 1.17969,-1.1875 0.6875,-0.382812 1.63281,-0.382812 0.95313,0 1.61719,0.484375 0.67188,0.484375 0.99219,1.40625 z"
     id="path736381" /><path
     d="m 165.765,74.589966 q -1.74219,0 -2.41406,0.398437 -0.67188,0.398438 -0.67188,1.359375 0,0.765625 0.5,1.21875 0.50781,0.445313 1.375,0.445313 1.19531,0 1.91406,-0.84375 0.72657,-0.851563 0.72657,-2.257813 v -0.320312 z m 2.86719,-0.59375 v 4.992187 h -1.4375 v -1.328125 q -0.49219,0.796875 -1.22657,1.179688 -0.73437,0.375 -1.79687,0.375 -1.34375,0 -2.14063,-0.75 -0.78906,-0.757813 -0.78906,-2.023438 0,-1.476562 0.98438,-2.226562 0.99218,-0.75 2.95312,-0.75 h 2.01563 v -0.140625 q 0,-0.992188 -0.65625,-1.53125 -0.64844,-0.546875 -1.82813,-0.546875 -0.75,0 -1.46094,0.179687 -0.71093,0.179688 -1.36718,0.539063 v -1.328125 q 0.78906,-0.304688 1.53125,-0.453125 0.74218,-0.15625 1.44531,-0.15625 1.89844,0 2.83594,0.984375 0.9375,0.984375 0.9375,2.984375 z"
     id="path736383" /><path
     d="m 178.86656,73.707153 v 5.28125 h -1.4375 v -5.234375 q 0,-1.242187 -0.48437,-1.859375 -0.48438,-0.617187 -1.45313,-0.617187 -1.16406,0 -1.83594,0.742187 -0.67187,0.742188 -0.67187,2.023438 v 4.945312 h -1.44531 v -8.75 h 1.44531 v 1.359375 q 0.51562,-0.789062 1.21094,-1.179687 0.70312,-0.390625 1.61718,-0.390625 1.50782,0 2.28125,0.9375 0.77344,0.929687 0.77344,2.742187 z"
     id="path736385" /><path
     d="m 185.71031,74.589966 q -1.74219,0 -2.41406,0.398437 -0.67188,0.398438 -0.67188,1.359375 0,0.765625 0.5,1.21875 0.50782,0.445313 1.375,0.445313 1.19532,0 1.91407,-0.84375 0.72656,-0.851563 0.72656,-2.257813 v -0.320312 z m 2.86719,-0.59375 v 4.992187 H 187.14 v -1.328125 q -0.49219,0.796875 -1.22656,1.179688 -0.73438,0.375 -1.79688,0.375 -1.34375,0 -2.14062,-0.75 -0.78907,-0.757813 -0.78907,-2.023438 0,-1.476562 0.98438,-2.226562 0.99219,-0.75 2.95312,-0.75 H 187.14 v -0.140625 q 0,-0.992188 -0.65625,-1.53125 -0.64844,-0.546875 -1.82813,-0.546875 -0.75,0 -1.46093,0.179687 -0.71094,0.179688 -1.36719,0.539063 v -1.328125 q 0.78906,-0.304688 1.53125,-0.453125 0.74219,-0.15625 1.44531,-0.15625 1.89844,0 2.83594,0.984375 0.9375,0.984375 0.9375,2.984375 z"
     id="path736387" /><path
     d="m 197.29625,74.511841 q 0,-1.5625 -0.64844,-2.421875 -0.64062,-0.859375 -1.80469,-0.859375 -1.15625,0 -1.80468,0.859375 -0.64063,0.859375 -0.64063,2.421875 0,1.554687 0.64063,2.414062 0.64843,0.859375 1.80468,0.859375 1.16407,0 1.80469,-0.859375 0.64844,-0.859375 0.64844,-2.414062 z m 1.4375,3.390625 q 0,2.234375 -0.99219,3.320312 -0.99219,1.09375 -3.03906,1.09375 -0.75781,0 -1.42969,-0.117187 -0.67187,-0.109375 -1.30469,-0.34375 v -1.398438 q 0.63282,0.34375 1.25,0.507813 0.61719,0.164062 1.25782,0.164062 1.41406,0 2.11718,-0.742187 0.70313,-0.734375 0.70313,-2.226563 v -0.710937 q -0.44531,0.773437 -1.14063,1.15625 -0.69531,0.382812 -1.66406,0.382812 -1.60937,0 -2.59375,-1.226562 -0.98437,-1.226563 -0.98437,-3.25 0,-2.03125 0.98437,-3.257813 0.98438,-1.226562 2.59375,-1.226562 0.96875,0 1.66406,0.382812 0.69532,0.382813 1.14063,1.15625 v -1.328125 h 1.4375 z"
     id="path736389" /><path
     d="m 209.17906,74.254028 v 0.703125 h -6.60937 q 0.0937,1.484375 0.89062,2.265625 0.80469,0.773438 2.23438,0.773438 0.82812,0 1.60156,-0.203125 0.78125,-0.203125 1.54687,-0.609375 v 1.359375 q -0.77343,0.328125 -1.58593,0.5 -0.8125,0.171875 -1.64844,0.171875 -2.09375,0 -3.32031,-1.21875 -1.21875,-1.21875 -1.21875,-3.296875 0,-2.148438 1.15625,-3.40625 1.16406,-1.265625 3.13281,-1.265625 1.76562,0 2.78906,1.140625 1.03125,1.132812 1.03125,3.085937 z m -1.4375,-0.421875 q -0.0156,-1.179687 -0.66406,-1.882812 -0.64063,-0.703125 -1.70313,-0.703125 -1.20312,0 -1.92968,0.679687 -0.71875,0.679688 -0.82813,1.914063 z"
     id="path736391" /><path
     d="m 218.35094,71.918091 q 0.53906,-0.96875 1.28906,-1.429688 0.75,-0.460937 1.76562,-0.460937 1.36719,0 2.10938,0.960937 0.74219,0.953125 0.74219,2.71875 v 5.28125 h -1.44532 v -5.234375 q 0,-1.257812 -0.44531,-1.867187 -0.44531,-0.609375 -1.35937,-0.609375 -1.11719,0 -1.76563,0.742187 -0.64844,0.742188 -0.64844,2.023438 v 4.945312 h -1.44531 v -5.234375 q 0,-1.265625 -0.44531,-1.867187 -0.44531,-0.609375 -1.375,-0.609375 -1.10156,0 -1.75,0.75 -0.64844,0.742187 -0.64844,2.015625 v 4.945312 h -1.44531 v -8.75 h 1.44531 v 1.359375 q 0.49219,-0.804687 1.17969,-1.1875 0.6875,-0.382812 1.63281,-0.382812 0.95313,0 1.61719,0.484375 0.67187,0.484375 0.99219,1.40625 z"
     id="path736393" /><path
     d="m 234.60875,74.254028 v 0.703125 h -6.60938 q 0.0937,1.484375 0.89063,2.265625 0.80469,0.773438 2.23437,0.773438 0.82813,0 1.60157,-0.203125 0.78125,-0.203125 1.54687,-0.609375 v 1.359375 q -0.77344,0.328125 -1.58594,0.5 -0.8125,0.171875 -1.64843,0.171875 -2.09375,0 -3.32032,-1.21875 -1.21875,-1.21875 -1.21875,-3.296875 0,-2.148438 1.15625,-3.40625 1.16407,-1.265625 3.13282,-1.265625 1.76562,0 2.78906,1.140625 1.03125,1.132812 1.03125,3.085937 z m -1.4375,-0.421875 q -0.0156,-1.179687 -0.66406,-1.882812 -0.64063,-0.703125 -1.70313,-0.703125 -1.20312,0 -1.92969,0.679687 -0.71875,0.679688 -0.82812,1.914063 z"
     id="path736395" /><path
     d="m 244.24156,73.707153 v 5.28125 h -1.4375 v -5.234375 q 0,-1.242187 -0.48437,-1.859375 -0.48438,-0.617187 -1.45313,-0.617187 -1.16406,0 -1.83594,0.742187 -0.67187,0.742188 -0.67187,2.023438 v 4.945312 h -1.44531 v -8.75 h 1.44531 v 1.359375 q 0.51562,-0.789062 1.21094,-1.179687 0.70312,-0.390625 1.61718,-0.390625 1.50782,0 2.28125,0.9375 0.77344,0.929687 0.77344,2.742187 z"
     id="path736397" /><path
     d="m 248.53062,67.754028 v 2.484375 h 2.96094 v 1.117188 h -2.96094 v 4.75 q 0,1.070312 0.28907,1.375 0.29687,0.304687 1.19531,0.304687 h 1.47656 v 1.203125 H 250.015 q -1.66406,0 -2.29688,-0.617187 -0.63281,-0.625 -0.63281,-2.265625 v -4.75 h -1.05469 v -1.117188 h 1.05469 v -2.484375 z"
     id="path736399" /></g>
<g
   transform="translate(-23.200001,-72)"
   id="g24">
	<g
   id="g22">
		<path
   id="line16"
   class="st9"
   style="fill:none;stroke:#4285f4;stroke-miterlimit:10"
   d="m 191.60001,177.3 v 39.5" />
		<g
   id="g20">
			<path
   id="polygon18"
   class="st10"
   style="fill:#4285f4"
   d="m 191.6,224 4.9,-8.6 h -9.9 z" />
		</g>
	</g>
</g>
<rect
   id="rect26"
   height="32"
   width="96.5"
   class="st10"
   y="24"
   x="24" />
<rect
   id="rect28"
   height="13.5"
   width="70.400002"
   class="st6"
   y="34.5"
   x="36.899998" />
<g
   aria-label="REST API"
   id="text30"
   class="st11 st7 st8"
   style="font-size:16px;font-family:GoogleSans-Medium;fill:#ffffff"><path
     d="m 46.187862,40.46645 q 0.507813,0.171875 0.984375,0.734375 0.484375,0.5625 0.96875,1.546875 l 1.601563,3.1875 H 48.047237 L 46.55505,42.943012 q -0.578125,-1.171875 -1.125,-1.554687 -0.539063,-0.382813 -1.476563,-0.382813 h -1.71875 V 45.9352 H 40.656612 V 34.271137 h 3.5625 q 2,0 2.984375,0.835938 0.984375,0.835937 0.984375,2.523437 0,1.101563 -0.515625,1.828125 -0.507812,0.726563 -1.484375,1.007813 z m -3.953125,-4.898438 v 4.140625 h 1.984375 q 1.140625,0 1.71875,-0.523437 0.585938,-0.53125 0.585938,-1.554688 0,-1.023437 -0.585938,-1.539062 -0.578125,-0.523438 -1.71875,-0.523438 z"
     id="path736404" /><path
     d="m 51.7738,34.271137 h 7.375 v 1.328125 h -5.796875 v 3.453125 h 5.554687 v 1.328125 h -5.554687 v 4.226563 h 5.9375 V 45.9352 H 51.7738 Z"
     id="path736406" /><path
     d="m 68.875362,34.65395 v 1.539062 Q 67.976925,35.763325 67.18005,35.552387 66.383175,35.34145 65.640987,35.34145 q -1.289062,0 -1.992187,0.5 -0.695313,0.5 -0.695313,1.421875 0,0.773437 0.460938,1.171875 0.46875,0.390625 1.765625,0.632812 l 0.953125,0.195313 q 1.765625,0.335937 2.601562,1.1875 0.84375,0.84375 0.84375,2.265625 0,1.695312 -1.140625,2.570312 -1.132812,0.875 -3.328125,0.875 -0.828125,0 -1.765625,-0.1875 -0.929687,-0.1875 -1.929687,-0.554687 v -1.625 q 0.960937,0.539062 1.882812,0.8125 0.921875,0.273437 1.8125,0.273437 1.351563,0 2.085938,-0.53125 0.734375,-0.53125 0.734375,-1.515625 0,-0.859375 -0.53125,-1.34375 -0.523438,-0.484375 -1.726563,-0.726562 l -0.960937,-0.1875 q -1.765625,-0.351563 -2.554688,-1.101563 -0.789062,-0.75 -0.789062,-2.085937 0,-1.546875 1.085937,-2.4375 1.09375,-0.890625 3.007813,-0.890625 0.820312,0 1.671875,0.148437 0.851562,0.148438 1.742187,0.445313 z"
     id="path736408" /><path
     d="m 70.422237,34.271137 h 9.867188 v 1.328125 H 76.1488 V 45.9352 H 74.562862 V 35.599262 h -4.140625 z"
     id="path736410" /><path
     d="m 90.797237,35.825825 -2.140625,5.804687 h 4.289063 z m -0.890625,-1.554688 h 1.789063 L 96.140987,45.9352 h -1.640625 l -1.0625,-2.992188 H 88.18005 l -1.0625,2.992188 h -1.664063 z"
     id="path736412" /><path
     d="m 99.422237,35.568012 v 4.382813 h 1.984373 q 1.10156,0 1.70313,-0.570313 0.60156,-0.570312 0.60156,-1.625 0,-1.046875 -0.60156,-1.617187 -0.60157,-0.570313 -1.70313,-0.570313 z m -1.578125,-1.296875 h 3.562498 q 1.96094,0 2.96094,0.890625 1.00781,0.882813 1.00781,2.59375 0,1.726563 -1.00781,2.609375 -1,0.882813 -2.96094,0.882813 h -1.984373 v 4.6875 h -1.578125 z"
     id="path736414" /><path
     d="m 107.49255,34.271137 h 1.57812 V 45.9352 h -1.57812 z"
     id="path736416" /></g>
<rect
   id="rect32"
   height="65.300003"
   width="193.10001"
   class="st5"
   y="40"
   x="359.79999" />
<rect
   id="rect34"
   height="13.5"
   width="193.10001"
   class="st6"
   y="67.5"
   x="359.79999" />
<g
   aria-label="Payment service"
   id="text36"
   class="st2 st7 st8"
   style="font-size:16px;font-family:GoogleSans-Medium;fill:#202124"><path
     d="m 396.58484,68.621216 v 4.382812 h 1.98437 q 1.10157,0 1.70313,-0.570312 0.60156,-0.570313 0.60156,-1.625 0,-1.046875 -0.60156,-1.617188 -0.60156,-0.570312 -1.70313,-0.570312 z m -1.57813,-1.296875 h 3.5625 q 1.96094,0 2.96094,0.890625 1.00781,0.882812 1.00781,2.59375 0,1.726562 -1.00781,2.609375 -1,0.882812 -2.96094,0.882812 h -1.98437 v 4.6875 h -1.57813 z"
     id="path736419" /><path
     d="m 407.85046,74.589966 q -1.74218,0 -2.41406,0.398437 -0.67187,0.398438 -0.67187,1.359375 0,0.765625 0.5,1.21875 0.50781,0.445313 1.375,0.445313 1.19531,0 1.91406,-0.84375 0.72656,-0.851563 0.72656,-2.257813 v -0.320312 z m 2.86719,-0.59375 v 4.992187 h -1.4375 v -1.328125 q -0.49219,0.796875 -1.22656,1.179688 -0.73438,0.375 -1.79688,0.375 -1.34375,0 -2.14062,-0.75 -0.78906,-0.757813 -0.78906,-2.023438 0,-1.476562 0.98437,-2.226562 0.99219,-0.75 2.95313,-0.75 h 2.01562 v -0.140625 q 0,-0.992188 -0.65625,-1.53125 -0.64844,-0.546875 -1.82812,-0.546875 -0.75,0 -1.46094,0.179687 -0.71094,0.179688 -1.36719,0.539063 v -1.328125 q 0.78906,-0.304688 1.53125,-0.453125 0.74219,-0.15625 1.44531,-0.15625 1.89844,0 2.83594,0.984375 0.9375,0.984375 0.9375,2.984375 z"
     id="path736421" /><path
     d="m 417.31921,79.800903 q -0.60937,1.5625 -1.1875,2.039063 -0.57812,0.476562 -1.54687,0.476562 h -1.14844 v -1.203125 h 0.84375 q 0.59375,0 0.92188,-0.28125 0.32812,-0.28125 0.72656,-1.328125 l 0.25781,-0.65625 -3.53906,-8.609375 h 1.52344 l 2.73437,6.84375 2.73438,-6.84375 h 1.52343 z"
     id="path736423" /><path
     d="m 429.95984,71.918091 q 0.53906,-0.96875 1.28906,-1.429688 0.75,-0.460937 1.76563,-0.460937 1.36718,0 2.10937,0.960937 0.74219,0.953125 0.74219,2.71875 v 5.28125 h -1.44531 v -5.234375 q 0,-1.257812 -0.44532,-1.867187 -0.44531,-0.609375 -1.35937,-0.609375 -1.11719,0 -1.76563,0.742187 -0.64843,0.742188 -0.64843,2.023438 v 4.945312 h -1.44532 v -5.234375 q 0,-1.265625 -0.44531,-1.867187 -0.44531,-0.609375 -1.375,-0.609375 -1.10156,0 -1.75,0.75 -0.64844,0.742187 -0.64844,2.015625 v 4.945312 h -1.44531 v -8.75 h 1.44531 v 1.359375 q 0.49219,-0.804687 1.17969,-1.1875 0.6875,-0.382812 1.63281,-0.382812 0.95313,0 1.61719,0.484375 0.67188,0.484375 0.99219,1.40625 z"
     id="path736425" /><path
     d="m 446.21765,74.254028 v 0.703125 h -6.60937 q 0.0937,1.484375 0.89062,2.265625 0.80469,0.773438 2.23438,0.773438 0.82812,0 1.60156,-0.203125 0.78125,-0.203125 1.54687,-0.609375 v 1.359375 q -0.77343,0.328125 -1.58593,0.5 -0.8125,0.171875 -1.64844,0.171875 -2.09375,0 -3.32031,-1.21875 -1.21875,-1.21875 -1.21875,-3.296875 0,-2.148438 1.15625,-3.40625 1.16406,-1.265625 3.13281,-1.265625 1.76562,0 2.78906,1.140625 1.03125,1.132812 1.03125,3.085937 z m -1.4375,-0.421875 q -0.0156,-1.179687 -0.66406,-1.882812 -0.64063,-0.703125 -1.70313,-0.703125 -1.20312,0 -1.92968,0.679687 -0.71875,0.679688 -0.82813,1.914063 z"
     id="path736427" /><path
     d="m 455.85046,73.707153 v 5.28125 h -1.4375 v -5.234375 q 0,-1.242187 -0.48437,-1.859375 -0.48438,-0.617187 -1.45313,-0.617187 -1.16406,0 -1.83593,0.742187 -0.67188,0.742188 -0.67188,2.023438 v 4.945312 h -1.44531 v -8.75 h 1.44531 v 1.359375 q 0.51563,-0.789062 1.21094,-1.179687 0.70312,-0.390625 1.61719,-0.390625 1.50781,0 2.28125,0.9375 0.77343,0.929687 0.77343,2.742187 z"
     id="path736429" /><path
     d="m 460.13953,67.754028 v 2.484375 h 2.96093 v 1.117188 h -2.96093 v 4.75 q 0,1.070312 0.28906,1.375 0.29687,0.304687 1.19531,0.304687 h 1.47656 v 1.203125 h -1.47656 q -1.66406,0 -2.29687,-0.617187 -0.63282,-0.625 -0.63282,-2.265625 v -4.75 h -1.05468 v -1.117188 h 1.05468 v -2.484375 z"
     id="path736431" /><path
     d="m 475.65515,70.496216 v 1.359375 q -0.60937,-0.3125 -1.26562,-0.46875 -0.65625,-0.15625 -1.35938,-0.15625 -1.07031,0 -1.60937,0.328125 -0.53125,0.328125 -0.53125,0.984375 0,0.5 0.38281,0.789062 0.38281,0.28125 1.53906,0.539063 l 0.49219,0.109375 q 1.53125,0.328125 2.17187,0.929687 0.64844,0.59375 0.64844,1.664063 0,1.21875 -0.96875,1.929687 -0.96094,0.710938 -2.64844,0.710938 -0.70312,0 -1.46875,-0.140625 -0.75781,-0.132813 -1.60156,-0.40625 v -1.484375 q 0.79688,0.414062 1.57031,0.625 0.77344,0.203125 1.53125,0.203125 1.01563,0 1.5625,-0.34375 0.54688,-0.351563 0.54688,-0.984375 0,-0.585938 -0.39844,-0.898438 -0.39062,-0.3125 -1.72656,-0.601562 l -0.5,-0.117188 q -1.33594,-0.28125 -1.92969,-0.859375 -0.59375,-0.585937 -0.59375,-1.601562 0,-1.234375 0.875,-1.90625 0.875,-0.671875 2.48438,-0.671875 0.79687,0 1.5,0.117187 0.70312,0.117188 1.29687,0.351563 z"
     id="path736433" /><path
     d="m 485.89734,74.254028 v 0.703125 h -6.60938 q 0.0937,1.484375 0.89063,2.265625 0.80469,0.773438 2.23437,0.773438 0.82813,0 1.60157,-0.203125 0.78125,-0.203125 1.54687,-0.609375 v 1.359375 q -0.77344,0.328125 -1.58594,0.5 -0.8125,0.171875 -1.64843,0.171875 -2.09375,0 -3.32032,-1.21875 -1.21875,-1.21875 -1.21875,-3.296875 0,-2.148438 1.15625,-3.40625 1.16407,-1.265625 3.13282,-1.265625 1.76562,0 2.78906,1.140625 1.03125,1.132812 1.03125,3.085937 z m -1.4375,-0.421875 q -0.0156,-1.179687 -0.66406,-1.882812 -0.64063,-0.703125 -1.70313,-0.703125 -1.20312,0 -1.92969,0.679687 -0.71875,0.679688 -0.82812,1.914063 z"
     id="path736435" /><path
     d="m 493.32703,71.582153 q -0.24219,-0.140625 -0.53125,-0.203125 -0.28125,-0.07031 -0.625,-0.07031 -1.21875,0 -1.875,0.796875 -0.64844,0.789062 -0.64844,2.273437 v 4.609375 h -1.44531 v -8.75 h 1.44531 v 1.359375 q 0.45312,-0.796875 1.17969,-1.179687 0.72656,-0.390625 1.76562,-0.390625 0.14844,0 0.32813,0.02344 0.17968,0.01563 0.39843,0.05469 z"
     id="path736437" /><path
     d="m 493.80359,70.238403 h 1.52344 l 2.73437,7.34375 2.73438,-7.34375 h 1.52343 l -3.28125,8.75 h -1.95312 z"
     id="path736439" /><path
     d="m 504.30359,70.238403 h 1.4375 v 8.75 h -1.4375 z m 0,-3.40625 h 1.4375 v 1.820313 h -1.4375 z"
     id="path736441" /><path
     d="m 515.04578,70.574341 v 1.34375 q -0.60938,-0.335938 -1.22657,-0.5 -0.60937,-0.171875 -1.23437,-0.171875 -1.39844,0 -2.17188,0.890625 -0.77343,0.882812 -0.77343,2.484375 0,1.601562 0.77343,2.492187 0.77344,0.882813 2.17188,0.882813 0.625,0 1.23437,-0.164063 0.61719,-0.171875 1.22657,-0.507812 v 1.328125 q -0.60157,0.28125 -1.25,0.421875 -0.64063,0.140625 -1.36719,0.140625 -1.97656,0 -3.14063,-1.242188 -1.16406,-1.242187 -1.16406,-3.351562 0,-2.140625 1.17188,-3.367188 1.17968,-1.226562 3.22656,-1.226562 0.66406,0 1.29687,0.140625 0.63282,0.132812 1.22657,0.40625 z"
     id="path736443" /><path
     d="m 525.03015,74.254028 v 0.703125 h -6.60937 q 0.0937,1.484375 0.89062,2.265625 0.80469,0.773438 2.23438,0.773438 0.82812,0 1.60156,-0.203125 0.78125,-0.203125 1.54687,-0.609375 v 1.359375 q -0.77343,0.328125 -1.58593,0.5 -0.8125,0.171875 -1.64844,0.171875 -2.09375,0 -3.32031,-1.21875 -1.21875,-1.21875 -1.21875,-3.296875 0,-2.148438 1.15625,-3.40625 1.16406,-1.265625 3.13281,-1.265625 1.76562,0 2.78906,1.140625 1.03125,1.132812 1.03125,3.085937 z m -1.4375,-0.421875 q -0.0156,-1.179687 -0.66406,-1.882812 -0.64063,-0.703125 -1.70313,-0.703125 -1.20312,0 -1.92968,0.679687 -0.71875,0.679688 -0.82813,1.914063 z"
     id="path736445" /></g>
<rect
   id="rect38"
   height="32"
   width="96.5"
   class="st10"
   y="24"
   x="312" />
<rect
   id="rect40"
   height="13.5"
   width="70.400002"
   class="st6"
   y="34.5"
   x="324.89999" />
<g
   aria-label="REST API"
   id="text42"
   class="st11 st7 st8"
   style="font-size:16px;font-family:GoogleSans-Medium;fill:#ffffff"><path
     d="m 334.18787,40.46645 q 0.50781,0.171875 0.98437,0.734375 0.48438,0.5625 0.96875,1.546875 l 1.60156,3.1875 h -1.69531 l -1.49219,-2.992188 q -0.57812,-1.171875 -1.125,-1.554687 -0.53906,-0.382813 -1.47656,-0.382813 h -1.71875 V 45.9352 h -1.57812 V 34.271137 h 3.5625 q 2,0 2.98437,0.835938 0.98438,0.835937 0.98438,2.523437 0,1.101563 -0.51563,1.828125 -0.50781,0.726563 -1.48437,1.007813 z m -3.95313,-4.898438 v 4.140625 h 1.98438 q 1.14062,0 1.71875,-0.523437 0.58593,-0.53125 0.58593,-1.554688 0,-1.023437 -0.58593,-1.539062 -0.57813,-0.523438 -1.71875,-0.523438 z"
     id="path736448" /><path
     d="m 339.7738,34.271137 h 7.375 v 1.328125 h -5.79687 v 3.453125 h 5.55469 v 1.328125 h -5.55469 v 4.226563 h 5.9375 V 45.9352 h -7.51563 z"
     id="path736450" /><path
     d="m 356.87537,34.65395 v 1.539062 q -0.89844,-0.429687 -1.69532,-0.640625 -0.79687,-0.210937 -1.53906,-0.210937 -1.28906,0 -1.99219,0.5 -0.69531,0.5 -0.69531,1.421875 0,0.773437 0.46094,1.171875 0.46875,0.390625 1.76562,0.632812 l 0.95313,0.195313 q 1.76562,0.335937 2.60156,1.1875 0.84375,0.84375 0.84375,2.265625 0,1.695312 -1.14062,2.570312 -1.13282,0.875 -3.32813,0.875 -0.82812,0 -1.76562,-0.1875 -0.92969,-0.1875 -1.92969,-0.554687 v -1.625 q 0.96094,0.539062 1.88281,0.8125 0.92188,0.273437 1.8125,0.273437 1.35156,0 2.08594,-0.53125 0.73437,-0.53125 0.73437,-1.515625 0,-0.859375 -0.53125,-1.34375 -0.52343,-0.484375 -1.72656,-0.726562 l -0.96094,-0.1875 q -1.76562,-0.351563 -2.55468,-1.101563 -0.78907,-0.75 -0.78907,-2.085937 0,-1.546875 1.08594,-2.4375 1.09375,-0.890625 3.00781,-0.890625 0.82032,0 1.67188,0.148437 0.85156,0.148438 1.74219,0.445313 z"
     id="path736452" /><path
     d="m 358.42224,34.271137 h 9.86719 v 1.328125 H 364.1488 V 45.9352 h -1.58593 V 35.599262 h -4.14063 z"
     id="path736454" /><path
     d="m 378.79724,35.825825 -2.14062,5.804687 h 4.28906 z m -0.89062,-1.554688 h 1.78906 l 4.44531,11.664063 h -1.64062 l -1.0625,-2.992188 h -5.25782 l -1.0625,2.992188 h -1.66406 z"
     id="path736456" /><path
     d="m 387.42224,35.568012 v 4.382813 h 1.98438 q 1.10156,0 1.70312,-0.570313 0.60156,-0.570312 0.60156,-1.625 0,-1.046875 -0.60156,-1.617187 -0.60156,-0.570313 -1.70312,-0.570313 z m -1.57812,-1.296875 h 3.5625 q 1.96093,0 2.96093,0.890625 1.00782,0.882813 1.00782,2.59375 0,1.726563 -1.00782,2.609375 -1,0.882813 -2.96093,0.882813 h -1.98438 v 4.6875 h -1.57812 z"
     id="path736458" /><path
     d="m 395.49255,34.271137 h 1.57813 V 45.9352 h -1.57813 z"
     id="path736460" /></g>
<rect
   id="rect44"
   height="65.300003"
   width="193.10001"
   class="st5"
   y="40"
   x="647.79999" />
<rect
   id="rect46"
   height="13.5"
   width="193.10001"
   class="st6"
   y="67.5"
   x="647.79999" />
<g
   aria-label="Delivery service"
   id="text48"
   class="st2 st7 st8"
   style="font-size:16px;font-family:GoogleSans-Medium;fill:#202124"><path
     d="m 686.73676,68.621216 v 9.070312 h 1.90625 q 2.41406,0 3.53125,-1.09375 1.125,-1.09375 1.125,-3.453125 0,-2.34375 -1.125,-3.429687 -1.11719,-1.09375 -3.53125,-1.09375 z m -1.57813,-1.296875 h 3.24219 q 3.39062,0 4.97656,1.414062 1.58594,1.40625 1.58594,4.40625 0,3.015625 -1.59375,4.429688 -1.59375,1.414062 -4.96875,1.414062 h -3.24219 z"
     id="path736463" /><path
     d="m 704.90082,74.254028 v 0.703125 h -6.60938 q 0.0937,1.484375 0.89063,2.265625 0.80469,0.773438 2.23437,0.773438 0.82813,0 1.60157,-0.203125 0.78125,-0.203125 1.54687,-0.609375 v 1.359375 q -0.77344,0.328125 -1.58594,0.5 -0.8125,0.171875 -1.64843,0.171875 -2.09375,0 -3.32032,-1.21875 -1.21875,-1.21875 -1.21875,-3.296875 0,-2.148438 1.15625,-3.40625 1.16407,-1.265625 3.13282,-1.265625 1.76562,0 2.78906,1.140625 1.03125,1.132812 1.03125,3.085937 z m -1.4375,-0.421875 q -0.0156,-1.179687 -0.66406,-1.882812 -0.64063,-0.703125 -1.70313,-0.703125 -1.20312,0 -1.92969,0.679687 -0.71875,0.679688 -0.82812,1.914063 z"
     id="path736465" /><path
     d="m 707.26019,66.832153 h 1.4375 v 12.15625 h -1.4375 z"
     id="path736467" /><path
     d="m 711.70551,70.238403 h 1.4375 v 8.75 h -1.4375 z m 0,-3.40625 h 1.4375 v 1.820313 h -1.4375 z"
     id="path736469" /><path
     d="m 715.11957,70.238403 h 1.52344 l 2.73437,7.34375 2.73438,-7.34375 h 1.52343 l -3.28125,8.75 h -1.95312 z"
     id="path736471" /><path
     d="m 733.10394,74.254028 v 0.703125 h -6.60937 q 0.0937,1.484375 0.89062,2.265625 0.80469,0.773438 2.23438,0.773438 0.82812,0 1.60156,-0.203125 0.78125,-0.203125 1.54688,-0.609375 v 1.359375 q -0.77344,0.328125 -1.58594,0.5 -0.8125,0.171875 -1.64844,0.171875 -2.09375,0 -3.32031,-1.21875 -1.21875,-1.21875 -1.21875,-3.296875 0,-2.148438 1.15625,-3.40625 1.16406,-1.265625 3.13281,-1.265625 1.76563,0 2.78906,1.140625 1.03125,1.132812 1.03125,3.085937 z m -1.4375,-0.421875 q -0.0156,-1.179687 -0.66406,-1.882812 -0.64062,-0.703125 -1.70312,-0.703125 -1.20313,0 -1.92969,0.679687 -0.71875,0.679688 -0.82813,1.914063 z"
     id="path736473" /><path
     d="m 740.53363,71.582153 q -0.24219,-0.140625 -0.53125,-0.203125 -0.28125,-0.07031 -0.625,-0.07031 -1.21875,0 -1.875,0.796875 -0.64844,0.789062 -0.64844,2.273437 v 4.609375 h -1.44531 v -8.75 h 1.44531 v 1.359375 q 0.45313,-0.796875 1.17969,-1.179687 0.72656,-0.390625 1.76563,-0.390625 0.14843,0 0.32812,0.02344 0.17969,0.01563 0.39844,0.05469 z"
     id="path736475" /><path
     d="m 745.68207,79.800903 q -0.60938,1.5625 -1.1875,2.039063 -0.57813,0.476562 -1.54688,0.476562 h -1.14843 v -1.203125 h 0.84375 q 0.59375,0 0.92187,-0.28125 0.32813,-0.28125 0.72656,-1.328125 l 0.25782,-0.65625 -3.53907,-8.609375 h 1.52344 l 2.73438,6.84375 2.73437,-6.84375 h 1.52344 z"
     id="path736477" /><path
     d="m 762.17426,70.496216 v 1.359375 q -0.60938,-0.3125 -1.26563,-0.46875 -0.65625,-0.15625 -1.35937,-0.15625 -1.07032,0 -1.60938,0.328125 -0.53125,0.328125 -0.53125,0.984375 0,0.5 0.38281,0.789062 0.38282,0.28125 1.53907,0.539063 l 0.49218,0.109375 q 1.53125,0.328125 2.17188,0.929687 0.64844,0.59375 0.64844,1.664063 0,1.21875 -0.96875,1.929687 -0.96094,0.710938 -2.64844,0.710938 -0.70313,0 -1.46875,-0.140625 -0.75781,-0.132813 -1.60156,-0.40625 v -1.484375 q 0.79687,0.414062 1.57031,0.625 0.77344,0.203125 1.53125,0.203125 1.01562,0 1.5625,-0.34375 0.54687,-0.351563 0.54687,-0.984375 0,-0.585938 -0.39843,-0.898438 -0.39063,-0.3125 -1.72657,-0.601562 l -0.5,-0.117188 q -1.33593,-0.28125 -1.92968,-0.859375 -0.59375,-0.585937 -0.59375,-1.601562 0,-1.234375 0.875,-1.90625 0.875,-0.671875 2.48437,-0.671875 0.79688,0 1.5,0.117187 0.70313,0.117188 1.29688,0.351563 z"
     id="path736479" /><path
     d="m 772.41644,74.254028 v 0.703125 h -6.60937 q 0.0937,1.484375 0.89062,2.265625 0.80469,0.773438 2.23438,0.773438 0.82812,0 1.60156,-0.203125 0.78125,-0.203125 1.54688,-0.609375 v 1.359375 q -0.77344,0.328125 -1.58594,0.5 -0.8125,0.171875 -1.64844,0.171875 -2.09375,0 -3.32031,-1.21875 -1.21875,-1.21875 -1.21875,-3.296875 0,-2.148438 1.15625,-3.40625 1.16406,-1.265625 3.13281,-1.265625 1.76563,0 2.78906,1.140625 1.03125,1.132812 1.03125,3.085937 z m -1.4375,-0.421875 q -0.0156,-1.179687 -0.66406,-1.882812 -0.64062,-0.703125 -1.70312,-0.703125 -1.20313,0 -1.92969,0.679687 -0.71875,0.679688 -0.82813,1.914063 z"
     id="path736481" /><path
     d="m 779.84613,71.582153 q -0.24219,-0.140625 -0.53125,-0.203125 -0.28125,-0.07031 -0.625,-0.07031 -1.21875,0 -1.875,0.796875 -0.64844,0.789062 -0.64844,2.273437 v 4.609375 h -1.44531 v -8.75 h 1.44531 v 1.359375 q 0.45313,-0.796875 1.17969,-1.179687 0.72656,-0.390625 1.76563,-0.390625 0.14843,0 0.32812,0.02344 0.17969,0.01563 0.39844,0.05469 z"
     id="path736483" /><path
     d="m 780.32269,70.238403 h 1.52344 l 2.73438,7.34375 2.73437,-7.34375 h 1.52344 l -3.28125,8.75 h -1.95313 z"
     id="path736485" /><path
     d="m 790.82269,70.238403 h 1.4375 v 8.75 h -1.4375 z m 0,-3.40625 h 1.4375 v 1.820313 h -1.4375 z"
     id="path736487" /><path
     d="m 801.56488,70.574341 v 1.34375 q -0.60937,-0.335938 -1.22656,-0.5 -0.60938,-0.171875 -1.23438,-0.171875 -1.39843,0 -2.17187,0.890625 -0.77344,0.882812 -0.77344,2.484375 0,1.601562 0.77344,2.492187 0.77344,0.882813 2.17187,0.882813 0.625,0 1.23438,-0.164063 0.61719,-0.171875 1.22656,-0.507812 v 1.328125 q -0.60156,0.28125 -1.25,0.421875 -0.64062,0.140625 -1.36719,0.140625 -1.97656,0 -3.14062,-1.242188 -1.16406,-1.242187 -1.16406,-3.351562 0,-2.140625 1.17187,-3.367188 1.17969,-1.226562 3.22656,-1.226562 0.66407,0 1.29688,0.140625 0.63281,0.132812 1.22656,0.40625 z"
     id="path736489" /><path
     d="m 811.54926,74.254028 v 0.703125 h -6.60938 q 0.0937,1.484375 0.89063,2.265625 0.80468,0.773438 2.23437,0.773438 0.82813,0 1.60156,-0.203125 0.78125,-0.203125 1.54688,-0.609375 v 1.359375 q -0.77344,0.328125 -1.58594,0.5 -0.8125,0.171875 -1.64844,0.171875 -2.09375,0 -3.32031,-1.21875 -1.21875,-1.21875 -1.21875,-3.296875 0,-2.148438 1.15625,-3.40625 1.16406,-1.265625 3.13281,-1.265625 1.76563,0 2.78907,1.140625 1.03125,1.132812 1.03125,3.085937 z m -1.4375,-0.421875 q -0.0156,-1.179687 -0.66407,-1.882812 -0.64062,-0.703125 -1.70312,-0.703125 -1.20313,0 -1.92969,0.679687 -0.71875,0.679688 -0.82812,1.914063 z"
     id="path736491" /></g>
<rect
   id="rect50"
   height="32"
   width="96.5"
   class="st10"
   y="24"
   x="600" />
<rect
   id="rect52"
   height="13.5"
   width="70.400002"
   class="st6"
   y="34.5"
   x="612.89996" />
<g
   aria-label="REST API"
   id="text54"
   class="st11 st7 st8"
   style="font-size:16px;font-family:GoogleSans-Medium;fill:#ffffff"><path
     d="m 622.18799,40.46645 q 0.50781,0.171875 0.98437,0.734375 0.48438,0.5625 0.96875,1.546875 l 1.60157,3.1875 h -1.69532 l -1.49218,-2.992188 q -0.57813,-1.171875 -1.125,-1.554687 -0.53907,-0.382813 -1.47657,-0.382813 h -1.71875 V 45.9352 h -1.57812 V 34.271137 h 3.5625 q 2,0 2.98437,0.835938 0.98438,0.835937 0.98438,2.523437 0,1.101563 -0.51563,1.828125 -0.50781,0.726563 -1.48437,1.007813 z m -3.95313,-4.898438 v 4.140625 h 1.98438 q 1.14062,0 1.71875,-0.523437 0.58594,-0.53125 0.58594,-1.554688 0,-1.023437 -0.58594,-1.539062 -0.57813,-0.523438 -1.71875,-0.523438 z"
     id="path736494" /><path
     d="m 627.77393,34.271137 h 7.375 v 1.328125 h -5.79688 v 3.453125 h 5.55469 v 1.328125 h -5.55469 v 4.226563 h 5.9375 V 45.9352 h -7.51562 z"
     id="path736496" /><path
     d="m 644.87549,34.65395 v 1.539062 q -0.89844,-0.429687 -1.69531,-0.640625 -0.79688,-0.210937 -1.53907,-0.210937 -1.28906,0 -1.99218,0.5 -0.69532,0.5 -0.69532,1.421875 0,0.773437 0.46094,1.171875 0.46875,0.390625 1.76563,0.632812 l 0.95312,0.195313 q 1.76563,0.335937 2.60156,1.1875 0.84375,0.84375 0.84375,2.265625 0,1.695312 -1.14062,2.570312 -1.13281,0.875 -3.32813,0.875 -0.82812,0 -1.76562,-0.1875 -0.92969,-0.1875 -1.92969,-0.554687 v -1.625 q 0.96094,0.539062 1.88281,0.8125 0.92188,0.273437 1.8125,0.273437 1.35157,0 2.08594,-0.53125 0.73438,-0.53125 0.73438,-1.515625 0,-0.859375 -0.53125,-1.34375 -0.52344,-0.484375 -1.72657,-0.726562 l -0.96093,-0.1875 q -1.76563,-0.351563 -2.55469,-1.101563 -0.78906,-0.75 -0.78906,-2.085937 0,-1.546875 1.08593,-2.4375 1.09375,-0.890625 3.00782,-0.890625 0.82031,0 1.67187,0.148437 0.85156,0.148438 1.74219,0.445313 z"
     id="path736498" /><path
     d="m 646.42236,34.271137 h 9.86719 v 1.328125 h -4.14062 V 45.9352 h -1.58594 V 35.599262 h -4.14063 z"
     id="path736500" /><path
     d="m 666.79736,35.825825 -2.14062,5.804687 h 4.28906 z m -0.89062,-1.554688 h 1.78906 l 4.44531,11.664063 h -1.64062 l -1.0625,-2.992188 h -5.25781 l -1.0625,2.992188 h -1.66407 z"
     id="path736502" /><path
     d="m 675.42236,35.568012 v 4.382813 h 1.98438 q 1.10156,0 1.70312,-0.570313 0.60157,-0.570312 0.60157,-1.625 0,-1.046875 -0.60157,-1.617187 -0.60156,-0.570313 -1.70312,-0.570313 z m -1.57812,-1.296875 h 3.5625 q 1.96094,0 2.96094,0.890625 1.00781,0.882813 1.00781,2.59375 0,1.726563 -1.00781,2.609375 -1,0.882813 -2.96094,0.882813 h -1.98438 v 4.6875 h -1.57812 z"
     id="path736504" /><path
     d="m 683.49268,34.271137 h 1.57812 V 45.9352 h -1.57812 z"
     id="path736506" /></g>
<g
   transform="translate(-23.200001,-72)"
   id="g60">
	<path
   id="path56"
   d="m 143.6,236.9 v 70.2 c 0,7.1 21.5,12.9 48,12.9 26.5,0 48,-5.8 48,-12.9 v -70.2 z"
   class="st12" />
	<path
   id="ellipse58"
   class="st12"
   style="fill:#4285f4;stroke:#ffffff;stroke-miterlimit:10"
   d="m 239.60001,236.89999 a 48,12.9 0 0 1 -48,12.9 48,12.9 0 0 1 -48,-12.9 48,12.9 0 0 1 48,-12.9 48,12.9 0 0 1 48,12.9 z" />
</g>
<rect
   id="rect62"
   height="13.5"
   width="34.299999"
   class="st6"
   y="206.5"
   x="151.2" />
<g
   aria-label="DB"
   id="text64"
   class="st11 st7 st8"
   style="font-size:16px;font-family:GoogleSans-Medium;fill:#ffffff"><path
     d="m 160.69554,207.62952 v 9.07031 h 1.90625 q 2.41406,0 3.53125,-1.09375 1.125,-1.09375 1.125,-3.45313 0,-2.34375 -1.125,-3.42968 -1.11719,-1.09375 -3.53125,-1.09375 z m -1.57812,-1.29688 h 3.24218 q 3.39063,0 4.97657,1.41406 1.58593,1.40625 1.58593,4.40625 0,3.01563 -1.59375,4.42969 -1.59375,1.41406 -4.96875,1.41406 h -3.24218 z"
     id="path736510" /><path
     d="m 173.01585,212.42639 v 4.27344 h 2.53125 q 1.27344,0 1.88282,-0.52344 0.61718,-0.53125 0.61718,-1.61719 0,-1.09375 -0.61718,-1.60937 -0.60938,-0.52344 -1.88282,-0.52344 z m 0,-4.79687 v 3.51562 h 2.33594 q 1.15625,0 1.71875,-0.42969 0.57031,-0.4375 0.57031,-1.32812 0,-0.88281 -0.57031,-1.32031 -0.5625,-0.4375 -1.71875,-0.4375 z m -1.57812,-1.29688 h 4.03125 q 1.80469,0 2.78125,0.75 0.97656,0.75 0.97656,2.13281 0,1.07032 -0.5,1.70313 -0.5,0.63281 -1.46875,0.78906 1.16406,0.25 1.80469,1.04688 0.64844,0.78906 0.64844,1.97656 0,1.5625 -1.0625,2.41406 -1.0625,0.85156 -3.02344,0.85156 h -4.1875 z"
     id="path736512" /></g>
<g
   transform="translate(-23.200001,-72)"
   id="g74">
	<g
   id="g72">
		<path
   id="line66"
   class="st9"
   style="fill:none;stroke:#4285f4;stroke-miterlimit:10"
   d="m 479.60001,177.3 v 39.5" />
		<g
   id="g70">
			<path
   id="polygon68"
   class="st10"
   style="fill:#4285f4"
   d="m 479.6,224 4.9,-8.6 h -9.9 z" />
		</g>
	</g>
</g>
<g
   transform="translate(-23.200001,-72)"
   id="g80">
	<path
   id="path76"
   d="m 431.6,236.9 v 70.2 c 0,7.1 21.5,12.9 48,12.9 26.5,0 48,-5.8 48,-12.9 v -70.2 z"
   class="st12" />
	<path
   id="ellipse78"
   class="st12"
   style="fill:#4285f4;stroke:#ffffff;stroke-miterlimit:10"
   d="m 527.60001,236.89999 a 48,12.9 0 0 1 -48,12.9 48,12.9 0 0 1 -48,-12.9 48,12.9 0 0 1 48,-12.9 48,12.9 0 0 1 48,12.9 z" />
</g>
<rect
   id="rect82"
   height="13.5"
   width="34.299999"
   class="st6"
   y="206.5"
   x="439.19998" />
<g
   aria-label="DB"
   id="text84"
   class="st11 st7 st8"
   style="font-size:16px;font-family:GoogleSans-Medium;fill:#ffffff"><path
     d="m 448.69553,207.62952 v 9.07031 h 1.90625 q 2.41406,0 3.53125,-1.09375 1.125,-1.09375 1.125,-3.45313 0,-2.34375 -1.125,-3.42968 -1.11719,-1.09375 -3.53125,-1.09375 z m -1.57813,-1.29688 h 3.24219 q 3.39062,0 4.97656,1.41406 1.58594,1.40625 1.58594,4.40625 0,3.01563 -1.59375,4.42969 -1.59375,1.41406 -4.96875,1.41406 h -3.24219 z"
     id="path736518" /><path
     d="m 461.01584,212.42639 v 4.27344 h 2.53125 q 1.27344,0 1.88281,-0.52344 0.61719,-0.53125 0.61719,-1.61719 0,-1.09375 -0.61719,-1.60937 -0.60937,-0.52344 -1.88281,-0.52344 z m 0,-4.79687 v 3.51562 h 2.33594 q 1.15625,0 1.71875,-0.42969 0.57031,-0.4375 0.57031,-1.32812 0,-0.88281 -0.57031,-1.32031 -0.5625,-0.4375 -1.71875,-0.4375 z m -1.57813,-1.29688 h 4.03125 q 1.80469,0 2.78125,0.75 0.97657,0.75 0.97657,2.13281 0,1.07032 -0.5,1.70313 -0.5,0.63281 -1.46875,0.78906 1.16406,0.25 1.80468,1.04688 0.64844,0.78906 0.64844,1.97656 0,1.5625 -1.0625,2.41406 -1.0625,0.85156 -3.02344,0.85156 h -4.1875 z"
     id="path736520" /></g>
<g
   transform="translate(-23.200001,-72)"
   id="g94">
	<g
   id="g92">
		<path
   id="line86"
   class="st9"
   style="fill:none;stroke:#4285f4;stroke-miterlimit:10"
   d="m 767.59998,177.3 v 39.5" />
		<g
   id="g90">
			<path
   id="polygon88"
   class="st10"
   style="fill:#4285f4"
   d="m 767.6,224 4.9,-8.6 h -9.9 z" />
		</g>
	</g>
</g>
<g
   transform="translate(-23.200001,-72)"
   id="g100">
	<path
   id="path96"
   d="m 719.6,236.9 v 70.2 c 0,7.1 21.5,12.9 48,12.9 26.5,0 48,-5.8 48,-12.9 v -70.2 z"
   class="st12" />
	<path
   id="ellipse98"
   class="st12"
   style="fill:#4285f4;stroke:#ffffff;stroke-miterlimit:10"
   d="m 815.59998,236.89999 a 48,12.9 0 0 1 -48,12.9 48,12.9 0 0 1 -48,-12.9 48,12.9 0 0 1 48,-12.9 48,12.9 0 0 1 48,12.9 z" />
</g>
<rect
   id="rect102"
   height="13.5"
   width="34.299999"
   class="st6"
   y="206.5"
   x="727.20001" />
<g
   aria-label="DB"
   id="text104"
   class="st11 st7 st8"
   style="font-size:16px;font-family:GoogleSans-Medium;fill:#ffffff"><path
     d="m 736.69556,207.62952 v 9.07031 h 1.90625 q 2.41406,0 3.53125,-1.09375 1.125,-1.09375 1.125,-3.45313 0,-2.34375 -1.125,-3.42968 -1.11719,-1.09375 -3.53125,-1.09375 z m -1.57813,-1.29688 h 3.24219 q 3.39062,0 4.97656,1.41406 1.58594,1.40625 1.58594,4.40625 0,3.01563 -1.59375,4.42969 -1.59375,1.41406 -4.96875,1.41406 h -3.24219 z"
     id="path736526" /><path
     d="m 749.01587,212.42639 v 4.27344 h 2.53125 q 1.27344,0 1.88281,-0.52344 0.61719,-0.53125 0.61719,-1.61719 0,-1.09375 -0.61719,-1.60937 -0.60937,-0.52344 -1.88281,-0.52344 z m 0,-4.79687 v 3.51562 h 2.33594 q 1.15625,0 1.71875,-0.42969 0.57031,-0.4375 0.57031,-1.32812 0,-0.88281 -0.57031,-1.32031 -0.5625,-0.4375 -1.71875,-0.4375 z m -1.57813,-1.29688 h 4.03125 q 1.80469,0 2.78125,0.75 0.97657,0.75 0.97657,2.13281 0,1.07032 -0.5,1.70313 -0.5,0.63281 -1.46875,0.78906 1.16406,0.25 1.80468,1.04688 0.64844,0.78906 0.64844,1.97656 0,1.5625 -1.0625,2.41406 -1.0625,0.85156 -3.02344,0.85156 h -4.1875 z"
     id="path736528" /></g>
</svg>
