<?xml version="1.0" encoding="UTF-8" standalone="no"?>
<svg
   height="5.1937499in"
   width="10.984375in"
   xml:space="preserve"
   viewBox="0 0 1054.5 498.59997"
   y="0px"
   x="0px"
   id="Layer_2_1_"
   version="1.1"
   xmlns="http://www.w3.org/2000/svg"
   xmlns:svg="http://www.w3.org/2000/svg"
   xmlns:rdf="http://www.w3.org/1999/02/22-rdf-syntax-ns#"
   xmlns:cc="http://creativecommons.org/ns#"
   xmlns:dc="http://purl.org/dc/elements/1.1/"><metadata
   id="metadata149"><rdf:RDF><cc:Work
       rdf:about=""><dc:format>image/svg+xml</dc:format><dc:type
         rdf:resource="http://purl.org/dc/dcmitype/StillImage" /><dc:title /></cc:Work></rdf:RDF></metadata><defs
   id="defs147" />
	<rect width="100%" height="100%" fill="grey"/>
<style
   id="style2"
   type="text/css">
	.st0{fill:#FFFFFF;stroke:#202124;stroke-miterlimit:10;}
	.st1{fill:#202124;}
	.st2{font-family:'GoogleSans-Medium';}
	.st3{font-size:16px;}
	.st4{fill:none;}
	.st5{fill:none;stroke:#4285F4;stroke-miterlimit:10;}
	.st6{fill:#4285F4;}
	.st7{fill:none;stroke:#202124;stroke-miterlimit:10;}
	.st8{fill:#F1F3F4;stroke:#202124;stroke-miterlimit:10;}
	.st9{font-family:'GoogleSans-Bold';}
	.st10{font-size:20px;}
	.st11{fill:#3B4043;}
</style>
<rect
   id="rect4"
   height="43"
   width="238.60001"
   class="st0"
   y="45.299995"
   x="166" />
<g
   aria-label="Web, mobile, or REST interface"
   id="text6"
   class="st1 st2 st3"
   style="font-size:16px;font-family:GoogleSans-Medium;fill:#202124"><path
     d="m 179.43414,59.612534 h 1.59375 l 2.45313,9.859375 2.44531,-9.859375 h 1.77344 l 2.45312,9.859375 2.44532,-9.859375 h 1.60156 l -2.92969,11.664062 h -1.98437 l -2.46094,-10.125 -2.48438,10.125 h -1.98437 z"
     id="path899681" /><path
     d="m 202.77789,66.542221 v 0.703125 h -6.60937 q 0.0937,1.484375 0.89062,2.265625 0.80469,0.773438 2.23438,0.773438 0.82812,0 1.60156,-0.203125 0.78125,-0.203125 1.54688,-0.609375 v 1.359375 q -0.77344,0.328125 -1.58594,0.5 -0.8125,0.171875 -1.64844,0.171875 -2.09375,0 -3.32031,-1.21875 -1.21875,-1.21875 -1.21875,-3.296875 0,-2.148438 1.15625,-3.40625 1.16406,-1.265625 3.13281,-1.265625 1.76563,0 2.78906,1.140625 1.03125,1.132812 1.03125,3.085937 z m -1.4375,-0.421875 q -0.0156,-1.179687 -0.66406,-1.882812 -0.64062,-0.703125 -1.70312,-0.703125 -1.20313,0 -1.92969,0.679687 -0.71875,0.679688 -0.82813,1.914063 z"
     id="path899683" /><path
     d="m 211.41852,66.909409 q 0,-1.585938 -0.65625,-2.484375 -0.64844,-0.90625 -1.78906,-0.90625 -1.14063,0 -1.79688,0.90625 -0.64844,0.898437 -0.64844,2.484375 0,1.585937 0.64844,2.492187 0.65625,0.898438 1.79688,0.898438 1.14062,0 1.78906,-0.898438 0.65625,-0.90625 0.65625,-2.492187 z m -4.89063,-3.054688 q 0.45313,-0.78125 1.14063,-1.15625 0.69531,-0.382812 1.65625,-0.382812 1.59375,0 2.58594,1.265625 1,1.265625 1,3.328125 0,2.0625 -1,3.328125 -0.99219,1.265625 -2.58594,1.265625 -0.96094,0 -1.65625,-0.375 -0.6875,-0.382813 -1.14063,-1.164063 v 1.3125 h -1.44531 v -12.15625 h 1.44531 z"
     id="path899685" /><path
     d="m 215.66071,69.292221 h 1.64843 v 1.34375 l -1.28125,2.5 h -1.00781 l 0.64063,-2.5 z"
     id="path899687" /><path
     d="m 232.27789,64.206284 q 0.53907,-0.96875 1.28907,-1.429688 0.75,-0.460937 1.76562,-0.460937 1.36719,0 2.10938,0.960937 0.74218,0.953125 0.74218,2.71875 v 5.28125 h -1.44531 v -5.234375 q 0,-1.257812 -0.44531,-1.867187 -0.44531,-0.609375 -1.35938,-0.609375 -1.11718,0 -1.76562,0.742187 -0.64844,0.742188 -0.64844,2.023438 v 4.945312 h -1.44531 v -5.234375 q 0,-1.265625 -0.44531,-1.867187 -0.44532,-0.609375 -1.375,-0.609375 -1.10157,0 -1.75,0.75 -0.64844,0.742187 -0.64844,2.015625 v 4.945312 h -1.44531 v -8.75 h 1.44531 v 1.359375 q 0.49219,-0.804687 1.17969,-1.1875 0.6875,-0.382812 1.63281,-0.382812 0.95312,0 1.61719,0.484375 0.67187,0.484375 0.99218,1.40625 z"
     id="path899689" /><path
     d="m 244.44196,63.534409 q -1.15625,0 -1.82813,0.90625 -0.67187,0.898437 -0.67187,2.46875 0,1.570312 0.66406,2.476562 0.67187,0.898438 1.83594,0.898438 1.14843,0 1.82031,-0.90625 0.67187,-0.90625 0.67187,-2.46875 0,-1.554688 -0.67187,-2.460938 -0.67188,-0.914062 -1.82031,-0.914062 z m 0,-1.21875 q 1.875,0 2.94531,1.21875 1.07031,1.21875 1.07031,3.375 0,2.148437 -1.07031,3.375 -1.07031,1.21875 -2.94531,1.21875 -1.88282,0 -2.95313,-1.21875 -1.0625,-1.226563 -1.0625,-3.375 0,-2.15625 1.0625,-3.375 1.07031,-1.21875 2.95313,-1.21875 z"
     id="path899691" /><path
     d="m 257.12164,66.909409 q 0,-1.585938 -0.65625,-2.484375 -0.64843,-0.90625 -1.78906,-0.90625 -1.14062,0 -1.79687,0.90625 -0.64844,0.898437 -0.64844,2.484375 0,1.585937 0.64844,2.492187 0.65625,0.898438 1.79687,0.898438 1.14063,0 1.78906,-0.898438 0.65625,-0.90625 0.65625,-2.492187 z m -4.89062,-3.054688 q 0.45312,-0.78125 1.14062,-1.15625 0.69532,-0.382812 1.65625,-0.382812 1.59375,0 2.58594,1.265625 1,1.265625 1,3.328125 0,2.0625 -1,3.328125 -0.99219,1.265625 -2.58594,1.265625 -0.96093,0 -1.65625,-0.375 -0.6875,-0.382813 -1.14062,-1.164063 v 1.3125 h -1.44531 v -12.15625 h 1.44531 z"
     id="path899693" /><path
     d="m 260.99664,62.526596 h 1.4375 v 8.75 h -1.4375 z m 0,-3.40625 h 1.4375 v 1.820313 h -1.4375 z"
     id="path899695" /><path
     d="m 265.44196,59.120346 h 1.4375 v 12.15625 h -1.4375 z"
     id="path899697" /><path
     d="m 277.37164,66.542221 v 0.703125 h -6.60937 q 0.0937,1.484375 0.89062,2.265625 0.80469,0.773438 2.23438,0.773438 0.82812,0 1.60156,-0.203125 0.78125,-0.203125 1.54688,-0.609375 v 1.359375 q -0.77344,0.328125 -1.58594,0.5 -0.8125,0.171875 -1.64844,0.171875 -2.09375,0 -3.32031,-1.21875 -1.21875,-1.21875 -1.21875,-3.296875 0,-2.148438 1.15625,-3.40625 1.16406,-1.265625 3.13281,-1.265625 1.76563,0 2.78906,1.140625 1.03125,1.132812 1.03125,3.085937 z m -1.4375,-0.421875 q -0.0156,-1.179687 -0.66406,-1.882812 -0.64062,-0.703125 -1.70312,-0.703125 -1.20313,0 -1.92969,0.679687 -0.71875,0.679688 -0.82813,1.914063 z"
     id="path899699" /><path
     d="m 280.09821,69.292221 h 1.64843 v 1.34375 l -1.28125,2.5 h -1.00781 l 0.64063,-2.5 z"
     id="path899701" /><path
     d="m 293.29352,63.534409 q -1.15625,0 -1.82813,0.90625 -0.67187,0.898437 -0.67187,2.46875 0,1.570312 0.66406,2.476562 0.67188,0.898438 1.83594,0.898438 1.14844,0 1.82031,-0.90625 0.67188,-0.90625 0.67188,-2.46875 0,-1.554688 -0.67188,-2.460938 -0.67187,-0.914062 -1.82031,-0.914062 z m 0,-1.21875 q 1.875,0 2.94531,1.21875 1.07031,1.21875 1.07031,3.375 0,2.148437 -1.07031,3.375 -1.07031,1.21875 -2.94531,1.21875 -1.88281,0 -2.95313,-1.21875 -1.0625,-1.226563 -1.0625,-3.375 0,-2.15625 1.0625,-3.375 1.07032,-1.21875 2.95313,-1.21875 z"
     id="path899703" /><path
     d="m 304.76227,63.870346 q -0.24219,-0.140625 -0.53125,-0.203125 -0.28125,-0.07031 -0.625,-0.07031 -1.21875,0 -1.875,0.796875 -0.64844,0.789062 -0.64844,2.273437 v 4.609375 h -1.44531 v -8.75 h 1.44531 v 1.359375 q 0.45313,-0.796875 1.17969,-1.179687 0.72656,-0.390625 1.76562,-0.390625 0.14844,0 0.32813,0.02344 0.17969,0.01563 0.39844,0.05469 z"
     id="path899705" /><path
     d="m 316.94977,65.807846 q 0.50781,0.171875 0.98437,0.734375 0.48438,0.5625 0.96875,1.546875 l 1.60157,3.1875 h -1.69532 l -1.49218,-2.992187 q -0.57813,-1.171875 -1.125,-1.554688 -0.53907,-0.382812 -1.47657,-0.382812 h -1.71875 v 4.929687 h -1.57812 V 59.612534 h 3.5625 q 2,0 2.98437,0.835937 0.98438,0.835938 0.98438,2.523438 0,1.101562 -0.51563,1.828125 -0.50781,0.726562 -1.48437,1.007812 z m -3.95313,-4.898437 v 4.140625 h 1.98438 q 1.14062,0 1.71875,-0.523438 0.58594,-0.53125 0.58594,-1.554687 0,-1.023438 -0.58594,-1.539063 -0.57813,-0.523437 -1.71875,-0.523437 z"
     id="path899707" /><path
     d="m 322.53571,59.612534 h 7.375 v 1.328125 h -5.79688 v 3.453125 h 5.55469 v 1.328125 h -5.55469 v 4.226562 h 5.9375 v 1.328125 h -7.51562 z"
     id="path899709" /><path
     d="m 339.63727,59.995346 v 1.539063 q -0.89844,-0.429688 -1.69531,-0.640625 -0.79688,-0.210938 -1.53907,-0.210938 -1.28906,0 -1.99218,0.5 -0.69532,0.5 -0.69532,1.421875 0,0.773438 0.46094,1.171875 0.46875,0.390625 1.76563,0.632813 l 0.95312,0.195312 q 1.76563,0.335938 2.60156,1.1875 0.84375,0.84375 0.84375,2.265625 0,1.695313 -1.14062,2.570313 -1.13281,0.875 -3.32813,0.875 -0.82812,0 -1.76562,-0.1875 -0.92969,-0.1875 -1.92969,-0.554688 v -1.625 q 0.96094,0.539063 1.88281,0.8125 0.92188,0.273438 1.8125,0.273438 1.35157,0 2.08594,-0.53125 0.73438,-0.53125 0.73438,-1.515625 0,-0.859375 -0.53125,-1.34375 -0.52344,-0.484375 -1.72657,-0.726563 l -0.96093,-0.1875 q -1.76563,-0.351562 -2.55469,-1.101562 -0.78906,-0.75 -0.78906,-2.085938 0,-1.546875 1.08593,-2.4375 1.09375,-0.890625 3.00782,-0.890625 0.82031,0 1.67187,0.148438 0.85156,0.148437 1.74219,0.445312 z"
     id="path899711" /><path
     d="m 341.18414,59.612534 h 9.86719 v 1.328125 h -4.14062 v 10.335937 h -1.58594 V 60.940659 h -4.14063 z"
     id="path899713" /></g>
<g
   transform="translate(-26,-67.900002)"
   id="g12">
	<path
   id="path8"
   d="m 960,288.1 v 70.2 c 0,7.1 21.5,12.9 48,12.9 26.5,0 48,-5.8 48,-12.9 v -70.2 z"
   class="st0" />
	<path
   id="ellipse10"
   class="st0"
   style="fill:#ffffff;stroke:#202124;stroke-miterlimit:10"
   d="m 1056,288.10001 a 48,12.9 0 0 1 -48,12.9 48,12.9 0 0 1 -48,-12.9 48,12.9 0 0 1 48,-12.9 48,12.9 0 0 1 48,12.9 z" />
</g>
<rect
   id="rect14"
   height="13.5"
   width="34.299999"
   class="st4"
   y="261.80002"
   x="964.90002" />
<g
   aria-label="Database"
   id="text16"
   class="st1 st2 st3"
   style="font-size:16px;font-family:GoogleSans-Medium;fill:#202124"><path
     d="m 950.06305,262.9537 v 9.07032 h 1.90625 q 2.41406,0 3.53125,-1.09375 1.125,-1.09375 1.125,-3.45313 0,-2.34375 -1.125,-3.42969 -1.11719,-1.09375 -3.53125,-1.09375 z m -1.57813,-1.29687 h 3.24219 q 3.39063,0 4.97656,1.41406 1.58594,1.40625 1.58594,4.40625 0,3.01563 -1.59375,4.42969 -1.59375,1.41406 -4.96875,1.41406 h -3.24219 z"
     id="path899735" /><path
     d="m 964.7193,268.92245 q -1.74219,0 -2.41406,0.39844 -0.67188,0.39844 -0.67188,1.35938 0,0.76562 0.5,1.21875 0.50781,0.44531 1.375,0.44531 1.19531,0 1.91406,-0.84375 0.72657,-0.85156 0.72657,-2.25781 v -0.32032 z m 2.86719,-0.59375 v 4.99219 h -1.4375 v -1.32812 q -0.49219,0.79687 -1.22657,1.17968 -0.73437,0.375 -1.79687,0.375 -1.34375,0 -2.14063,-0.75 -0.78906,-0.75781 -0.78906,-2.02343 0,-1.47657 0.98438,-2.22657 0.99218,-0.75 2.95312,-0.75 h 2.01563 v -0.14062 q 0,-0.99219 -0.65625,-1.53125 -0.64844,-0.54688 -1.82813,-0.54688 -0.75,0 -1.46094,0.17969 -0.71093,0.17969 -1.36718,0.53906 v -1.32812 q 0.78906,-0.30469 1.53125,-0.45313 0.74218,-0.15625 1.44531,-0.15625 1.89844,0 2.83594,0.98438 0.9375,0.98437 0.9375,2.98437 z"
     id="path899737" /><path
     d="m 971.9693,262.08652 v 2.48437 h 2.96094 v 1.11719 h -2.96094 v 4.75 q 0,1.07031 0.28906,1.375 0.29688,0.30469 1.19531,0.30469 h 1.47657 v 1.20312 h -1.47657 q -1.66406,0 -2.29687,-0.61719 -0.63281,-0.625 -0.63281,-2.26562 v -4.75 h -1.05469 v -1.11719 h 1.05469 v -2.48437 z"
     id="path899739" /><path
     d="m 980.79742,268.92245 q -1.74218,0 -2.41406,0.39844 -0.67187,0.39844 -0.67187,1.35938 0,0.76562 0.5,1.21875 0.50781,0.44531 1.375,0.44531 1.19531,0 1.91406,-0.84375 0.72656,-0.85156 0.72656,-2.25781 v -0.32032 z m 2.86719,-0.59375 v 4.99219 h -1.4375 v -1.32812 q -0.49219,0.79687 -1.22656,1.17968 -0.73438,0.375 -1.79688,0.375 -1.34375,0 -2.14062,-0.75 -0.78906,-0.75781 -0.78906,-2.02343 0,-1.47657 0.98437,-2.22657 0.99219,-0.75 2.95313,-0.75 h 2.01562 v -0.14062 q 0,-0.99219 -0.65625,-1.53125 -0.64844,-0.54688 -1.82812,-0.54688 -0.75,0 -1.46094,0.17969 -0.71094,0.17969 -1.36719,0.53906 v -1.32812 q 0.78906,-0.30469 1.53125,-0.45313 0.74219,-0.15625 1.44531,-0.15625 1.89844,0 2.83594,0.98438 0.9375,0.98437 0.9375,2.98437 z"
     id="path899741" /><path
     d="m 992.9068,268.9537 q 0,-1.58593 -0.65625,-2.48437 -0.64844,-0.90625 -1.78906,-0.90625 -1.14063,0 -1.79688,0.90625 -0.64844,0.89844 -0.64844,2.48437 0,1.58594 0.64844,2.49219 0.65625,0.89844 1.79688,0.89844 1.14062,0 1.78906,-0.89844 0.65625,-0.90625 0.65625,-2.49219 z m -4.89063,-3.05468 q 0.45313,-0.78125 1.14063,-1.15625 0.69531,-0.38282 1.65625,-0.38282 1.59375,0 2.58594,1.26563 1,1.26562 1,3.32812 0,2.0625 -1,3.32813 -0.99219,1.26562 -2.58594,1.26562 -0.96094,0 -1.65625,-0.375 -0.6875,-0.38281 -1.14063,-1.16406 v 1.3125 h -1.44531 v -12.15625 h 1.44531 z"
     id="path899743" /><path
     d="m 1000.7584,268.92245 q -1.74223,0 -2.4141,0.39844 -0.67188,0.39844 -0.67188,1.35938 0,0.76562 0.5,1.21875 0.50782,0.44531 1.375,0.44531 1.19528,0 1.91408,-0.84375 0.7265,-0.85156 0.7265,-2.25781 v -0.32032 z m 2.8671,-0.59375 v 4.99219 h -1.4375 v -1.32812 q -0.4921,0.79687 -1.2265,1.17968 -0.7344,0.375 -1.79689,0.375 -1.34375,0 -2.14062,-0.75 -0.78907,-0.75781 -0.78907,-2.02343 0,-1.47657 0.98438,-2.22657 0.99219,-0.75 2.9531,-0.75 h 2.0156 v -0.14062 q 0,-0.99219 -0.6562,-1.53125 -0.6484,-0.54688 -1.82813,-0.54688 -0.75,0 -1.46093,0.17969 -0.71094,0.17969 -1.36719,0.53906 v -1.32812 q 0.78906,-0.30469 1.53125,-0.45313 0.74219,-0.15625 1.44531,-0.15625 1.89839,0 2.83589,0.98438 0.9375,0.98437 0.9375,2.98437 z"
     id="path899745" /><path
     d="m 1012.1646,264.8287 v 1.35938 q -0.6094,-0.3125 -1.2656,-0.46875 -0.6563,-0.15625 -1.3594,-0.15625 -1.0703,0 -1.6094,0.32812 -0.5312,0.32813 -0.5312,0.98438 0,0.5 0.3828,0.78906 0.3828,0.28125 1.5391,0.53906 l 0.4921,0.10938 q 1.5313,0.32812 2.1719,0.92969 0.6485,0.59375 0.6485,1.66406 0,1.21875 -0.9688,1.92969 -0.9609,0.71093 -2.6484,0.71093 -0.7032,0 -1.4688,-0.14062 -0.7578,-0.13281 -1.6015,-0.40625 v -1.48438 q 0.7968,0.41407 1.5703,0.625 0.7734,0.20313 1.5312,0.20313 1.0156,0 1.5625,-0.34375 0.5469,-0.35156 0.5469,-0.98438 0,-0.58593 -0.3984,-0.89843 -0.3907,-0.3125 -1.7266,-0.60157 l -0.5,-0.11718 q -1.3359,-0.28125 -1.9297,-0.85938 -0.5937,-0.58594 -0.5937,-1.60156 0,-1.23438 0.875,-1.90625 0.875,-0.67188 2.4843,-0.67188 0.7969,0 1.5,0.11719 0.7032,0.11719 1.2969,0.35156 z"
     id="path899747" /><path
     d="m 1022.4068,268.58652 v 0.70312 h -6.6094 q 0.094,1.48438 0.8906,2.26563 0.8047,0.77343 2.2344,0.77343 0.8281,0 1.6016,-0.20312 0.7812,-0.20313 1.5469,-0.60938 v 1.35938 q -0.7735,0.32812 -1.586,0.5 -0.8125,0.17187 -1.6484,0.17187 -2.0938,0 -3.3203,-1.21875 -1.2188,-1.21875 -1.2188,-3.29687 0,-2.14844 1.1563,-3.40625 1.164,-1.26563 3.1328,-1.26563 1.7656,0 2.789,1.14063 1.0313,1.13281 1.0313,3.08594 z m -1.4375,-0.42188 q -0.016,-1.17969 -0.6641,-1.88281 -0.6406,-0.70313 -1.7031,-0.70313 -1.2031,0 -1.9297,0.67969 -0.7187,0.67969 -0.8281,1.91406 z"
     id="path899749" /></g>
<g
   transform="translate(-26,-67.900002)"
   id="g26">
	<g
   id="g24">
		<path
   id="line18"
   class="st5"
   style="fill:none;stroke:#4285f4;stroke-miterlimit:10"
   d="m 126,134.7 h 58.8" />
		<g
   id="g22">
			<path
   id="polygon20"
   class="st6"
   style="fill:#4285f4"
   d="m 192,134.7 -8.6,-5 v 10 z" />
		</g>
	</g>
</g>



<rect
   id="rect34"
   height="84.599998"
   width="75.5"
   class="st0"
   y="24.5"
   x="24.5" />
<path
   id="path36"
   d="m 62.2,59.199998 c -10.1,0 -18.3,8.2 -18.3,18.3 0,10.1 8.2,18.3 18.3,18.3 10.1,0 18.3,-8.2 18.3,-18.3 0,-10.1 -8.2,-18.3 -18.3,-18.3 z m 0,5.4 c 3,0 5.5,2.5 5.5,5.5 0,3 -2.5,5.5 -5.5,5.5 -3,0 -5.5,-2.5 -5.5,-5.5 0,-3 2.5,-5.5 5.5,-5.5 z m 0,26 c -4.6,0 -8.6,-2.3 -10.9,-5.9 0.1,-3.6 7.3,-5.6 10.9,-5.6 3.6,0 10.9,2 10.9,5.6 -2.2,3.6 -6.3,5.9 -10.9,5.9 z"
   class="st1" />
<g
   aria-label="Sellers"
   id="text38"
   class="st11 st2 st3"
   style="font-size:16px;font-family:GoogleSans-Medium;fill:#3b4043"><path
     d="m 42.626301,34.059048 v 1.539062 q -0.898438,-0.429687 -1.695313,-0.640625 -0.796875,-0.210937 -1.539062,-0.210937 -1.289063,0 -1.992188,0.5 -0.695312,0.5 -0.695312,1.421875 0,0.773437 0.460937,1.171875 0.46875,0.390625 1.765625,0.632812 l 0.953125,0.195313 q 1.765625,0.335937 2.601563,1.1875 0.84375,0.84375 0.84375,2.265625 0,1.695312 -1.140625,2.570312 -1.132813,0.875 -3.328125,0.875 -0.828125,0 -1.765625,-0.1875 -0.929688,-0.1875 -1.929688,-0.554687 v -1.625 q 0.960938,0.539062 1.882813,0.8125 0.921875,0.273437 1.8125,0.273437 1.351562,0 2.085937,-0.53125 0.734375,-0.53125 0.734375,-1.515625 0,-0.859375 -0.53125,-1.34375 -0.523437,-0.484375 -1.726562,-0.726562 l -0.960938,-0.1875 q -1.765625,-0.351563 -2.554687,-1.101563 -0.789063,-0.75 -0.789063,-2.085937 0,-1.546875 1.085938,-2.4375 1.09375,-0.890625 3.007812,-0.890625 0.820313,0 1.671875,0.148437 0.851563,0.148438 1.742188,0.445313 z"
     id="path899754" /><path
     d="m 53.212238,40.605923 v 0.703125 h -6.609375 q 0.09375,1.484375 0.890625,2.265625 0.804688,0.773437 2.234375,0.773437 0.828125,0 1.601563,-0.203125 0.78125,-0.203125 1.546875,-0.609375 v 1.359375 q -0.773438,0.328125 -1.585938,0.5 -0.8125,0.171875 -1.648437,0.171875 -2.09375,0 -3.320313,-1.21875 -1.21875,-1.21875 -1.21875,-3.296875 0,-2.148437 1.15625,-3.40625 1.164063,-1.265625 3.132813,-1.265625 1.765625,0 2.789062,1.140625 1.03125,1.132813 1.03125,3.085938 z m -1.4375,-0.421875 q -0.01563,-1.179688 -0.664062,-1.882813 -0.640625,-0.703125 -1.703125,-0.703125 -1.203125,0 -1.929688,0.679688 -0.71875,0.679687 -0.828125,1.914062 z"
     id="path899756" /><path
     d="m 55.571613,33.184048 h 1.4375 v 12.15625 h -1.4375 z"
     id="path899758" /><path
     d="m 60.016926,33.184048 h 1.4375 v 12.15625 h -1.4375 z"
     id="path899760" /><path
     d="m 71.946613,40.605923 v 0.703125 h -6.609375 q 0.09375,1.484375 0.890625,2.265625 0.804688,0.773437 2.234375,0.773437 0.828125,0 1.601563,-0.203125 0.78125,-0.203125 1.546875,-0.609375 v 1.359375 q -0.773438,0.328125 -1.585938,0.5 -0.8125,0.171875 -1.648437,0.171875 -2.09375,0 -3.320313,-1.21875 -1.21875,-1.21875 -1.21875,-3.296875 0,-2.148437 1.15625,-3.40625 1.164063,-1.265625 3.132813,-1.265625 1.765625,0 2.789062,1.140625 1.03125,1.132813 1.03125,3.085938 z m -1.4375,-0.421875 q -0.01563,-1.179688 -0.664062,-1.882813 -0.640625,-0.703125 -1.703125,-0.703125 -1.203125,0 -1.929688,0.679688 -0.71875,0.679687 -0.828125,1.914062 z"
     id="path899762" /><path
     d="m 79.376301,37.934048 q -0.242188,-0.140625 -0.53125,-0.203125 -0.28125,-0.07031 -0.625,-0.07031 -1.21875,0 -1.875,0.796875 -0.648438,0.789063 -0.648438,2.273438 v 4.609375 h -1.445312 v -8.75 h 1.445312 v 1.359375 q 0.453125,-0.796875 1.179688,-1.179688 0.726562,-0.390625 1.765625,-0.390625 0.148437,0 0.328125,0.02344 0.179687,0.01563 0.398437,0.05469 z"
     id="path899764" /><path
     d="m 86.462238,36.84811 v 1.359375 q -0.609375,-0.3125 -1.265625,-0.46875 -0.65625,-0.15625 -1.359375,-0.15625 -1.070312,0 -1.609375,0.328125 -0.53125,0.328125 -0.53125,0.984375 0,0.5 0.382813,0.789063 0.382812,0.28125 1.539062,0.539062 l 0.492188,0.109375 q 1.53125,0.328125 2.171875,0.929688 0.648437,0.59375 0.648437,1.664062 0,1.21875 -0.96875,1.929688 -0.960937,0.710937 -2.648437,0.710937 -0.703125,0 -1.46875,-0.140625 -0.757813,-0.132812 -1.601563,-0.40625 V 43.53561 q 0.796875,0.414063 1.570313,0.625 0.773437,0.203125 1.53125,0.203125 1.015625,0 1.5625,-0.34375 0.546875,-0.351562 0.546875,-0.984375 0,-0.585937 -0.398438,-0.898437 -0.390625,-0.3125 -1.726562,-0.601563 l -0.5,-0.117187 q -1.335938,-0.28125 -1.929688,-0.859375 -0.59375,-0.585938 -0.59375,-1.601563 0,-1.234375 0.875,-1.90625 0.875,-0.671875 2.484375,-0.671875 0.796875,0 1.5,0.117188 0.703125,0.117187 1.296875,0.351562 z"
     id="path899766" /></g>
<rect
   id="rect40"
   height="43"
   width="238.60001"
   class="st0"
   y="208.20001"
   x="166" />
<g
   aria-label="Web UI or mobile app"
   id="text42"
   class="st1 st2 st3"
   style="font-size:16px;font-family:GoogleSans-Medium;fill:#202124"><path
     d="m 211.36145,222.50604 h 1.59375 l 2.45313,9.85938 2.44531,-9.85938 h 1.77344 l 2.45312,9.85938 2.44531,-9.85938 h 1.60157 l -2.92969,11.66406 h -1.98438 l -2.46093,-10.125 -2.48438,10.125 h -1.98437 z"
     id="path899769" /><path
     d="m 234.7052,229.43573 v 0.70312 h -6.60937 q 0.0937,1.48438 0.89062,2.26563 0.80469,0.77344 2.23438,0.77344 0.82812,0 1.60156,-0.20313 0.78125,-0.20312 1.54687,-0.60937 v 1.35937 q -0.77343,0.32813 -1.58593,0.5 -0.8125,0.17188 -1.64844,0.17188 -2.09375,0 -3.32031,-1.21875 -1.21875,-1.21875 -1.21875,-3.29688 0,-2.14844 1.15625,-3.40625 1.16406,-1.26562 3.13281,-1.26562 1.76562,0 2.78906,1.14062 1.03125,1.13281 1.03125,3.08594 z m -1.4375,-0.42188 q -0.0156,-1.17968 -0.66406,-1.88281 -0.64063,-0.70312 -1.70313,-0.70312 -1.20312,0 -1.92968,0.67968 -0.71875,0.67969 -0.82813,1.91407 z"
     id="path899771" /><path
     d="m 243.34583,229.80292 q 0,-1.58594 -0.65625,-2.48438 -0.64844,-0.90625 -1.78907,-0.90625 -1.14062,0 -1.79687,0.90625 -0.64844,0.89844 -0.64844,2.48438 0,1.58593 0.64844,2.49218 0.65625,0.89844 1.79687,0.89844 1.14063,0 1.78907,-0.89844 0.65625,-0.90625 0.65625,-2.49218 z m -4.89063,-3.05469 q 0.45313,-0.78125 1.14063,-1.15625 0.69531,-0.38281 1.65625,-0.38281 1.59375,0 2.58593,1.26562 1,1.26563 1,3.32813 0,2.0625 -1,3.32812 -0.99218,1.26563 -2.58593,1.26563 -0.96094,0 -1.65625,-0.375 -0.6875,-0.38282 -1.14063,-1.16407 v 1.3125 h -1.44531 v -12.15625 h 1.44531 z"
     id="path899773" /><path
     d="m 252.18958,222.50604 h 1.58593 v 7.08594 q 0,1.875 0.67969,2.70312 0.67969,0.82032 2.20313,0.82032 1.51562,0 2.19531,-0.82032 0.67969,-0.82812 0.67969,-2.70312 v -7.08594 h 1.58593 v 7.28125 q 0,2.28125 -1.13281,3.44531 -1.125,1.16407 -3.32812,1.16407 -2.21094,0 -3.34375,-1.16407 -1.125,-1.16406 -1.125,-3.44531 z"
     id="path899775" /><path
     d="m 264.0802,222.50604 h 1.57813 v 11.66406 h -1.57813 z"
     id="path899777" /><path
     d="m 277.21301,226.42792 q -1.15625,0 -1.82812,0.90625 -0.67188,0.89843 -0.67188,2.46875 0,1.57031 0.66407,2.47656 0.67187,0.89844 1.83593,0.89844 1.14844,0 1.82032,-0.90625 0.67187,-0.90625 0.67187,-2.46875 0,-1.55469 -0.67187,-2.46094 -0.67188,-0.91406 -1.82032,-0.91406 z m 0,-1.21875 q 1.875,0 2.94532,1.21875 1.07031,1.21875 1.07031,3.375 0,2.14843 -1.07031,3.375 -1.07032,1.21875 -2.94532,1.21875 -1.88281,0 -2.95312,-1.21875 -1.0625,-1.22657 -1.0625,-3.375 0,-2.15625 1.0625,-3.375 1.07031,-1.21875 2.95312,-1.21875 z"
     id="path899779" /><path
     d="m 288.68176,226.76385 q -0.24218,-0.14062 -0.53125,-0.20312 -0.28125,-0.0703 -0.625,-0.0703 -1.21875,0 -1.875,0.79687 -0.64843,0.78906 -0.64843,2.27344 v 4.60937 h -1.44532 v -8.75 h 1.44532 v 1.35938 q 0.45312,-0.79688 1.17968,-1.17969 0.72657,-0.39062 1.76563,-0.39062 0.14844,0 0.32812,0.0234 0.17969,0.0156 0.39844,0.0547 z"
     id="path899781" /><path
     d="m 302.08801,227.09979 q 0.53907,-0.96875 1.28907,-1.42969 0.75,-0.46093 1.76562,-0.46093 1.36719,0 2.10938,0.96093 0.74218,0.95313 0.74218,2.71875 v 5.28125 h -1.44531 v -5.23437 q 0,-1.25781 -0.44531,-1.86719 -0.44531,-0.60937 -1.35938,-0.60937 -1.11718,0 -1.76562,0.74218 -0.64844,0.74219 -0.64844,2.02344 v 4.94531 h -1.44531 v -5.23437 q 0,-1.26563 -0.44531,-1.86719 -0.44532,-0.60937 -1.375,-0.60937 -1.10157,0 -1.75,0.75 -0.64844,0.74218 -0.64844,2.01562 v 4.94531 h -1.44531 v -8.75 h 1.44531 v 1.35938 q 0.49219,-0.80469 1.17969,-1.1875 0.6875,-0.38281 1.63281,-0.38281 0.95312,0 1.61719,0.48437 0.67187,0.48438 0.99218,1.40625 z"
     id="path899783" /><path
     d="m 314.25208,226.42792 q -1.15625,0 -1.82813,0.90625 -0.67187,0.89843 -0.67187,2.46875 0,1.57031 0.66406,2.47656 0.67187,0.89844 1.83594,0.89844 1.14843,0 1.82031,-0.90625 0.67187,-0.90625 0.67187,-2.46875 0,-1.55469 -0.67187,-2.46094 -0.67188,-0.91406 -1.82031,-0.91406 z m 0,-1.21875 q 1.875,0 2.94531,1.21875 1.07031,1.21875 1.07031,3.375 0,2.14843 -1.07031,3.375 -1.07031,1.21875 -2.94531,1.21875 -1.88282,0 -2.95313,-1.21875 -1.0625,-1.22657 -1.0625,-3.375 0,-2.15625 1.0625,-3.375 1.07031,-1.21875 2.95313,-1.21875 z"
     id="path899785" /><path
     d="m 326.93176,229.80292 q 0,-1.58594 -0.65625,-2.48438 -0.64843,-0.90625 -1.78906,-0.90625 -1.14062,0 -1.79687,0.90625 -0.64844,0.89844 -0.64844,2.48438 0,1.58593 0.64844,2.49218 0.65625,0.89844 1.79687,0.89844 1.14063,0 1.78906,-0.89844 0.65625,-0.90625 0.65625,-2.49218 z m -4.89062,-3.05469 q 0.45312,-0.78125 1.14062,-1.15625 0.69532,-0.38281 1.65625,-0.38281 1.59375,0 2.58594,1.26562 1,1.26563 1,3.32813 0,2.0625 -1,3.32812 -0.99219,1.26563 -2.58594,1.26563 -0.96093,0 -1.65625,-0.375 -0.6875,-0.38282 -1.14062,-1.16407 v 1.3125 h -1.44531 v -12.15625 h 1.44531 z"
     id="path899787" /><path
     d="m 330.80676,225.4201 h 1.4375 v 8.75 h -1.4375 z m 0,-3.40625 h 1.4375 v 1.82032 h -1.4375 z"
     id="path899789" /><path
     d="m 335.25208,222.01385 h 1.4375 v 12.15625 h -1.4375 z"
     id="path899791" /><path
     d="m 347.18176,229.43573 v 0.70312 h -6.60937 q 0.0937,1.48438 0.89062,2.26563 0.80469,0.77344 2.23438,0.77344 0.82812,0 1.60156,-0.20313 0.78125,-0.20312 1.54688,-0.60937 v 1.35937 q -0.77344,0.32813 -1.58594,0.5 -0.8125,0.17188 -1.64844,0.17188 -2.09375,0 -3.32031,-1.21875 -1.21875,-1.21875 -1.21875,-3.29688 0,-2.14844 1.15625,-3.40625 1.16406,-1.26562 3.13281,-1.26562 1.76563,0 2.78906,1.14062 1.03125,1.13281 1.03125,3.08594 z m -1.4375,-0.42188 q -0.0156,-1.17968 -0.66406,-1.88281 -0.64062,-0.70312 -1.70312,-0.70312 -1.20313,0 -1.92969,0.67968 -0.71875,0.67969 -0.82813,1.91407 z"
     id="path899793" /><path
     d="m 358.60364,229.77167 q -1.74219,0 -2.41406,0.39843 -0.67188,0.39844 -0.67188,1.35938 0,0.76562 0.5,1.21875 0.50781,0.44531 1.375,0.44531 1.19531,0 1.91406,-0.84375 0.72657,-0.85156 0.72657,-2.25781 v -0.32031 z m 2.86719,-0.59375 v 4.99218 h -1.4375 v -1.32812 q -0.49219,0.79687 -1.22657,1.17969 -0.73437,0.375 -1.79687,0.375 -1.34375,0 -2.14063,-0.75 -0.78906,-0.75782 -0.78906,-2.02344 0,-1.47656 0.98438,-2.22656 0.99218,-0.75 2.95312,-0.75 h 2.01563 v -0.14063 q 0,-0.99219 -0.65625,-1.53125 -0.64844,-0.54687 -1.82813,-0.54687 -0.75,0 -1.46094,0.17968 -0.71093,0.17969 -1.36718,0.53907 v -1.32813 q 0.78906,-0.30469 1.53125,-0.45312 0.74218,-0.15625 1.44531,-0.15625 1.89844,0 2.83594,0.98437 0.9375,0.98438 0.9375,2.98438 z"
     id="path899795" /><path
     d="m 365.82239,232.8576 v 4.64063 h -1.44531 V 225.4201 h 1.44531 v 1.32813 q 0.45312,-0.78125 1.14062,-1.15625 0.69532,-0.38281 1.65625,-0.38281 1.59375,0 2.58594,1.26562 1,1.26563 1,3.32813 0,2.0625 -1,3.32812 -0.99219,1.26563 -2.58594,1.26563 -0.96093,0 -1.65625,-0.375 -0.6875,-0.38282 -1.14062,-1.16407 z m 4.89062,-3.05468 q 0,-1.58594 -0.65625,-2.48438 -0.64843,-0.90625 -1.78906,-0.90625 -1.14062,0 -1.79687,0.90625 -0.64844,0.89844 -0.64844,2.48438 0,1.58593 0.64844,2.49218 0.65625,0.89844 1.79687,0.89844 1.14063,0 1.78906,-0.89844 0.65625,-0.90625 0.65625,-2.49218 z"
     id="path899797" /><path
     d="m 375.97864,232.8576 v 4.64063 h -1.44531 V 225.4201 h 1.44531 v 1.32813 q 0.45312,-0.78125 1.14062,-1.15625 0.69532,-0.38281 1.65625,-0.38281 1.59375,0 2.58594,1.26562 1,1.26563 1,3.32813 0,2.0625 -1,3.32812 -0.99219,1.26563 -2.58594,1.26563 -0.96093,0 -1.65625,-0.375 -0.6875,-0.38282 -1.14062,-1.16407 z m 4.89062,-3.05468 q 0,-1.58594 -0.65625,-2.48438 -0.64843,-0.90625 -1.78906,-0.90625 -1.14062,0 -1.79687,0.90625 -0.64844,0.89844 -0.64844,2.48438 0,1.58593 0.64844,2.49218 0.65625,0.89844 1.79687,0.89844 1.14063,0 1.78906,-0.89844 0.65625,-0.90625 0.65625,-2.49218 z"
     id="path899799" /></g>
<rect
   id="rect44"
   height="43"
   width="238.60001"
   class="st0"
   y="282.30002"
   x="526.70001" />
<g
   aria-label="Adapters"
   id="text46"
   class="st1 st2 st3"
   style="font-size:16px;font-family:GoogleSans-Medium;fill:#202124"><path
     d="m 615.53595,298.11203 -2.14063,5.80469 h 4.28907 z m -0.89063,-1.55469 h 1.78907 l 4.44531,11.66407 h -1.64063 l -1.0625,-2.99219 h -5.25781 l -1.0625,2.99219 h -1.66406 z"
     id="path899802" /><path
     d="m 627.99689,300.79953 v -4.73437 h 1.4375 v 12.15625 h -1.4375 v -1.3125 q -0.45313,0.78125 -1.14844,1.16406 -0.6875,0.375 -1.65625,0.375 -1.58594,0 -2.58594,-1.26563 -0.99219,-1.26562 -0.99219,-3.32812 0,-2.0625 0.99219,-3.32813 1,-1.26562 2.58594,-1.26562 0.96875,0 1.65625,0.38281 0.69531,0.375 1.14844,1.15625 z m -4.89844,3.05469 q 0,1.58594 0.64844,2.49219 0.65625,0.89843 1.79687,0.89843 1.14063,0 1.79688,-0.89843 0.65625,-0.90625 0.65625,-2.49219 0,-1.58594 -0.65625,-2.48438 -0.65625,-0.90625 -1.79688,-0.90625 -1.14062,0 -1.79687,0.90625 -0.64844,0.89844 -0.64844,2.48438 z"
     id="path899804" /><path
     d="m 636.37189,303.82297 q -1.74219,0 -2.41407,0.39844 -0.67187,0.39843 -0.67187,1.35937 0,0.76563 0.5,1.21875 0.50781,0.44531 1.375,0.44531 1.19531,0 1.91406,-0.84375 0.72656,-0.85156 0.72656,-2.25781 v -0.32031 z m 2.86718,-0.59375 v 4.99219 h -1.4375 v -1.32813 q -0.49218,0.79688 -1.22656,1.17969 -0.73437,0.375 -1.79687,0.375 -1.34375,0 -2.14063,-0.75 -0.78906,-0.75781 -0.78906,-2.02344 0,-1.47656 0.98437,-2.22656 0.99219,-0.75 2.95313,-0.75 h 2.01562 v -0.14063 q 0,-0.99218 -0.65625,-1.53125 -0.64843,-0.54687 -1.82812,-0.54687 -0.75,0 -1.46094,0.17969 -0.71094,0.17968 -1.36719,0.53906 v -1.32813 q 0.78907,-0.30468 1.53125,-0.45312 0.74219,-0.15625 1.44532,-0.15625 1.89843,0 2.83593,0.98437 0.9375,0.98438 0.9375,2.98438 z"
     id="path899806" /><path
     d="m 643.59064,306.90891 v 4.64062 h -1.44532 v -12.07812 h 1.44532 v 1.32812 q 0.45312,-0.78125 1.14062,-1.15625 0.69531,-0.38281 1.65625,-0.38281 1.59375,0 2.58594,1.26562 1,1.26563 1,3.32813 0,2.0625 -1,3.32812 -0.99219,1.26563 -2.58594,1.26563 -0.96094,0 -1.65625,-0.375 -0.6875,-0.38281 -1.14062,-1.16406 z m 4.89062,-3.05469 q 0,-1.58594 -0.65625,-2.48438 -0.64844,-0.90625 -1.78906,-0.90625 -1.14063,0 -1.79688,0.90625 -0.64843,0.89844 -0.64843,2.48438 0,1.58594 0.64843,2.49219 0.65625,0.89843 1.79688,0.89843 1.14062,0 1.78906,-0.89843 0.65625,-0.90625 0.65625,-2.49219 z"
     id="path899808" /><path
     d="m 653.77814,296.98703 v 2.48438 h 2.96093 v 1.11718 h -2.96093 v 4.75 q 0,1.07032 0.28906,1.375 0.29687,0.30469 1.19531,0.30469 h 1.47656 v 1.20313 h -1.47656 q -1.66406,0 -2.29687,-0.61719 -0.63282,-0.625 -0.63282,-2.26563 v -4.75 h -1.05468 v -1.11718 h 1.05468 v -2.48438 z"
     id="path899810" /><path
     d="m 666.11407,303.48703 v 0.70313 h -6.60937 q 0.0937,1.48437 0.89062,2.26562 0.80469,0.77344 2.23438,0.77344 0.82812,0 1.60156,-0.20313 0.78125,-0.20312 1.54688,-0.60937 v 1.35937 q -0.77344,0.32813 -1.58594,0.5 -0.8125,0.17188 -1.64844,0.17188 -2.09375,0 -3.32031,-1.21875 -1.21875,-1.21875 -1.21875,-3.29688 0,-2.14843 1.15625,-3.40625 1.16406,-1.26562 3.13281,-1.26562 1.76563,0 2.78906,1.14062 1.03125,1.13282 1.03125,3.08594 z m -1.4375,-0.42187 q -0.0156,-1.17969 -0.66406,-1.88282 -0.64062,-0.70312 -1.70312,-0.70312 -1.20313,0 -1.92969,0.67969 -0.71875,0.67968 -0.82813,1.91406 z"
     id="path899812" /><path
     d="m 673.54376,300.81516 q -0.24219,-0.14063 -0.53125,-0.20313 -0.28125,-0.0703 -0.625,-0.0703 -1.21875,0 -1.875,0.79687 -0.64844,0.78907 -0.64844,2.27344 v 4.60938 h -1.44531 v -8.75 h 1.44531 v 1.35937 q 0.45313,-0.79687 1.17969,-1.17969 0.72656,-0.39062 1.76563,-0.39062 0.14843,0 0.32812,0.0234 0.17969,0.0156 0.39844,0.0547 z"
     id="path899814" /><path
     d="m 680.6297,299.72922 v 1.35937 q -0.60938,-0.3125 -1.26563,-0.46875 -0.65625,-0.15625 -1.35937,-0.15625 -1.07031,0 -1.60938,0.32813 -0.53125,0.32812 -0.53125,0.98437 0,0.5 0.38282,0.78907 0.38281,0.28125 1.53906,0.53906 l 0.49219,0.10937 q 1.53125,0.32813 2.17187,0.92969 0.64844,0.59375 0.64844,1.66406 0,1.21875 -0.96875,1.92969 -0.96094,0.71094 -2.64844,0.71094 -0.70312,0 -1.46875,-0.14063 -0.75781,-0.13281 -1.60156,-0.40625 v -1.48437 q 0.79687,0.41406 1.57031,0.625 0.77344,0.20312 1.53125,0.20312 1.01563,0 1.5625,-0.34375 0.54688,-0.35156 0.54688,-0.98437 0,-0.58594 -0.39844,-0.89844 -0.39063,-0.3125 -1.72656,-0.60156 l -0.5,-0.11719 q -1.33594,-0.28125 -1.92969,-0.85937 -0.59375,-0.58594 -0.59375,-1.60157 0,-1.23437 0.875,-1.90625 0.875,-0.67187 2.48437,-0.67187 0.79688,0 1.5,0.11719 0.70313,0.11718 1.29688,0.35156 z"
     id="path899816" /></g>
<rect
   id="rect48"
   height="112.7"
   width="384"
   class="st0"
   y="90.900002"
   x="454" />
<g
   aria-label="Order management"
   id="text50"
   class="st1 st2 st3"
   style="font-size:16px;font-family:GoogleSans-Medium;fill:#202124"><path
     d="m 577.44946,110.69135 q -1.71875,0 -2.73437,1.28125 -1.00781,1.28125 -1.00781,3.49219 0,2.20313 1.00781,3.48438 1.01562,1.28125 2.73437,1.28125 1.71875,0 2.71875,-1.28125 1.00782,-1.28125 1.00782,-3.48438 0,-2.21094 -1.00782,-3.49219 -1,-1.28125 -2.71875,-1.28125 z m 0,-1.28125 q 2.45313,0 3.92188,1.64844 1.46875,1.64063 1.46875,4.40625 0,2.75781 -1.46875,4.40625 -1.46875,1.64063 -3.92188,1.64063 -2.46093,0 -3.9375,-1.64063 -1.46875,-1.64062 -1.46875,-4.40625 0,-2.76562 1.46875,-4.40625 1.47657,-1.64844 3.9375,-1.64844 z"
     id="path899819" /><path
     d="m 590.31665,113.87885 q -0.24219,-0.14062 -0.53125,-0.20312 -0.28125,-0.0703 -0.625,-0.0703 -1.21875,0 -1.875,0.79687 -0.64844,0.78906 -0.64844,2.27344 v 4.60937 h -1.44531 v -8.75 h 1.44531 v 1.35938 q 0.45313,-0.79688 1.17969,-1.17969 0.72656,-0.39062 1.76563,-0.39062 0.14843,0 0.32812,0.0234 0.17969,0.0156 0.39844,0.0547 z"
     id="path899821" /><path
     d="m 597.30103,113.86323 v -4.73438 h 1.4375 v 12.15625 h -1.4375 v -1.3125 q -0.45313,0.78125 -1.14844,1.16407 -0.6875,0.375 -1.65625,0.375 -1.58594,0 -2.58594,-1.26563 -0.99219,-1.26562 -0.99219,-3.32812 0,-2.0625 0.99219,-3.32813 1,-1.26562 2.58594,-1.26562 0.96875,0 1.65625,0.38281 0.69531,0.375 1.14844,1.15625 z m -4.89844,3.05469 q 0,1.58593 0.64844,2.49218 0.65625,0.89844 1.79687,0.89844 1.14063,0 1.79688,-0.89844 0.65625,-0.90625 0.65625,-2.49218 0,-1.58594 -0.65625,-2.48438 -0.65625,-0.90625 -1.79688,-0.90625 -1.14062,0 -1.79687,0.90625 -0.64844,0.89844 -0.64844,2.48438 z"
     id="path899823" /><path
     d="m 609.18384,116.55073 v 0.70312 h -6.60938 q 0.0937,1.48438 0.89063,2.26563 0.80469,0.77344 2.23437,0.77344 0.82813,0 1.60157,-0.20313 0.78125,-0.20312 1.54687,-0.60937 v 1.35937 q -0.77344,0.32813 -1.58594,0.5 -0.8125,0.17188 -1.64843,0.17188 -2.09375,0 -3.32032,-1.21875 -1.21875,-1.21875 -1.21875,-3.29688 0,-2.14844 1.15625,-3.40625 1.16407,-1.26562 3.13282,-1.26562 1.76562,0 2.78906,1.14062 1.03125,1.13281 1.03125,3.08594 z m -1.4375,-0.42188 q -0.0156,-1.17968 -0.66406,-1.88281 -0.64063,-0.70312 -1.70313,-0.70312 -1.20312,0 -1.92969,0.67968 -0.71875,0.67969 -0.82812,1.91407 z"
     id="path899825" /><path
     d="m 616.61353,113.87885 q -0.24219,-0.14062 -0.53125,-0.20312 -0.28125,-0.0703 -0.625,-0.0703 -1.21875,0 -1.875,0.79687 -0.64844,0.78906 -0.64844,2.27344 v 4.60937 h -1.44531 v -8.75 h 1.44531 v 1.35938 q 0.45312,-0.79688 1.17969,-1.17969 0.72656,-0.39062 1.76562,-0.39062 0.14844,0 0.32813,0.0234 0.17968,0.0156 0.39843,0.0547 z"
     id="path899827" /><path
     d="m 630.01978,114.21479 q 0.53906,-0.96875 1.28906,-1.42969 0.75,-0.46093 1.76562,-0.46093 1.36719,0 2.10938,0.96093 0.74219,0.95313 0.74219,2.71875 v 5.28125 h -1.44532 v -5.23437 q 0,-1.25781 -0.44531,-1.86719 -0.44531,-0.60937 -1.35937,-0.60937 -1.11719,0 -1.76563,0.74218 -0.64844,0.74219 -0.64844,2.02344 v 4.94531 h -1.44531 v -5.23437 q 0,-1.26563 -0.44531,-1.86719 -0.44531,-0.60937 -1.375,-0.60937 -1.10156,0 -1.75,0.75 -0.64844,0.74218 -0.64844,2.01562 v 4.94531 h -1.44531 v -8.75 h 1.44531 v 1.35938 q 0.49219,-0.80469 1.17969,-1.1875 0.6875,-0.38281 1.63281,-0.38281 0.95313,0 1.61719,0.48437 0.67187,0.48438 0.99219,1.40625 z"
     id="path899829" /><path
     d="m 642.76978,116.88667 q -1.74219,0 -2.41407,0.39843 -0.67187,0.39844 -0.67187,1.35938 0,0.76562 0.5,1.21875 0.50781,0.44531 1.375,0.44531 1.19531,0 1.91406,-0.84375 0.72656,-0.85156 0.72656,-2.25781 v -0.32031 z m 2.86718,-0.59375 v 4.99218 h -1.4375 v -1.32812 q -0.49218,0.79687 -1.22656,1.17969 -0.73437,0.375 -1.79687,0.375 -1.34375,0 -2.14063,-0.75 -0.78906,-0.75782 -0.78906,-2.02344 0,-1.47656 0.98437,-2.22656 0.99219,-0.75 2.95313,-0.75 h 2.01562 v -0.14063 q 0,-0.99219 -0.65625,-1.53125 -0.64843,-0.54687 -1.82812,-0.54687 -0.75,0 -1.46094,0.17968 -0.71094,0.17969 -1.36719,0.53907 v -1.32813 q 0.78907,-0.30469 1.53125,-0.45312 0.74219,-0.15625 1.44532,-0.15625 1.89843,0 2.83593,0.98437 0.9375,0.98438 0.9375,2.98438 z"
     id="path899831" /><path
     d="m 655.87134,116.00385 v 5.28125 h -1.4375 v -5.23437 q 0,-1.24219 -0.48438,-1.85938 -0.48437,-0.61718 -1.45312,-0.61718 -1.16406,0 -1.83594,0.74218 -0.67187,0.74219 -0.67187,2.02344 v 4.94531 h -1.44532 v -8.75 h 1.44532 v 1.35938 q 0.51562,-0.78906 1.21093,-1.17969 0.70313,-0.39062 1.61719,-0.39062 1.50781,0 2.28125,0.9375 0.77344,0.92968 0.77344,2.74218 z"
     id="path899833" /><path
     d="m 662.71509,116.88667 q -1.74219,0 -2.41406,0.39843 -0.67188,0.39844 -0.67188,1.35938 0,0.76562 0.5,1.21875 0.50781,0.44531 1.375,0.44531 1.19531,0 1.91406,-0.84375 0.72657,-0.85156 0.72657,-2.25781 v -0.32031 z m 2.86719,-0.59375 v 4.99218 h -1.4375 v -1.32812 q -0.49219,0.79687 -1.22657,1.17969 -0.73437,0.375 -1.79687,0.375 -1.34375,0 -2.14063,-0.75 -0.78906,-0.75782 -0.78906,-2.02344 0,-1.47656 0.98438,-2.22656 0.99218,-0.75 2.95312,-0.75 h 2.01563 v -0.14063 q 0,-0.99219 -0.65625,-1.53125 -0.64844,-0.54687 -1.82813,-0.54687 -0.75,0 -1.46094,0.17968 -0.71093,0.17969 -1.36718,0.53907 v -1.32813 q 0.78906,-0.30469 1.53125,-0.45312 0.74218,-0.15625 1.44531,-0.15625 1.89844,0 2.83594,0.98437 0.9375,0.98438 0.9375,2.98438 z"
     id="path899835" /><path
     d="m 674.30103,116.80854 q 0,-1.5625 -0.64844,-2.42187 -0.64063,-0.85938 -1.80469,-0.85938 -1.15625,0 -1.80469,0.85938 -0.64062,0.85937 -0.64062,2.42187 0,1.55469 0.64062,2.41406 0.64844,0.85938 1.80469,0.85938 1.16406,0 1.80469,-0.85938 0.64844,-0.85937 0.64844,-2.41406 z m 1.4375,3.39063 q 0,2.23437 -0.99219,3.32031 -0.99219,1.09375 -3.03906,1.09375 -0.75782,0 -1.42969,-0.11719 -0.67188,-0.10937 -1.30469,-0.34375 v -1.39844 q 0.63281,0.34375 1.25,0.50782 0.61719,0.16406 1.25781,0.16406 1.41407,0 2.11719,-0.74219 0.70313,-0.73437 0.70313,-2.22656 v -0.71094 q -0.44532,0.77344 -1.14063,1.15625 -0.69531,0.38281 -1.66406,0.38281 -1.60938,0 -2.59375,-1.22656 -0.98438,-1.22656 -0.98438,-3.25 0,-2.03125 0.98438,-3.25781 0.98437,-1.22656 2.59375,-1.22656 0.96875,0 1.66406,0.38281 0.69531,0.38281 1.14063,1.15625 v -1.32813 h 1.4375 z"
     id="path899837" /><path
     d="m 686.18384,116.55073 v 0.70312 h -6.60938 q 0.0937,1.48438 0.89063,2.26563 0.80469,0.77344 2.23437,0.77344 0.82813,0 1.60157,-0.20313 0.78125,-0.20312 1.54687,-0.60937 v 1.35937 q -0.77344,0.32813 -1.58594,0.5 -0.8125,0.17188 -1.64843,0.17188 -2.09375,0 -3.32032,-1.21875 -1.21875,-1.21875 -1.21875,-3.29688 0,-2.14844 1.15625,-3.40625 1.16407,-1.26562 3.13282,-1.26562 1.76562,0 2.78906,1.14062 1.03125,1.13281 1.03125,3.08594 z m -1.4375,-0.42188 q -0.0156,-1.17968 -0.66406,-1.88281 -0.64063,-0.70312 -1.70313,-0.70312 -1.20312,0 -1.92969,0.67968 -0.71875,0.67969 -0.82812,1.91407 z"
     id="path899839" /><path
     d="m 695.35571,114.21479 q 0.53907,-0.96875 1.28907,-1.42969 0.75,-0.46093 1.76562,-0.46093 1.36719,0 2.10938,0.96093 0.74218,0.95313 0.74218,2.71875 v 5.28125 h -1.44531 v -5.23437 q 0,-1.25781 -0.44531,-1.86719 -0.44531,-0.60937 -1.35938,-0.60937 -1.11718,0 -1.76562,0.74218 -0.64844,0.74219 -0.64844,2.02344 v 4.94531 h -1.44531 v -5.23437 q 0,-1.26563 -0.44531,-1.86719 -0.44532,-0.60937 -1.375,-0.60937 -1.10157,0 -1.75,0.75 -0.64844,0.74218 -0.64844,2.01562 v 4.94531 h -1.44531 v -8.75 h 1.44531 v 1.35938 q 0.49219,-0.80469 1.17969,-1.1875 0.6875,-0.38281 1.63281,-0.38281 0.95312,0 1.61719,0.48437 0.67187,0.48438 0.99218,1.40625 z"
     id="path899841" /><path
     d="m 711.61353,116.55073 v 0.70312 h -6.60938 q 0.0937,1.48438 0.89063,2.26563 0.80468,0.77344 2.23437,0.77344 0.82813,0 1.60156,-0.20313 0.78125,-0.20312 1.54688,-0.60937 v 1.35937 q -0.77344,0.32813 -1.58594,0.5 -0.8125,0.17188 -1.64844,0.17188 -2.09375,0 -3.32031,-1.21875 -1.21875,-1.21875 -1.21875,-3.29688 0,-2.14844 1.15625,-3.40625 1.16406,-1.26562 3.13281,-1.26562 1.76563,0 2.78907,1.14062 1.03125,1.13281 1.03125,3.08594 z m -1.4375,-0.42188 q -0.0156,-1.17968 -0.66407,-1.88281 -0.64062,-0.70312 -1.70312,-0.70312 -1.20313,0 -1.92969,0.67968 -0.71875,0.67969 -0.82812,1.91407 z"
     id="path899843" /><path
     d="m 721.24634,116.00385 v 5.28125 h -1.4375 v -5.23437 q 0,-1.24219 -0.48438,-1.85938 -0.48437,-0.61718 -1.45312,-0.61718 -1.16406,0 -1.83594,0.74218 -0.67187,0.74219 -0.67187,2.02344 v 4.94531 h -1.44532 v -8.75 h 1.44532 v 1.35938 q 0.51562,-0.78906 1.21093,-1.17969 0.70313,-0.39062 1.61719,-0.39062 1.50781,0 2.28125,0.9375 0.77344,0.92968 0.77344,2.74218 z"
     id="path899845" /><path
     d="m 725.5354,110.05073 v 2.48437 h 2.96094 v 1.11719 h -2.96094 v 4.75 q 0,1.07031 0.28906,1.375 0.29688,0.30469 1.19532,0.30469 h 1.47656 v 1.20312 h -1.47656 q -1.66407,0 -2.29688,-0.61718 -0.63281,-0.625 -0.63281,-2.26563 v -4.75 h -1.05469 v -1.11719 h 1.05469 v -2.48437 z"
     id="path899847" /></g>
<g
   aria-label="Notifications"
   id="text52"
   class="st1 st2 st3"
   style="font-size:16px;font-family:GoogleSans-Medium;fill:#202124"><path
     d="m 597.63458,142.62103 h 2.125 l 5.17188,9.75782 v -9.75782 h 1.53125 v 11.66407 h -2.125 l -5.17188,-9.75782 v 9.75782 h -1.53125 z"
     id="path899850" /><path
     d="m 612.93146,146.54291 q -1.15625,0 -1.82813,0.90625 -0.67187,0.89844 -0.67187,2.46875 0,1.57031 0.66406,2.47656 0.67188,0.89844 1.83594,0.89844 1.14844,0 1.82031,-0.90625 0.67188,-0.90625 0.67188,-2.46875 0,-1.55469 -0.67188,-2.46094 -0.67187,-0.91406 -1.82031,-0.91406 z m 0,-1.21875 q 1.875,0 2.94531,1.21875 1.07031,1.21875 1.07031,3.375 0,2.14844 -1.07031,3.375 -1.07031,1.21875 -2.94531,1.21875 -1.88281,0 -2.95313,-1.21875 -1.0625,-1.22656 -1.0625,-3.375 0,-2.15625 1.0625,-3.375 1.07032,-1.21875 2.95313,-1.21875 z"
     id="path899852" /><path
     d="m 620.75177,143.05072 v 2.48438 h 2.96094 v 1.11718 h -2.96094 v 4.75 q 0,1.07032 0.28906,1.375 0.29688,0.30469 1.19532,0.30469 h 1.47656 v 1.20313 h -1.47656 q -1.66407,0 -2.29688,-0.61719 -0.63281,-0.625 -0.63281,-2.26563 v -4.75 h -1.05469 v -1.11718 h 1.05469 v -2.48438 z"
     id="path899854" /><path
     d="m 625.60333,145.5351 h 1.4375 v 8.75 h -1.4375 z m 0,-3.40625 h 1.4375 v 1.82031 h -1.4375 z"
     id="path899856" /><path
     d="m 637.11896,145.5351 v 8.75 h -1.44531 v -7.63282 h -3.94532 v 7.63282 h -1.44531 v -7.63282 h -1.375 v -1.11718 h 1.375 v -0.60938 q 0,-1.42969 0.67188,-2.10937 0.67968,-0.6875 2.07812,-0.6875 h 1.44531 v 1.19531 h -1.375 q -0.77343,0 -1.07812,0.3125 -0.29688,0.3125 -0.29688,1.125 v 0.77344 z m -1.44531,-3.39063 h 1.44531 v 1.82031 h -1.44531 z"
     id="path899858" /><path
     d="m 646.42365,145.87103 v 1.34375 q -0.60938,-0.33593 -1.22657,-0.5 -0.60937,-0.17187 -1.23437,-0.17187 -1.39844,0 -2.17188,0.89062 -0.77343,0.88282 -0.77343,2.48438 0,1.60156 0.77343,2.49219 0.77344,0.88281 2.17188,0.88281 0.625,0 1.23437,-0.16406 0.61719,-0.17188 1.22657,-0.50782 v 1.32813 q -0.60157,0.28125 -1.25,0.42187 -0.64063,0.14063 -1.36719,0.14063 -1.97656,0 -3.14063,-1.24219 -1.16406,-1.24219 -1.16406,-3.35156 0,-2.14063 1.17188,-3.36719 1.17968,-1.22656 3.22656,-1.22656 0.66406,0 1.29687,0.14062 0.63282,0.13282 1.22657,0.40625 z"
     id="path899860" /><path
     d="m 652.90021,149.88666 q -1.74219,0 -2.41406,0.39844 -0.67188,0.39843 -0.67188,1.35937 0,0.76563 0.5,1.21875 0.50781,0.44531 1.375,0.44531 1.19531,0 1.91406,-0.84375 0.72657,-0.85156 0.72657,-2.25781 v -0.32031 z m 2.86719,-0.59375 v 4.99219 h -1.4375 v -1.32813 q -0.49219,0.79688 -1.22657,1.17969 -0.73437,0.375 -1.79687,0.375 -1.34375,0 -2.14063,-0.75 -0.78906,-0.75781 -0.78906,-2.02344 0,-1.47656 0.98438,-2.22656 0.99218,-0.75 2.95312,-0.75 h 2.01563 v -0.14063 q 0,-0.99218 -0.65625,-1.53125 -0.64844,-0.54687 -1.82813,-0.54687 -0.75,0 -1.46094,0.17969 -0.71093,0.17968 -1.36718,0.53906 v -1.32813 q 0.78906,-0.30468 1.53125,-0.45312 0.74218,-0.15625 1.44531,-0.15625 1.89844,0 2.83594,0.98437 0.9375,0.98438 0.9375,2.98438 z"
     id="path899862" /><path
     d="m 660.15021,143.05072 v 2.48438 h 2.96094 v 1.11718 h -2.96094 v 4.75 q 0,1.07032 0.28906,1.375 0.29688,0.30469 1.19531,0.30469 h 1.47657 v 1.20313 h -1.47657 q -1.66406,0 -2.29687,-0.61719 -0.63281,-0.625 -0.63281,-2.26563 v -4.75 h -1.05469 v -1.11718 h 1.05469 v -2.48438 z"
     id="path899864" /><path
     d="m 665.00177,145.5351 h 1.4375 v 8.75 h -1.4375 z m 0,-3.40625 h 1.4375 v 1.82031 h -1.4375 z"
     id="path899866" /><path
     d="m 672.83771,146.54291 q -1.15625,0 -1.82813,0.90625 -0.67187,0.89844 -0.67187,2.46875 0,1.57031 0.66406,2.47656 0.67188,0.89844 1.83594,0.89844 1.14844,0 1.82031,-0.90625 0.67188,-0.90625 0.67188,-2.46875 0,-1.55469 -0.67188,-2.46094 -0.67187,-0.91406 -1.82031,-0.91406 z m 0,-1.21875 q 1.875,0 2.94531,1.21875 1.07031,1.21875 1.07031,3.375 0,2.14844 -1.07031,3.375 -1.07031,1.21875 -2.94531,1.21875 -1.88281,0 -2.95313,-1.21875 -1.0625,-1.22656 -1.0625,-3.375 0,-2.15625 1.0625,-3.375 1.07032,-1.21875 2.95313,-1.21875 z"
     id="path899868" /><path
     d="m 686.50958,149.00385 v 5.28125 h -1.4375 v -5.23438 q 0,-1.24219 -0.48437,-1.85937 -0.48438,-0.61719 -1.45313,-0.61719 -1.16406,0 -1.83593,0.74219 -0.67188,0.74218 -0.67188,2.02343 v 4.94532 h -1.44531 v -8.75 h 1.44531 v 1.35937 q 0.51563,-0.78906 1.21094,-1.17969 0.70312,-0.39062 1.61719,-0.39062 1.50781,0 2.28125,0.9375 0.77343,0.92969 0.77343,2.74219 z"
     id="path899870" /><path
     d="m 694.9549,145.79291 v 1.35937 q -0.60938,-0.3125 -1.26563,-0.46875 -0.65625,-0.15625 -1.35937,-0.15625 -1.07032,0 -1.60938,0.32813 -0.53125,0.32812 -0.53125,0.98437 0,0.5 0.38281,0.78907 0.38282,0.28125 1.53907,0.53906 l 0.49218,0.10937 q 1.53125,0.32813 2.17188,0.92969 0.64844,0.59375 0.64844,1.66406 0,1.21875 -0.96875,1.92969 -0.96094,0.71094 -2.64844,0.71094 -0.70313,0 -1.46875,-0.14063 -0.75781,-0.13281 -1.60156,-0.40625 v -1.48437 q 0.79687,0.41406 1.57031,0.625 0.77344,0.20312 1.53125,0.20312 1.01562,0 1.5625,-0.34375 0.54687,-0.35156 0.54687,-0.98437 0,-0.58594 -0.39843,-0.89844 -0.39063,-0.3125 -1.72657,-0.60156 l -0.5,-0.11719 q -1.33593,-0.28125 -1.92968,-0.85937 -0.59375,-0.58594 -0.59375,-1.60157 0,-1.23437 0.875,-1.90625 0.875,-0.67187 2.48437,-0.67187 0.79688,0 1.5,0.11719 0.70313,0.11718 1.29688,0.35156 z"
     id="path899872" /></g>
<g
   aria-label="Delivery"
   id="text54"
   class="st1 st2 st3"
   style="font-size:16px;font-family:GoogleSans-Medium;fill:#202124"><path
     d="m 498.95514,143.91791 v 9.07031 h 1.90625 q 2.41406,0 3.53125,-1.09375 1.125,-1.09375 1.125,-3.45312 0,-2.34375 -1.125,-3.42969 -1.11719,-1.09375 -3.53125,-1.09375 z m -1.57813,-1.29688 h 3.24219 q 3.39063,0 4.97656,1.41407 1.58594,1.40625 1.58594,4.40625 0,3.01562 -1.59375,4.42968 -1.59375,1.41407 -4.96875,1.41407 h -3.24219 z"
     id="path899875" /><path
     d="m 517.1192,149.55072 v 0.70313 h -6.60937 q 0.0937,1.48437 0.89062,2.26562 0.80469,0.77344 2.23438,0.77344 0.82812,0 1.60156,-0.20313 0.78125,-0.20312 1.54687,-0.60937 v 1.35937 q -0.77343,0.32813 -1.58593,0.5 -0.8125,0.17188 -1.64844,0.17188 -2.09375,0 -3.32031,-1.21875 -1.21875,-1.21875 -1.21875,-3.29688 0,-2.14843 1.15625,-3.40625 1.16406,-1.26562 3.13281,-1.26562 1.76562,0 2.78906,1.14062 1.03125,1.13282 1.03125,3.08594 z m -1.4375,-0.42187 q -0.0156,-1.17969 -0.66406,-1.88282 -0.64063,-0.70312 -1.70313,-0.70312 -1.20312,0 -1.92968,0.67969 -0.71875,0.67968 -0.82813,1.91406 z"
     id="path899877" /><path
     d="m 519.47858,142.12885 h 1.4375 v 12.15625 h -1.4375 z"
     id="path899879" /><path
     d="m 523.92389,145.5351 h 1.4375 v 8.75 h -1.4375 z m 0,-3.40625 h 1.4375 v 1.82031 h -1.4375 z"
     id="path899881" /><path
     d="m 527.33795,145.5351 h 1.52344 l 2.73437,7.34375 2.73438,-7.34375 h 1.52344 l -3.28125,8.75 h -1.95313 z"
     id="path899883" /><path
     d="m 545.32233,149.55072 v 0.70313 h -6.60938 q 0.0937,1.48437 0.89063,2.26562 0.80468,0.77344 2.23437,0.77344 0.82813,0 1.60156,-0.20313 0.78125,-0.20312 1.54688,-0.60937 v 1.35937 q -0.77344,0.32813 -1.58594,0.5 -0.8125,0.17188 -1.64844,0.17188 -2.09375,0 -3.32031,-1.21875 -1.21875,-1.21875 -1.21875,-3.29688 0,-2.14843 1.15625,-3.40625 1.16406,-1.26562 3.13281,-1.26562 1.76563,0 2.78907,1.14062 1.03125,1.13282 1.03125,3.08594 z m -1.4375,-0.42187 q -0.0156,-1.17969 -0.66407,-1.88282 -0.64062,-0.70312 -1.70312,-0.70312 -1.20313,0 -1.92969,0.67969 -0.71875,0.67968 -0.82812,1.91406 z"
     id="path899885" /><path
     d="m 552.75201,146.87885 q -0.24218,-0.14063 -0.53125,-0.20313 -0.28125,-0.0703 -0.625,-0.0703 -1.21875,0 -1.875,0.79687 -0.64843,0.78907 -0.64843,2.27344 v 4.60938 h -1.44532 v -8.75 h 1.44532 v 1.35937 q 0.45312,-0.79687 1.17968,-1.17969 0.72657,-0.39062 1.76563,-0.39062 0.14844,0 0.32812,0.0234 0.17969,0.0156 0.39844,0.0547 z"
     id="path899887" /><path
     d="m 557.90045,155.0976 q -0.60937,1.5625 -1.1875,2.03906 -0.57812,0.47656 -1.54687,0.47656 h -1.14844 v -1.20312 h 0.84375 q 0.59375,0 0.92187,-0.28125 0.32813,-0.28125 0.72657,-1.32813 l 0.25781,-0.65625 -3.53906,-8.60937 h 1.52343 l 2.73438,6.84375 2.73437,-6.84375 h 1.52344 z"
     id="path899889" /></g>
<g
   aria-label="Product catalog"
   id="text56"
   class="st1 st2 st3"
   style="font-size:16px;font-family:GoogleSans-Medium;fill:#202124"><path
     d="m 586.94073,174.91791 v 4.38281 h 1.98438 q 1.10156,0 1.70312,-0.57031 0.60157,-0.57031 0.60157,-1.625 0,-1.04688 -0.60157,-1.61719 -0.60156,-0.57031 -1.70312,-0.57031 z m -1.57812,-1.29688 h 3.5625 q 1.96094,0 2.96094,0.89063 1.00781,0.88281 1.00781,2.59375 0,1.72656 -1.00781,2.60937 -1,0.88282 -2.96094,0.88282 h -1.98438 v 4.6875 h -1.57812 z"
     id="path899892" /><path
     d="m 599.73761,177.87885 q -0.24219,-0.14063 -0.53125,-0.20313 -0.28125,-0.0703 -0.625,-0.0703 -1.21875,0 -1.875,0.79687 -0.64844,0.78907 -0.64844,2.27344 v 4.60938 h -1.44531 v -8.75 h 1.44531 v 1.35937 q 0.45313,-0.79687 1.17969,-1.17969 0.72656,-0.39062 1.76562,-0.39062 0.14844,0 0.32813,0.0234 0.17969,0.0156 0.39844,0.0547 z"
     id="path899894" /><path
     d="m 604.28448,177.54291 q -1.15625,0 -1.82812,0.90625 -0.67188,0.89844 -0.67188,2.46875 0,1.57031 0.66407,2.47656 0.67187,0.89844 1.83593,0.89844 1.14844,0 1.82032,-0.90625 0.67187,-0.90625 0.67187,-2.46875 0,-1.55469 -0.67187,-2.46094 -0.67188,-0.91406 -1.82032,-0.91406 z m 0,-1.21875 q 1.875,0 2.94532,1.21875 1.07031,1.21875 1.07031,3.375 0,2.14844 -1.07031,3.375 -1.07032,1.21875 -2.94532,1.21875 -1.88281,0 -2.95312,-1.21875 -1.0625,-1.22656 -1.0625,-3.375 0,-2.15625 1.0625,-3.375 1.07031,-1.21875 2.95312,-1.21875 z"
     id="path899896" /><path
     d="m 616.44073,177.86322 v -4.73437 h 1.4375 v 12.15625 h -1.4375 v -1.3125 q -0.45312,0.78125 -1.14843,1.16406 -0.6875,0.375 -1.65625,0.375 -1.58594,0 -2.58594,-1.26563 -0.99219,-1.26562 -0.99219,-3.32812 0,-2.0625 0.99219,-3.32813 1,-1.26562 2.58594,-1.26562 0.96875,0 1.65625,0.38281 0.69531,0.375 1.14843,1.15625 z m -4.89843,3.05469 q 0,1.58594 0.64843,2.49219 0.65625,0.89843 1.79688,0.89843 1.14062,0 1.79687,-0.89843 0.65625,-0.90625 0.65625,-2.49219 0,-1.58594 -0.65625,-2.48438 -0.65625,-0.90625 -1.79687,-0.90625 -1.14063,0 -1.79688,0.90625 -0.64843,0.89844 -0.64843,2.48438 z"
     id="path899898" /><path
     d="m 620.69073,181.83197 v -5.29687 h 1.4375 v 5.24218 q 0,1.24219 0.48438,1.86719 0.48437,0.61719 1.45312,0.61719 1.16407,0 1.83594,-0.74219 0.67969,-0.74219 0.67969,-2.02344 v -4.96093 h 1.4375 v 8.75 h -1.4375 v -1.34375 q -0.52344,0.79687 -1.21875,1.1875 -0.6875,0.38281 -1.60156,0.38281 -1.50782,0 -2.28907,-0.9375 -0.78125,-0.9375 -0.78125,-2.74219 z m 3.61719,-5.50781 z"
     id="path899900" /><path
     d="m 637.27667,176.87103 v 1.34375 q -0.60937,-0.33593 -1.22656,-0.5 -0.60938,-0.17187 -1.23438,-0.17187 -1.39843,0 -2.17187,0.89062 -0.77344,0.88282 -0.77344,2.48438 0,1.60156 0.77344,2.49219 0.77344,0.88281 2.17187,0.88281 0.625,0 1.23438,-0.16406 0.61719,-0.17188 1.22656,-0.50782 v 1.32813 q -0.60156,0.28125 -1.25,0.42187 -0.64062,0.14063 -1.36719,0.14063 -1.97656,0 -3.14062,-1.24219 -1.16406,-1.24219 -1.16406,-3.35156 0,-2.14063 1.17187,-3.36719 1.17969,-1.22656 3.22656,-1.22656 0.66407,0 1.29688,0.14062 0.63281,0.13282 1.22656,0.40625 z"
     id="path899902" /><path
     d="m 641.19855,174.05072 v 2.48438 h 2.96093 v 1.11718 h -2.96093 v 4.75 q 0,1.07032 0.28906,1.375 0.29687,0.30469 1.19531,0.30469 h 1.47656 v 1.20313 h -1.47656 q -1.66406,0 -2.29687,-0.61719 -0.63282,-0.625 -0.63282,-2.26563 v -4.75 h -1.05468 v -1.11718 h 1.05468 v -2.48438 z"
     id="path899904" /><path
     d="m 657.43292,176.87103 v 1.34375 q -0.60937,-0.33593 -1.22656,-0.5 -0.60938,-0.17187 -1.23438,-0.17187 -1.39843,0 -2.17187,0.89062 -0.77344,0.88282 -0.77344,2.48438 0,1.60156 0.77344,2.49219 0.77344,0.88281 2.17187,0.88281 0.625,0 1.23438,-0.16406 0.61719,-0.17188 1.22656,-0.50782 v 1.32813 q -0.60156,0.28125 -1.25,0.42187 -0.64062,0.14063 -1.36719,0.14063 -1.97656,0 -3.14062,-1.24219 -1.16406,-1.24219 -1.16406,-3.35156 0,-2.14063 1.17187,-3.36719 1.17969,-1.22656 3.22656,-1.22656 0.66407,0 1.29688,0.14062 0.63281,0.13282 1.22656,0.40625 z"
     id="path899906" /><path
     d="m 663.90948,180.88666 q -1.74218,0 -2.41406,0.39844 -0.67187,0.39843 -0.67187,1.35937 0,0.76563 0.5,1.21875 0.50781,0.44531 1.375,0.44531 1.19531,0 1.91406,-0.84375 0.72656,-0.85156 0.72656,-2.25781 v -0.32031 z m 2.86719,-0.59375 v 4.99219 h -1.4375 v -1.32813 q -0.49219,0.79688 -1.22656,1.17969 -0.73438,0.375 -1.79688,0.375 -1.34375,0 -2.14062,-0.75 -0.78906,-0.75781 -0.78906,-2.02344 0,-1.47656 0.98437,-2.22656 0.99219,-0.75 2.95313,-0.75 h 2.01562 v -0.14063 q 0,-0.99218 -0.65625,-1.53125 -0.64844,-0.54687 -1.82812,-0.54687 -0.75,0 -1.46094,0.17969 -0.71094,0.17968 -1.36719,0.53906 v -1.32813 q 0.78906,-0.30468 1.53125,-0.45312 0.74219,-0.15625 1.44531,-0.15625 1.89844,0 2.83594,0.98437 0.9375,0.98438 0.9375,2.98438 z"
     id="path899908" /><path
     d="m 671.15948,174.05072 v 2.48438 h 2.96094 v 1.11718 h -2.96094 v 4.75 q 0,1.07032 0.28907,1.375 0.29687,0.30469 1.19531,0.30469 h 1.47656 v 1.20313 h -1.47656 q -1.66406,0 -2.29688,-0.61719 -0.63281,-0.625 -0.63281,-2.26563 v -4.75 h -1.05469 v -1.11718 h 1.05469 v -2.48438 z"
     id="path899910" /><path
     d="m 679.98761,180.88666 q -1.74219,0 -2.41406,0.39844 -0.67188,0.39843 -0.67188,1.35937 0,0.76563 0.5,1.21875 0.50781,0.44531 1.375,0.44531 1.19531,0 1.91406,-0.84375 0.72657,-0.85156 0.72657,-2.25781 v -0.32031 z m 2.86719,-0.59375 v 4.99219 h -1.4375 v -1.32813 q -0.49219,0.79688 -1.22657,1.17969 -0.73437,0.375 -1.79687,0.375 -1.34375,0 -2.14063,-0.75 -0.78906,-0.75781 -0.78906,-2.02344 0,-1.47656 0.98438,-2.22656 0.99218,-0.75 2.95312,-0.75 h 2.01563 v -0.14063 q 0,-0.99218 -0.65625,-1.53125 -0.64844,-0.54687 -1.82813,-0.54687 -0.75,0 -1.46094,0.17969 -0.71093,0.17968 -1.36718,0.53906 v -1.32813 q 0.78906,-0.30468 1.53125,-0.45312 0.74218,-0.15625 1.44531,-0.15625 1.89844,0 2.83594,0.98437 0.9375,0.98438 0.9375,2.98438 z"
     id="path899912" /><path
     d="m 685.81573,173.12885 h 1.4375 v 12.15625 h -1.4375 z"
     id="path899914" /><path
     d="m 693.65167,177.54291 q -1.15625,0 -1.82812,0.90625 -0.67188,0.89844 -0.67188,2.46875 0,1.57031 0.66406,2.47656 0.67188,0.89844 1.83594,0.89844 1.14844,0 1.82031,-0.90625 0.67188,-0.90625 0.67188,-2.46875 0,-1.55469 -0.67188,-2.46094 -0.67187,-0.91406 -1.82031,-0.91406 z m 0,-1.21875 q 1.875,0 2.94531,1.21875 1.07032,1.21875 1.07032,3.375 0,2.14844 -1.07032,3.375 -1.07031,1.21875 -2.94531,1.21875 -1.88281,0 -2.95312,-1.21875 -1.0625,-1.22656 -1.0625,-3.375 0,-2.15625 1.0625,-3.375 1.07031,-1.21875 2.95312,-1.21875 z"
     id="path899916" /><path
     d="m 705.80792,180.80853 q 0,-1.5625 -0.64844,-2.42187 -0.64062,-0.85938 -1.80468,-0.85938 -1.15625,0 -1.80469,0.85938 -0.64063,0.85937 -0.64063,2.42187 0,1.55469 0.64063,2.41407 0.64844,0.85937 1.80469,0.85937 1.16406,0 1.80468,-0.85937 0.64844,-0.85938 0.64844,-2.41407 z m 1.4375,3.39063 q 0,2.23437 -0.99219,3.32031 -0.99218,1.09375 -3.03906,1.09375 -0.75781,0 -1.42969,-0.11719 -0.67187,-0.10937 -1.30468,-0.34375 v -1.39843 q 0.63281,0.34375 1.25,0.50781 0.61718,0.16406 1.25781,0.16406 1.41406,0 2.11719,-0.74219 0.70312,-0.73437 0.70312,-2.22656 v -0.71094 q -0.44531,0.77344 -1.14062,1.15625 -0.69532,0.38282 -1.66407,0.38282 -1.60937,0 -2.59375,-1.22657 -0.98437,-1.22656 -0.98437,-3.25 0,-2.03125 0.98437,-3.25781 0.98438,-1.22656 2.59375,-1.22656 0.96875,0 1.66407,0.38281 0.69531,0.38281 1.14062,1.15625 v -1.32812 h 1.4375 z"
     id="path899918" /></g>
<g
   aria-label="Payment"
   id="text58"
   class="st1 st2 st3"
   style="font-size:16px;font-family:GoogleSans-Medium;fill:#202124"><path
     d="m 496.80322,174.91791 v 4.38281 h 1.98438 q 1.10156,0 1.70312,-0.57031 0.60157,-0.57031 0.60157,-1.625 0,-1.04688 -0.60157,-1.61719 -0.60156,-0.57031 -1.70312,-0.57031 z m -1.57812,-1.29688 h 3.5625 q 1.96094,0 2.96094,0.89063 1.00781,0.88281 1.00781,2.59375 0,1.72656 -1.00781,2.60937 -1,0.88282 -2.96094,0.88282 h -1.98438 v 4.6875 h -1.57812 z"
     id="path899921" /><path
     d="m 508.06885,180.88666 q -1.74219,0 -2.41406,0.39844 -0.67188,0.39843 -0.67188,1.35937 0,0.76563 0.5,1.21875 0.50781,0.44531 1.375,0.44531 1.19531,0 1.91406,-0.84375 0.72657,-0.85156 0.72657,-2.25781 v -0.32031 z m 2.86719,-0.59375 v 4.99219 h -1.4375 v -1.32813 q -0.49219,0.79688 -1.22657,1.17969 -0.73437,0.375 -1.79687,0.375 -1.34375,0 -2.14063,-0.75 -0.78906,-0.75781 -0.78906,-2.02344 0,-1.47656 0.98438,-2.22656 0.99218,-0.75 2.95312,-0.75 h 2.01563 v -0.14063 q 0,-0.99218 -0.65625,-1.53125 -0.64844,-0.54687 -1.82813,-0.54687 -0.75,0 -1.46094,0.17969 -0.71093,0.17968 -1.36718,0.53906 v -1.32813 q 0.78906,-0.30468 1.53125,-0.45312 0.74218,-0.15625 1.44531,-0.15625 1.89844,0 2.83594,0.98437 0.9375,0.98438 0.9375,2.98438 z"
     id="path899923" /><path
     d="m 517.5376,186.0976 q -0.60938,1.5625 -1.1875,2.03906 -0.57813,0.47656 -1.54688,0.47656 h -1.14843 v -1.20312 h 0.84375 q 0.59375,0 0.92187,-0.28125 0.32813,-0.28125 0.72656,-1.32813 l 0.25782,-0.65625 -3.53907,-8.60937 h 1.52344 l 2.73438,6.84375 2.73437,-6.84375 h 1.52344 z"
     id="path899925" /><path
     d="m 530.17822,178.21478 q 0.53907,-0.96875 1.28907,-1.42968 0.75,-0.46094 1.76562,-0.46094 1.36719,0 2.10938,0.96094 0.74218,0.95312 0.74218,2.71875 v 5.28125 h -1.44531 v -5.23438 q 0,-1.25781 -0.44531,-1.86719 -0.44531,-0.60937 -1.35938,-0.60937 -1.11718,0 -1.76562,0.74219 -0.64844,0.74218 -0.64844,2.02343 v 4.94532 h -1.44531 v -5.23438 q 0,-1.26562 -0.44531,-1.86719 -0.44532,-0.60937 -1.375,-0.60937 -1.10157,0 -1.75,0.75 -0.64844,0.74219 -0.64844,2.01562 v 4.94532 h -1.44531 v -8.75 h 1.44531 v 1.35937 q 0.49219,-0.80469 1.17969,-1.1875 0.6875,-0.38281 1.63281,-0.38281 0.95312,0 1.61719,0.48437 0.67187,0.48438 0.99218,1.40625 z"
     id="path899927" /><path
     d="m 546.43604,180.55072 v 0.70313 h -6.60938 q 0.0937,1.48437 0.89063,2.26562 0.80468,0.77344 2.23437,0.77344 0.82813,0 1.60156,-0.20313 0.78125,-0.20312 1.54688,-0.60937 v 1.35937 q -0.77344,0.32813 -1.58594,0.5 -0.8125,0.17188 -1.64844,0.17188 -2.09375,0 -3.32031,-1.21875 -1.21875,-1.21875 -1.21875,-3.29688 0,-2.14843 1.15625,-3.40625 1.16406,-1.26562 3.13281,-1.26562 1.76563,0 2.78907,1.14062 1.03125,1.13282 1.03125,3.08594 z m -1.4375,-0.42187 q -0.0156,-1.17969 -0.66407,-1.88282 -0.64062,-0.70312 -1.70312,-0.70312 -1.20313,0 -1.92969,0.67969 -0.71875,0.67968 -0.82812,1.91406 z"
     id="path899929" /><path
     d="m 556.06885,180.00385 v 5.28125 h -1.4375 v -5.23438 q 0,-1.24219 -0.48438,-1.85937 -0.48437,-0.61719 -1.45312,-0.61719 -1.16406,0 -1.83594,0.74219 -0.67187,0.74218 -0.67187,2.02343 v 4.94532 h -1.44532 v -8.75 h 1.44532 v 1.35937 q 0.51562,-0.78906 1.21093,-1.17969 0.70313,-0.39062 1.61719,-0.39062 1.50781,0 2.28125,0.9375 0.77344,0.92969 0.77344,2.74219 z"
     id="path899931" /><path
     d="m 560.35791,174.05072 v 2.48438 h 2.96094 v 1.11718 h -2.96094 v 4.75 q 0,1.07032 0.28906,1.375 0.29688,0.30469 1.19532,0.30469 h 1.47656 v 1.20313 h -1.47656 q -1.66407,0 -2.29688,-0.61719 -0.63281,-0.625 -0.63281,-2.26563 v -4.75 h -1.05469 v -1.11718 h 1.05469 v -2.48438 z"
     id="path899933" /></g>
<g
   aria-label="Inventory"
   id="text60"
   class="st1 st2 st3"
   style="font-size:16px;font-family:GoogleSans-Medium;fill:#202124"><path
     d="m 730.78253,142.62103 h 1.57813 v 11.66407 h -1.57813 z"
     id="path899936" /><path
     d="m 742.71222,149.00385 v 5.28125 h -1.4375 v -5.23438 q 0,-1.24219 -0.48438,-1.85937 -0.48437,-0.61719 -1.45312,-0.61719 -1.16406,0 -1.83594,0.74219 -0.67187,0.74218 -0.67187,2.02343 v 4.94532 h -1.44532 v -8.75 h 1.44532 v 1.35937 q 0.51562,-0.78906 1.21093,-1.17969 0.70313,-0.39062 1.61719,-0.39062 1.50781,0 2.28125,0.9375 0.77344,0.92969 0.77344,2.74219 z"
     id="path899938" /><path
     d="m 744.54816,145.5351 h 1.52343 l 2.73438,7.34375 2.73437,-7.34375 h 1.52344 l -3.28125,8.75 h -1.95312 z"
     id="path899940" /><path
     d="m 762.53253,149.55072 v 0.70313 h -6.60937 q 0.0937,1.48437 0.89062,2.26562 0.80469,0.77344 2.23438,0.77344 0.82812,0 1.60156,-0.20313 0.78125,-0.20312 1.54687,-0.60937 v 1.35937 q -0.77343,0.32813 -1.58593,0.5 -0.8125,0.17188 -1.64844,0.17188 -2.09375,0 -3.32031,-1.21875 -1.21875,-1.21875 -1.21875,-3.29688 0,-2.14843 1.15625,-3.40625 1.16406,-1.26562 3.13281,-1.26562 1.76562,0 2.78906,1.14062 1.03125,1.13282 1.03125,3.08594 z m -1.4375,-0.42187 q -0.0156,-1.17969 -0.66406,-1.88282 -0.64063,-0.70312 -1.70313,-0.70312 -1.20312,0 -1.92968,0.67969 -0.71875,0.67968 -0.82813,1.91406 z"
     id="path899942" /><path
     d="m 772.16534,149.00385 v 5.28125 h -1.4375 v -5.23438 q 0,-1.24219 -0.48437,-1.85937 -0.48438,-0.61719 -1.45313,-0.61719 -1.16406,0 -1.83593,0.74219 -0.67188,0.74218 -0.67188,2.02343 v 4.94532 h -1.44531 v -8.75 h 1.44531 v 1.35937 q 0.51563,-0.78906 1.21094,-1.17969 0.70312,-0.39062 1.61719,-0.39062 1.50781,0 2.28125,0.9375 0.77343,0.92969 0.77343,2.74219 z"
     id="path899944" /><path
     d="m 776.45441,143.05072 v 2.48438 h 2.96093 v 1.11718 h -2.96093 v 4.75 q 0,1.07032 0.28906,1.375 0.29687,0.30469 1.19531,0.30469 h 1.47656 v 1.20313 h -1.47656 q -1.66406,0 -2.29687,-0.61719 -0.63282,-0.625 -0.63282,-2.26563 v -4.75 h -1.05468 v -1.11718 h 1.05468 v -2.48438 z"
     id="path899946" /><path
     d="m 784.69659,146.54291 q -1.15625,0 -1.82812,0.90625 -0.67188,0.89844 -0.67188,2.46875 0,1.57031 0.66407,2.47656 0.67187,0.89844 1.83593,0.89844 1.14844,0 1.82032,-0.90625 0.67187,-0.90625 0.67187,-2.46875 0,-1.55469 -0.67187,-2.46094 -0.67188,-0.91406 -1.82032,-0.91406 z m 0,-1.21875 q 1.875,0 2.94532,1.21875 1.07031,1.21875 1.07031,3.375 0,2.14844 -1.07031,3.375 -1.07032,1.21875 -2.94532,1.21875 -1.88281,0 -2.95312,-1.21875 -1.0625,-1.22656 -1.0625,-3.375 0,-2.15625 1.0625,-3.375 1.07031,-1.21875 2.95312,-1.21875 z"
     id="path899948" /><path
     d="m 796.16534,146.87885 q -0.24218,-0.14063 -0.53125,-0.20313 -0.28125,-0.0703 -0.625,-0.0703 -1.21875,0 -1.875,0.79687 -0.64843,0.78907 -0.64843,2.27344 v 4.60938 h -1.44532 v -8.75 h 1.44532 v 1.35937 q 0.45312,-0.79687 1.17968,-1.17969 0.72657,-0.39062 1.76563,-0.39062 0.14844,0 0.32812,0.0234 0.17969,0.0156 0.39844,0.0547 z"
     id="path899950" /><path
     d="m 801.31378,155.0976 q -0.60937,1.5625 -1.1875,2.03906 -0.57812,0.47656 -1.54687,0.47656 h -1.14844 v -1.20312 h 0.84375 q 0.59375,0 0.92187,-0.28125 0.32813,-0.28125 0.72657,-1.32813 l 0.25781,-0.65625 -3.53906,-8.60937 h 1.52343 l 2.73438,6.84375 2.73437,-6.84375 h 1.52344 z"
     id="path899952" /></g>
<g
   aria-label="Ads"
   id="text62"
   class="st1 st2 st3"
   style="font-size:16px;font-family:GoogleSans-Medium;fill:#202124"><path
     d="m 756.34454,175.17572 -2.14062,5.80469 h 4.28906 z m -0.89062,-1.55469 h 1.78906 l 4.44531,11.66407 h -1.64062 l -1.0625,-2.99219 h -5.25781 l -1.0625,2.99219 h -1.66407 z"
     id="path899955" /><path
     d="m 768.80548,177.86322 v -4.73437 h 1.4375 v 12.15625 h -1.4375 v -1.3125 q -0.45312,0.78125 -1.14844,1.16406 -0.6875,0.375 -1.65625,0.375 -1.58593,0 -2.58593,-1.26563 -0.99219,-1.26562 -0.99219,-3.32812 0,-2.0625 0.99219,-3.32813 1,-1.26562 2.58593,-1.26562 0.96875,0 1.65625,0.38281 0.69532,0.375 1.14844,1.15625 z m -4.89844,3.05469 q 0,1.58594 0.64844,2.49219 0.65625,0.89843 1.79688,0.89843 1.14062,0 1.79687,-0.89843 0.65625,-0.90625 0.65625,-2.49219 0,-1.58594 -0.65625,-2.48438 -0.65625,-0.90625 -1.79687,-0.90625 -1.14063,0 -1.79688,0.90625 -0.64844,0.89844 -0.64844,2.48438 z"
     id="path899957" /><path
     d="m 778.78204,176.79291 v 1.35937 q -0.60937,-0.3125 -1.26562,-0.46875 -0.65625,-0.15625 -1.35938,-0.15625 -1.07031,0 -1.60937,0.32813 -0.53125,0.32812 -0.53125,0.98437 0,0.5 0.38281,0.78907 0.38281,0.28125 1.53906,0.53906 l 0.49219,0.10937 q 1.53125,0.32813 2.17188,0.92969 0.64843,0.59375 0.64843,1.66406 0,1.21875 -0.96875,1.92969 -0.96093,0.71094 -2.64843,0.71094 -0.70313,0 -1.46875,-0.14063 -0.75782,-0.13281 -1.60157,-0.40625 v -1.48437 q 0.79688,0.41406 1.57032,0.625 0.77343,0.20312 1.53125,0.20312 1.01562,0 1.5625,-0.34375 0.54687,-0.35156 0.54687,-0.98437 0,-0.58594 -0.39844,-0.89844 -0.39062,-0.3125 -1.72656,-0.60156 l -0.5,-0.11719 q -1.33594,-0.28125 -1.92969,-0.85937 -0.59375,-0.58594 -0.59375,-1.60157 0,-1.23437 0.875,-1.90625 0.875,-0.67187 2.48438,-0.67187 0.79687,0 1.5,0.11719 0.70312,0.11718 1.29687,0.35156 z"
     id="path899959" /></g>
<g
   transform="translate(-26,-67.900002)"
   id="g72">
	<g
   id="g70">
		<path
   id="line64"
   class="st5"
   style="fill:none;stroke:#4285f4;stroke-miterlimit:10"
   d="m 126,297.60001 h 58.8" />
		<g
   id="g68">
			<path
   id="polygon66"
   class="st6"
   style="fill:#4285f4"
   d="m 192,297.6 -8.6,-5 v 10 z" />
		</g>
	</g>
</g>
<rect
   id="rect74"
   height="84.599998"
   width="75.5"
   class="st0"
   y="187.39999"
   x="24.5" />
<path
   id="path76"
   d="m 62.2,222.1 c -10.1,0 -18.3,8.2 -18.3,18.3 0,10.1 8.2,18.3 18.3,18.3 10.1,0 18.3,-8.2 18.3,-18.3 0,-10.1 -8.2,-18.3 -18.3,-18.3 z m 0,5.4 c 3,0 5.5,2.5 5.5,5.5 0,3 -2.5,5.5 -5.5,5.5 -3,0 -5.5,-2.5 -5.5,-5.5 0,-3 2.5,-5.5 5.5,-5.5 z m 0,26 c -4.6,0 -8.6,-2.3 -10.9,-5.9 0.1,-3.6 7.3,-5.6 10.9,-5.6 3.6,0 10.9,2 10.9,5.6 -2.2,3.6 -6.3,5.9 -10.9,5.9 z"
   class="st1" />
<g
   aria-label="Users"
   id="text78"
   class="st11 st2 st3"
   style="font-size:16px;font-family:GoogleSans-Medium;fill:#3b4043"><path
     d="m 35.142326,196.56973 h 1.585938 v 7.08594 q 0,1.875 0.679687,2.70313 0.679688,0.82031 2.203125,0.82031 1.515625,0 2.195313,-0.82031 0.679687,-0.82813 0.679687,-2.70313 v -7.08594 h 1.585938 v 7.28125 q 0,2.28125 -1.132813,3.44532 -1.125,1.16406 -3.328125,1.16406 -2.210937,0 -3.34375,-1.16406 -1.125,-1.16407 -1.125,-3.44532 z"
     id="path899964" /><path
     d="m 52.548576,199.74161 v 1.35937 q -0.609375,-0.3125 -1.265625,-0.46875 -0.65625,-0.15625 -1.359375,-0.15625 -1.070312,0 -1.609375,0.32813 -0.53125,0.32812 -0.53125,0.98437 0,0.5 0.382813,0.78907 0.382812,0.28125 1.539062,0.53906 l 0.492188,0.10937 q 1.53125,0.32813 2.171875,0.92969 0.648437,0.59375 0.648437,1.66406 0,1.21875 -0.96875,1.92969 -0.960937,0.71094 -2.648437,0.71094 -0.703125,0 -1.46875,-0.14063 -0.757813,-0.13281 -1.601563,-0.40625 v -1.48437 q 0.796875,0.41406 1.570313,0.625 0.773437,0.20312 1.53125,0.20312 1.015625,0 1.5625,-0.34375 0.546875,-0.35156 0.546875,-0.98437 0,-0.58594 -0.398438,-0.89844 -0.390625,-0.3125 -1.726562,-0.60156 l -0.5,-0.11719 q -1.335938,-0.28125 -1.929688,-0.85937 -0.59375,-0.58594 -0.59375,-1.60157 0,-1.23437 0.875,-1.90625 0.875,-0.67187 2.484375,-0.67187 0.796875,0 1.5,0.11719 0.703125,0.11718 1.296875,0.35156 z"
     id="path899966" /><path
     d="m 62.790764,203.49942 v 0.70313 h -6.609375 q 0.09375,1.48437 0.890625,2.26562 0.804687,0.77344 2.234375,0.77344 0.828125,0 1.601562,-0.20313 0.78125,-0.20312 1.546875,-0.60937 v 1.35937 q -0.773437,0.32813 -1.585937,0.5 -0.8125,0.17188 -1.648438,0.17188 -2.09375,0 -3.320312,-1.21875 -1.21875,-1.21875 -1.21875,-3.29688 0,-2.14843 1.15625,-3.40625 1.164062,-1.26562 3.132812,-1.26562 1.765625,0 2.789063,1.14062 1.03125,1.13282 1.03125,3.08594 z m -1.4375,-0.42187 q -0.01563,-1.17969 -0.664063,-1.88282 -0.640625,-0.70312 -1.703125,-0.70312 -1.203125,0 -1.929687,0.67969 -0.71875,0.67968 -0.828125,1.91406 z"
     id="path899968" /><path
     d="m 70.220451,200.82755 q -0.242187,-0.14063 -0.53125,-0.20313 -0.28125,-0.0703 -0.625,-0.0703 -1.21875,0 -1.875,0.79687 -0.648437,0.78907 -0.648437,2.27344 v 4.60938 h -1.445313 v -8.75 h 1.445313 v 1.35937 q 0.453125,-0.79687 1.179687,-1.17969 0.726563,-0.39062 1.765625,-0.39062 0.148438,0 0.328125,0.0234 0.179688,0.0156 0.398438,0.0547 z"
     id="path899970" /><path
     d="m 77.306389,199.74161 v 1.35937 q -0.609375,-0.3125 -1.265625,-0.46875 -0.65625,-0.15625 -1.359375,-0.15625 -1.070313,0 -1.609375,0.32813 -0.53125,0.32812 -0.53125,0.98437 0,0.5 0.382812,0.78907 0.382813,0.28125 1.539063,0.53906 l 0.492187,0.10937 q 1.53125,0.32813 2.171875,0.92969 0.648438,0.59375 0.648438,1.66406 0,1.21875 -0.96875,1.92969 -0.960938,0.71094 -2.648438,0.71094 -0.703125,0 -1.46875,-0.14063 -0.757812,-0.13281 -1.601562,-0.40625 v -1.48437 q 0.796875,0.41406 1.570312,0.625 0.773438,0.20312 1.53125,0.20312 1.015625,0 1.5625,-0.34375 0.546875,-0.35156 0.546875,-0.98437 0,-0.58594 -0.398437,-0.89844 -0.390625,-0.3125 -1.726563,-0.60156 l -0.5,-0.11719 q -1.335937,-0.28125 -1.929687,-0.85937 -0.59375,-0.58594 -0.59375,-1.60157 0,-1.23437 0.875,-1.90625 0.875,-0.67187 2.484375,-0.67187 0.796875,0 1.5,0.11719 0.703125,0.11718 1.296875,0.35156 z"
     id="path899972" /></g>
<g
   transform="translate(-26,-67.900002)"
   id="g88">
	<g
   id="g86">
		<path
   id="line80"
   class="st5"
   style="fill:none;stroke:#4285f4;stroke-miterlimit:10"
   d="M 672,459.20001 V 400.29999" />
		<g
   id="g84">
			<path
   id="polygon82"
   class="st6"
   style="fill:#4285f4"
   d="m 672,393.1 -5,8.7 h 10 z" />
		</g>
	</g>
</g>
<g
   transform="translate(-26,-67.900002)"
   id="g98">
	<g
   id="g96">
		<path
   id="line90"
   class="st5"
   style="fill:none;stroke:#4285f4;stroke-miterlimit:10"
   d="m 672,350.20001 v -70.5" />
		<g
   id="g94">
			<path
   id="polygon92"
   class="st6"
   style="fill:#4285f4"
   d="m 672,272.5 -5,8.6 h 10 z" />
		</g>
	</g>
</g>
<g
   transform="translate(-26,-67.900002)"
   id="g108">
	<g
   id="g106">
		<path
   id="line100"
   class="st5"
   style="fill:none;stroke:#4285f4;stroke-miterlimit:10"
   d="M 672,132.10001 V 151.5" />
		<g
   id="g104">
			<path
   id="polygon102"
   class="st6"
   style="fill:#4285f4"
   d="m 672,158.7 5,-8.7 h -10 z" />
		</g>
	</g>
</g>
<g
   transform="translate(-26,-67.900002)"
   id="g118">
	<g
   id="g116">
		<path
   id="line110"
   class="st5"
   style="fill:none;stroke:#4285f4;stroke-miterlimit:10"
   d="m 1008,215.2 v 50.90001" />
		<g
   id="g114">
			<path
   id="polygon112"
   class="st6"
   style="fill:#4285f4"
   d="m 1008,273.2 5,-8.6 h -10 z" />
		</g>
	</g>
</g>
<g
   transform="translate(-26,-67.900002)"
   id="g128">
	<g
   id="g126">
		<path
   id="line120"
   class="st5"
   style="fill:none;stroke:#4285f4;stroke-miterlimit:10"
   d="M 316.10001,215 H 472.79999" />
		<g
   id="g124">
			<path
   id="polygon122"
   class="st6"
   style="fill:#4285f4"
   d="m 480,215 -8.6,-5 v 10 z" />
		</g>
	</g>
</g>
<line
   id="line130"
   y2="147.29999"
   x2="290.10001"
   y1="208.10001"
   x1="290.10001"
   class="st5" />
<line
   id="line132"
   y2="64.599998"
   x2="646"
   y1="64.599998"
   x1="404.60001"
   class="st5" />
<line
   id="line134"
   y2="147.29999"
   x2="982.09998"
   y1="147.29999"
   x1="838"
   class="st5" />
<g
   transform="translate(-26,-67.900002)"
   id="g142">
	<path
   id="rect136"
   class="st0"
   style="fill:#ffffff;stroke:#202124;stroke-miterlimit:10"
   d="m 622.59998,457.39999 h 98.9 v 84.6 h -98.9 z" />
	<path
   id="path138"
   d="m 671.3,492 c -10.1,0 -18.3,8.2 -18.3,18.3 0,10.1 8.2,18.3 18.3,18.3 10.1,0 18.3,-8.2 18.3,-18.3 0,-10.1 -8.3,-18.3 -18.3,-18.3 z m 0,5.5 c 3,0 5.5,2.5 5.5,5.5 0,3 -2.5,5.5 -5.5,5.5 -3,0 -5.5,-2.5 -5.5,-5.5 0,-3 2.4,-5.5 5.5,-5.5 z m 0,25.9 c -4.6,0 -8.6,-2.3 -10.9,-5.9 0.1,-3.6 7.3,-5.6 10.9,-5.6 3.6,0 10.9,2 10.9,5.6 -2.3,3.6 -6.4,5.9 -10.9,5.9 z"
   class="st1" />
	<g
   aria-label="3rd parties"
   transform="translate(631.4322,478.441)"
   id="text140"
   class="st11 st2 st3"
   style="font-size:16px;font-family:GoogleSans-Medium;fill:#3b4043"><path
     d="M 6.4921875,-6.2890625 Q 7.625,-6.046875 8.2578125,-5.28125 q 0.640625,0.765625 0.640625,1.890625 0,1.7265625 -1.1875,2.671875 -1.1875,0.9453125 -3.375,0.9453125 -0.734375,0 -1.515625,-0.1484375 Q 2.046875,-0.0625 1.21875,-0.3515625 V -1.875 q 0.65625,0.3828125 1.4375,0.578125 0.78125,0.1953125 1.6328125,0.1953125 1.484375,0 2.2578125,-0.5859375 0.78125,-0.5859375 0.78125,-1.703125 Q 7.328125,-4.421875 6.6015625,-5 5.8828125,-5.5859375 4.59375,-5.5859375 H 3.234375 v -1.296875 H 4.65625 q 1.1640625,0 1.78125,-0.4609375 0.6171875,-0.46875 0.6171875,-1.34375 0,-0.8984375 -0.640625,-1.375 -0.6328125,-0.484375 -1.8203125,-0.484375 -0.6484375,0 -1.390625,0.140625 -0.7421875,0.140625 -1.6328125,0.4375 V -11.375 Q 2.46875,-11.625 3.25,-11.75 q 0.7890625,-0.125 1.484375,-0.125 1.796875,0 2.84375,0.820312 1.046875,0.8125 1.046875,2.2031255 0,0.96875 -0.5546875,1.640625 -0.5546875,0.6640625 -1.578125,0.921875 z"
     id="path899986" /><path
     d="m 16.757812,-7.40625 q -0.242187,-0.140625 -0.53125,-0.203125 -0.281249,-0.070312 -0.624999,-0.070312 -1.21875,0 -1.875,0.796875 -0.648438,0.7890625 -0.648438,2.2734375 V 0 h -1.445312 v -8.75 h 1.445312 v 1.359375 q 0.453125,-0.796875 1.179688,-1.1796875 0.726562,-0.390625 1.765624,-0.390625 0.148438,0 0.328125,0.023437 0.179688,0.015625 0.398438,0.054687 z"
     id="path899988" /><path
     d="m 23.742187,-7.421875 v -4.734375 h 1.4375 V 0 h -1.4375 v -1.3125 q -0.453125,0.78125 -1.148437,1.1640625 -0.6875,0.375 -1.65625,0.375 -1.585938,0 -2.585938,-1.265625 -0.992187,-1.265625 -0.992187,-3.328125 0,-2.0625 0.992187,-3.328125 1,-1.265625 2.585938,-1.265625 0.96875,0 1.65625,0.3828125 0.695312,0.375 1.148437,1.15625 z m -4.898437,3.0546875 q 0,1.5859375 0.648437,2.4921875 0.65625,0.8984375 1.796875,0.8984375 1.140625,0 1.796875,-0.8984375 0.65625,-0.90625 0.65625,-2.4921875 0,-1.5859375 -0.65625,-2.484375 -0.65625,-0.90625 -1.796875,-0.90625 -1.140625,0 -1.796875,0.90625 -0.648437,0.8984375 -0.648437,2.484375 z"
     id="path899990" /><path
     d="M 34.617187,-1.3125 V 3.328125 H 33.171875 V -8.75 h 1.445312 v 1.328125 q 0.453125,-0.78125 1.140625,-1.15625 0.695313,-0.3828125 1.65625,-0.3828125 1.59375,0 2.585938,1.265625 1,1.265625 1,3.328125 0,2.0625 -1,3.328125 -0.992188,1.265625 -2.585938,1.265625 -0.960937,0 -1.65625,-0.375 Q 35.070312,-0.53125 34.617187,-1.3125 Z m 4.890625,-3.0546875 q 0,-1.5859375 -0.65625,-2.484375 -0.648437,-0.90625 -1.789062,-0.90625 -1.140625,0 -1.796875,0.90625 -0.648438,0.8984375 -0.648438,2.484375 0,1.5859375 0.648438,2.4921875 0.65625,0.8984375 1.796875,0.8984375 1.140625,0 1.789062,-0.8984375 0.65625,-0.90625 0.65625,-2.4921875 z"
     id="path899992" /><path
     d="m 47.359375,-4.3984375 q -1.742188,0 -2.414063,0.3984375 -0.671875,0.3984375 -0.671875,1.359375 0,0.765625 0.5,1.21875 0.507813,0.4453125 1.375,0.4453125 1.195313,0 1.914063,-0.84375 0.726562,-0.8515625 0.726562,-2.2578125 v -0.3203125 z m 2.867187,-0.59375 V 0 h -1.4375 v -1.328125 q -0.492187,0.796875 -1.226562,1.1796875 -0.734375,0.375 -1.796875,0.375 -1.34375,0 -2.140625,-0.75 -0.789063,-0.7578125 -0.789063,-2.0234375 0,-1.4765625 0.984375,-2.2265625 0.992188,-0.75 2.953125,-0.75 h 2.015625 v -0.140625 q 0,-0.9921875 -0.65625,-1.53125 -0.648437,-0.546875 -1.828125,-0.546875 -0.75,0 -1.460937,0.1796875 -0.710938,0.1796875 -1.367188,0.5390625 v -1.328125 q 0.789063,-0.3046875 1.53125,-0.453125 0.742188,-0.15625 1.445313,-0.15625 1.898437,0 2.835937,0.984375 0.9375,0.984375 0.9375,2.984375 z"
     id="path899994" /><path
     d="m 58.257812,-7.40625 q -0.242187,-0.140625 -0.53125,-0.203125 -0.28125,-0.070312 -0.625,-0.070312 -1.21875,0 -1.875,0.796875 -0.648437,0.7890625 -0.648437,2.2734375 V 0 h -1.445313 v -8.75 h 1.445313 v 1.359375 q 0.453125,-0.796875 1.179687,-1.1796875 0.726563,-0.390625 1.765625,-0.390625 0.148438,0 0.328125,0.023437 0.179688,0.015625 0.398438,0.054687 z"
     id="path899996" /><path
     d="M 61.1875,-11.234375 V -8.75 h 2.960937 v 1.1171875 H 61.1875 v 4.75 q 0,1.0703125 0.289062,1.375 0.296875,0.3046875 1.195313,0.3046875 h 1.476562 V 0 H 62.671875 Q 61.007812,0 60.375,-0.6171875 q -0.632813,-0.625 -0.632813,-2.265625 v -4.75 H 58.6875 V -8.75 h 1.054687 v -2.484375 z"
     id="path899998" /><path
     d="m 66.039062,-8.75 h 1.4375 V 0 h -1.4375 z m 0,-3.40625 h 1.4375 v 1.820312 h -1.4375 z"
     id="path900000" /><path
     d="m 77.96875,-4.734375 v 0.703125 h -6.609375 q 0.09375,1.484375 0.890625,2.265625 0.804687,0.7734375 2.234375,0.7734375 0.828125,0 1.601562,-0.203125 0.78125,-0.203125 1.546875,-0.609375 v 1.359375 q -0.773437,0.328125 -1.585937,0.5 -0.8125,0.171875 -1.648438,0.171875 -2.09375,0 -3.320312,-1.21875 -1.21875,-1.21875 -1.21875,-3.296875 0,-2.1484375 1.15625,-3.40625 1.164062,-1.265625 3.132812,-1.265625 1.765625,0 2.789063,1.140625 1.03125,1.1328125 1.03125,3.0859375 z m -1.4375,-0.421875 q -0.01563,-1.1796875 -0.664063,-1.8828125 -0.640625,-0.703125 -1.703125,-0.703125 -1.203125,0 -1.929687,0.6796875 -0.71875,0.6796875 -0.828125,1.9140625 z"
     id="path900002" /><path
     d="m 85.90625,-8.4921875 v 1.359375 q -0.609375,-0.3125 -1.265625,-0.46875 -0.65625,-0.15625 -1.359375,-0.15625 -1.070313,0 -1.609375,0.328125 -0.53125,0.328125 -0.53125,0.984375 0,0.5 0.382812,0.7890625 0.382813,0.28125 1.539063,0.5390625 l 0.492187,0.109375 q 1.53125,0.328125 2.171875,0.9296875 0.648438,0.59375 0.648438,1.6640625 0,1.21875 -0.96875,1.9296875 -0.960938,0.7109375 -2.648438,0.7109375 -0.703125,0 -1.46875,-0.140625 -0.757812,-0.1328125 -1.601562,-0.40625 v -1.484375 q 0.796875,0.4140625 1.570312,0.625 0.773438,0.203125 1.53125,0.203125 1.015625,0 1.5625,-0.34375 0.546875,-0.3515625 0.546875,-0.984375 0,-0.5859375 -0.398437,-0.8984375 -0.390625,-0.3125 -1.726563,-0.6015625 l -0.5,-0.1171875 Q 80.9375,-4.203125 80.34375,-4.78125 79.75,-5.3671875 79.75,-6.3828125 q 0,-1.234375 0.875,-1.90625 0.875,-0.671875 2.484375,-0.671875 0.796875,0 1.5,0.1171875 0.703125,0.1171875 1.296875,0.3515625 z"
     id="path900004" /></g>
</g>
</svg>
